<svg width="59" height="56" fill="none" xmlns="http://www.w3.org/2000/svg"><path d="M45.185 47.738V12.81H1.905l-1.041.636v34.286a2.975 2.975 0 002.975 2.974h38.37a2.975 2.975 0 002.976-2.968z" fill="#F7F4F7"/><path d="M50.797 12.815H44.52v34.928a2.975 2.975 0 01-2.975 2.975h7.316a2.975 2.975 0 002.975-2.975V13.451l-1.04-.636z" fill="#EDEAED"/><path d="M45.166 5.135H3.839A2.975 2.975 0 00.864 8.11v5.341h44.302V5.135z" fill="#E07F84"/><path d="M51.839 13.451V8.11a2.976 2.976 0 00-2.975-2.975H44.52v8.316h7.318z" fill="#DB636E"/><path d="M9.663 9.225a2.68 2.68 0 01-2.679-2.679V3.724a2.68 2.68 0 115.359 0v2.819a2.679 2.679 0 01-2.68 2.682zm33.4 0a2.68 2.68 0 01-2.679-2.679V3.724a2.68 2.68 0 115.359 0v2.819a2.679 2.679 0 01-2.68 2.682z" fill="#756E78"/><path d="M44.984 19.812H7.717c-.644 0-1.166.522-1.166 1.165v21.65c0 .644.522 1.166 1.166 1.166h37.267c.644 0 1.166-.522 1.166-1.166v-21.65c0-.643-.522-1.165-1.166-1.165z" fill="#C9E0FD"/><circle cx="43.055" cy="40.023" r="15.082" fill="#EAC173"/><circle cx="43.053" cy="40.022" r="11.624" fill="#F7F4F7"/><path d="M43.055 28.397c-1.243 0-2.478.2-3.658.59a11.628 11.628 0 010 22.072 11.625 11.625 0 103.658-22.656v-.006z" fill="#EDEAED"/><circle cx="43.053" cy="40.022" r="1.879" fill="#E07F84"/><path fill-rule="evenodd" clip-rule="evenodd" d="M28.1 49.842H3.841a2.11 2.11 0 01-2.107-2.108V14.32H12.49a.867.867 0 100-1.735H1.736V8.111a2.11 2.11 0 012.107-2.108H6.12v.543a3.546 3.546 0 107.094 0v-.543h26.303v.543a3.547 3.547 0 007.093 0v-.543h2.252a2.11 2.11 0 012.108 2.108v4.473H16.54a.867.867 0 100 1.735h34.43v9.349a.867.867 0 101.734 0V8.11a3.847 3.847 0 00-3.842-3.842H46.61v-.543a3.546 3.546 0 10-7.093 0v.543H13.216v-.543a3.546 3.546 0 10-7.093 0v.543h-2.28A3.847 3.847 0 000 8.11v39.623a3.847 3.847 0 003.842 3.847H28.1a.867.867 0 100-1.735v-.004zM41.251 3.726a1.811 1.811 0 013.622 0v2.821a1.811 1.811 0 11-3.622 0V3.726zM9.669 1.915c-1 0-1.811.81-1.811 1.81v2.822a1.811 1.811 0 103.622 0V3.726c0-1-.81-1.811-1.811-1.811z" fill="#000"/><path fill-rule="evenodd" clip-rule="evenodd" d="M52.343 27.057a15.838 15.838 0 00-5.326-2.486v-3.59a2.035 2.035 0 00-2.033-2.033H7.721a2.036 2.036 0 00-2.033 2.033V42.63a2.035 2.035 0 002.033 2.034h20.067A15.95 15.95 0 1052.34 27.06l.002-.003zm-13.245-6.378h5.886c.165 0 .298.134.298.299v3.252a15.918 15.918 0 00-6.183.34v-3.891zm-1.732 0h-6.187v4.26h6.187v-4.26zm-6.187 5.994h3.157a16.069 16.069 0 00-3.157 2.714v-2.714zm-1.734-5.994H23.26v4.26h6.185v-4.26zm-6.185 5.994h6.185v4.26H23.26v-4.26zM7.72 42.93h5.887v-4.26H7.422v3.962c0 .164.134.298.299.298zm5.887-5.994H7.422v-4.26h6.185v4.26zM7.422 30.94h6.185v-4.26H7.422v4.26zm6.185-5.994H7.422V20.98a.3.3 0 01.299-.299h5.886v4.266zm1.734 17.983h6.185v-4.26H15.34v4.26zm6.185-5.994H15.34v-4.26h6.185v4.26zM15.34 30.94h6.185v-4.26H15.34v4.26zm6.185-5.994H15.34v-4.26h6.185v4.26zM23.26 38.67v4.26l4.11.001a16.124 16.124 0 01-.205-4.26H23.26zm4.148-1.734H23.26v-4.26h5.645a15.83 15.83 0 00-1.497 4.253v.007zm2.513 8.523a14.213 14.213 0 0013.133 8.773 14.122 14.122 0 0014.21-14.212 14.213 14.213 0 10-27.344 5.439z" fill="#000"/><path fill-rule="evenodd" clip-rule="evenodd" d="M30.561 40.021c0-6.898 5.593-12.49 12.491-12.49 6.899 0 12.491 5.592 12.491 12.49 0 6.898-5.592 12.49-12.49 12.49-6.9 0-12.492-5.592-12.492-12.49zm20.3 6.581l.382.383a10.711 10.711 0 002.53-6.096.867.867 0 110-1.735 10.71 10.71 0 00-2.53-6.096l-.383.383a.868.868 0 11-1.227-1.227l.383-.383a10.709 10.709 0 00-6.096-2.53.867.867 0 11-1.735 0 10.709 10.709 0 00-6.096 2.53l.382.383a.868.868 0 11-1.227 1.227l-.382-.383a10.71 10.71 0 00-2.53 6.096.867.867 0 110 1.735 10.709 10.709 0 002.53 6.096l.382-.383a.868.868 0 111.227 1.228l-.382.382a10.71 10.71 0 006.096 2.53.867.867 0 111.735 0 10.71 10.71 0 006.096-2.53l-.383-.382a.868.868 0 111.227-1.228z" fill="#000"/><path fill-rule="evenodd" clip-rule="evenodd" d="M43.92 33.358v4.057h.002a2.746 2.746 0 01-1.241 5.325l-.944 1.915a.868.868 0 01-1.557-.767l.944-1.916a2.743 2.743 0 011.062-4.557v-4.057a.867.867 0 111.735 0zm-1.878 6.662a1.011 1.011 0 102.023 0 1.011 1.011 0 00-2.023 0z" fill="#000"/></svg>