<svg width="68" height="58" fill="none" xmlns="http://www.w3.org/2000/svg"><path d="M42.478 47.398H37.16l-.548 2.192a2.725 2.725 0 01-5.286 0l-.548-2.192H25.46l-1.063 8.51h19.146l-1.065-8.51z" fill="#DBD9DC"/><path d="M35.741 50.988h7.186l-.45-3.59H37.16l-.548 2.192a2.713 2.713 0 01-.87 1.398zm-4.963-3.59H25.46l-.449 3.59h7.186a2.714 2.714 0 01-.871-1.398l-.548-2.192z" fill="#C9C6CA"/><path d="M63.752 47.797H4.187a3.191 3.191 0 01-3.192-3.191V4.183A3.191 3.191 0 014.187.992h59.565a3.191 3.191 0 013.192 3.191v40.423a3.191 3.191 0 01-3.192 3.19z" fill="#EDEBED"/><path fill="#E6646E" d="M5.25 5.249h57.438v38.292H5.25z"/><path d="M27.587 40.351c-10.574 0-19.146-8.572-19.147-19.145V5.25H5.25v38.292h57.44v-3.191H27.587z" fill="#DC4655"/><circle cx="27.587" cy="35.033" r="2.127" fill="#6F6571"/><circle cx="42.479" cy="35.033" r="2.127" fill="#6F6571"/><path d="M22.6 14.921l3.426 11.99a2.127 2.127 0 002.295 1.523l13.983-1.64a3.191 3.191 0 002.756-2.544l1.674-8.364-24.133-.965z" fill="#EF9AA1"/><path fill-rule="evenodd" clip-rule="evenodd" d="M4.187 0h59.565a4.191 4.191 0 014.187 4.187v40.421a4.191 4.191 0 01-4.187 4.187H43.6l.82 6.518h3.377a.997.997 0 010 1.993H20.135a.997.997 0 010-1.993h3.377l.82-6.518H4.187A4.191 4.191 0 010 44.605V4.188A4.191 4.191 0 014.187 0zm21.336 55.311h16.891l-.81-6.519h-3.662l-.36 1.438a3.72 3.72 0 01-7.216 0l-.36-1.438h-3.662l-.82 6.519zm6.53-6.516h3.832l-.234.954a1.73 1.73 0 01-3.356 0l-.242-.954zm31.7-1.993a2.198 2.198 0 002.195-2.196V4.186a2.198 2.198 0 00-2.196-2.195H4.19a2.198 2.198 0 00-2.196 2.196v40.419a2.198 2.198 0 002.194 2.196h59.565z" fill="#000"/><path d="M7.378 42.547H6.245V6.245h50.063a.997.997 0 000-1.993H5.25a.995.995 0 00-.995.996V43.54c0 .55.445.995.995.995h2.128a.997.997 0 000-1.993v.005zM62.689 4.255h-2.128a.997.997 0 100 1.993h1.133v36.301H11.632a.997.997 0 100 1.993h51.056c.55 0 .995-.445.995-.995V5.25a.995.995 0 00-.994-.995z" fill="#000"/><path fill-rule="evenodd" clip-rule="evenodd" d="M27.287 29.347a3.126 3.126 0 001.15.077l13.983-1.641a4.176 4.176 0 003.616-3.337l1.673-8.364a.995.995 0 00-.93-1.189L23.377 13.83h-.055a2.062 2.062 0 00-.828-1.114l-2.865-1.911a.995.995 0 10-1.105 1.657l2.866 1.91a.072.072 0 01.028.038l3.65 12.78c.11.386.294.748.541 1.065l-1.335 2.671a2.046 2.046 0 00.09 2.004c.134.217.308.407.511.561a3.122 3.122 0 105.62.415h9.07a3.122 3.122 0 105.704-.258.994.994 0 00-.667-1.731H26.114a.068.068 0 01-.06-.1l1.233-2.47zm.918-1.9a1.127 1.127 0 01-1.22-.813l-1.268-4.438h3.18l.837 5.07-1.53.181zm7.823-5.252v4.332l3.05-.361.36-3.971h-3.41zm0-1.988v-3.814l3.919.178-.33 3.634-3.589.002zm-5.442 0h3.45l.003-3.905-4.127-.187.674 4.092zm3.45 1.993v.002h-3.124l.797 4.839 2.326-.274v-4.565h.001V22.2zm7.06 3.733l1.09-.128h.002a2.19 2.19 0 001.895-1.75l.37-1.857h-3.02l-.337 3.735zm3.756-5.724h-3.238l.32-3.546 3.594.163-.676 3.383zm-16.286 0l-.69-4.184-3.978-.181 1.248 4.365h3.42zm.151 14.823a1.133 1.133 0 11-2.27-.003 1.133 1.133 0 012.273.004l-.003-.001zm12.627 0c0 .625.507 1.132 1.133 1.132h.002a1.134 1.134 0 00-.002-2.265c-.626 0-1.133.507-1.133 1.133z" fill="#000"/></svg>