<svg width="59" height="59" fill="none" xmlns="http://www.w3.org/2000/svg"><path d="M41.574 50.286L46.897 7.12a2.076 2.076 0 00-.9-1.974.75.75 0 00-.338-.118L8.449.876a2.067 2.067 0 00-2.275 1.802L.88 45.565a2.067 2.067 0 001.823 2.308l37.536 4.183a2.279 2.279 0 001.335-1.77z" fill="#EABC6B"/><path d="M52.128 5.743l-6.522-.726a2.08 2.08 0 011.111 2.102l-5.323 43.167a2.081 2.081 0 01-1.46 1.736l6.446.718a2.067 2.067 0 002.28-1.801L53.95 8.05a2.069 2.069 0 00-1.824-2.308h.002z" fill="#E8AE4D"/><path d="M47.51 48.944c0-1.014.822-1.836 1.836-1.836h1.78V12.564a2.067 2.067 0 00-2.066-2.068H12.087a2.067 2.067 0 00-2.068 2.068v43.178c0 1.142.926 2.068 2.068 2.068h34.301c.29 0 .578-.062.843-.18a.478.478 0 00.28-.439v-8.247z" fill="#F4E066"/><path d="M50.807 12.564v34.355h7.142c.122-.268.185-.56.185-.856v-33.5a2.067 2.067 0 00-2.068-2.067H48.74c1.142 0 2.067.926 2.067 2.068z" fill="#EFD133"/><path d="M47.245 57.622c.65-.296.215-.093 10.285-10.096a2.05 2.05 0 00.417-.605h-8.866a1.836 1.836 0 00-1.836 1.836v8.866z" fill="#E8AE4D"/><circle cx="34.077" cy="17.811" r="2.7" fill="#F7F4F7"/><path d="M51.55 25.007H16.605a.868.868 0 000 1.736h34.942a.868.868 0 000-1.736h.001zm0 5.887H16.605a.868.868 0 100 1.736h34.942a.868.868 0 100-1.736h.001zm.867 6.754a.868.868 0 00-.868-.867H16.606a.868.868 0 100 1.736h34.942a.867.867 0 00.869-.869zm-35.811 5.02a.868.868 0 000 1.736h17.472a.868.868 0 000-1.736H16.606z" fill="#000"/><path fill-rule="evenodd" clip-rule="evenodd" d="M59 15.786a.867.867 0 11-1.735 0v-3.22a1.2 1.2 0 00-1.2-1.2H12.091c-.662 0-1.199.538-1.2 1.2V55.74a1.202 1.202 0 001.2 1.2h34.283v-8.186a2.707 2.707 0 012.706-2.703h8.184V19.843a.868.868 0 011.736 0V46.06a2.963 2.963 0 01-.861 2.077l-9.677 9.676a2.964 2.964 0 01-2.075.86H12.09a2.938 2.938 0 01-2.935-2.934v-6.277l-6.545-.729a2.933 2.933 0 01-2.589-3.277l.781-6.365a.868.868 0 011.723.213l-.784 6.365a1.199 1.199 0 001.062 1.339l6.352.708v-35.15a2.938 2.938 0 012.934-2.934h40.793l.207-1.683a1.2 1.2 0 00-1.062-1.34L8.358 1.743a1.204 1.204 0 00-1.324 1.046L3.02 35.278a.868.868 0 11-1.723-.213L5.31 2.575A2.95 2.95 0 018.549.017l43.673 4.867a2.933 2.933 0 012.594 3.276l-.182 1.47h1.43A2.938 2.938 0 0159 12.566v3.22zm-9.92 31.995a.969.969 0 00-.968.969l.005 6.957 7.926-7.926H49.08z" fill="#000"/><path fill-rule="evenodd" clip-rule="evenodd" d="M34.078 14.246a3.567 3.567 0 110 7.135 3.567 3.567 0 010-7.135zm-.702 1.874a1.833 1.833 0 101.404 3.385 1.833 1.833 0 00-1.404-3.385z" fill="#000"/></svg>