<svg width="58" height="58" fill="none" xmlns="http://www.w3.org/2000/svg"><path d="M36.758 10.547a2.136 2.136 0 01-2.13-2.135V1.31l-.289-.325a1.923 1.923 0 00-.694-.138H3.527a2.68 2.68 0 00-2.68 2.68V54.21c0 1.48 1.2 2.681 2.68 2.681h8.932l1.33-1.372h24.057v-44.97h-1.088z" fill="#F7F4F7"/><path d="M37.276 10.815v43.288a2.847 2.847 0 01-2.68 2.788h7.133a2.847 2.847 0 002.68-2.788V11.925a2.68 2.68 0 00-.24-1.11h-6.893z" fill="#EDEAED"/><path d="M34.336.985c.292.132.558.315.785.541l8.504 8.504c.226.228.41.494.542.786H36.47a2.136 2.136 0 01-2.135-2.136V.985z" fill="#C1BCC4"/><path d="M50.425 53.466V27.32A3.425 3.425 0 0047 23.895H12.46a3.426 3.426 0 00-3.426 3.425v26.146a3.426 3.426 0 003.425 3.425H47a3.425 3.425 0 003.426-3.425z" fill="#C1A0A0"/><path d="M53.566 23.9h-7.133a3.425 3.425 0 013.431 3.425V53.47a3.426 3.426 0 01-3.425 3.426h7.127a3.426 3.426 0 003.426-3.426V27.325a3.425 3.425 0 00-3.426-3.425z" fill="#B58C8C"/><path d="M50.425 27.325A3.425 3.425 0 0047 23.9H12.46a3.425 3.425 0 00-3.426 3.425c0 2.177.896 4.258 2.478 5.753l2 1.893a10.487 10.487 0 007.206 2.868H45.31c1.79 0 3.551-.459 5.114-1.332v-9.182h.001z" fill="#B58C8C"/><path d="M53.566 23.9h-7.133a3.425 3.425 0 013.431 3.425V36.8c2.167-1.041 3.079-2.329 4.657-3.722a7.919 7.919 0 002.478-5.753 3.425 3.425 0 00-3.433-3.425z" fill="#A87F7F"/><path d="M21.34 33.181h1.723a2.082 2.082 0 012.083 2.083v6.41c0 1.15-.933 2.083-2.083 2.083h-1.722a2.082 2.082 0 01-2.083-2.082v-6.411c0-1.15.933-2.083 2.083-2.083z" fill="#E8AE4D"/><path d="M23.063 33.181h-1.722c-1.15 0-2.083.933-2.083 2.083v4.306h5.878v-4.306a2.082 2.082 0 00-2.073-2.083z" fill="#EFC984"/><path d="M42.967 33.181h1.723a2.082 2.082 0 012.082 2.083v6.41c0 1.15-.932 2.083-2.082 2.083h-1.723a2.082 2.082 0 01-2.082-2.082v-6.411c0-1.15.932-2.083 2.082-2.083z" fill="#E8AE4D"/><path d="M44.69 33.181h-1.723c-1.15 0-2.082.933-2.082 2.083v4.306h5.878v-4.306a2.082 2.082 0 00-2.073-2.083z" fill="#EFC984"/><path fill-rule="evenodd" clip-rule="evenodd" d="M53.569 23.053h-41.11a4.28 4.28 0 00-4.272 4.272V53.47a4.28 4.28 0 004.272 4.273h41.11a4.28 4.28 0 004.272-4.273V27.325a4.28 4.28 0 00-4.273-4.272zm2.58 30.408a2.581 2.581 0 01-2.58 2.579H12.46a2.581 2.581 0 01-2.578-2.579V32.5c.312.428.663.826 1.048 1.19.207.196.41.39.611.584 1.914 1.834 3.679 3.526 6.875 4.179v3.213a2.928 2.928 0 002.926 2.925h1.722a2.928 2.928 0 002.926-2.925V38.68h14.05v2.984a2.928 2.928 0 002.926 2.925h1.723a2.928 2.928 0 002.925-2.925v-3.221c3.175-.659 4.778-2.183 6.99-4.285l.496-.471a8.688 8.688 0 001.049-1.19l-.002 20.963zM20.11 37.743v3.918l-.001.01a1.232 1.232 0 001.23 1.228h1.723c.68 0 1.23-.551 1.231-1.23v-6.412c0-.68-.551-1.23-1.23-1.231H21.34a1.232 1.232 0 00-1.23 1.224v2.492zm21.625.083v-2.575a1.232 1.232 0 011.231-1.225h1.723c.68 0 1.23.551 1.23 1.23v6.418c0 .68-.55 1.23-1.23 1.23h-1.723c-.68 0-1.23-.55-1.23-1.23v-3.848zm11.162-4.399c.334-.32.677-.648 1.045-.98v.01a7.1 7.1 0 002.204-5.14 2.581 2.581 0 00-2.578-2.579h-41.11a2.581 2.581 0 00-2.578 2.58 7.102 7.102 0 002.178 5.104c.253.194.547.487.894.834 1.122 1.12 2.801 2.798 5.462 3.455v-1.46a2.928 2.928 0 012.926-2.926h1.722a2.928 2.928 0 012.926 2.926v1.735H40.04v-1.735a2.928 2.928 0 012.926-2.926h1.723a2.928 2.928 0 012.925 2.926v1.453c2.5-.615 3.805-1.862 5.283-3.277z" fill="#000"/><path fill-rule="evenodd" clip-rule="evenodd" d="M3.528 56.044h2.856a.847.847 0 010 1.695H3.528A3.532 3.532 0 010 54.211V3.529A3.532 3.532 0 013.528 0h30.11c.79.016 1.54.35 2.083.926l8.504 8.503a3.53 3.53 0 011.033 2.495v7.972a.847.847 0 11-1.695 0v-7.972a1.78 1.78 0 00-.019-.263h-7.07A2.986 2.986 0 0133.49 8.68V1.695H3.528a1.836 1.836 0 00-1.833 1.834V54.21a1.836 1.836 0 001.833 1.833zM42.364 9.968l-7.18-7.182V8.68a1.29 1.29 0 001.287 1.288h5.893z" fill="#000"/><path d="M18.64 7.17H6.13a.847.847 0 110-1.694h12.51a.847.847 0 010 1.694zm0 5.07H6.13a.847.847 0 110-1.694h12.51a.847.847 0 010 1.695z" fill="#000"/></svg>