<svg width="57" height="57" fill="none" xmlns="http://www.w3.org/2000/svg"><path d="M54.677 25.715h-9.744c-.52 0-.968-.36-1.08-.867a15.674 15.674 0 00-3.847-7.274 14.135 14.135 0 00-.736-.74 15.857 15.857 0 00-7.262-3.916 1.107 1.107 0 01-.858-1.078V2.082A1.11 1.11 0 0132.422.985a27.511 27.511 0 0123.354 23.467 1.11 1.11 0 01-1.097 1.265l-.001-.002z" fill="#98D5B9"/><path d="M25.854 2.079v9.752c0 .516-.357.964-.861 1.079a15.678 15.678 0 00-7.133 3.767c-.355.324-.695.665-1.021 1.02a15.688 15.688 0 00-3.693 7.149 1.107 1.107 0 01-1.08.869H2.32a1.11 1.11 0 01-1.097-1.266A27.519 27.519 0 0124.578.982a1.11 1.11 0 011.27 1.097h.006z" fill="#FD9468"/><path d="M55.774 32.28a27.52 27.52 0 01-23.353 23.467 1.11 1.11 0 01-1.27-1.097v-9.758c0-.515.356-.962.857-1.078a15.856 15.856 0 007.998-4.656 15.674 15.674 0 003.847-7.274 1.106 1.106 0 011.08-.867h9.744a1.11 1.11 0 011.097 1.263z" fill="#FE646F"/><path d="M25.854 44.9v9.751a1.11 1.11 0 01-1.27 1.097A27.51 27.51 0 011.223 32.28a1.11 1.11 0 011.097-1.265h9.74c.52 0 .97.361 1.082.869a15.688 15.688 0 003.7 7.148 14.9 14.9 0 001.021 1.021 15.679 15.679 0 007.128 3.761c.506.115.864.566.862 1.085z" fill="#FEE45A"/><path d="M54.42 37.8a27.607 27.607 0 01-16.47 16.558 6.34 6.34 0 01-.168-1.452v-8.942c0-1.49.527-2.93 1.49-4.067a6.294 6.294 0 014.828-2.249h8.94c.464 0 .926.05 1.378.152z" fill="#FD4755"/><path d="M53.04 55.9H44.1a2.993 2.993 0 01-2.993-2.994v-8.94a2.993 2.993 0 012.993-2.994h8.94a2.993 2.993 0 012.994 2.993v8.941A2.993 2.993 0 0153.04 55.9z" fill="#918291"/><circle cx="48.57" cy="47.579" r="3.614" fill="#FFCEBF"/><path d="M44.1 55.9h8.94c.278 0 .554-.039.821-.114a5.344 5.344 0 00-10.583 0c.268.075.544.114.822.113z" fill="#8AC9FE"/><path d="M19.217 43.964v8.942c0 .489-.056.976-.168 1.452A27.607 27.607 0 012.58 37.8a6.292 6.292 0 011.378-.152H12.9a6.324 6.324 0 016.317 6.316h-.001z" fill="#FEDF30"/><path d="M12.9 55.9H3.957a2.993 2.993 0 01-2.993-2.996v-8.941a2.993 2.993 0 012.993-2.993H12.9a2.993 2.993 0 012.993 2.993v8.94A2.994 2.994 0 0112.9 55.9z" fill="#918291"/><circle cx="8.429" cy="47.579" r="3.614" fill="#FFCEBF"/><path d="M3.958 55.9H12.9c.278 0 .554-.039.82-.114a5.344 5.344 0 00-10.582 0c.267.075.543.114.82.113h.001z" fill="#8AC9FE"/><path d="M54.42 18.929a6.285 6.285 0 01-1.38.152H44.1a6.294 6.294 0 01-4.828-2.249 6.29 6.29 0 01-1.489-4.068V3.823c0-.49.057-.977.168-1.453A27.608 27.608 0 0154.42 18.93z" fill="#57BE92"/><path d="M53.04 15.758H44.1a2.993 2.993 0 01-2.993-2.993V3.823A2.993 2.993 0 0144.1.83h8.94a2.993 2.993 0 012.994 2.993v8.94a2.993 2.993 0 01-2.993 2.994z" fill="#918291"/><circle cx="48.57" cy="7.437" r="3.614" fill="#FFCEBF"/><path d="M44.1 15.758h8.94c.278 0 .554-.038.821-.114a5.344 5.344 0 00-10.583 0c.268.076.544.114.822.114z" fill="#8AC9FE"/><path d="M19.217 3.823v8.942A6.327 6.327 0 0112.9 19.08H3.958c-.463 0-.926-.05-1.378-.152A27.607 27.607 0 0119.048 2.37c.111.476.168.964.167 1.453h.002z" fill="#FE7D43"/><path d="M12.9 15.758H3.957a2.993 2.993 0 01-2.993-2.993V3.823A2.993 2.993 0 013.958.83H12.9a2.993 2.993 0 012.997 2.993v8.94a2.993 2.993 0 01-2.997 2.994z" fill="#918291"/><circle cx="8.429" cy="7.437" r="3.614" fill="#FFCEBF"/><path d="M3.958 15.758H12.9c.278 0 .554-.038.82-.114a5.344 5.344 0 00-10.582 0c.267.076.543.114.82.114h.001z" fill="#8AC9FE"/><path fill-rule="evenodd" clip-rule="evenodd" d="M2.725 16.383a28.128 28.128 0 00-2.326 7.966 1.958 1.958 0 001.923 2.201h9.742c.91.003 1.7-.63 1.893-1.52a14.96 14.96 0 0111.219-11.306 1.929 1.929 0 001.505-1.889V2.08A1.958 1.958 0 0024.474.158a28.11 28.11 0 00-7.976 2.374A3.83 3.83 0 0012.9 0H3.96A3.828 3.828 0 00.134 3.824v8.94a3.83 3.83 0 002.59 3.619zm18.132 7.016a3.767 3.767 0 003.526 3.961 3.767 3.767 0 003.525-3.96 3.767 3.767 0 00-3.526-3.962 3.767 3.767 0 00-3.525 3.961zm4.37 12.84a.83.83 0 001.089-.445l6.096-14.523a.831.831 0 10-1.533-.644L24.783 35.15a.832.832 0 00.445 1.089zm-.845-10.54a2.118 2.118 0 001.864-2.3 2.118 2.118 0 00-1.863-2.295 2.118 2.118 0 00-1.863 2.295 2.118 2.118 0 001.863 2.3zm-7.66-21.432v8.497h.002a3.845 3.845 0 01-3.824 3.824H4.467a26.473 26.473 0 00-2.422 7.987.259.259 0 00.276.308h9.742c.13 0 .242-.09.269-.216a16.629 16.629 0 0112.473-12.568.274.274 0 00.214-.268V2.079a.277.277 0 00-.31-.276 26.456 26.456 0 00-7.986 2.464zM8.43 11.883a4.539 4.539 0 014.267 3.044H4.343a.823.823 0 00-.16-.056 4.539 4.539 0 014.246-2.988zM7.366 4.866a2.783 2.783 0 102.13 5.143 2.783 2.783 0 00-2.13-5.143zm-5.57-1.042a2.164 2.164 0 012.162-2.162H12.9a2.164 2.164 0 012.166 2.162v8.94c0 .643-.285 1.252-.78 1.662a6.221 6.221 0 00-3.066-3.534 4.445 4.445 0 10-5.58 0 6.22 6.22 0 00-3.063 3.531 2.156 2.156 0 01-.78-1.66v-8.94zm12.002 27.058A14.94 14.94 0 0025.17 43.01h.003c.883.198 1.51.984 1.506 1.889v9.753a1.938 1.938 0 01-2.206 1.921 28.125 28.125 0 01-7.976-2.374 4.014 4.014 0 01-3.598 2.532H3.96a3.822 3.822 0 01-3.824-3.825v-8.94a3.828 3.828 0 013.823-3.824H12.9a3.828 3.828 0 013.824 3.823v8.498a26.464 26.464 0 007.984 2.464.256.256 0 00.31-.276v-9.752a.275.275 0 00-.215-.269 16.606 16.606 0 01-12.518-12.78H2.01a26.56 26.56 0 001.482 6.013.833.833 0 11-1.561.584 28.236 28.236 0 01-1.678-7.354.83.83 0 01.827-.908h11.897a.83.83 0 01.82.698zM4.16 55.067a4.514 4.514 0 018.535 0H4.161zm4.27-10.271a2.783 2.783 0 00-2.784 2.783h.003a2.785 2.785 0 002.78 2.783 2.783 2.783 0 000-5.566zm6.634 8.11c0 .642-.285 1.251-.78 1.661a6.22 6.22 0 00-3.063-3.53 4.445 4.445 0 10-5.58 0 6.22 6.22 0 00-3.063 3.53 2.156 2.156 0 01-.779-1.661v-8.94a2.165 2.165 0 012.161-2.162h8.94c1.195 0 2.164.967 2.165 2.161v8.941h-.002zM56.6 32.381a28.104 28.104 0 01-2.326 7.966l-.001.001a3.83 3.83 0 012.59 3.618v8.941a3.845 3.845 0 01-3.823 3.824H44.1a3.85 3.85 0 01-3.6-2.536 28.126 28.126 0 01-7.977 2.373 1.938 1.938 0 01-2.205-1.92V44.89a1.929 1.929 0 011.498-1.888 15.04 15.04 0 0011.226-11.304 1.929 1.929 0 011.892-1.517h9.744a1.938 1.938 0 011.923 2.2zM40.276 43.965v8.498a26.469 26.469 0 01-7.985 2.464.264.264 0 01-.213-.064.278.278 0 01-.097-.212v-9.758c0-.129.089-.24.215-.269a16.71 16.71 0 0012.469-12.562.275.275 0 01.269-.216h9.744a.278.278 0 01.276.309 26.451 26.451 0 01-2.42 7.987H44.1a3.828 3.828 0 00-3.824 3.823zm8.295 8.059a4.512 4.512 0 00-4.267 3.043h8.533a4.512 4.512 0 00-4.266-3.043zm-2.783-4.445a2.783 2.783 0 115.569 0 2.783 2.783 0 01-5.57 0h.001zm8.638 6.988c.494-.41.78-1.019.78-1.661l-.002-.006v-8.94a2.164 2.164 0 00-2.22-2.156h-8.882a2.165 2.165 0 00-2.161 2.161v8.941c0 .642.285 1.251.78 1.661a6.22 6.22 0 013.063-3.53 4.445 4.445 0 115.578 0 6.22 6.22 0 013.064 3.53zM53.041 0H44.1a3.83 3.83 0 00-3.6 2.531A28.126 28.126 0 0032.526.158a1.956 1.956 0 00-2.206 1.92v9.758a1.929 1.929 0 001.498 1.893A15.04 15.04 0 0143.041 25.03a1.93 1.93 0 001.892 1.519h9.744a1.962 1.962 0 001.922-2.197 28.252 28.252 0 00-1.398-5.7.832.832 0 00-1.565.567 26.596 26.596 0 011.316 5.364.257.257 0 01-.276.308h-9.743a.275.275 0 01-.27-.216 16.71 16.71 0 00-12.466-12.568.276.276 0 01-.215-.27V2.082a.259.259 0 01.31-.276 26.467 26.467 0 017.983 2.461v8.498a3.847 3.847 0 003.824 3.824h8.94a3.885 3.885 0 003.824-3.824v-8.94A3.828 3.828 0 0053.041 0zm-4.47 11.883a4.512 4.512 0 00-4.267 3.044h8.533a4.512 4.512 0 00-4.266-3.044zM45.788 7.44a2.783 2.783 0 115.569 0 2.783 2.783 0 01-5.57-.002l.001.002zm8.638 6.988c.494-.41.78-1.02.78-1.661l-.004-.002v-8.94a2.164 2.164 0 00-2.161-2.162H44.1a2.165 2.165 0 00-2.16 2.162v8.942c0 .642.286 1.25.78 1.66a6.22 6.22 0 013.064-3.53 4.445 4.445 0 115.578 0c1.442.734 2.54 2 3.064 3.53zM36.144 33.332a3.767 3.767 0 00-3.525-3.961 3.767 3.767 0 00-3.526 3.96 3.767 3.767 0 003.526 3.961 3.767 3.767 0 003.523-3.96h.002zm-3.525-2.3a2.118 2.118 0 00-1.863 2.3h-.003a2.118 2.118 0 001.863 2.295 2.118 2.118 0 001.866-2.295 2.118 2.118 0 00-1.863-2.3z" fill="#000"/></svg>