<svg width="59" height="56" fill="none" xmlns="http://www.w3.org/2000/svg"><path d="M56.27 54.684H2.729A1.864 1.864 0 01.864 52.82V8.254h57.271V52.82c0 1.03-.835 1.864-1.864 1.864z" fill="#EAF6FF"/><path d="M58.136 8.254V52.82a1.865 1.865 0 01-1.865 1.864h-2.306a1.865 1.865 0 001.865-1.864V8.254h2.306z" fill="#D8ECFE"/><path d="M58.135 8.252H.864V2.908c0-1.03.834-1.864 1.864-1.864h53.543c1.03 0 1.864.834 1.864 1.864v5.344z" fill="#FD9468"/><path d="M58.136 2.908v5.346H55.83V2.908c0-1.03-.835-1.864-1.865-1.864h2.306c1.03 0 1.865.834 1.865 1.864z" fill="#FE7D43"/><path d="M52.744 15.882H18.7a.972.972 0 01-.973-.972v-2.178a.972.972 0 01.973-.973h34.043c.537 0 .972.436.972.973v2.178a.972.972 0 01-.972.972z" fill="#8D9CA8"/><path d="M53.714 12.732v2.178a.97.97 0 01-.973.972h-2.306a.971.971 0 00.973-.972v-2.178a.971.971 0 00-.973-.973h2.306a.971.971 0 01.973.973z" fill="#7A8C98"/><path d="M51.304 38.904H20.14a.67.67 0 01-.669-.669V15.881H51.97v22.353a.67.67 0 01-.666.67z" fill="#F0F5F7"/><path d="M51.973 15.881v22.354a.669.669 0 01-.67.67h-2.306a.67.67 0 00.67-.67V15.881h2.306z" fill="#DDE4E8"/><path d="M40.197 27.97a7.466 7.466 0 11-7.82-7.82.346.346 0 01.362.347v6.765c0 .191.155.346.346.346h6.765a.347.347 0 01.346.362z" fill="#5DE1C4"/><path d="M40.197 27.976a7.467 7.467 0 01-7.81 7.095 7.375 7.375 0 01-3.726-1.213 7.467 7.467 0 009.37-6.245h1.821a.347.347 0 01.345.363z" fill="#0ED2B3"/><path d="M40.95 24.552a5.209 5.209 0 00-4.828-4.828.346.346 0 00-.367.346v4.503c0 .19.155.346.346.346h4.503a.345.345 0 00.346-.367z" fill="#FD9468"/><path d="M40.95 24.552a.346.346 0 01-.346.367h-1.867a.368.368 0 00.008-.102 5.208 5.208 0 00-2.99-4.352v-.395a.346.346 0 01.368-.346 5.209 5.209 0 014.828 4.828z" fill="#FE7D43"/><path d="M21.232 30.256v13.472a5.074 5.074 0 01-5.074 5.074h-5.795a5.074 5.074 0 01-5.074-5.074V30.256l7.973-6.063 7.97 6.063z" fill="#C86D36"/><path d="M21.232 30.256v13.468a5.074 5.074 0 01-5.074 5.074h-2.306a5.074 5.074 0 005.074-5.074V28.502l2.306 1.754z" fill="#AC5E2E"/><path d="M21.094 54.684H5.424v-4.373a7.835 7.835 0 0115.67 0v4.373z" fill="#C2A1D5"/><path d="M21.093 50.311v4.372h-2.458v-4.372a7.84 7.84 0 00-6.608-7.74 7.838 7.838 0 019.063 7.74h.003z" fill="#B289C9"/><path d="M13.26 45.02a1.818 1.818 0 01-1.82-1.82v-3.29h3.638v3.29a1.818 1.818 0 01-1.818 1.82z" fill="#FFA78F"/><path d="M13.258 41.265a7.497 7.497 0 01-7.496-7.496v-7.497h14.993v7.497a7.497 7.497 0 01-7.496 7.496z" fill="#FFCEBF"/><path d="M20.755 26.272v7.497a7.502 7.502 0 01-8.411 7.442 7.498 7.498 0 006.582-7.442v-7.497h1.829z" fill="#FFB09E"/><path d="M13.72 21.43h-.923a7.512 7.512 0 00-7.512 7.511v2.55c5.683-.826 7.046-2.448 7.973-4.865.928 2.417 2.29 4.038 7.974 4.865v-2.55a7.512 7.512 0 00-7.512-7.512z" fill="#D77F4A"/><path d="M21.232 28.941v2.55a26.103 26.103 0 01-2.306-.432v-2.118a7.51 7.51 0 00-6.823-7.48c.228-.022.46-.032.694-.031h.924a7.51 7.51 0 017.51 7.511z" fill="#C86D36"/><circle cx="5.247" cy="4.651" r="1.153" transform="rotate(-67.486 5.247 4.65)" fill="#000"/><circle cx="9.31" cy="4.649" r="1.153" fill="#000"/><circle cx="13.375" cy="4.649" r="1.153" fill="#000"/><path fill-rule="evenodd" clip-rule="evenodd" d="M32.734 35.939a8.01 8.01 0 01-.388-.01l.001-.003a8.33 8.33 0 01-.011-16.638 1.21 1.21 0 011.268 1.21v6.246h6.246a1.21 1.21 0 011.21 1.269 8.345 8.345 0 01-8.326 7.926zm-.86-8.678v-6.2a6.602 6.602 0 107.41 7.41h-6.2a1.212 1.212 0 01-1.21-1.21z" fill="#000"/><path fill-rule="evenodd" clip-rule="evenodd" d="M40.598 25.784h-4.503a1.212 1.212 0 01-1.21-1.211v-4.502a1.21 1.21 0 011.291-1.208 6.092 6.092 0 015.63 5.63 1.21 1.21 0 01-1.208 1.29zm-.593-1.73a4.366 4.366 0 00-3.392-3.392v3.393h3.392z" fill="#000"/><path d="M41.48 32.466c0 .477.387.864.864.864h5.368a.864.864 0 000-1.729H42.35a.864.864 0 00-.87.865zm6.232 1.744h-5.368a.864.864 0 000 1.729h5.368a.864.864 0 000-1.729z" fill="#000"/><path fill-rule="evenodd" clip-rule="evenodd" d="M56.27.18H2.73A2.732 2.732 0 000 2.91v49.913a2.732 2.732 0 002.73 2.73h53.54A2.731 2.731 0 0059 52.819V2.905a2.732 2.732 0 00-2.73-2.73V.18zM20.368 43.722c0 .44-.07.879-.208 1.298a8.733 8.733 0 00-4.217-2.987v-.354a8.406 8.406 0 004.426-3.524v5.561l-.001.006zM6.625 33.766a6.64 6.64 0 006.632 6.633l.003.004a6.64 6.64 0 006.632-6.633v-1.624c-3.774-.702-5.554-1.851-6.633-3.558a6.198 6.198 0 01-1.71 1.776 12.626 12.626 0 01-4.924 1.781v1.621zm7.587 8.306V43.2a.955.955 0 01-1.91 0v-1.127a8.27 8.27 0 001.91 0zm-3.638-.033v-.351a8.406 8.406 0 01-4.426-3.525v5.559c0 .44.07.879.206 1.298a8.614 8.614 0 014.22-2.98zm9.794-11.564c-4.672-.836-5.575-2.266-6.302-4.16a.864.864 0 00-1.615 0c-.726 1.889-1.63 3.325-6.302 4.16v-1.534a6.655 6.655 0 016.648-6.648h.923a6.655 6.655 0 016.648 6.648v1.534zm-.034-13.728v7.063a8.332 8.332 0 011.762 5.131v9.1h29.013V16.746H20.334zm36.934 36.07c0 .553-.449 1-1 1.001h-34.31v-3.507a8.642 8.642 0 00-.734-3.493 5.9 5.9 0 00.872-3.094V39.77h29.208c.847 0 1.534-.687 1.534-1.534V16.741a1.837 1.837 0 001.742-1.831v-2.175a1.838 1.838 0 00-1.834-1.84H28.039a.864.864 0 100 1.728h24.707c.06 0 .107.048.107.107v2.179c0 .06-.048.107-.107.107H18.701a.107.107 0 01-.108-.107v-2.174c0-.06.048-.107.108-.107h5.343a.864.864 0 100-1.729H18.7a1.838 1.838 0 00-1.836 1.836v2.179c.001.976.766 1.78 1.741 1.83v5.404a8.329 8.329 0 00-4.885-1.579h-.923a8.386 8.386 0 00-8.378 8.378v14.777a5.9 5.9 0 00.872 3.093 8.593 8.593 0 00-.52 1.573.864.864 0 001.686.38 6.992 6.992 0 014.195-4.928 2.683 2.683 0 005.209 0 6.979 6.979 0 014.366 6.463v3.508H6.288v-1.182a.864.864 0 10-1.728 0v1.188H2.73c-.553 0-1-.448-1.001-1V9.117H57.27l-.003 43.7zM1.728 7.388h55.54l.003-4.484a1 1 0 00-1-1H2.729a1 1 0 00-1 1v4.484z" fill="#000"/><path d="M10.583 31.933a.864.864 0 00-.863.863v1.472a.864.864 0 001.728 0v-1.472a.864.864 0 00-.865-.863zm5.348 0a.864.864 0 00-.864.863v1.472a.864.864 0 001.73 0v-1.472a.864.864 0 00-.866-.863zm-.488 18.329h1.795a.864.864 0 000-1.73h-1.795a.864.864 0 000 1.73z" fill="#000"/></svg>