<svg width="79" height="78" fill="none" xmlns="http://www.w3.org/2000/svg"><path d="M17.84 26H3.156C2.517 26 2 25.439 2 24.746v-3.52C2 16.132 5.805 12 10.498 12c2.255 0 4.417.97 6.012 2.701 1.594 1.73 2.49 4.078 2.49 6.526v3.52c0 .333-.123.652-.34.887a1.112 1.112 0 01-.82.366z" fill="#C3DA40"/><path d="M27.002 54.815a7.502 7.502 0 01-3.263-3.803c-2.903-1.242-4.77-4.085-4.738-7.213-.063-4.237 3.353-7.725 7.636-7.799h9.725C40.62 36.133 44 39.585 44 43.798s-3.38 7.665-7.638 7.798h-7.536a7.412 7.412 0 00.077 1.992l.35 2.031a.323.323 0 01-.145.328.331.331 0 01-.361-.001l-1.745-1.131z" fill="#FF62A7"/><path d="M44 44.694c.06-4.18-3.283-7.621-7.475-7.694h-9.509c-1.041 0-2.07.224-3.016.657.467 6.415 5.84 11.374 12.291 11.343h6.428A7.809 7.809 0 0044 44.694z" fill="#FC5479"/><path d="M47.25 49.543a9.279 9.279 0 00.213-3.076h-9.526a9.768 9.768 0 01-8.575-4.773 9.71 9.71 0 01-.074-9.792 9.767 9.767 0 018.5-4.902h12.313c5.38-.027 9.786 4.254 9.898 9.617a9.697 9.697 0 01-6.059 9.124 10.346 10.346 0 01-4.851 5.162l-1.827 1.052a.332.332 0 01-.49-.362l.477-2.05z" fill="#31D2F7"/><path d="M36.042 39.228c-.038-2.544.978-4.997 2.82-6.81 1.843-1.813 4.358-2.835 6.985-2.838H57A10.178 10.178 0 0050.201 27H37.833c-3.528-.01-6.789 1.818-8.54 4.784a9.245 9.245 0 00.075 9.556c1.798 2.94 5.087 4.72 8.614 4.658h1.209c-1.966-1.741-3.105-4.19-3.149-6.77z" fill="#13ACE8"/><path d="M75.842 26H61.155C60.517 26 60 25.438 60 24.746v-3.52c0-2.447.895-4.793 2.49-6.524C64.084 12.972 66.246 12 68.5 12c4.694 0 8.5 4.13 8.5 9.227v3.52c0 .332-.123.651-.34.887a1.112 1.112 0 01-.818.366z" fill="#FFCF59"/><path d="M17.843 73H3.155c-.307 0-.6-.132-.817-.368A1.31 1.31 0 012 71.745v-3.52C2 63.13 5.806 59 10.5 59s8.5 4.13 8.5 9.225v3.52c0 .693-.518 1.255-1.157 1.255z" fill="#FF62A7"/><path d="M75.842 73H61.155C60.517 73 60 72.437 60 71.745v-3.52c0-2.446.895-4.793 2.49-6.523C64.084 59.972 66.246 59 68.5 59c4.694 0 8.5 4.13 8.5 9.225v3.52c0 .333-.122.652-.34.888a1.112 1.112 0 01-.818.367z" fill="#31D2F7"/><path d="M8.661 24.746v-3.52c0-3.726 2.106-7.087 5.339-8.52A8.193 8.193 0 0010.67 12C5.88 12 2 16.13 2 21.227v3.52C2 25.438 2.529 26 3.18 26h6.66a1.14 1.14 0 01-.833-.367 1.296 1.296 0 01-.346-.887z" fill="#ADBC15"/><path d="M65.661 24.746v-3.52c0-3.726 2.106-7.087 5.339-8.52A8.193 8.193 0 0067.67 12C62.88 12 59 16.13 59 21.227v3.52c0 .692.529 1.253 1.18 1.253h6.66a1.14 1.14 0 01-.833-.367 1.296 1.296 0 01-.346-.887z" fill="#FFB55C"/><path d="M8.661 71.745v-3.52c0-3.726 2.106-7.086 5.339-8.518A8.195 8.195 0 0010.67 59C5.88 59 2 63.13 2 68.225v3.52C2 72.438 2.528 73 3.18 73h6.66c-.312 0-.612-.132-.833-.368a1.297 1.297 0 01-.346-.887z" fill="#FC5479"/><path d="M65.661 71.745v-3.52c0-3.726 2.106-7.086 5.339-8.518A8.195 8.195 0 0067.67 59C62.88 59 59 63.13 59 68.225v3.52c0 .693.528 1.255 1.18 1.255h6.66c-.312 0-.612-.132-.833-.368a1.297 1.297 0 01-.346-.887z" fill="#13ACE8"/><path d="M10.645 16.478c-3.118 0-5.645-2.57-5.645-5.74C5 7.57 7.527 5 10.645 5c3.118 0 5.645 2.57 5.645 5.739-.003 3.168-2.529 5.735-5.645 5.739zm56.418 0c-3.117 0-5.645-2.57-5.645-5.74C61.418 7.57 63.946 5 67.063 5c3.118 0 5.645 2.57 5.645 5.739-.003 3.168-2.529 5.735-5.645 5.739zM10.645 63.779C7.527 63.779 5 61.209 5 58.04c0-3.17 2.527-5.739 5.645-5.739 3.118 0 5.645 2.57 5.645 5.739-.003 3.168-2.529 5.735-5.645 5.739zm56.418 0c-3.117 0-5.645-2.57-5.645-5.739 0-3.17 2.528-5.739 5.645-5.739 3.118 0 5.645 2.57 5.645 5.739-.003 3.168-2.529 5.735-5.645 5.739z" fill="#FAD393"/><path d="M10.74 11.041a5.711 5.711 0 013.013-5.029 5.716 5.716 0 00-7.115 1.405 5.703 5.703 0 000 7.247 5.716 5.716 0 007.115 1.405 5.71 5.71 0 01-3.014-5.028zm57.088 0a5.711 5.711 0 013.014-5.029 5.716 5.716 0 00-7.115 1.405 5.703 5.703 0 000 7.247 5.716 5.716 0 007.115 1.405 5.71 5.71 0 01-3.014-5.028zM10.74 58.08a5.711 5.711 0 013.013-5.03 5.716 5.716 0 00-7.115 1.406 5.703 5.703 0 000 7.246 5.716 5.716 0 007.115 1.406 5.71 5.71 0 01-3.014-5.028zm57.088 0a5.711 5.711 0 013.014-5.03 5.716 5.716 0 00-7.115 1.406 5.703 5.703 0 000 7.246 5.716 5.716 0 007.115 1.406 5.711 5.711 0 01-3.014-5.028z" fill="#EDB769"/><path d="M20.376 8c.242 0 .48-.065.69-.19a39.255 39.255 0 014.104-2.115 1.417 1.417 0 00.716-1.848 1.367 1.367 0 00-1.811-.73 42 42 0 00-4.392 2.26c-.537.32-.797.968-.635 1.581.162.613.706 1.04 1.328 1.04V8zm24.65-5.155c1.446.274 2.876.64 4.282 1.096.451.146.94.018 1.281-.335.342-.354.484-.88.375-1.38-.11-.499-.455-.897-.906-1.043A37.537 37.537 0 0045.477.01c-.697-.093-1.337.426-1.457 1.18-.12.755.322 1.48 1.006 1.648v.006zM37.29 2h.077a49.787 49.787 0 014.28-.005c.457.02.893-.148 1.144-.438.25-.291.278-.661.071-.972-.206-.31-.615-.513-1.072-.532a48.974 48.974 0 00-4.571 0c-.697.025-1.239.47-1.218 1 .02.528.594.948 1.292.943L37.29 2zm38.59 26.038c-.616.168-.995.866-.848 1.56.296 1.404.52 2.826.67 4.259.069.651.558 1.142 1.14 1.143a.959.959 0 00.142-.01c.63-.083 1.08-.724 1.008-1.432A44.42 44.42 0 0077.276 29a1.297 1.297 0 00-.52-.81 1.04 1.04 0 00-.876-.153zm-1.8 23.195c-.163.442-.074.936.233 1.297a1.349 1.349 0 002.281-.397 39.904 39.904 0 001.37-4.513 1.316 1.316 0 00-.994-1.584 1.338 1.338 0 00-1.609.978 37.31 37.31 0 01-1.28 4.219zM53.832 5.702a39.135 39.135 0 014.107 2.11 1.356 1.356 0 001.877-.519 1.43 1.43 0 00-.505-1.925 41.838 41.838 0 00-4.394-2.254 1.346 1.346 0 00-1.365.166c-.393.302-.6.796-.542 1.296.057.5.371.93.822 1.13v-.004zM2.022 46.037a1.318 1.318 0 00-.986 1.586 39.925 39.925 0 001.372 4.511 1.342 1.342 0 001.714.786 1.313 1.313 0 00.797-1.69 37.339 37.339 0 01-1.284-4.212 1.318 1.318 0 00-.599-.822 1.351 1.351 0 00-1.014-.16zM28.31 3.996c.13 0 .258-.02.38-.061a35.13 35.13 0 014.273-1.105c.69-.163 1.14-.89 1.017-1.648-.123-.758-.774-1.274-1.474-1.168a37.7 37.7 0 00-4.572 1.182c-.623.206-1.015.878-.92 1.58.095.701.647 1.222 1.299 1.224l-.002-.004zM77.635 37c-.754 0-1.364.568-1.364 1.269v.08c0 1.415-.088 2.83-.262 4.236-.056.45.15.894.542 1.165.391.27.908.326 1.355.146.448-.18.758-.57.814-1.02A36.88 36.88 0 0079 38.35v-.08c0-.701-.611-1.27-1.365-1.27zM45.45 75.023c-1.402.24-2.816.401-4.237.482a1.26 1.26 0 00-1.212 1.282c.02.68.59 1.218 1.284 1.213h.076a40.269 40.269 0 004.53-.514 1.27 1.27 0 001.025-.793c.167-.429.08-.913-.226-1.26a1.292 1.292 0 00-1.24-.404v-.006zm-8.684.485a37.363 37.363 0 01-4.22-.478c-.456-.1-.932.055-1.237.403a1.234 1.234 0 00-.225 1.263c.167.43.56.735 1.025.793 1.492.256 2.999.426 4.511.51h.074a1.262 1.262 0 001.305-1.215 1.26 1.26 0 00-1.235-1.284l.002.008zm-8.718-1.586a34.563 34.563 0 01-4.187-1.793c-.676-.344-1.46.024-1.752.821-.291.797.02 1.722.697 2.066a37.033 37.033 0 004.48 1.918c.456.16.95.022 1.297-.364.346-.385.491-.96.38-1.506-.11-.546-.459-.981-.915-1.142zM2.03 34.992c.306.039.613-.06.853-.275a1.35 1.35 0 00.43-.872 41.66 41.66 0 01.664-4.286c.123-.69-.263-1.364-.872-1.524-.609-.16-1.222.25-1.385.928a44.614 44.614 0 00-.712 4.586c-.036.344.052.69.244.96s.473.444.779.483zm52.107 37.145a34.737 34.737 0 01-4.186 1.792c-.456.16-.805.596-.915 1.141-.11.545.036 1.118.383 1.503.347.384.841.522 1.298.361a37.135 37.135 0 004.479-1.927c.437-.223.74-.703.795-1.259.055-.556-.147-1.105-.53-1.439-.382-.334-.887-.403-1.324-.18v.008zM1.795 43.992c.746-.082 1.281-.718 1.196-1.421a35.355 35.355 0 01-.265-4.287c0-.71-.61-1.284-1.361-1.284-.362 0-.709.134-.965.375-.256.24-.4.568-.4.91.002 1.53.097 3.059.285 4.58.08.646.66 1.134 1.351 1.135.053 0 .106-.002.16-.008z" fill="#000"/><path fill-rule="evenodd" clip-rule="evenodd" d="M18.314 26H3.692C2.208 26 1.003 24.774 1 23.26v-3.113c0-2.875 1.297-5.59 3.515-7.362-.995-3.387.71-6.988 3.93-8.298 3.218-1.31 6.884.105 8.447 3.261 1.563 3.156.504 7.007-2.44 8.873-2.943 1.867-6.796 1.13-8.877-1.697a7.088 7.088 0 00-2.288 5.225v3.11c0 .228.18.414.404.415h14.621a.41.41 0 00.406-.415v-3.107a7.13 7.13 0 00-.367-2.266 1.183 1.183 0 01.207-1.16 1.13 1.13 0 011.954.408A9.49 9.49 0 0121 20.149v3.11c-.003 1.512-1.204 2.738-2.686 2.741zM15.34 10.823c0-2.486-1.976-4.502-4.413-4.502V6.32c-2.437.002-4.411 2.017-4.413 4.503 0 2.487 1.976 4.503 4.413 4.503 2.437 0 4.413-2.016 4.413-4.503zM57 23.257v-3.11c.003-2.87 1.298-5.58 3.514-7.35-1.004-3.384.694-6.988 3.91-8.305 3.218-1.317 6.888.091 8.456 3.244 1.569 3.152.516 7.004-2.425 8.875-2.942 1.87-6.797 1.139-8.882-1.685a7.083 7.083 0 00-2.288 5.222v3.11a.41.41 0 00.406.413h14.621a.4.4 0 00.287-.121.418.418 0 00.12-.293v-3.106a7.14 7.14 0 00-.368-2.265 1.182 1.182 0 01.207-1.16c.27-.32.689-.465 1.094-.38.406.084.734.386.86.788A9.49 9.49 0 0177 20.148v3.11c-.002 1.513-1.205 2.74-2.69 2.742H59.69c-1.485-.002-2.688-1.229-2.69-2.743zM71 9.103c-.682-1.682-2.291-2.778-4.076-2.778v.001c-2.436.003-4.41 2.016-4.413 4.5 0 1.82 1.075 3.46 2.724 4.157a4.35 4.35 0 004.81-.976A4.566 4.566 0 0071 9.104zm3.405 55.89c.134-.277.37-.489.657-.589.287-.1.601-.078.873.059.272.136.48.378.577.671A9.49 9.49 0 0177 68.148v3.11c-.002 1.513-1.205 2.74-2.69 2.742H59.69c-1.485-.002-2.688-1.229-2.69-2.743v-3.109c.002-2.87 1.297-5.58 3.512-7.35-1.003-3.385.694-6.99 3.911-8.306 3.217-1.317 6.887.091 8.456 3.244 1.568 3.152.515 7.004-2.426 8.875-2.941 1.87-6.796 1.139-8.882-1.685a7.084 7.084 0 00-2.288 5.222v3.11a.414.414 0 00.406.413h14.622c.107 0 .21-.043.287-.121a.418.418 0 00.119-.293v-3.109c0-.77-.124-1.536-.367-2.265a1.186 1.186 0 01.055-.89zm-3.067-6.166c0-2.486-1.975-4.5-4.413-4.5-2.436.002-4.41 2.016-4.412 4.5 0 2.485 1.975 4.5 4.412 4.5 2.438 0 4.413-2.015 4.413-4.5zm-52.935 6.159c.133-.278.37-.49.656-.59.288-.1.604-.079.876.06.273.137.48.38.577.675A9.5 9.5 0 0121 68.146v3.11c-.002 1.515-1.205 2.742-2.689 2.744H3.692c-.714 0-1.4-.29-1.904-.805A2.775 2.775 0 011 71.252v-3.11c.002-2.872 1.297-5.583 3.512-7.354-1.002-3.38.694-6.982 3.907-8.297 3.212-1.315 6.877.092 8.443 3.242 1.567 3.149.516 6.998-2.422 8.866-2.937 1.87-6.786 1.14-8.87-1.681a7.087 7.087 0 00-2.287 5.223v3.11c0 .11.043.216.119.293.076.078.18.122.287.122h14.619c.108 0 .21-.044.287-.121a.418.418 0 00.119-.293v-3.11c0-.771-.123-1.537-.367-2.266a1.186 1.186 0 01.056-.89zm-3.065-6.169c0-2.486-1.976-4.501-4.413-4.501-2.435.002-4.41 2.016-4.412 4.501 0 2.487 1.976 4.502 4.412 4.502 2.437 0 4.412-2.015 4.412-4.502zM37.83 26.003h12.385L50.202 26c5.068.001 9.453 3.563 10.544 8.563 1.09 5-1.405 10.096-6.002 12.25-1.796 4.449-7.673 6.589-7.931 6.682-.441.156-.932.03-1.246-.32a1.186 1.186 0 01-.196-1.283 10.31 10.31 0 001.034-4.062h-1.853c-1.338 3.303-4.508 5.472-8.04 5.501h-6.504a8.584 8.584 0 00.794 3.006 1.19 1.19 0 01-.206 1.286 1.156 1.156 0 01-1.254.306c-.208-.076-4.87-1.831-6.364-5.49-3.075-1.55-5.007-4.735-4.977-8.208-.063-4.954 3.854-9.025 8.756-9.1h.422c.87-5.262 5.372-9.12 10.651-9.128zm14.903 19.56c.106-.326.35-.588.666-.715h-.002c3.19-1.295 5.283-4.415 5.293-7.888-.062-4.762-3.9-8.589-8.613-8.588H37.952c-4.634-.024-8.443 3.689-8.588 8.37a8.586 8.586 0 00.606 3.366c.175.434.076.931-.252 1.263l-.017.018a1.147 1.147 0 01-1.89-.396 10.918 10.918 0 01-.762-3.496h-.29c-3.617.074-6.492 3.092-6.43 6.747-.027 2.713 1.56 5.178 4.026 6.252.322.142.567.42.67.76a6.643 6.643 0 002.779 3.237 8.968 8.968 0 01-.08-2.47 1.166 1.166 0 011.157-1.039h7.639a6.364 6.364 0 005.434-3.148H37.83a10.628 10.628 0 01-4.038-.801 1.175 1.175 0 01-.387-1.908l.015-.016a1.15 1.15 0 011.255-.253 8.329 8.329 0 003.155.617h9.692a1.172 1.172 0 011.158 1.053c.126 1.2.049 2.414-.23 3.588a9.097 9.097 0 004.282-4.553z" fill="#000"/></svg>