<svg width="59" height="56" viewBox="0 0 59 56" fill="none" xmlns="http://www.w3.org/2000/svg">
<path d="M56.2707 54.6842H2.72817C1.69849 54.6842 0.86377 53.8495 0.86377 52.8198V8.25357H58.1351V52.8198C58.1351 53.8495 57.3003 54.6842 56.2707 54.6842Z" fill="#EAF6FF"/>
<path d="M58.1363 8.25357V52.8198C58.1363 53.3145 57.9397 53.7889 57.5898 54.1386C57.2399 54.4882 56.7654 54.6845 56.2707 54.6842H53.965C54.4596 54.6845 54.9342 54.4882 55.2841 54.1386C55.634 53.7889 55.8305 53.3145 55.8305 52.8198V8.25357H58.1363Z" fill="#D8ECFE"/>
<path d="M58.1351 8.25238H0.86377V2.90816C0.86377 1.87848 1.69849 1.04376 2.72817 1.04376H56.2707C57.3003 1.04376 58.1351 1.87848 58.1351 2.90816V8.25238Z" fill="#FD9468"/>
<path d="M58.1363 2.90816V8.25356H55.8305V2.90816C55.8299 1.87829 54.9948 1.04376 53.965 1.04376H56.2707C57.3006 1.04376 58.1356 1.87829 58.1363 2.90816Z" fill="#FE7D43"/>
<path d="M52.7436 15.8823H18.7006C18.4427 15.8823 18.1954 15.7798 18.0131 15.5975C17.8307 15.4151 17.7283 15.1678 17.7283 14.9099V12.7317C17.7283 12.4738 17.8307 12.2265 18.0131 12.0441C18.1954 11.8618 18.4427 11.7593 18.7006 11.7593H52.7436C53.2806 11.7593 53.7159 12.1947 53.7159 12.7317V14.9099C53.7159 15.4469 53.2806 15.8823 52.7436 15.8823Z" fill="#8D9CA8"/>
<path d="M53.7136 12.7317V14.9099C53.7139 15.1679 53.6116 15.4154 53.4291 15.5978C53.2467 15.7802 52.9992 15.8826 52.7413 15.8823H50.4355C50.6935 15.8826 50.941 15.7802 51.1234 15.5978C51.3058 15.4154 51.4082 15.1679 51.4079 14.9099V12.7317C51.4082 12.4737 51.3058 12.2262 51.1234 12.0438C50.941 11.8614 50.6935 11.759 50.4355 11.7593H52.7413C52.9992 11.759 53.2467 11.8614 53.4291 12.0438C53.6116 12.2262 53.7139 12.4737 53.7136 12.7317Z" fill="#7A8C98"/>
<path d="M51.3041 38.9041H20.1403C19.7707 38.9041 19.4712 38.6045 19.4712 38.235V15.8811H51.9696V38.2338C51.9696 38.6022 51.6724 38.9015 51.3041 38.9041Z" fill="#F0F5F7"/>
<path d="M51.9732 15.8811V38.235C51.9735 38.4129 51.903 38.5835 51.7772 38.7093C51.6514 38.8351 51.4808 38.9056 51.3029 38.9053H48.9972C49.175 38.9056 49.3457 38.8351 49.4715 38.7093C49.5972 38.5835 49.6677 38.4129 49.6674 38.235V15.8811H51.9732Z" fill="#DDE4E8"/>
<path d="M40.1967 27.9702C40.0009 31.9945 36.6473 35.1375 32.6187 35.0723C28.5901 35.007 25.3401 31.7569 25.2748 27.7284C25.2095 23.6998 28.3525 20.3461 32.3769 20.1503C32.4715 20.1461 32.5637 20.1808 32.6321 20.2464C32.7006 20.3119 32.7392 20.4025 32.7391 20.4973V27.2622C32.7391 27.4531 32.8939 27.6079 33.0849 27.6079H39.8498C39.9443 27.6082 40.0347 27.647 40.0999 27.7153C40.1652 27.7837 40.1997 27.8758 40.1955 27.9702H40.1967Z" fill="#5DE1C4"/>
<path d="M40.1967 27.9761C39.9962 32.0903 36.502 35.2651 32.3875 35.0714C31.0586 35.0105 29.771 34.5914 28.661 33.8584C29.1875 34.0037 29.7285 34.0896 30.2741 34.1145C34.158 34.2977 37.5325 31.4699 38.0314 27.6138H39.8521C39.9465 27.6144 40.0365 27.6533 40.1015 27.7217C40.1665 27.79 40.2009 27.8819 40.1967 27.9761Z" fill="#0ED2B3"/>
<path d="M40.9495 24.5517C40.7662 21.9653 38.7085 19.9076 36.1221 19.7243C36.0268 19.7185 35.9333 19.7523 35.8638 19.8178C35.7943 19.8833 35.7549 19.9746 35.7551 20.0701V24.573C35.7551 24.7639 35.9099 24.9187 36.1009 24.9187H40.6037C40.6992 24.9189 40.7906 24.8796 40.856 24.8101C40.9215 24.7405 40.9554 24.647 40.9495 24.5517Z" fill="#FD9468"/>
<path d="M40.9507 24.5517C40.9565 24.6473 40.9226 24.741 40.8568 24.8105C40.7911 24.88 40.6995 24.9192 40.6037 24.9187H38.737C38.7444 24.8854 38.7472 24.8513 38.7452 24.8172C38.6122 22.9315 37.4677 21.2659 35.7551 20.4654V20.0701C35.7549 19.9744 35.7944 19.8829 35.8642 19.8173C35.934 19.7518 36.0278 19.7182 36.1233 19.7244C38.7097 19.9076 40.7674 21.9654 40.9507 24.5517Z" fill="#FE7D43"/>
<path d="M21.2318 30.2559V43.7279C21.2318 46.5302 18.9601 48.8019 16.1578 48.8019H10.3628C7.56053 48.8019 5.28882 46.5302 5.28882 43.7279V30.2559L13.2621 24.193L21.2318 30.2559Z" fill="#C86D36"/>
<path d="M21.2318 30.2559V43.7244C21.2318 45.0701 20.6972 46.3607 19.7456 47.3122C18.7941 48.2638 17.5035 48.7984 16.1578 48.7984H13.8521C15.1978 48.7984 16.4884 48.2638 17.4399 47.3122C18.3915 46.3607 18.9261 45.0701 18.9261 43.7244V28.5024L21.2318 30.2559Z" fill="#AC5E2E"/>
<path d="M21.0937 54.6842H5.42334V50.3111C5.42334 45.9839 8.93128 42.4759 13.2585 42.4759C17.5858 42.4759 21.0937 45.9839 21.0937 50.3111V54.6842Z" fill="#C2A1D5"/>
<path d="M21.0926 50.3111V54.683H18.6346V50.3111C18.6332 46.4579 15.8319 43.177 12.0266 42.5715C14.2909 42.2129 16.5988 42.8637 18.3422 44.3524C20.0856 45.8411 21.0898 48.0186 21.0902 50.3111H21.0926Z" fill="#B289C9"/>
<path d="M13.2596 45.02C12.777 45.0203 12.314 44.8287 11.9727 44.4874C11.6314 44.1461 11.4398 43.6831 11.4401 43.2004V39.9094H15.078V43.2004C15.0783 43.6829 14.8869 44.1457 14.5458 44.487C14.2048 44.8283 13.7421 45.02 13.2596 45.02Z" fill="#FFA78F"/>
<path d="M13.2585 41.2653C9.11828 41.2653 5.76196 37.909 5.76196 33.7687V26.2722H20.755V33.7687C20.755 37.909 17.3987 41.2653 13.2585 41.2653Z" fill="#FFCEBF"/>
<path d="M20.755 26.2722V33.7687C20.7536 35.9159 19.8323 37.9596 18.2242 39.3825C16.6161 40.8054 14.4754 41.471 12.344 41.211C16.1027 40.7485 18.9264 37.5557 18.926 33.7687V26.2722L20.755 26.2722Z" fill="#FFB09E"/>
<path d="M13.7199 21.4294H12.7972C8.64846 21.4294 5.28528 24.7926 5.28528 28.9413V31.4913C10.9682 30.6653 12.3311 29.0428 13.2585 26.6262C14.186 29.0428 15.5489 30.6641 21.2318 31.4913V28.9413C21.2318 24.7926 17.8686 21.4294 13.7199 21.4294Z" fill="#D77F4A"/>
<path d="M21.2318 28.9413V31.4913C20.368 31.3662 19.6045 31.2211 18.926 31.0594V28.9413C18.9265 25.0595 15.9688 21.8169 12.1033 21.4613C12.3314 21.4393 12.5627 21.4287 12.7971 21.4295H13.7211C15.7132 21.4295 17.6238 22.2209 19.0323 23.6297C20.4409 25.0385 21.2321 26.9492 21.2318 28.9413Z" fill="#C86D36"/>
<circle cx="5.24704" cy="4.65052" r="1.15286" transform="rotate(-67.486 5.24704 4.65052)" fill="black"/>
<circle cx="9.31021" cy="4.64868" r="1.15286" fill="black"/>
<circle cx="13.3753" cy="4.64868" r="1.15286" fill="black"/>
<path fill-rule="evenodd" clip-rule="evenodd" d="M32.7344 35.9387C32.6054 35.9387 32.4759 35.9356 32.3461 35.9293L32.3473 35.9258C27.9159 35.7049 24.4354 32.0493 24.4323 27.6124C24.4291 23.1755 27.9044 19.5149 32.3355 19.2878C32.6663 19.2719 32.9891 19.3923 33.2288 19.6208C33.4685 19.8494 33.6041 20.1661 33.604 20.4973V26.7442H39.8498C40.1809 26.7441 40.4977 26.8797 40.7262 27.1194C40.9547 27.3591 41.0751 27.6819 41.0593 28.0127C40.8363 32.4494 37.1767 35.9337 32.7344 35.9387ZM31.8741 27.261V21.0613C28.4809 21.5092 25.9926 24.4759 26.1422 27.8953C26.2919 31.3147 29.0299 34.0528 32.4493 34.2024C35.8687 34.3521 38.8355 31.8638 39.2834 28.4705H33.0836C32.4162 28.4692 31.8754 27.9285 31.8741 27.261Z" fill="black"/>
<path fill-rule="evenodd" clip-rule="evenodd" d="M40.5979 25.7836H36.095C35.4271 25.7823 34.8861 25.2409 34.8855 24.573V20.0713C34.8851 19.7361 35.0238 19.4157 35.2685 19.1867C35.5132 18.9576 35.842 18.8404 36.1764 18.8629C39.1893 19.0842 41.5849 21.4799 41.8062 24.4927C41.8288 24.8272 41.7115 25.156 41.4825 25.4007C41.2534 25.6454 40.9331 25.7841 40.5979 25.7836ZM40.0055 24.0549C39.653 22.3484 38.3195 21.015 36.613 20.6624V24.0549H40.0055Z" fill="black"/>
<path d="M41.4806 32.466C41.4806 32.943 41.8673 33.3298 42.3444 33.3298H47.7122C48.1895 33.3298 48.5765 32.9428 48.5765 32.4654C48.5765 31.988 48.1895 31.6011 47.7122 31.6011H42.3503C42.1199 31.5995 41.8985 31.69 41.7352 31.8524C41.5719 32.0148 41.4803 32.2357 41.4806 32.466Z" fill="black"/>
<path d="M47.7122 34.21H42.3443C41.867 34.21 41.48 34.597 41.48 35.0744C41.48 35.5517 41.867 35.9387 42.3443 35.9387H47.7122C48.1895 35.9387 48.5765 35.5517 48.5765 35.0744C48.5765 34.597 48.1895 34.21 47.7122 34.21Z" fill="black"/>
<path fill-rule="evenodd" clip-rule="evenodd" d="M56.2707 0.180013H2.72934C1.22251 0.181314 0.00130124 1.40252 0 2.90935V52.8234C0.00130124 54.3302 1.22251 55.5514 2.72934 55.5527H56.2707C56.9952 55.5521 57.6897 55.2637 58.2016 54.7509C58.7134 54.2382 59.0006 53.5431 59 52.8186V2.90463C58.9987 1.3978 57.7775 0.176594 56.2707 0.175293V0.180013ZM20.3668 43.722C20.3664 44.1629 20.2963 44.601 20.1591 45.02C19.0869 43.6218 17.6167 42.5807 15.9418 42.0334V41.6794C17.7801 41.0513 19.3442 39.8058 20.368 38.1548V43.7161L20.3668 43.722ZM6.62452 33.7664C6.62842 37.4279 9.59573 40.3952 13.2573 40.3991L13.2597 40.4027C16.9212 40.3988 19.8885 37.4315 19.8924 33.7699V32.1462C16.1176 31.4441 14.3382 30.2948 13.2585 28.5885C12.8132 29.289 12.2318 29.8929 11.5487 30.3644C10.0497 31.2955 8.37229 31.9021 6.62452 32.145V33.7664ZM14.2119 42.0724V43.1993C14.2119 43.7265 13.7845 44.1539 13.2573 44.1539C12.7301 44.1539 12.3027 43.7265 12.3027 43.1993V42.0724C12.937 42.1461 13.5776 42.1461 14.2119 42.0724ZM10.574 42.0393V41.6877C8.73564 41.0595 7.1716 39.8141 6.1478 38.163V43.722C6.14787 44.1629 6.21756 44.6009 6.3543 45.02C7.42277 43.6181 8.89559 42.5778 10.574 42.0393ZM20.368 30.4753C15.6964 29.6387 14.7925 28.2086 14.0656 26.3158C13.938 25.981 13.6168 25.7597 13.2585 25.7597C12.9001 25.7597 12.579 25.981 12.4514 26.3158C11.7245 28.2038 10.8206 29.6399 6.14898 30.4753V28.9413C6.15288 25.2713 9.12706 22.2971 12.7971 22.2932H13.7199C17.3899 22.2971 20.3641 25.2713 20.368 28.9413V30.4753ZM20.3338 16.7472V23.8095V23.8107C21.4769 25.2765 22.097 27.0825 22.0955 28.9413V38.0403H51.1093V16.7472H20.3338ZM57.2678 52.8175C57.2671 53.3698 56.8195 53.8174 56.2671 53.8181H21.9574V50.3111C21.9585 49.1085 21.7085 47.9188 21.2235 46.8183C21.7949 45.8876 22.0968 44.8165 22.0955 43.7244V39.769H51.304C52.1512 39.769 52.838 39.0822 52.838 38.235V16.7413C53.8129 16.6905 54.5779 15.8862 54.5797 14.91V12.7352C54.581 11.7208 53.7604 10.897 52.746 10.8944H28.0392C27.5618 10.8944 27.1748 11.2814 27.1748 11.7588C27.1748 12.2361 27.5618 12.6231 28.0392 12.6231H52.746C52.8053 12.6231 52.8534 12.6712 52.8534 12.7305V14.9088C52.8534 14.9681 52.8053 15.0162 52.746 15.0162H18.7006C18.6413 15.0162 18.5933 14.9681 18.5933 14.9088V12.7352C18.5933 12.6759 18.6413 12.6278 18.7006 12.6278H24.0437C24.521 12.6278 24.908 12.2409 24.908 11.7635C24.908 11.2861 24.521 10.8991 24.0437 10.8991H18.7006C17.6871 10.9004 16.8659 11.7217 16.8646 12.7352V14.9135C16.8664 15.8897 17.6313 16.6941 18.6062 16.7449V22.1481C17.1847 21.1205 15.4751 20.568 13.721 20.5692H12.7983C8.17313 20.5738 4.42483 24.3221 4.42028 28.9472V43.7244C4.41921 44.8161 4.72108 45.8868 5.2923 46.8172C5.0686 47.3235 4.89433 47.8502 4.77192 48.3901C4.667 48.8557 4.95941 49.3183 5.42505 49.4232C5.89069 49.5281 6.35322 49.2357 6.45814 48.7701C6.96634 46.5403 8.53296 44.7 10.653 43.8424C10.9501 45.039 12.0244 45.8791 13.2573 45.8791C14.4902 45.8791 15.5645 45.039 15.8616 43.8424C18.4973 44.9065 20.2242 47.4628 20.2276 50.3052V53.8134H6.28822V52.631C6.28822 52.1536 5.90124 51.7667 5.42387 51.7667C4.9465 51.7667 4.55952 52.1536 4.55952 52.631V53.8193H2.72934C2.17697 53.8186 1.72935 53.371 1.7287 52.8186V9.11733H57.2713L57.2678 52.8175ZM1.7287 7.38745H57.2678L57.2713 2.90345C57.2706 2.35108 56.823 1.90346 56.2707 1.90281H2.72934C2.17697 1.90346 1.72935 2.35108 1.7287 2.90345V7.38745Z" fill="black"/>
<path d="M10.5834 31.9326C10.1063 31.9326 9.7196 32.3194 9.7196 32.7964V34.2679C9.7196 34.7452 10.1066 35.1322 10.584 35.1322C11.0613 35.1322 11.4483 34.7452 11.4483 34.2679V32.7964C11.4483 32.5671 11.3571 32.3472 11.1949 32.1852C11.0327 32.0232 10.8127 31.9323 10.5834 31.9326Z" fill="black"/>
<path d="M15.9311 31.9326C15.4541 31.9326 15.0674 32.3194 15.0674 32.7964V34.2679C15.0674 34.7452 15.4544 35.1322 15.9317 35.1322C16.4091 35.1322 16.7961 34.7452 16.7961 34.2679V32.7964C16.7961 32.5671 16.7049 32.3472 16.5427 32.1852C16.3804 32.0232 16.1604 31.9323 15.9311 31.9326Z" fill="black"/>
<path d="M15.4427 50.2616H17.2375C17.7149 50.2616 18.1018 49.8746 18.1018 49.3972C18.1018 48.9199 17.7149 48.5329 17.2375 48.5329H15.4427C14.9654 48.5329 14.5784 48.9199 14.5784 49.3972C14.5784 49.8746 14.9654 50.2616 15.4427 50.2616Z" fill="black"/>
</svg>
