<svg width="52" height="67" viewBox="0 0 52 67" fill="none" xmlns="http://www.w3.org/2000/svg">
<path d="M39.9542 55.9278L33.7798 53.4095L29.8392 63.0734C29.762 63.2631 29.7908 63.4795 29.9149 63.6424C30.0389 63.8054 30.2398 63.8907 30.4432 63.8668L32.9366 63.5721C33.1345 63.5487 33.3306 63.6287 33.4556 63.784L35.0298 65.7356C35.1585 65.8952 35.362 65.9748 35.5648 65.945C35.7677 65.9152 35.9396 65.7804 36.017 65.5906L39.9542 55.9278Z" fill="#EE6161"/>
<path d="M40.4596 55.9278L46.634 53.4095L50.5746 63.0734C50.6517 63.2631 50.623 63.4795 50.4989 63.6424C50.3748 63.8054 50.1739 63.8907 49.9705 63.8668L47.4772 63.5721C47.2792 63.5487 47.0831 63.6287 46.9581 63.784L45.3839 65.7356C45.2552 65.8952 45.0518 65.9748 44.8489 65.945C44.6461 65.9152 44.4741 65.7804 44.3968 65.5906L40.4596 55.9278Z" fill="#EE6161"/>
<path d="M39.953 55.9277L36.0136 65.5905C35.9359 65.7804 35.7637 65.9151 35.5608 65.9449C35.3579 65.9747 35.1543 65.8951 35.0253 65.7356L33.8602 64.2929L37.6535 54.9905L39.953 55.9277Z" fill="#E94444"/>
<path d="M49.9717 63.8667L47.8671 63.6185C47.865 63.6108 47.8624 63.6032 47.8591 63.5958L44.1191 54.4328L46.6317 53.4128L50.5723 63.0756C50.648 63.2645 50.619 63.4792 50.496 63.6412C50.3729 63.8033 50.1739 63.8889 49.9717 63.8667Z" fill="#E94444"/>
<path d="M42.6469 55.4132H2.98028C1.94876 55.4132 1.11255 54.577 1.11255 53.5455V2.84808C1.11255 1.81656 1.94876 0.980347 2.98028 0.980347H42.6469C43.6785 0.980347 44.5147 1.81656 44.5147 2.84808V53.5455C44.5147 54.0408 44.3179 54.5159 43.9676 54.8662C43.6174 55.2164 43.1423 55.4132 42.6469 55.4132Z" fill="#60B7FF"/>
<path d="M44.5158 2.84808V53.5455C44.5158 54.577 43.6796 55.4132 42.6481 55.4132H39.9213C40.4166 55.4132 40.8917 55.2164 41.242 54.8662C41.5922 54.5159 41.789 54.0408 41.789 53.5455V2.84808C41.7893 2.35263 41.5926 1.87739 41.2423 1.52706C40.892 1.17673 40.4167 0.980046 39.9213 0.980347H42.6481C43.1435 0.980046 43.6188 1.17673 43.9691 1.52706C44.3194 1.87739 44.5161 2.35263 44.5158 2.84808Z" fill="#26A6FE"/>
<path d="M33.1802 5.65649H12.4516C11.8774 5.6565 11.3939 6.08592 11.3262 6.65609C11.2278 8.95248 9.64331 10.9162 7.41958 11.4977C6.91929 11.6269 6.56971 12.0781 6.56958 12.5948V43.7988C6.56971 44.3155 6.91929 44.7667 7.41958 44.8959C9.64331 45.4774 11.2278 47.4411 11.3262 49.7375C11.3939 50.3077 11.8774 50.7371 12.4516 50.7371H33.1802C33.7544 50.7371 34.2379 50.3077 34.3056 49.7375C34.404 47.4411 35.9885 45.4774 38.2122 44.8959C38.7125 44.7667 39.0621 44.3155 39.0622 43.7988V12.5948C39.0621 12.0781 38.7125 11.6269 38.2122 11.4977C35.9885 10.9162 34.404 8.95248 34.3056 6.65609C34.2379 6.08592 33.7544 5.6565 33.1802 5.65649Z" fill="#F9F7F8"/>
<path d="M39.0611 12.5948V43.7988C39.0629 44.3159 38.7124 44.7678 38.2111 44.8948C37.5318 45.0556 36.893 45.3546 36.3343 45.7731V15.257C36.29 14.7565 35.9578 14.3278 35.4843 14.1599C31.7069 12.2933 31.3351 8.11809 31.1776 6.65609C31.1099 6.08635 30.6271 5.65708 30.0533 5.65649H33.1836C33.7574 5.65708 34.2402 6.08635 34.3079 6.65609C34.4059 8.95262 35.9905 10.9165 38.2145 11.4977C38.7134 11.6282 39.0614 12.079 39.0611 12.5948Z" fill="#EFEDEF"/>
<path d="M50.5871 49.4984C50.5871 50.7972 48.7828 51.7265 48.3147 52.8564C47.8297 54.0272 48.4281 55.9561 47.5475 56.839C46.6669 57.7218 44.7357 57.1212 43.5649 57.6062C42.4316 58.0743 41.5057 59.8786 40.2069 59.8786C38.9081 59.8786 37.9787 58.0743 36.8488 57.6062C35.6781 57.1212 33.7491 57.7196 32.8663 56.839C31.9834 55.9584 32.5841 54.0272 32.099 52.8564C31.6309 51.7231 29.8267 50.7972 29.8267 49.4984C29.8267 48.1996 31.6309 47.2702 32.099 46.1403C32.5841 44.9696 31.9857 43.0406 32.8663 42.1578C33.7469 41.2749 35.6781 41.8756 36.8488 41.3905C37.9821 40.9224 38.9081 39.1182 40.2069 39.1182C41.5057 39.1182 42.435 40.9224 43.5649 41.3905C44.7357 41.8756 46.6646 41.2772 47.5475 42.1578C48.4303 43.0384 47.8297 44.9696 48.3147 46.1403C48.7817 47.2691 50.5871 48.1996 50.5871 49.4984Z" fill="#FE9738"/>
<path d="M50.5871 49.4972C50.5871 50.7971 48.7817 51.7265 48.3136 52.8553C47.8286 54.0249 48.427 55.9549 47.5464 56.8378C46.6658 57.7207 44.7346 57.12 43.5638 57.6051C42.4305 58.0731 41.5046 59.8785 40.2069 59.8785C39.3626 59.8785 38.6746 59.1169 37.9867 58.4551C39.0316 58.1287 41.032 55.8484 41.9976 55.4438C43.1309 54.9735 44.4909 55.6965 45.3477 54.8397C46.2045 53.9829 45.5234 52.7578 45.996 51.6222C46.4493 50.5263 47.6042 50.3121 47.6042 49.0518C47.6042 47.7915 46.4504 47.6669 45.9971 46.5721C45.571 45.5521 45.4304 42.5453 44.8876 41.6092C45.8815 41.6421 46.9514 41.5639 47.5452 42.1577C48.4281 43.0406 47.8274 44.9695 48.3125 46.1403C48.7817 47.2702 50.5871 48.195 50.5871 49.4972Z" fill="#FE860A"/>
<circle cx="40.2069" cy="49.4984" r="4.6886" fill="#FFE3CB"/>
<path d="M44.8967 49.4972C44.8963 51.6743 43.3976 53.5649 41.278 54.0621C39.1584 54.5593 36.9753 53.5324 36.0068 51.5825C37.794 52.6331 40.0589 52.3856 41.577 50.9739C43.0951 49.5622 43.5062 47.3212 42.5881 45.4625C44.0176 46.3039 44.8956 47.8385 44.8967 49.4972Z" fill="#FECA9C"/>
<path d="M14.9404 14.7084C14.9404 15.2498 15.3793 15.6888 15.9208 15.6888H29.7089C30.2503 15.6888 30.6892 15.2498 30.6892 14.7084C30.6892 14.167 30.2503 13.7281 29.7089 13.7281H15.9208C15.3793 13.7281 14.9404 14.167 14.9404 14.7084H14.9404Z" fill="black"/>
<path d="M11.1788 20.1042C11.1788 20.6456 11.6177 21.0845 12.1592 21.0845H33.4658C34.0073 21.0845 34.4462 20.6456 34.4462 20.1042C34.4462 19.5628 34.0073 19.1238 33.4658 19.1238H12.1592C11.8992 19.1238 11.6498 19.2271 11.466 19.411C11.2821 19.5948 11.1788 19.8442 11.1788 20.1042Z" fill="black"/>
<path d="M33.4704 24.5186H12.1637C11.6223 24.5186 11.1833 24.9575 11.1833 25.4989C11.1833 26.0403 11.6223 26.4792 12.1637 26.4792H33.4704C34.0118 26.4792 34.4507 26.0403 34.4507 25.4989C34.4507 24.9575 34.0118 24.5186 33.4704 24.5186Z" fill="black"/>
<path d="M33.4704 29.9143H12.1637C11.6223 29.9143 11.1833 30.3532 11.1833 30.8946C11.1833 31.4361 11.6223 31.875 12.1637 31.875H33.4704C34.0118 31.875 34.4507 31.4361 34.4507 30.8946C34.4507 30.3532 34.0118 29.9143 33.4704 29.9143V29.9143Z" fill="black"/>
<path d="M33.4704 35.3113H12.1637C11.6223 35.3113 11.1833 35.7502 11.1833 36.2916C11.1833 36.833 11.6223 37.2719 12.1637 37.2719H33.4704C34.0118 37.2719 34.4507 36.833 34.4507 36.2916C34.4507 35.7502 34.0118 35.3113 33.4704 35.3113V35.3113Z" fill="black"/>
<path d="M28.0156 40.7048H12.1592C11.6177 40.7048 11.1788 41.1437 11.1788 41.6851C11.1788 42.2265 11.6177 42.6654 12.1592 42.6654H28.0156C28.5571 42.6654 28.996 42.2265 28.996 41.6851C28.996 41.1437 28.5571 40.7048 28.0156 40.7048Z" fill="black"/>
<path fill-rule="evenodd" clip-rule="evenodd" d="M48.8939 56.3561L51.4825 62.7028L51.4791 62.6983C51.688 63.2095 51.611 63.7932 51.2765 64.2327C50.942 64.6722 50.4 64.902 49.8516 64.8369L47.5849 64.5683L46.1501 66.3476C45.857 66.7153 45.4122 66.9293 44.942 66.929C44.8642 66.9289 44.7866 66.9233 44.7097 66.912C44.1625 66.8343 43.6985 66.4705 43.4925 65.9577L43.1899 65.2165C43.038 64.8889 43.0785 64.5043 43.2954 64.2155C43.5123 63.9267 43.8704 63.7806 44.2274 63.8351C44.5844 63.8897 44.8824 64.1361 45.0032 64.4765L45.0485 64.5898L46.1955 63.1675C46.5318 62.7495 47.0604 62.5352 47.5929 62.6008L49.4062 62.815L47.4625 58.0471C46.7789 58.2851 46.0562 58.3909 45.333 58.3587C44.8624 58.3361 44.3912 58.3877 43.9367 58.5117C43.553 58.7359 43.2066 59.0185 42.9099 59.3493L43.2613 60.2117C43.4131 60.5394 43.3726 60.924 43.1557 61.2128C42.9388 61.5015 42.5807 61.6477 42.2238 61.5931C41.8668 61.5386 41.5687 61.2922 41.4479 60.9518L41.304 60.5993C40.6123 60.9453 39.7981 60.9453 39.1065 60.5993L36.9191 65.9623C36.7131 66.4751 36.2491 66.8389 35.7019 66.9165C35.625 66.9278 35.5473 66.9335 35.4696 66.9335C34.9993 66.9339 34.5546 66.7198 34.2615 66.3521L32.8267 64.5728L30.56 64.8414C30.0112 64.9074 29.4684 64.678 29.1333 64.2383C28.7983 63.7987 28.721 63.2145 28.9303 62.7028L31.5029 56.3935H2.98259C1.41042 56.3917 0.136395 55.1176 0.134521 53.5455V2.84807C0.136395 1.2759 1.41042 0.00187349 2.98259 0H42.6493C44.2217 0.00124994 45.4961 1.27564 45.4973 2.84807V40.6425C46.4844 40.5446 47.4702 40.8408 48.24 41.4664C48.888 42.2872 49.185 43.331 49.0662 44.37C49.0436 44.8406 49.0952 45.3118 49.2192 45.7663C49.4447 46.1516 49.7288 46.4995 50.0613 46.7976C50.9 47.4642 51.441 48.4355 51.5663 49.4995C51.4409 50.5634 50.8999 51.5347 50.0613 52.2013C49.7288 52.4994 49.4447 52.8473 49.2192 53.2327C49.0951 53.6872 49.0435 54.1584 49.0662 54.6289C49.0789 55.2095 49.021 55.7895 48.8939 56.3561ZM2.08839 53.5421C2.08839 54.0322 2.48569 54.4295 2.97579 54.4295L31.3386 54.4317C31.3537 54.0258 31.3031 53.6202 31.189 53.2304C30.9635 52.8451 30.6794 52.4971 30.3469 52.1991L30.3021 52.152L30.2277 52.0741C30.1186 51.96 30.0052 51.8414 29.8936 51.7174H12.4505C11.3752 51.7206 10.4701 50.9137 10.3504 49.8451C10.3056 47.9527 9.00986 46.3201 7.17705 45.8467C6.23751 45.6125 5.57926 44.7671 5.58245 43.7988V12.5947C5.57926 11.6264 6.23751 10.781 7.17705 10.5468C9.00964 10.0731 10.3052 8.44068 10.3504 6.5484C10.4696 5.47961 11.375 4.6724 12.4505 4.67613H15.7371C16.2785 4.67613 16.7175 5.11504 16.7175 5.65647C16.7175 6.19789 16.2785 6.6368 15.7371 6.6368H12.4505C12.3755 6.63537 12.3111 6.68963 12.2997 6.76373C12.177 9.47743 10.288 11.789 7.65306 12.4497C7.5887 12.4682 7.54494 12.5278 7.54652 12.5947V43.7965C7.54494 43.8635 7.5887 43.9231 7.65306 43.9416C10.288 44.6023 12.177 46.9138 12.2997 49.6275C12.3111 49.7016 12.3755 49.7559 12.4505 49.7545H28.8657C28.8557 49.6687 28.8504 49.5824 28.8498 49.4961C28.9752 48.4321 29.5162 47.4609 30.3549 46.7942C30.6873 46.4962 30.9714 46.1482 31.1969 45.7629C31.321 45.3084 31.3726 44.8372 31.3499 44.3666C31.2311 43.3276 31.5281 42.2838 32.1761 41.463C32.9968 40.8146 34.0406 40.5172 35.0797 40.6357C35.5503 40.6583 36.0215 40.6066 36.476 40.4827C36.8613 40.2571 37.2093 39.9731 37.5073 39.6406L37.5441 39.6049L37.5444 39.6047C37.7136 39.4407 37.8919 39.2679 38.0831 39.1V12.5947C38.0842 12.5279 38.0406 12.4685 37.9765 12.4497C35.3416 11.789 33.4526 9.47743 33.3299 6.76373C33.3185 6.68963 33.2541 6.63537 33.1791 6.6368H20.2467C19.8964 6.6368 19.5728 6.44995 19.3977 6.14663C19.2225 5.84332 19.2225 5.46962 19.3977 5.1663C19.5728 4.86298 19.8964 4.67613 20.2467 4.67613H33.1655C34.2407 4.67292 35.1459 5.47987 35.2656 6.5484C35.3104 8.44081 36.6061 10.0735 38.4389 10.5468C39.3785 10.781 40.0367 11.6264 40.0335 12.5947V38.1446C40.0857 38.1378 40.1435 38.1378 40.199 38.1378C41.263 38.2632 42.2342 38.8042 42.9009 39.6429L42.9019 39.6439L42.902 39.6439C43.1135 39.8499 43.3273 40.0579 43.5287 40.222V2.84807C43.5287 2.35841 43.1321 1.96129 42.6425 1.96067H2.97579C2.48569 1.96067 2.08839 2.35797 2.08839 2.84807V53.5421ZM35.3563 64.5887L34.2093 63.1663C33.9146 62.7989 33.4688 62.5854 32.9978 62.5861C32.9357 62.5862 32.8736 62.59 32.8119 62.5974L30.9986 62.8116L32.9423 58.0437C33.6259 58.2817 34.3486 58.3875 35.0718 58.3553C35.5424 58.3327 36.0136 58.3843 36.4681 58.5083C36.8517 58.7325 37.1982 59.0151 37.4949 59.3459L35.3563 64.5887ZM47.0999 54.5893C47.0675 53.8724 47.1702 53.1557 47.4025 52.4767L47.4081 52.4801C47.7137 51.8556 48.1348 51.2945 48.6491 50.8266C49.0934 50.3721 49.5966 49.8565 49.5966 49.4949C49.5966 49.1334 49.0934 48.6166 48.6491 48.1633C48.1331 47.6969 47.7101 47.137 47.4025 46.5131C47.1701 45.8341 47.0675 45.1175 47.0999 44.4006L47.0998 44.3975C47.0885 43.7783 47.0757 43.0776 46.8471 42.8491C46.6186 42.6205 45.9179 42.6077 45.2987 42.5964L45.2956 42.5963C44.5787 42.6287 43.8621 42.526 43.1831 42.2937C42.5592 41.9861 41.9993 41.5631 41.5329 41.0471C41.0785 40.6028 40.5628 40.0996 40.2013 40.0996C39.8397 40.0996 39.3229 40.6028 38.8696 41.0471C38.4032 41.5631 37.8433 41.9861 37.2195 42.2937C36.5404 42.526 35.8238 42.6287 35.1069 42.5963L35.1038 42.5964C34.4846 42.6077 33.7839 42.6205 33.5554 42.8491C33.3268 43.0776 33.314 43.7783 33.3027 44.3975L33.3027 44.4006C33.335 45.1175 33.2323 45.8341 33.0001 46.5131C32.6925 47.137 32.2695 47.6969 31.7534 48.1633C31.3091 48.6177 30.8059 49.1334 30.8059 49.4949C30.8059 49.8565 31.3091 50.3733 31.7534 50.8266C32.2694 51.293 32.6925 51.8529 33.0001 52.4767C33.2324 53.1557 33.3351 53.8723 33.3027 54.5893L33.3027 54.5924C33.314 55.2116 33.3268 55.9123 33.5554 56.1408C33.7839 56.3694 34.4846 56.3822 35.1038 56.3935L35.1069 56.3935C35.8238 56.3612 36.5404 56.4638 37.2195 56.6961C37.8433 57.0038 38.4032 57.4268 38.8696 57.9428C39.3241 58.3871 39.8397 58.8903 40.2013 58.8903C40.5628 58.8903 41.0796 58.3871 41.5329 57.9428C41.9994 57.4268 42.5593 57.0038 43.1831 56.6961C43.8621 56.4638 44.5787 56.3612 45.2956 56.3935L45.2987 56.3935C45.9179 56.3822 46.6186 56.3694 46.8471 56.1408C47.0757 55.9123 47.0885 55.2115 47.0998 54.5924L47.0999 54.5893Z" fill="black"/>
<path fill-rule="evenodd" clip-rule="evenodd" d="M34.5403 49.4949C34.5403 46.3653 37.0773 43.8282 40.2069 43.8282C43.3345 43.8332 45.8686 46.3674 45.8736 49.4949C45.8736 52.6245 43.3366 55.1616 40.2069 55.1616C37.0773 55.1616 34.5403 52.6245 34.5403 49.4949ZM36.781 50.9163C37.3549 52.302 38.7071 53.2054 40.2069 53.2054C42.2539 53.2029 43.9127 51.5442 43.9152 49.4972C43.9152 47.9973 43.0117 46.6452 41.626 46.0712C40.2404 45.4972 38.6454 45.8145 37.5848 46.875C36.5243 47.9356 36.207 49.5306 36.781 50.9163Z" fill="black"/>
</svg>
