<svg width="68" height="58" viewBox="0 0 68 58" fill="none" xmlns="http://www.w3.org/2000/svg">
<path d="M42.4777 47.3983H37.1596L36.6121 49.5896C36.3087 50.8022 35.219 51.6529 33.9689 51.6529C32.7188 51.6529 31.6291 50.8022 31.3257 49.5896L30.7782 47.3983H25.4601L24.3967 55.9077H43.5434L42.4777 47.3983Z" fill="#DBD9DC"/>
<path d="M35.7411 50.9882H42.9268L42.4778 47.3983H37.1597L36.6122 49.5896C36.4739 50.1348 36.1694 50.6236 35.7411 50.9882Z" fill="#C9C6CA"/>
<path d="M30.7782 47.3983H25.4601L25.0111 50.9882H32.1968C31.7685 50.6236 31.4641 50.1348 31.3257 49.5896L30.7782 47.3983Z" fill="#C9C6CA"/>
<path d="M63.7523 47.7969H4.18667C2.42416 47.7969 0.995361 46.3681 0.995361 44.6056V4.18313C0.995361 2.42062 2.42416 0.991821 4.18667 0.991821H63.7523C65.5148 0.991821 66.9436 2.42062 66.9436 4.18313V44.6056C66.9436 46.3681 65.5148 47.7969 63.7523 47.7969Z" fill="#EDEBED"/>
<rect x="5.25012" y="5.2489" width="57.4377" height="38.2922" fill="#E6646E"/>
<path d="M27.587 40.351C17.013 40.351 8.44091 31.7795 8.44026 21.2055V5.25012H5.25012V43.5423H62.689V40.351H27.587Z" fill="#DC4655"/>
<circle cx="27.5868" cy="35.0329" r="2.12676" fill="#6F6571"/>
<circle cx="42.4788" cy="35.0329" r="2.12676" fill="#6F6571"/>
<path d="M22.6006 14.9213L26.0264 26.9104C26.3144 27.912 27.2859 28.5573 28.3208 28.4345L42.3042 26.7931C43.6766 26.6317 44.7892 25.6052 45.0605 24.2502L46.7336 15.8862L22.6006 14.9213Z" fill="#EF9AA1"/>
<path fill-rule="evenodd" clip-rule="evenodd" d="M4.18669 0H63.7523C66.0635 0.00258448 67.9364 1.87552 67.939 4.18669V44.608C67.9364 46.9192 66.0635 48.7921 63.7523 48.7947H43.5997L44.4204 55.3133H47.797C48.3473 55.3133 48.7935 55.7595 48.7935 56.3099C48.7935 56.8602 48.3473 57.3064 47.797 57.3064H20.135C19.5847 57.3064 19.1385 56.8602 19.1385 56.3099C19.1385 55.7595 19.5847 55.3133 20.135 55.3133H23.5116L24.3323 48.7947H4.18669C1.8746 48.7921 0.00129203 46.9177 0 44.6057V4.18669C0.00258448 1.87552 1.87552 0.00258448 4.18669 0ZM25.5234 55.311H42.4144L41.6043 48.7923H37.9417L37.5829 50.2297C37.1684 51.8852 35.6808 53.0463 33.9742 53.0463C32.2677 53.0463 30.78 51.8852 30.3655 50.2297L30.0068 48.7923H26.3441L25.5234 55.311ZM32.0526 48.7947H35.8852L35.6508 49.749C35.4584 50.519 34.7666 51.0591 33.973 51.0591C33.1794 51.0591 32.4877 50.519 32.2953 49.749L32.0526 48.7947ZM63.7523 46.8016C64.9646 46.8003 65.947 45.8179 65.9483 44.6057V4.18669C65.947 2.97445 64.9646 1.99205 63.7523 1.99076H4.18903C2.97679 1.99205 1.9944 2.97445 1.9931 4.18669V44.6057C1.99439 45.817 2.97536 46.799 4.18669 46.8016H63.7523Z" fill="black"/>
<path d="M7.37795 42.5469H6.2454V6.24542H56.3075C56.8578 6.24542 57.304 5.79925 57.304 5.24887C57.304 4.69849 56.8578 4.25232 56.3075 4.25232H5.25002C4.98603 4.25232 4.73285 4.35719 4.54618 4.54386C4.35951 4.73053 4.25464 4.98371 4.25464 5.2477V43.5399C4.25464 44.0896 4.70029 44.5353 5.25002 44.5353H7.37795C7.92833 44.5353 8.3745 44.0891 8.3745 43.5387C8.3745 42.9884 7.92833 42.5422 7.37795 42.5422V42.5469Z" fill="black"/>
<path d="M62.689 4.25464H60.5611C60.0107 4.25464 59.5645 4.70081 59.5645 5.25119C59.5645 5.80157 60.0107 6.24774 60.5611 6.24774H61.6936V42.5492H11.6316C11.0812 42.5492 10.635 42.9954 10.635 43.5457C10.635 44.0961 11.0812 44.5423 11.6316 44.5423H62.6878C63.2376 44.5423 63.6832 44.0966 63.6832 43.5469V5.25002C63.6832 4.70074 63.2383 4.25529 62.689 4.25464V4.25464Z" fill="black"/>
<path fill-rule="evenodd" clip-rule="evenodd" d="M27.2868 29.3467C27.541 29.4125 27.8026 29.446 28.0652 29.4464C28.1895 29.4462 28.3136 29.4387 28.4369 29.4241L42.4203 27.7827C44.2223 27.5739 45.6834 26.2255 46.036 24.446L47.709 16.082C47.7657 15.7975 47.6954 15.5023 47.5165 15.2739C47.3377 15.0454 47.068 14.9064 46.7781 14.8932L23.3779 13.8298H23.3228C23.1839 13.3741 22.8914 12.9805 22.4951 12.716L19.6297 10.805C19.1723 10.5 18.5542 10.6236 18.2492 11.0811C17.9442 11.5386 18.0679 12.1566 18.5253 12.4616L21.3907 14.3715C21.4044 14.3806 21.4144 14.3943 21.4188 14.4102L25.0686 27.1895C25.179 27.5762 25.3629 27.938 25.6102 28.2552L24.2748 30.926C23.953 31.5638 23.9872 32.3233 24.3651 32.9296C24.4994 33.1468 24.6727 33.3372 24.8763 33.4912C24.1547 34.7536 24.4001 36.3471 25.4682 37.3338C26.5363 38.3206 28.1442 38.4393 29.3456 37.6202C30.5471 36.8011 31.024 35.261 30.4957 33.9062H39.5666C39.0467 35.2403 39.5008 36.757 40.6683 37.5859C41.8358 38.4147 43.4174 38.3432 44.5054 37.4123C45.5933 36.4815 45.9086 34.93 45.2704 33.6483C45.5755 33.3725 45.6792 32.9372 45.5314 32.5535C45.3835 32.1697 45.0146 31.9165 44.6033 31.9167H26.1143C26.0904 31.9169 26.0681 31.9046 26.0556 31.8841C26.0431 31.8637 26.0422 31.8382 26.0534 31.817L27.2868 29.3467ZM28.2048 27.4474C27.6529 27.5144 27.1347 27.1689 26.9843 26.6338L25.7169 22.1962H28.8977L29.7336 27.2669L28.2048 27.4474ZM36.0283 22.195V26.5271L39.0777 26.166L39.4377 22.195H36.0283ZM36.0283 20.2066V16.3927L39.9465 16.5709L39.617 20.2054L36.0283 20.2066ZM30.5859 20.2066H34.0352L34.0387 16.3024L29.9118 16.1149L30.5859 20.2066ZM34.0352 22.1997V22.202H30.9119L31.7091 27.0406L34.0352 26.7674V22.202H34.0363L34.0352 22.1997ZM41.0955 25.9327L42.1858 25.8049H42.1881C43.1327 25.6946 43.8983 24.9874 44.0828 24.0544L44.4532 22.1985H41.4331L41.0955 25.9327ZM44.8519 20.2089H41.6137L41.9349 16.6635L45.5283 16.8265L44.8519 20.2089ZM28.5659 20.2089L27.8765 16.0246L23.8985 15.844L25.1459 20.2089H28.5659ZM28.7171 35.0318C28.7171 35.6572 28.21 36.1643 27.5846 36.1643C26.9591 36.1643 26.452 35.6572 26.452 35.0318C26.452 34.4063 26.9591 33.8992 27.5846 33.8992C27.8854 33.8989 28.1741 34.0182 28.387 34.2308C28.5998 34.4435 28.7195 34.732 28.7195 35.0329L28.7171 35.0318ZM41.344 35.0318C41.344 35.6572 41.8511 36.1643 42.4766 36.1643H42.4789C43.1032 36.1624 43.6085 35.6561 43.6091 35.0318C43.6091 34.4063 43.102 33.8992 42.4766 33.8992C41.8511 33.8992 41.344 34.4063 41.344 35.0318Z" fill="black"/>
</svg>
