<svg width="59" height="59" viewBox="0 0 59 59" fill="none" xmlns="http://www.w3.org/2000/svg">
<path d="M41.5737 50.2861L46.8967 7.11929C46.992 6.34452 46.6446 5.58176 45.9975 5.14515C45.8958 5.07903 45.7796 5.03854 45.6589 5.02715L8.44992 0.875915C7.32616 0.753193 6.3122 1.55584 6.1737 2.67777L0.880221 45.5649C0.812485 46.1133 0.967143 46.6661 1.30968 47.0997C1.65221 47.5334 2.1541 47.8118 2.70332 47.873L40.2391 52.0561C40.9603 51.7368 41.4652 51.0673 41.5737 50.2861Z" fill="#EABC6B"/>
<path d="M52.1276 5.74342L45.6057 5.01654C46.3799 5.41565 46.8235 6.2548 46.7173 7.1193L41.3943 50.2861C41.2932 51.1025 40.7206 51.7828 39.9335 52.0218L46.3798 52.7405C47.5053 52.866 48.5223 52.0626 48.6608 50.9386L53.9495 8.0515C54.0169 7.50311 53.8621 6.95055 53.5197 6.51697C53.1772 6.0834 52.6755 5.80485 52.1264 5.74342H52.1276Z" fill="#E8AE4D"/>
<path d="M47.5102 48.9444C47.5102 47.9304 48.3323 47.1083 49.3463 47.1083H51.1269V12.5638C51.1269 11.422 50.2014 10.4965 49.0596 10.4965H12.0866C10.9449 10.4965 10.0193 11.422 10.0193 12.5638V55.7424C10.0193 56.8842 10.9449 57.8097 12.0866 57.8097H46.3881C46.6785 57.8096 46.9656 57.7481 47.2306 57.6292C47.4019 57.5511 47.5114 57.3797 47.5102 57.1914V48.9444Z" fill="#F4E066"/>
<path d="M50.8071 12.5638V46.9195H57.9485C58.0707 46.6505 58.1339 46.3584 58.1337 46.0628V12.5638C58.1337 11.422 57.2081 10.4965 56.0664 10.4965H48.7397C49.8815 10.4965 50.8071 11.422 50.8071 12.5638Z" fill="#EFD133"/>
<path d="M47.2448 57.6221C47.8949 57.326 47.4595 57.5289 57.5296 47.5261C57.704 47.3509 57.8455 47.1459 57.9474 46.9207H49.0808C48.0668 46.9207 47.2448 47.7428 47.2448 48.7568V57.6233L47.2448 57.6221Z" fill="#E8AE4D"/>
<circle cx="34.0772" cy="17.8113" r="2.69984" fill="#F7F4F7"/>
<path d="M51.5494 25.0069H16.606C16.1267 25.0069 15.7382 25.3955 15.7382 25.8748C15.7382 26.3541 16.1267 26.7427 16.606 26.7427H51.5482C52.0275 26.7427 52.4161 26.3541 52.4161 25.8748C52.4161 25.3955 52.0275 25.0069 51.5482 25.0069L51.5494 25.0069Z" fill="black"/>
<path d="M51.5494 30.894H16.606C16.1267 30.894 15.7382 31.2825 15.7382 31.7618C15.7382 32.2412 16.1267 32.6297 16.606 32.6297H51.5482C52.0275 32.6297 52.4161 32.2412 52.4161 31.7618C52.4161 31.2825 52.0275 30.894 51.5482 30.894L51.5494 30.894Z" fill="black"/>
<path d="M52.4167 37.6483C52.4167 37.4183 52.3253 37.1977 52.1627 37.035C52 36.8724 51.7794 36.781 51.5494 36.781H16.606C16.1267 36.781 15.7382 37.1695 15.7382 37.6489C15.7382 38.1282 16.1267 38.5168 16.606 38.5168H51.5482C51.7786 38.5171 51.9997 38.4257 52.1627 38.2627C52.3256 38.0998 52.417 37.8787 52.4167 37.6483Z" fill="black"/>
<path d="M16.606 42.668C16.1267 42.668 15.7382 43.0566 15.7382 43.5359C15.7382 44.0152 16.1267 44.4038 16.606 44.4038H34.0783C34.5576 44.4038 34.9462 44.0152 34.9462 43.5359C34.9462 43.0566 34.5576 42.668 34.0783 42.668H16.606Z" fill="black"/>
<path fill-rule="evenodd" clip-rule="evenodd" d="M58.9999 15.7864C58.9999 16.2654 58.6116 16.6537 58.1326 16.6537C57.6536 16.6537 57.2653 16.2654 57.2653 15.7864V12.5662C57.2647 11.9037 56.7278 11.3668 56.0652 11.3661H12.0914C11.4289 11.3668 10.892 11.9037 10.8913 12.5662V55.7388C10.892 56.4009 11.4281 56.9376 12.0902 56.9389H46.3739V48.7532C46.3759 47.2601 47.5865 46.0505 49.0796 46.0499H57.2641V19.8432C57.2641 19.3639 57.6527 18.9754 58.132 18.9754C58.6113 18.9754 58.9999 19.3639 58.9999 19.8432V46.0605C58.9968 46.839 58.6873 47.5851 58.1385 48.1373L48.4625 57.8133C47.9103 58.3613 47.1648 58.6703 46.3869 58.6735H12.0914C10.4709 58.6722 9.15748 57.3593 9.15553 55.7388V49.4624L2.61125 48.7332C1.8312 48.647 1.11823 48.2518 0.631712 47.636C0.145196 47.0202 -0.0742884 46.2351 0.0223255 45.4563L0.803486 39.0914C0.862138 38.6157 1.29535 38.2776 1.77109 38.3362C2.24682 38.3949 2.58494 38.8281 2.52629 39.3038L1.74159 45.6687C1.70212 45.9877 1.79233 46.3091 1.992 46.5609C2.19166 46.8127 2.48406 46.9738 2.80359 47.008L9.15553 47.716V12.5662C9.15748 10.9462 10.4702 9.63348 12.0902 9.63153H52.8828L53.0905 7.94885C53.1299 7.62992 53.0397 7.30851 52.8401 7.05671C52.6404 6.8049 52.348 6.6438 52.0285 6.60955L8.35667 1.74205C7.70409 1.67121 7.11511 2.13631 7.03271 2.78753L3.02071 35.2776C2.96716 35.7123 2.5984 36.0391 2.16049 36.0399C2.12458 36.0397 2.08872 36.0374 2.05311 36.0328C1.57753 35.9739 1.23957 35.5409 1.29791 35.0652L5.30991 2.57513C5.51397 0.983263 6.95318 -0.153419 8.54901 0.0168871L52.222 4.88439C53.0027 4.96944 53.7166 5.36395 54.2041 5.97962C54.6916 6.59529 54.9118 7.3807 54.8156 8.16007L54.6339 9.63035H56.0641C57.6849 9.63165 58.9986 10.9453 58.9999 12.5662V15.7864ZM49.0808 47.7809C48.5458 47.7809 48.112 48.2147 48.112 48.7497L48.1168 55.707L56.0428 47.7809H49.0808Z" fill="black"/>
<path fill-rule="evenodd" clip-rule="evenodd" d="M34.0782 14.2465C36.0483 14.2465 37.6454 15.8436 37.6454 17.8137C37.6428 19.7827 36.0472 21.3782 34.0782 21.3808C32.1082 21.3808 30.5111 19.7837 30.5111 17.8137C30.5111 15.8436 32.1082 14.2465 34.0782 14.2465ZM33.3761 16.1198C32.6914 16.4038 32.2452 17.0724 32.2457 17.8137C32.247 18.825 33.0669 19.6444 34.0782 19.645C34.8195 19.645 35.4878 19.1984 35.7714 18.5135C36.055 17.8286 35.898 17.0403 35.3736 16.5163C34.8493 15.9923 34.0609 15.8358 33.3761 16.1198Z" fill="black"/>
</svg>
