<svg width="59" height="57" viewBox="0 0 59 57" fill="none" xmlns="http://www.w3.org/2000/svg">
<path d="M43.4759 1.04492H23.8112C24.5168 1.04519 25.148 1.48428 25.3935 2.14586L26.3977 5.25516C26.7312 6.15337 27.5884 6.74927 28.5465 6.74904H43.3177C44.2503 6.74904 45.0063 7.50504 45.0063 8.43762V2.58128C45.0044 1.73587 44.3213 1.0501 43.4759 1.04492Z" fill="#FEC458"/>
<path d="M32.3579 5.25516L31.3537 2.14586C31.1081 1.48428 30.477 1.04519 29.7713 1.04492H23.8112C24.5168 1.04519 25.148 1.48428 25.3935 2.14586L26.3977 5.25516C26.7312 6.15337 27.5884 6.74927 28.5465 6.74904H34.5079C33.5493 6.74976 32.6916 6.15378 32.3579 5.25516Z" fill="#F9AB49"/>
<path d="M43.3154 6.34312H28.9513C27.9931 6.34335 27.136 5.74745 26.8025 4.84924L25.7983 2.14586C25.5527 1.48428 24.9216 1.04519 24.2159 1.04492H15.6833C14.7508 1.04492 13.9948 1.80092 13.9948 2.7335V24.1658C13.9948 25.0984 14.7508 25.8544 15.6833 25.8544H43.3154C44.248 25.8544 45.004 25.0984 45.004 24.1658V8.02816C45.002 7.09697 44.2466 6.34312 43.3154 6.34312Z" fill="#FFE181"/>
<path d="M19.398 24.1658V2.7335C19.398 1.80092 20.154 1.04492 21.0866 1.04492H15.6833C14.7508 1.04492 13.9948 1.80092 13.9948 2.7335V24.1658C13.9948 25.0984 14.7508 25.8544 15.6833 25.8544H21.0866C20.154 25.8544 19.398 25.0984 19.398 24.1658Z" fill="#FEC458"/>
<path d="M14.3087 40.5761H2.46382C1.94889 40.5806 1.53256 40.9969 1.52808 41.5119V44.0701C1.65514 44.0186 1.79098 43.9921 1.9281 43.9922H5.41028C5.85443 43.9921 6.25173 44.2684 6.4062 44.6849L6.80386 45.7563C6.95832 46.1727 7.35562 46.4491 7.79978 46.449H14.1824C14.7689 46.449 15.2444 46.9244 15.2444 47.511V41.5083C15.238 40.9948 14.8222 40.5806 14.3087 40.5761V40.5761Z" fill="#FEC458"/>
<path d="M5.52356 41.5119C5.52804 40.9969 5.94437 40.5806 6.4593 40.5761H2.46382C1.94889 40.5806 1.53256 40.9969 1.52808 41.5119V44.0701C1.65514 44.0186 1.79098 43.9921 1.9281 43.9922H5.41028C5.44973 43.9928 5.48913 43.9955 5.52828 44.0005L5.52356 41.5119Z" fill="#F9AB49"/>
<path d="M14.1824 46.187H7.79977C7.35561 46.1871 6.95832 45.9108 6.80385 45.4943L6.40147 44.4264C6.247 44.01 5.8497 43.7337 5.40555 43.7338H1.92809C1.34156 43.7338 0.866089 44.2092 0.866089 44.7958V54.1744C0.866089 54.7609 1.34156 55.2364 1.92809 55.2364H14.1824C14.7689 55.2364 15.2444 54.7609 15.2444 54.1744V47.2525C15.2453 46.9703 15.1339 46.6992 14.9346 46.4993C14.7353 46.2994 14.4647 46.187 14.1824 46.187Z" fill="#FFE181"/>
<path d="M4.86039 54.1721V44.7934C4.86077 44.3072 5.19131 43.8833 5.66279 43.7645C5.58025 43.7434 5.49546 43.7323 5.41027 43.7314H1.92809C1.34156 43.7314 0.866089 44.2069 0.866089 44.7934V54.1721C0.866089 54.7586 1.34156 55.2341 1.92809 55.2341H5.92357C5.6417 55.2344 5.37128 55.1226 5.17186 54.9235C4.97244 54.7243 4.86039 54.4539 4.86039 54.1721Z" fill="#FEC458"/>
<path d="M35.7563 40.5761H23.9091C23.3942 40.5806 22.9779 40.9969 22.9734 41.5119V44.0701C23.1005 44.0186 23.2363 43.9921 23.3734 43.9922H26.8556C27.2997 43.9921 27.697 44.2684 27.8515 44.6849L28.2492 45.7563C28.4036 46.1727 28.8009 46.4491 29.2451 46.449H35.6277C36.2142 46.449 36.6897 46.9244 36.6897 47.511V41.5083C36.6833 40.9957 36.269 40.5818 35.7563 40.5761V40.5761Z" fill="#FEC458"/>
<path d="M26.9689 41.5119C26.9734 40.9969 27.3897 40.5806 27.9046 40.5761H23.9091C23.3942 40.5806 22.9779 40.9969 22.9734 41.5119V44.0701C23.1005 44.0186 23.2363 43.9921 23.3734 43.9922H26.8556C26.895 43.9928 26.9344 43.9955 26.9736 44.0005L26.9689 41.5119Z" fill="#F9AB49"/>
<path d="M35.6277 46.187H29.2463C28.8021 46.1871 28.4048 45.9108 28.2504 45.4943L27.8527 44.4229C27.6983 44.0065 27.301 43.7301 26.8568 43.7302H23.3746C22.7881 43.7302 22.3126 44.2057 22.3126 44.7922V54.1709C22.3126 54.7574 22.7881 55.2329 23.3746 55.2329H35.6277C36.2143 55.2329 36.6897 54.7574 36.6897 54.1709V47.249C36.6897 46.9673 36.5779 46.6972 36.3787 46.498C36.1795 46.2989 35.9094 46.187 35.6277 46.187Z" fill="#FFE181"/>
<path d="M26.3045 54.1721V44.7934C26.3049 44.3072 26.6354 43.8833 27.1069 43.7645C27.0243 43.7434 26.9396 43.7323 26.8544 43.7314H23.3722C23.0905 43.7314 22.8204 43.8433 22.6212 44.0425C22.4221 44.2417 22.3102 44.5118 22.3102 44.7934V54.1721C22.3102 54.4537 22.4221 54.7239 22.6212 54.923C22.8204 55.1222 23.0905 55.2341 23.3722 55.2341H27.3665C26.78 55.2341 26.3045 54.7586 26.3045 54.1721Z" fill="#FEC458"/>
<path d="M57.2005 40.5761H45.3544C44.8395 40.5806 44.4232 40.9969 44.4187 41.5119V44.0701C44.5458 44.0186 44.6816 43.9921 44.8187 43.9922H48.3009C48.7451 43.9921 49.1424 44.2684 49.2968 44.6849L49.6945 45.7563C49.8489 46.1727 50.2462 46.4491 50.6904 46.449H57.0754C57.6619 46.449 58.1374 46.9244 58.1374 47.511V41.5083C58.131 40.9943 57.7145 40.5799 57.2005 40.5761V40.5761Z" fill="#FEC458"/>
<path d="M48.4142 41.5119C48.4187 40.9969 48.835 40.5806 49.3499 40.5761H45.3544C44.8395 40.5806 44.4232 40.9969 44.4187 41.5119V44.0701C44.5458 44.0186 44.6816 43.9921 44.8187 43.9922H48.3009C48.3404 43.9928 48.3798 43.9955 48.4189 44.0005L48.4142 41.5119Z" fill="#F9AB49"/>
<path d="M57.073 46.187H50.6939C50.2498 46.1871 49.8525 45.9108 49.698 45.4943L49.3004 44.4229C49.1459 44.0065 48.7486 43.7301 48.3044 43.7302H44.8223C44.2357 43.7302 43.7603 44.2057 43.7603 44.7922V54.1709C43.7603 54.7574 44.2357 55.2329 44.8223 55.2329H57.0766C57.6631 55.2329 58.1386 54.7574 58.1386 54.1709V47.249C58.1386 46.9667 58.0262 46.696 57.8263 46.4968C57.6263 46.2975 57.3553 46.186 57.073 46.187Z" fill="#FFE181"/>
<path d="M47.7522 54.1721V44.7934C47.7526 44.3072 48.0832 43.8833 48.5546 43.7645C48.4721 43.7434 48.3873 43.7323 48.3021 43.7314H44.8199C44.2334 43.7314 43.7579 44.2069 43.7579 44.7934V54.1721C43.7579 54.7586 44.2334 55.2341 44.8199 55.2341H48.8154C48.5336 55.2344 48.2631 55.1226 48.0637 54.9235C47.8643 54.7243 47.7522 54.4539 47.7522 54.1721Z" fill="#FEC458"/>
<path fill-rule="evenodd" clip-rule="evenodd" d="M57.1993 39.7112H52.274V34.6938C52.272 33.4003 51.224 32.3523 49.9305 32.3503H30.3638V26.717H43.3166C44.7245 26.7157 45.8662 25.5761 45.8701 24.1682V18.5231C45.8701 18.0457 45.4832 17.6587 45.0058 17.6587C44.5284 17.6587 44.1414 18.0457 44.1414 18.5231V24.1682C44.1414 24.3873 44.0544 24.5974 43.8995 24.7523C43.7446 24.9072 43.5345 24.9942 43.3154 24.9942H15.6822C15.4631 24.9942 15.253 24.9072 15.0981 24.7523C14.9432 24.5974 14.8562 24.3873 14.8562 24.1682V2.73231C14.8562 2.27612 15.226 1.90631 15.6822 1.90631H24.2148C24.5591 1.90667 24.8672 2.12063 24.9877 2.44321L25.9919 5.14659C26.4545 6.38049 27.6324 7.19939 28.9501 7.20333H43.3166C43.7728 7.20333 44.1426 7.57314 44.1426 8.02933V14.4922C44.1426 14.9696 44.5296 15.3565 45.007 15.3565C45.4843 15.3565 45.8713 14.9696 45.8713 14.4922V2.57419C45.87 1.24918 44.7962 0.175373 43.4712 0.174072H15.6822C14.2734 0.176022 13.1318 1.3176 13.1299 2.72641V24.1682C13.1338 25.5756 14.2748 26.715 15.6822 26.717H28.6362V32.3503H9.73264C8.43872 32.3516 7.38993 33.3999 7.38798 34.6938V39.7112H2.46266C1.46798 39.7125 0.662508 40.5195 0.66316 41.5142V43.3444C0.243055 43.7083 0.00118188 44.2364 0 44.7922V54.1709C0.00130034 55.2346 0.863259 56.0965 1.92694 56.0978H14.1812C15.2449 56.0965 16.1069 55.2346 16.1082 54.1709V41.5142C16.1075 40.52 15.3017 39.7142 14.3075 39.7135H9.1155V34.6938C9.11615 34.3541 9.39174 34.079 9.73146 34.079H28.6351V39.7112H23.9092C23.4313 39.7115 22.9731 39.9016 22.6354 40.2397C22.2977 40.5779 22.1082 41.0363 22.1085 41.5142V43.3444C21.6874 43.7091 21.4455 44.2387 21.4453 44.7958V54.1744C21.4466 55.2381 22.3086 56.1001 23.3723 56.1014H27.4834C27.9607 56.1014 28.3477 55.7144 28.3477 55.237C28.3477 54.7596 27.9607 54.3727 27.4834 54.3727H23.3723C23.2628 54.3727 23.174 54.2839 23.174 54.1744V44.7922C23.174 44.6827 23.2628 44.594 23.3723 44.594H26.8544C26.9376 44.5942 27.0119 44.6459 27.0409 44.7238L27.4385 45.7952C27.7208 46.5491 28.4402 47.0495 29.2451 47.0519H35.6277C35.7372 47.0519 35.826 47.1407 35.826 47.2502V54.1721C35.826 54.2815 35.7372 54.3703 35.6277 54.3703H31.5166C31.0393 54.3703 30.6523 54.7573 30.6523 55.2346C30.6523 55.712 31.0393 56.099 31.5166 56.099H35.6277C36.6914 56.0977 37.5534 55.2357 37.5547 54.1721V41.5142C37.555 41.0363 37.3655 40.5779 37.0278 40.2397C36.6901 39.9016 36.2319 39.7115 35.754 39.7112H30.3638V34.0802H49.9305C50.2702 34.0802 50.5458 34.3552 50.5465 34.695V39.7123H45.3545C44.3598 39.713 43.5538 40.5195 43.5538 41.5142V43.3444C43.1328 43.7091 42.8908 44.2387 42.8906 44.7958V54.1744C42.8919 55.2381 43.7539 56.1001 44.8176 56.1014H57.0731C58.1377 56.1001 59 55.2367 59 54.1721V41.5142C58.9987 40.5202 58.1933 39.7148 57.1993 39.7135V39.7112ZM43.47 1.90867C43.8406 1.90932 44.1408 2.20955 44.1414 2.58009V5.61505C43.8753 5.52503 43.5964 5.47881 43.3154 5.47817H28.9501C28.3542 5.47646 27.8214 5.10626 27.612 4.54833L26.6314 1.90867H43.47ZM14.1812 54.3691C14.2907 54.3691 14.3795 54.2804 14.3795 54.1709H14.3807V47.249C14.3807 47.1395 14.2919 47.0508 14.1824 47.0508H7.7998C6.99575 47.0489 6.2766 46.5501 5.99322 45.7976L5.59556 44.7262C5.56654 44.6483 5.49225 44.5965 5.40912 44.5964H1.92104C1.89558 44.5962 1.87032 44.601 1.8467 44.6105C1.77482 44.6423 1.72852 44.7136 1.7287 44.7922V54.1709C1.7287 54.2804 1.81746 54.3691 1.92694 54.3691H14.1812ZM14.3075 41.4399C14.3467 41.4411 14.3783 41.4726 14.3795 41.5118V45.3327C14.314 45.3258 14.2482 45.3222 14.1824 45.3221H7.7998C7.71667 45.3219 7.64238 45.2701 7.61336 45.1923L7.2157 44.1208C6.93309 43.3674 6.21377 42.8675 5.40912 42.8653H2.39186V41.5142C2.39309 41.475 2.42461 41.4434 2.46384 41.4422H14.3087L14.3075 41.4399ZM35.8248 41.5118C35.8236 41.4726 35.7921 41.4411 35.7528 41.4399L35.754 41.4422H23.908C23.8687 41.4434 23.8372 41.475 23.836 41.5142V42.8653H26.8544C27.6588 42.8685 28.3776 43.3681 28.661 44.1208L29.0587 45.1923C29.0888 45.2693 29.1624 45.3206 29.2451 45.3221H35.6266C35.6567 45.3221 35.7405 45.3274 35.789 45.3305L35.7894 45.3305C35.7988 45.3311 35.8068 45.3317 35.8129 45.332C35.8195 45.3324 35.8237 45.3327 35.8248 45.3327V41.5118ZM57.2713 54.1709C57.2713 54.2804 57.1825 54.3691 57.0731 54.3691H44.8188C44.7093 54.3691 44.6205 54.2804 44.6205 54.1709V44.7922C44.6205 44.6828 44.7093 44.594 44.8188 44.594H48.3009C48.3841 44.5942 48.4584 44.6459 48.4874 44.7238L48.885 45.7952C49.1676 46.5486 49.887 47.0485 50.6916 47.0508H57.0731C57.1825 47.0508 57.2713 47.1395 57.2713 47.249V54.1709ZM57.0731 45.3221C57.1393 45.3222 57.2054 45.3258 57.2713 45.3327V41.5142C57.2701 41.475 57.2386 41.4434 57.1993 41.4422H45.3545C45.3152 41.4434 45.2837 41.475 45.2825 41.5142V42.8653H48.2998C49.1044 42.8675 49.8237 43.3674 50.1063 44.1208L50.504 45.1923C50.533 45.2701 50.6073 45.3219 50.6904 45.3221H57.0731Z" fill="black"/>
</svg>
