<svg width="58" height="65" viewBox="0 0 58 65" fill="none" xmlns="http://www.w3.org/2000/svg">
<path d="M39.9194 32.3239C39.8932 38.305 35.028 43.1348 29.0469 43.1174C23.0658 43.1 18.2289 38.2419 18.2376 32.2608C18.2462 26.2797 23.0973 21.4356 29.0784 21.4355C31.9599 21.4417 34.721 22.5923 36.7541 24.6343C38.7872 26.6763 39.9258 29.4424 39.9194 32.3239Z" fill="#FF6029"/>
<path d="M34.4751 32.324C34.4624 35.3015 32.0405 37.7061 29.063 37.6976C26.0855 37.6891 23.6774 35.2707 23.6816 32.2931C23.6859 29.3156 26.1008 26.9041 29.0784 26.9041C30.5127 26.9071 31.8871 27.4799 32.8992 28.4963C33.9113 29.5127 34.4782 30.8896 34.4751 32.324Z" fill="#B7441C"/>
<path fill-rule="evenodd" clip-rule="evenodd" d="M29.0592 14.5718C32.7975 14.5825 35.8382 11.5634 35.8541 7.82505C35.8618 4.07505 32.8284 1.02868 29.0784 1.02039C25.34 1.02042 22.308 4.04817 22.3027 7.78653C22.2974 11.5249 25.3208 14.5612 29.0592 14.5718ZM22.7711 54.1975C23.8335 51.6557 26.3235 50.0053 29.0784 50.017C32.8284 50.0253 35.8618 53.0717 35.8541 56.8217C35.8541 59.5765 34.193 62.0596 31.6468 63.1111C29.1005 64.1626 26.1714 63.5751 24.2276 61.623C22.2838 59.6708 21.7088 56.7393 22.7711 54.1975ZM11.3425 14.1809C8.09291 12.3034 3.93667 13.4147 2.05761 16.6633C0.178557 19.912 1.28773 24.0688 4.53546 25.9495C7.78319 27.8301 11.9405 26.723 13.8228 23.4762C14.7384 21.9174 14.9914 20.0569 14.5253 18.3102C14.0592 16.5635 12.9129 15.0763 11.3425 14.1809ZM44.3062 41.1622C46.1853 37.9135 50.3415 36.8023 53.5911 38.6797C55.1616 39.5752 56.3079 41.0624 56.7739 42.8091C57.24 44.5557 56.987 46.4163 56.0715 47.9751C54.1892 51.2219 50.0318 52.329 46.7841 50.4483C43.5364 48.5677 42.4272 44.4109 44.3062 41.1622ZM4.56677 38.6797C2.17678 40.0465 0.847184 42.7198 1.19941 45.4504C1.55163 48.181 3.51611 50.4294 6.17469 51.1449C8.83328 51.8604 11.6609 50.9016 13.336 48.7167C15.0111 46.5317 15.2029 43.5521 13.8217 41.1705C11.9364 37.9497 7.81389 36.8402 4.56677 38.6797ZM56.9585 19.1975C57.3107 21.928 55.9811 24.6014 53.5911 25.9681C50.344 27.8077 46.2215 26.6982 44.3362 23.4774C42.955 21.0958 43.1468 18.1162 44.8219 15.9312C46.497 13.7463 49.3246 12.7875 51.9832 13.503C54.6418 14.2185 56.6063 16.4669 56.9585 19.1975Z" fill="#DAF781"/>
<path fill-rule="evenodd" clip-rule="evenodd" d="M25.5496 5.78576C26.6739 3.84187 29.1607 3.17687 31.1052 4.30016V4.30132C32.0438 4.83795 32.7287 5.72763 33.0075 6.77219C33.2863 7.81675 33.1358 8.92942 32.5895 9.86236C31.4632 11.8051 28.9756 12.4675 27.0323 11.3422C25.089 10.2169 24.4252 7.72965 25.5496 5.78576ZM5.92259 23.5781C7.85853 24.7011 10.3382 24.0449 11.4652 22.1112C12.0118 21.1782 12.1626 20.0652 11.8838 19.0204C11.6049 17.9755 10.9198 17.0857 9.98091 16.549C8.04039 15.4339 5.56343 16.1003 4.44437 18.0386C3.32531 19.9768 3.98665 22.4551 5.92259 23.5781ZM4.42524 42.5323C5.54954 40.5885 8.03643 39.9235 9.98091 41.0468C10.9198 41.5834 11.6049 42.4733 11.8838 43.5181C12.1626 44.563 12.0118 45.6759 11.4652 46.6089C10.3388 48.5517 7.85126 49.2141 5.90796 48.0888C3.96465 46.9635 3.30094 44.4762 4.42524 42.5323ZM48.1747 23.6013C50.1192 24.7246 52.6061 24.0596 53.7304 22.1157C54.8547 20.1718 54.191 17.6845 52.2477 16.5592C50.3044 15.4339 47.8168 16.0963 46.6905 18.0391C46.1439 18.9722 45.9933 20.0853 46.2724 21.1302C46.5514 22.175 47.2368 23.0648 48.1759 23.6013H48.1747ZM46.6681 42.5323C47.7924 40.5885 50.2793 39.9235 52.2237 41.0468H52.2295C53.1674 41.5844 53.8514 42.4747 54.1291 43.5194C54.4068 44.5642 54.2552 45.6766 53.708 46.6089C52.5817 48.5517 50.0941 49.2141 48.1508 48.0888C46.2075 46.9635 45.5438 44.4762 46.6681 42.5323ZM31.1052 53.2968C29.1607 52.1735 26.6739 52.8385 25.5496 54.7824C24.4252 56.7263 25.089 59.2135 27.0323 60.3388C28.9756 61.4641 31.4632 60.8017 32.5895 58.859C33.1362 57.9259 33.2869 56.813 33.0081 55.7681C32.7293 54.7233 32.0441 53.8334 31.1052 53.2968Z" fill="#92B703"/>
<path fill-rule="evenodd" clip-rule="evenodd" d="M56.9577 48.4842C55.9287 50.281 54.226 51.5935 52.2265 52.1313C50.227 52.6692 48.0956 52.3879 46.3041 51.3497C42.9176 49.3734 41.5079 45.202 43.0013 41.5765L38.8007 39.1413C36.7934 42.033 33.6053 43.8835 30.0988 44.1922V49.0661C34.1711 49.6039 37.1278 53.2089 36.8583 57.3078C36.5888 61.4066 33.1856 64.5934 29.0778 64.5934C24.9701 64.5934 21.5669 61.4066 21.2974 57.3078C21.0279 53.2089 23.9846 49.6039 28.0569 49.0661V44.1922C24.5508 43.884 21.3627 42.0344 19.355 39.1437L15.1544 41.5788C16.6478 45.2043 15.238 49.3757 11.8516 51.352C10.06 52.3899 7.92871 52.671 5.9293 52.1332C3.92989 51.5954 2.22722 50.283 1.19802 48.4865C-0.947636 44.7452 0.326097 39.9736 4.05085 37.7994C7.43942 35.8361 11.759 36.6968 14.1364 39.8088L18.3335 37.3794C16.8405 34.1789 16.8405 30.4817 18.3335 27.2812L14.1364 24.8518C11.759 27.9638 7.43942 28.8245 4.05085 26.8612C0.326097 24.687 -0.947636 19.9154 1.19802 16.1741C2.22644 14.3768 3.92877 13.0634 5.92825 12.5248C7.92772 11.9861 10.0594 12.2665 11.8516 13.304C15.238 15.2803 16.6478 19.4517 15.1544 23.0771L19.355 25.5123C21.3627 22.6216 24.5508 20.7719 28.0569 20.4638V15.5841C23.9852 15.0463 21.029 11.4418 21.2985 7.34361C21.568 3.24539 24.9708 0.059082 29.0778 0.059082C33.1849 0.059082 36.5876 3.24539 36.8571 7.34361C37.1266 11.4418 34.1705 15.0463 30.0988 15.5841V20.458C33.6049 20.7662 36.7929 22.6158 38.8007 25.5066L43.0013 23.0714C41.5113 19.4475 42.9206 15.2798 46.3041 13.304C48.0956 12.2658 50.227 11.9845 52.2265 12.5223C54.226 13.0601 55.9287 14.3727 56.9577 16.1695C59.1033 19.9108 57.8296 24.6824 54.1048 26.8566C50.7163 28.8199 46.3967 27.9592 44.0193 24.8471L39.8222 27.2766C41.3152 30.4771 41.3152 34.1743 39.8222 37.3748L44.0193 39.8042C46.3967 36.6922 50.7163 35.8315 54.1048 37.7948C57.8315 39.9686 59.1056 44.7425 56.9577 48.4842ZM35.5198 32.3239C35.5071 35.8784 32.6175 38.7507 29.063 38.7422C25.5086 38.7337 22.6328 35.8476 22.6371 32.2931C22.6413 28.7386 25.5239 25.8594 29.0784 25.8594C29.6423 25.8594 30.0993 26.3165 30.0993 26.8803C30.0993 27.4442 29.6423 27.9013 29.0784 27.9013C27.2867 27.89 25.6651 28.9607 24.9716 30.6128C24.2781 32.265 24.6497 34.1723 25.9127 35.4433C27.1757 36.7143 29.0806 37.0979 30.7371 36.4148C32.3936 35.7317 33.4745 34.1169 33.4745 32.3251C33.4745 31.7613 33.9316 31.3042 34.4954 31.3042C35.0593 31.3042 35.5164 31.7613 35.5164 32.3251L35.5198 32.3239ZM48.7087 25.6609C47.2335 25.2636 45.9776 24.2945 45.219 22.9684C43.6316 20.2021 44.5727 16.6732 47.3268 15.0647C48.6482 14.2965 50.2218 14.088 51.6978 14.4855C53.1737 14.8831 54.4297 15.8537 55.1865 17.1818C56.7739 19.9481 55.8328 23.477 53.0787 25.0855C51.7566 25.8512 50.1839 26.0583 48.7087 25.6609ZM10.8254 15.0647C9.50346 14.2987 7.93062 14.0914 6.45532 14.4888C4.98003 14.8862 3.72408 15.8554 2.96571 17.1818C1.37869 19.9487 2.32087 23.4777 5.07583 25.0855C6.3978 25.8515 7.97065 26.0588 9.44594 25.6614C10.9212 25.264 12.1772 24.2948 12.9356 22.9684C14.523 20.2021 13.5819 16.6732 10.8277 15.0647H10.8254ZM9.44497 38.9857C10.9203 39.3828 12.176 40.3525 12.9332 41.6795H12.9356C14.5245 44.4463 13.5832 47.9769 10.8278 49.5855C9.50571 50.3512 7.93296 50.5583 6.45776 50.1609C4.98256 49.7636 3.72662 48.7946 2.96802 47.4684C1.38061 44.7021 2.32171 41.1732 5.07583 39.5647C6.3968 38.7971 7.96962 38.5886 9.44497 38.9857ZM29.0784 13.6105C31.4205 13.6222 33.5386 12.2204 34.443 10.0599C35.3474 7.8994 34.8597 5.40673 33.2077 3.74643C31.5557 2.08612 29.0655 1.58592 26.9005 2.4795C24.7355 3.37308 23.3231 5.48406 23.323 7.82622C23.3185 11.0114 25.8933 13.5991 29.0784 13.6105ZM23.7138 54.5892C24.6183 52.4287 26.7363 51.0268 29.0784 51.0385C32.2636 51.05 34.8383 53.6377 34.8338 56.8228C34.8338 59.165 33.4213 61.276 31.2563 62.1695C29.0913 63.0631 26.6011 62.5629 24.9491 60.9026C23.2971 59.2423 22.8094 56.7496 23.7138 54.5892ZM38.9002 32.3251C38.8753 26.9066 34.467 22.5319 29.0485 22.5485C23.63 22.5651 19.2485 26.9667 19.2568 32.3852C19.265 37.8037 23.6599 42.1919 29.0784 42.192C34.5128 42.1729 38.9061 37.7583 38.899 32.3239L38.9002 32.3251ZM48.7127 38.984C50.1895 38.5874 51.7635 38.7964 53.0856 39.5647C55.835 41.175 56.7726 44.7004 55.1865 47.4638C54.4281 48.7902 53.1722 49.7594 51.6969 50.1568C50.2216 50.5542 48.6487 50.3469 47.3268 49.5809C44.5727 47.9724 43.6316 44.4435 45.219 41.6772C45.9784 40.3499 47.2359 39.3805 48.7127 38.984Z" fill="black"/>
</svg>
