<svg width="79" height="79" viewBox="0 0 79 79" fill="none" xmlns="http://www.w3.org/2000/svg">
<path d="M47.4001 51.869V46.083H34.2332V51.869C34.2332 54.9644 33.317 57.9905 31.6001 60.5661H50.0332C48.3162 57.9905 47.4 54.9644 47.4001 51.869Z" fill="#645960"/>
<path d="M47.4 50.0331H34.2338V51.869C34.2338 52.1353 34.2244 52.4015 34.2109 52.6662H47.4229C47.4095 52.4007 47.4 52.1353 47.4 51.869V50.0331Z" fill="#4B4348"/>
<path d="M6.58302 1.31689H75.0499C76.5042 1.31689 77.683 2.49576 77.683 3.94996V44.7669H3.94995V3.94996C3.94995 2.49576 5.12882 1.31689 6.58302 1.31689Z" fill="#E6E6E6"/>
<path d="M10.533 5.26697V13.167H73.733V5.26697H10.533Z" fill="#CCCCCC"/>
<path d="M56.616 34.2339H73.7329V43.4508H56.616V34.2339Z" fill="#CCCCCC"/>
<path d="M32.916 34.2339H51.3491V44.767H32.916V34.2339Z" fill="#CCCCCC"/>
<path d="M10.533 18.4338H27.6499V28.9669H10.533V18.4338Z" fill="#CCCCCC"/>
<path d="M56.616 18.4338H73.7329V28.9669H56.616V18.4338Z" fill="#CCCCCC"/>
<path d="M32.916 18.4338H51.3491V28.9669H32.916V18.4338Z" fill="#CCCCCC"/>
<path d="M10.533 34.2339H27.6499V42.1339H10.533V34.2339Z" fill="#CCCCCC"/>
<path d="M55.3 35.55H72.417V44.767H55.3V35.55Z" fill="#F55441"/>
<path d="M31.6001 35.55H50.0332V46.0831H31.6001V35.55Z" fill="#FFAF00"/>
<path d="M3.94995 43.45H77.683V48.7169C77.683 49.4152 77.4056 50.0849 76.9118 50.5787C76.418 51.0725 75.7483 51.35 75.0499 51.35H6.58302C5.88469 51.35 5.21496 51.0725 4.72116 50.5787C4.22736 50.0849 3.94995 49.4152 3.94995 48.7169V43.45Z" fill="#315A70"/>
<path d="M9.21704 6.58313V14.4831H72.417V6.58313H9.21704Z" fill="#FFAF00"/>
<path d="M9.21704 19.75H26.334V30.2831H9.21704V19.75Z" fill="#6AD3D3"/>
<path d="M55.3 19.75H72.417V30.2831H55.3V19.75Z" fill="#19AF19"/>
<path d="M31.6001 19.75H50.0332V30.2831H31.6001V19.75Z" fill="#F55441"/>
<path d="M9.21704 35.55H26.334V43.45H9.21704V35.55Z" fill="#19AF19"/>
<rect x="1.31689" y="40.8169" width="26.3331" height="36.8669" rx="13.1665" fill="#645960"/>
<path d="M1.31689 46.083H27.65V72.4161H1.31689V46.083Z" fill="#E6E6E6"/>
<path d="M1.31689 69.7831V72.4161H27.65V60.8932C20.0892 66.6726 10.8335 69.7972 1.31689 69.7831Z" fill="#CCCCCC"/>
<path d="M57.9331 56.6169H71.1V77.6839H57.9331V56.6169Z" fill="#E6E6E6"/>
<path d="M57.9331 70.1631V77.6831H71.1V57.9015C67.6096 62.8582 63.1255 67.034 57.9331 70.1631Z" fill="#CCCCCC"/>
<path d="M57.9331 72.417H71.1V77.6839H57.9331V72.417Z" fill="#645960"/>
<path d="M1.31689 46.083H27.65V47.3999H1.31689V46.083Z" fill="#CCCCCC"/>
<path d="M6.58301 51.35H22.383V56.6169H6.58301V51.35Z" fill="#FFAF00"/>
<path fill-rule="evenodd" clip-rule="evenodd" d="M6.58307 0H75.05C77.2304 0.00261183 78.9974 1.76956 79 3.95V48.7169C78.9974 50.8974 77.2304 52.6643 75.05 52.6669H48.743C48.8816 55.2273 49.7056 57.7033 51.1288 59.8362C51.3979 60.2403 51.4229 60.7596 51.1937 61.1877C50.9646 61.6157 50.5186 61.8829 50.0331 61.8831H31.6C31.1145 61.8829 30.6685 61.6157 30.4393 61.1877C30.2102 60.7596 30.2352 60.2403 30.5043 59.8362C31.9283 57.7036 32.7531 55.2275 32.8924 52.6669H28.9669V75.05C28.9643 77.2304 27.1974 78.9974 25.0169 79H3.95C1.76956 78.9974 0.00261183 77.2304 0 75.05V43.45C0.00219876 41.777 1.05645 40.2863 2.63307 39.7267V3.95C2.63568 1.76956 4.40263 0.00261183 6.58307 0ZM75.05 2.63307H6.58386C5.8569 2.63394 5.2678 3.22304 5.26693 3.95V39.5H7.9V35.55C7.9 35.2007 8.03875 34.8658 8.28572 34.6188C8.53269 34.3718 8.86766 34.2331 9.21693 34.2331H26.3331C26.6823 34.2331 27.0173 34.3718 27.2643 34.6188C27.5113 34.8658 27.65 35.2007 27.65 35.55V40.5088C28.1434 40.9506 28.5182 41.5091 28.7402 42.1331H30.2831V35.55C30.2831 35.2007 30.4218 34.8658 30.6688 34.6188C30.9158 34.3718 31.2507 34.2331 31.6 34.2331H50.0331C50.3823 34.2331 50.7173 34.3718 50.9643 34.6188C51.2113 34.8658 51.35 35.2007 51.35 35.55V42.1331H53.9831V35.55C53.9831 35.2007 54.1218 34.8658 54.3688 34.6188C54.6158 34.3718 54.9507 34.2331 55.3 34.2331H72.4169C72.7662 34.2331 73.1012 34.3718 73.3481 34.6188C73.5951 34.8658 73.7339 35.2007 73.7339 35.55V42.1331H76.3669V3.95C76.3661 3.22304 75.777 2.63394 75.05 2.63307ZM71.1 42.1331H56.6169V36.8669H71.1V42.1331ZM32.9169 42.1331H48.7169V36.8669H32.9169V42.1331ZM25.0169 39.5H10.5331V36.8669H25.0169V39.5ZM25.0169 42.1331H3.95C3.22304 42.1339 2.63394 42.723 2.63307 43.45V44.7669H26.3331V43.45C26.3322 42.7234 25.7436 42.1344 25.0169 42.1331ZM26.3331 47.4V71.1H2.63307V47.4H26.3331ZM3.95 76.3669H25.0161H25.0169C25.7436 76.3656 26.3322 75.7766 26.3331 75.05V73.7331H2.63307V75.05C2.63394 75.777 3.22304 76.3661 3.95 76.3669ZM47.7681 59.25H33.8641C34.8585 57.1907 35.4253 54.9513 35.5303 52.6669H46.1004C46.2059 54.9514 46.7732 57.1908 47.7681 59.25ZM28.9669 50.0331H75.05C75.7766 50.0322 76.3656 49.4436 76.3669 48.7169V44.7669H28.9669V50.0331Z" fill="black"/>
<circle cx="40.8169" cy="47.3999" r="1.31693" fill="black"/>
<path fill-rule="evenodd" clip-rule="evenodd" d="M72.4168 15.8H9.21683C8.48982 15.8 7.90034 15.2109 7.8999 14.4839V6.5839C7.8999 5.85658 8.48951 5.26697 9.21683 5.26697H72.4168C73.1438 5.26697 73.7333 5.8561 73.7338 6.58311V14.4831C73.7338 15.2104 73.1441 15.8 72.4168 15.8ZM71.0999 7.90004H10.5338L10.533 13.167H71.0999V7.90004Z" fill="black"/>
<path fill-rule="evenodd" clip-rule="evenodd" d="M26.333 31.6H9.21683C8.48951 31.6 7.8999 31.0104 7.8999 30.2831V19.75C7.8999 19.0227 8.48951 18.4331 9.21683 18.4331H26.333C27.0603 18.4331 27.6499 19.0227 27.6499 19.75V30.2831C27.6499 31.0104 27.0603 31.6 26.333 31.6ZM25.0168 21.067H10.5338L10.533 28.967H25.0168V21.067Z" fill="black"/>
<path fill-rule="evenodd" clip-rule="evenodd" d="M55.3001 18.4331H72.4162C73.1435 18.4331 73.7332 19.0227 73.7332 19.75V30.2831C73.7332 31.0101 73.144 31.5996 72.417 31.6H55.3001C54.5728 31.6 53.9832 31.0104 53.9832 30.2831V19.75C53.9832 19.0227 54.5728 18.4331 55.3001 18.4331ZM56.6162 28.9662H71.0993V21.0662H56.6162V28.9662Z" fill="black"/>
<path fill-rule="evenodd" clip-rule="evenodd" d="M31.5999 18.4331H50.033C50.7603 18.4331 51.3499 19.0227 51.3499 19.75V30.2831C51.3499 31.0104 50.7603 31.6 50.033 31.6H31.5999C30.8726 31.6 30.283 31.0104 30.283 30.2831V19.75C30.283 19.0227 30.8726 18.4331 31.5999 18.4331ZM32.916 28.9662H48.716V21.0662H32.916V28.9662Z" fill="black"/>
<path fill-rule="evenodd" clip-rule="evenodd" d="M71.1 79C71.8273 79 72.4169 78.4104 72.4169 77.6831V56.617C72.4169 55.8897 71.8273 55.3 71.1 55.3H57.9339C57.5846 55.3 57.2496 55.4388 57.0027 55.6858C56.7557 55.9327 56.6169 56.2677 56.6169 56.617V77.6839C56.6174 78.4109 57.2069 79 57.9339 79H71.1ZM64.5169 76.367H59.25V73.7339H69.7831V76.367H64.5169ZM69.7839 71.1V57.9339L59.25 57.9331V71.1H69.7839Z" fill="black"/>
<circle cx="64.5169" cy="75.05" r="1.31693" fill="black"/>
<path d="M60.5669 60.5669H68.4669V63.2H60.5669V60.5669Z" fill="black"/>
<path d="M60.5669 65.833H68.4669V68.4661H60.5669V65.833Z" fill="black"/>
<circle cx="14.4839" cy="75.05" r="1.31693" fill="black"/>
<path fill-rule="evenodd" clip-rule="evenodd" d="M22.3838 57.9331H6.58378C5.85676 57.9331 5.26728 57.344 5.26685 56.6169V51.35C5.26685 50.6227 5.85646 50.0331 6.58378 50.0331H22.3838C23.1108 50.0331 23.7003 50.6222 23.7007 51.3492V56.6162C23.7007 57.3435 23.1111 57.9331 22.3838 57.9331ZM21.0668 52.6662H7.90071L7.89992 55.2992H21.0668V52.6662Z" fill="black"/>
<path d="M18.4331 60.5669H23.7V63.2H18.4331V60.5669Z" fill="black"/>
<path d="M18.4331 65.833H23.7V68.4661H18.4331V65.833Z" fill="black"/>
<path d="M11.8501 60.5669H17.117V63.2H11.8501V60.5669Z" fill="black"/>
<path d="M11.8501 65.833H17.117V68.4661H11.8501V65.833Z" fill="black"/>
<path d="M5.26685 60.5669H10.5338V63.2H5.26685V60.5669Z" fill="black"/>
<path d="M5.26685 65.833H10.5338V68.4661H5.26685V65.833Z" fill="black"/>
</svg>
