<svg width="58" height="59" viewBox="0 0 58 59" fill="none" xmlns="http://www.w3.org/2000/svg">
<path d="M50.0188 2.13623H13.1495C15.699 3.62001 17.2674 6.34738 17.2674 9.29721C17.2674 12.247 15.699 14.9744 13.1495 16.4582H50.0188C52.5771 16.4582 54.9412 15.0933 56.2203 12.8777C57.4995 10.6621 57.4995 7.93234 56.2203 5.71672C54.9412 3.50111 52.5771 2.13623 50.0188 2.13623V2.13623Z" fill="#FEE55A"/>
<path d="M24.1027 9.29721C24.1033 6.34707 22.5345 3.61934 19.9843 2.13623H13.1495C15.699 3.62001 17.2674 6.34738 17.2674 9.29721C17.2674 12.247 15.699 14.9744 13.1495 16.4582H19.9843C22.5345 14.9751 24.1033 12.2474 24.1027 9.29721Z" fill="#FFD301"/>
<path d="M8.19125 22.0319H45.0605C42.511 23.5157 40.9426 26.2431 40.9426 29.1929C40.9426 32.1427 42.511 34.8701 45.0605 36.3539H8.19125C4.23635 36.3539 1.03027 33.1478 1.03027 29.1929C1.03027 25.238 4.23635 22.0319 8.19125 22.0319Z" fill="#FF9838"/>
<path d="M7.86618 29.1929C7.86618 25.238 11.0723 22.0319 15.0272 22.0319H8.19125C5.63288 22.0319 3.26885 23.3968 1.98966 25.6124C0.710477 27.828 0.710477 30.5578 1.98966 32.7734C3.26885 34.989 5.63288 36.3539 8.19125 36.3539H15.026C11.0716 36.3532 7.86618 33.1474 7.86618 29.1929Z" fill="#FF8706"/>
<path d="M50.0188 41.9288H13.1495C15.699 43.4126 17.2674 46.14 17.2674 49.0898C17.2674 52.0396 15.699 54.767 13.1495 56.2508H50.0188C53.9737 56.2508 57.1797 53.0447 57.1797 49.0898C57.1797 45.1349 53.9737 41.9288 50.0188 41.9288V41.9288Z" fill="#FF656F"/>
<path d="M24.1028 49.0898C24.1036 46.1399 22.5353 43.4122 19.9855 41.9288H13.1508C15.7002 43.4126 17.2686 46.14 17.2686 49.0898C17.2686 52.0396 15.7002 54.767 13.1508 56.2508H19.9855C22.5353 54.7674 24.1036 52.0397 24.1028 49.0898Z" fill="#FF4756"/>
<circle cx="9.31914" cy="9.29722" r="8.28776" fill="#DFEBFA"/>
<circle cx="48.8931" cy="29.1941" r="8.28776" fill="#DFEBFA"/>
<circle cx="9.31914" cy="49.091" r="8.28776" fill="#DFEBFA"/>
<path d="M5.39973 9.2972C5.39791 5.55948 7.89786 2.28292 11.5033 1.29749C8.13266 0.376169 4.54623 1.66795 2.53718 4.52698C0.528133 7.38601 0.528133 11.198 2.53718 14.057C4.54623 16.916 8.13266 18.2078 11.5033 17.2865C7.90159 16.3021 5.4026 13.0311 5.39973 9.2972Z" fill="#B1DBFC"/>
<path d="M44.9737 29.1941C44.9745 25.4585 47.4739 22.185 51.0773 21.2001C47.7066 20.2788 44.1202 21.5706 42.1112 24.4296C40.1021 27.2887 40.1021 31.1006 42.1112 33.9597C44.1202 36.8187 47.7066 38.1105 51.0773 37.1891C47.4735 36.2042 44.974 32.9301 44.9737 29.1941Z" fill="#B1DBFC"/>
<path d="M5.39973 49.091C5.40052 45.3554 7.89993 42.0819 11.5033 41.0971C8.13266 40.1757 4.54623 41.4675 2.53718 44.3265C0.528133 47.1856 0.528133 50.9975 2.53718 53.8566C4.54623 56.7156 8.13266 58.0074 11.5033 57.0861C7.89951 56.1011 5.4 52.827 5.39973 49.091Z" fill="#B1DBFC"/>
<path fill-rule="evenodd" clip-rule="evenodd" d="M13.6806 17.2992C12.3364 18.0399 10.8263 18.4276 9.29147 18.426C5.46898 18.4351 2.04464 16.0643 0.70774 12.4832C-0.629157 8.90213 0.403845 4.86732 3.29715 2.36925C6.19045 -0.128814 10.3328 -0.562365 13.6806 1.28248H28.8679C29.3359 1.28248 29.7153 1.66188 29.7153 2.12988C29.7153 2.59789 29.3359 2.97729 28.8679 2.97729H15.8867C19.2725 6.50545 19.2725 12.0763 15.8867 15.6044H49.9911C53.4446 15.5577 56.2198 12.7447 56.2198 9.29086C56.2198 5.83698 53.4446 3.02404 49.9911 2.97729H32.8221C32.3541 2.97729 31.9747 2.59789 31.9747 2.12988C31.9747 1.66188 32.3541 1.28248 32.8221 1.28248H49.9911C54.414 1.28248 57.9994 4.86796 57.9994 9.29086C57.9994 13.7138 54.414 17.2992 49.9911 17.2992H13.6806ZM16.7313 9.2899C16.7304 5.18162 13.3997 1.85166 9.29147 1.85166C5.1837 1.85867 1.85615 5.18829 1.85169 9.29607C1.85424 13.4043 5.18628 16.7329 9.29456 16.7312C13.4028 16.7295 16.7321 13.3982 16.7313 9.2899Z" fill="black"/>
<path fill-rule="evenodd" clip-rule="evenodd" d="M9.29147 58.2198C10.8263 58.2213 12.3364 57.8336 13.6806 57.093H49.9911C54.3764 57.0403 57.9038 53.4703 57.9038 49.0846C57.9038 44.6989 54.3764 41.129 49.9911 41.0762H13.6806C10.3328 39.2314 6.19045 39.6649 3.29715 42.163C0.403845 44.6611 -0.629157 48.6959 0.70774 52.277C2.04464 55.8581 5.46898 58.2289 9.29147 58.2198ZM49.9911 42.7722C53.4446 42.819 56.2197 45.6319 56.2197 49.0858C56.2197 52.5397 53.4446 55.3526 49.9911 55.3994H15.8867C19.2725 51.8712 19.2725 46.3004 15.8867 42.7722H49.9911ZM16.7313 49.0852C16.7313 44.9763 13.4004 41.6454 9.29147 41.6454C5.1855 41.6524 1.85869 44.9792 1.85169 49.0852C1.85169 53.1941 5.18259 56.525 9.29147 56.525C13.4004 56.525 16.7313 53.1941 16.7313 49.0852Z" fill="black"/>
<path d="M8.53726 7.37685V12.5457C8.53726 13.0137 8.91665 13.3931 9.38466 13.3931C9.85266 13.3931 10.2321 13.0137 10.2321 12.5457V6.0372C10.2321 5.74559 10.0822 5.47447 9.83509 5.31956C9.58804 5.16465 9.27866 5.14775 9.0162 5.27483L7.92527 5.80236C7.5241 5.99262 7.338 6.46044 7.49886 6.87428C7.65971 7.28812 8.11289 7.50746 8.53726 7.37685Z" fill="black"/>
<path d="M46.2625 31.8873C46.0292 32.1329 45.9648 32.494 46.0987 32.8051C46.2327 33.1163 46.5392 33.3177 46.8779 33.3172H50.8529C51.3209 33.3172 51.7003 32.9378 51.7003 32.4698C51.7003 32.0017 51.3209 31.6224 50.8529 31.6224H48.8457L50.5718 29.798L50.5857 29.7829C51.1583 29.174 51.4517 28.3541 51.3955 27.5201C51.3345 26.7697 50.964 26.0785 50.3728 25.6124C49.7671 25.1301 48.9756 24.9476 48.2199 25.1162C47.3274 25.3043 46.5629 25.8755 46.1294 26.6779C45.9866 26.9447 45.997 27.2674 46.1566 27.5245C46.3163 27.7815 46.601 27.9339 46.9034 27.9242C47.2058 27.9144 47.4801 27.7441 47.6229 27.4773C47.8189 27.1193 48.1602 26.8636 48.5588 26.7763C48.8209 26.7125 49.0978 26.7708 49.3119 26.9347C49.5389 27.1092 49.6818 27.3713 49.7053 27.6566C49.7204 28.0223 49.5849 28.3781 49.3305 28.6411L46.2625 31.8873Z" fill="black"/>
<path d="M9.91848 51.5204H8.2202C7.7522 51.5204 7.3728 51.8998 7.3728 52.3678C7.3728 52.8358 7.7522 53.2152 8.2202 53.2152H9.91617C11.6081 52.5429 12.7187 50.9064 12.7187 49.0858C12.7187 47.2651 11.6081 45.6287 9.91617 44.9564H8.2202C7.7522 44.9564 7.3728 45.3358 7.3728 45.8038C7.3728 46.2718 7.7522 46.6512 8.2202 46.6512H9.91617C10.3545 46.6512 10.7098 47.0065 10.7098 47.4448C10.7098 47.8831 10.3545 48.2384 9.91617 48.2384H8.2202C7.7522 48.2384 7.3728 48.6178 7.3728 49.0858C7.3728 49.5538 7.7522 49.9332 8.2202 49.9332H9.91617C10.3545 49.9332 10.7098 50.2885 10.7098 50.7268C10.7098 51.1651 10.3545 51.5204 9.91617 51.5204H9.91848Z" fill="black"/>
<path fill-rule="evenodd" clip-rule="evenodd" d="M44.4763 37.1973H8.16585V37.2019C3.74295 37.2019 0.157471 33.6164 0.157471 29.1935C0.157471 24.7706 3.74295 21.1852 8.16585 21.1852H44.4763C46.9641 19.8198 49.9454 19.6889 52.5434 20.831C55.1413 21.9731 57.0604 24.2583 57.7363 27.0146C57.8474 27.4692 57.569 27.9278 57.1145 28.039C56.6599 28.1502 56.2012 27.8718 56.09 27.4172C55.1919 23.763 51.7066 21.3548 47.9709 21.8071C44.2352 22.2595 41.4255 25.43 41.4255 29.193C41.4255 32.9559 44.2352 36.1264 47.9709 36.5788C51.7066 37.0312 55.1919 34.6229 56.09 30.9687C56.2012 30.5141 56.6599 30.2358 57.1145 30.3469C57.569 30.4581 57.8474 30.9167 57.7363 31.3713C57.0596 34.1269 55.1401 36.4113 52.5423 37.5527C49.9445 38.6941 46.9637 38.5627 44.4763 37.1973ZM42.2702 22.8753H8.16585C4.71229 22.9221 1.93716 25.735 1.93716 29.1889C1.93716 32.6428 4.71229 35.4557 8.16585 35.5025H42.2702C38.8844 31.9743 38.8844 26.4035 42.2702 22.8753Z" fill="black"/>
<path d="M22.3166 46.6523H32.6509C33.1189 46.6523 33.4983 46.2729 33.4983 45.8049C33.4983 45.3369 33.1189 44.9575 32.6509 44.9575H22.3166C21.8486 44.9575 21.4692 45.3369 21.4692 45.8049C21.4692 46.2729 21.8486 46.6523 22.3166 46.6523Z" fill="black"/>
<path d="M22.3166 49.976H44.6927C45.1607 49.976 45.5401 49.5966 45.5401 49.1286C45.5401 48.6606 45.1607 48.2812 44.6927 48.2812H22.3166C21.8486 48.2812 21.4692 48.6606 21.4692 49.1286C21.4692 49.5966 21.8486 49.976 22.3166 49.976Z" fill="black"/>
<path d="M22.3166 53.302H44.6927C45.1607 53.302 45.5401 52.9226 45.5401 52.4546C45.5401 51.9866 45.1607 51.6072 44.6927 51.6072H22.3166C21.8486 51.6072 21.4692 51.9866 21.4692 52.4546C21.4692 52.9226 21.8486 53.302 22.3166 53.302Z" fill="black"/>
<path d="M32.652 5.07471H22.3177C21.8497 5.07471 21.4703 5.4541 21.4703 5.92211C21.4703 6.39012 21.8497 6.76951 22.3177 6.76951H32.652C33.12 6.76951 33.4994 6.39012 33.4994 5.92211C33.4994 5.4541 33.12 5.07471 32.652 5.07471Z" fill="black"/>
<path d="M44.6927 8.40063H22.3166C21.8486 8.40063 21.4692 8.78003 21.4692 9.24804C21.4692 9.71604 21.8486 10.0954 22.3166 10.0954H44.6927C45.1607 10.0954 45.5401 9.71604 45.5401 9.24804C45.5401 8.78003 45.1607 8.40063 44.6927 8.40063Z" fill="black"/>
<path d="M44.6927 11.7266H22.3166C21.8486 11.7266 21.4692 12.106 21.4692 12.574C21.4692 13.042 21.8486 13.4214 22.3166 13.4214H44.6927C45.1607 13.4214 45.5401 13.042 45.5401 12.574C45.5401 12.106 45.1607 11.7266 44.6927 11.7266V11.7266Z" fill="black"/>
<path d="M11.6608 26.7126H21.995C22.463 26.7126 22.8424 26.3332 22.8424 25.8652C22.8424 25.3972 22.463 25.0178 21.995 25.0178H11.6608C11.1927 25.0178 10.8134 25.3972 10.8134 25.8652C10.8134 26.3332 11.1927 26.7126 11.6608 26.7126Z" fill="black"/>
<path d="M11.6608 30.0363H34.0391C34.5071 30.0363 34.8865 29.6569 34.8865 29.1889C34.8865 28.7209 34.5071 28.3415 34.0391 28.3415H11.6608C11.1927 28.3415 10.8134 28.7209 10.8134 29.1889C10.8134 29.6569 11.1927 30.0363 11.6608 30.0363Z" fill="black"/>
<path d="M11.6608 33.3611H34.0391C34.5071 33.3611 34.8865 32.9817 34.8865 32.5137C34.8865 32.0457 34.5071 31.6663 34.0391 31.6663H11.6608C11.1927 31.6663 10.8134 32.0457 10.8134 32.5137C10.8134 32.9817 11.1927 33.3611 11.6608 33.3611Z" fill="black"/>
</svg>
