<svg width="59" height="55" viewBox="0 0 59 55" fill="none" xmlns="http://www.w3.org/2000/svg">
<path d="M31.9035 39.0938C32.3732 39.0938 32.754 38.7107 32.754 38.2381C32.754 37.7655 32.3732 37.3824 31.9035 37.3824H26.1649C25.6952 37.3824 25.3145 37.7655 25.3145 38.2381C25.3145 38.7107 25.6952 39.0938 26.1649 39.0938H31.9035Z" fill="black"/>
<path fill-rule="evenodd" clip-rule="evenodd" d="M54.5294 0.120059H43.5865C43.1168 0.120059 42.736 0.50316 42.736 0.975739C42.736 1.44832 43.1168 1.83142 43.5865 1.83142H54.5294C55.5445 1.83265 56.3671 2.66031 56.3684 3.68166V34.0337H1.70098V3.68166C1.70037 2.659 2.52354 1.8293 3.54 1.82806H39.6168C40.0865 1.82806 40.4673 1.44496 40.4673 0.972379C40.4673 0.4998 40.0865 0.116699 39.6168 0.116699H3.54C1.58463 0.119171 0.000612582 1.71435 0 3.68166V38.9135C0.00245332 40.8795 1.58593 42.4726 3.54 42.4751H11.6887C12.1584 42.4751 12.5392 42.092 12.5392 41.6194C12.5392 41.1468 12.1584 40.7637 11.6887 40.7637H3.54C2.52485 40.7625 1.70221 39.9348 1.70098 38.9135V35.7428H56.3684V38.9135C56.3671 39.9348 55.5445 40.7625 54.5294 40.7637H15.6161C15.1464 40.7637 14.7656 41.1468 14.7656 41.6194C14.7656 42.092 15.1464 42.4751 15.6161 42.4751H20.9695L20.1168 47.4322C19.0474 47.5353 17.9954 47.6573 16.9608 47.7985C14.2486 48.1794 12.2283 50.51 12.2219 53.2652C12.2217 53.5215 12.3357 53.7644 12.5325 53.9271C12.7294 54.0898 12.9884 54.1552 13.2383 54.1052C18.4464 53.1228 23.7359 52.6442 29.0347 52.6761C34.3333 52.6431 39.6229 53.1206 44.8311 54.1018C45.081 54.1518 45.34 54.0865 45.5368 53.9238C45.7337 53.7611 45.8477 53.5181 45.8475 53.2618C45.841 50.5066 43.8207 48.176 41.1085 47.7951C40.0747 47.654 39.0227 47.5319 37.9526 47.4289L37.0999 42.4717H54.5294C56.4834 42.4693 58.0669 40.8761 58.0694 38.9101V3.68166C58.0669 1.71567 56.4834 0.122528 54.5294 0.120059ZM43.9951 52.2001C39.0531 51.3547 34.0475 50.9425 29.0347 50.9681C24.0218 50.9425 19.0163 51.3547 14.0743 52.2001C14.4925 50.7581 15.7126 49.6971 17.1913 49.4897C21.1179 48.9675 25.075 48.7112 29.0358 48.7225C32.9966 48.7112 36.9537 48.9675 40.8803 49.4897C42.359 49.6971 43.5791 50.7581 43.9973 52.2001H43.9951ZM29.0369 47.0066C31.4826 47.0066 33.8782 47.0951 36.2026 47.2721L35.3733 42.4661H22.6972L21.8712 47.2721C24.1956 47.0951 26.5912 47.0066 29.0369 47.0066Z" fill="black"/>
<path d="M26.501 10.0097H23.5666L21.103 5.13883C20.958 4.8518 20.665 4.67102 20.3449 4.67102C20.0249 4.67102 19.7319 4.8518 19.5869 5.13883L15.5726 13.0763L12.1851 6.37867C12.0401 6.09164 11.7471 5.91086 11.427 5.91086C11.107 5.91086 10.814 6.09164 10.6689 6.37867L8.83327 10.0097H5.90664C5.43693 10.0097 5.05615 10.3928 5.05615 10.8654C5.05615 11.338 5.43693 11.7211 5.90664 11.7211H9.35759C9.67772 11.721 9.9707 11.5401 10.1157 11.2529L11.4304 8.65339L14.8123 15.3476C14.9574 15.6347 15.2503 15.8154 15.5704 15.8154C15.8905 15.8154 16.1834 15.6347 16.3285 15.3476L20.3427 7.40907L22.2842 11.2484C22.4291 11.5356 22.7221 11.7165 23.0422 11.7166H26.4932C26.9629 11.7166 27.3437 11.3335 27.3437 10.8609C27.3437 10.3883 26.9629 10.0052 26.4932 10.0052L26.501 10.0097Z" fill="black"/>
<path d="M26.4988 18.8408H6.23843C5.76872 18.8408 5.38794 19.2239 5.38794 19.6965C5.38794 20.1691 5.76872 20.5522 6.23843 20.5522H26.4988C26.9685 20.5522 27.3493 20.1691 27.3493 19.6965C27.3493 19.2239 26.9685 18.8408 26.4988 18.8408V18.8408Z" fill="black"/>
<path d="M6.23404 25.6874H24.789C25.0928 25.6874 25.3736 25.5243 25.5255 25.2596C25.6775 24.9948 25.6775 24.6687 25.5255 24.4039C25.3736 24.1392 25.0928 23.9761 24.789 23.9761H6.23404C5.93018 23.9761 5.64941 24.1392 5.49749 24.4039C5.34556 24.6687 5.34556 24.9948 5.49749 25.2596C5.64941 25.5243 5.93018 25.6874 6.23404 25.6874Z" fill="black"/>
<path d="M6.23404 30.8137H26.4944C26.9641 30.8137 27.3449 30.4306 27.3449 29.958C27.3449 29.4854 26.9641 29.1023 26.4944 29.1023H6.23404C5.76432 29.1023 5.38354 29.4854 5.38354 29.958C5.38354 30.4306 5.76432 30.8137 6.23404 30.8137Z" fill="black"/>
<path d="M52.0279 18.8442H48.715C48.2453 18.8442 47.8645 19.2273 47.8645 19.6999C47.8645 20.1725 48.2453 20.5556 48.715 20.5556H52.029C52.3329 20.5556 52.6136 20.3925 52.7656 20.1278C52.9175 19.863 52.9175 19.5368 52.7656 19.2721C52.6136 19.0073 52.3329 18.8442 52.029 18.8442L52.0279 18.8442Z" fill="black"/>
<path d="M44.7331 18.8442H31.7631C31.2934 18.8442 30.9126 19.2273 30.9126 19.6999C30.9126 20.1725 31.2934 20.5556 31.7631 20.5556H44.7331C45.0369 20.5556 45.3177 20.3925 45.4696 20.1278C45.6215 19.863 45.6215 19.5368 45.4696 19.2721C45.3177 19.0073 45.0369 18.8442 44.7331 18.8442V18.8442Z" fill="black"/>
<path d="M31.7631 29.1079C31.2934 29.1079 30.9126 29.491 30.9126 29.9636C30.9126 30.4362 31.2934 30.8193 31.7631 30.8193H50.3236C50.7933 30.8193 51.1741 30.4362 51.1741 29.9636C51.1741 29.491 50.7933 29.1079 50.3236 29.1079H31.7631Z" fill="black"/>
<path d="M30.9126 24.8351C30.9126 25.3076 31.2934 25.6907 31.7631 25.6907H52.0235C52.4932 25.6907 52.874 25.3076 52.874 24.8351C52.874 24.3625 52.4932 23.9794 52.0235 23.9794H31.7631C31.2934 23.9794 30.9126 24.3625 30.9126 24.8351Z" fill="black"/>
<path fill-rule="evenodd" clip-rule="evenodd" d="M47.7155 6.93079H52.028C52.4978 6.93079 52.8785 7.31389 52.8785 7.78647V14.9645C52.8785 15.4371 52.4978 15.8202 52.028 15.8202H47.7155C47.2458 15.8202 46.865 15.4371 46.865 14.9645V7.78647C46.865 7.55953 46.9546 7.34188 47.1141 7.18141C47.2736 7.02094 47.4899 6.93079 47.7155 6.93079ZM48.566 14.1089H51.1776V8.64215H48.566V14.1089Z" fill="black"/>
<path fill-rule="evenodd" clip-rule="evenodd" d="M39.7804 10.5204H44.093C44.5627 10.5204 44.9435 10.9035 44.9435 11.3761V14.9601C44.9435 15.4326 44.5627 15.8157 44.093 15.8157H39.7804C39.3107 15.8157 38.9299 15.4326 38.9299 14.9601V11.3761C38.9299 10.9035 39.3107 10.5204 39.7804 10.5204ZM40.6309 14.1044H43.2425V12.2273H40.6309V14.1044Z" fill="black"/>
<path fill-rule="evenodd" clip-rule="evenodd" d="M36.216 15.8202H31.9035C31.6779 15.8202 31.4616 15.7301 31.3021 15.5696C31.1426 15.4091 31.053 15.1915 31.053 14.9646V5.52743C31.053 5.05485 31.4338 4.67175 31.9035 4.67175H36.216C36.6857 4.67175 37.0665 5.05485 37.0665 5.52743V14.9646C37.0665 15.4371 36.6857 15.8202 36.216 15.8202ZM35.3655 6.38311H32.754V14.1111H35.3655V6.38311Z" fill="black"/>
</svg>
