<svg width="52" height="46" viewBox="0 0 52 46" fill="none" xmlns="http://www.w3.org/2000/svg">
<path opacity="0.1" d="M20.0167 0C21.6123 7.18049 22.41 14.0618 22.41 20.6439C22.41 29.0211 20.5244 35.3789 16.7531 39.7171C13.1269 43.9057 7.68759 46 0.435146 46V36.8C4.20641 36.8 6.88982 35.8276 8.48536 33.8829C10.0809 31.7886 10.8787 28.6472 10.8787 24.4585V19.2976H0V0H20.0167ZM49.3891 0C51.1297 7.77886 52 14.6602 52 20.6439C52 29.0211 50.1144 35.3789 46.3431 39.7171C42.5718 43.9057 37.06 46 29.8075 46V36.8C33.5788 36.8 36.2622 35.8276 37.8577 33.8829C39.4533 31.7886 40.251 28.6472 40.251 24.4585V19.2976H29.3724V0H49.3891Z" fill="black"/>
</svg>
