<svg width="57" height="57" viewBox="0 0 57 57" fill="none" xmlns="http://www.w3.org/2000/svg">
<path d="M54.6768 25.7149H44.9327C44.4139 25.715 43.9648 25.3546 43.8525 24.8481C43.2411 22.1242 41.9132 19.613 40.0062 17.5741C39.7702 17.3184 39.5247 17.0714 39.2698 16.8332C37.2372 14.9102 34.7319 13.5593 32.0083 12.9176C31.5065 12.8015 31.151 12.3548 31.1505 11.8397V2.08203C31.1511 1.75987 31.2915 1.45383 31.5354 1.24329C31.7792 1.03275 32.1025 0.938455 32.4213 0.984855C44.5683 2.72359 54.0952 12.2968 55.7751 24.4521C55.8201 24.7701 55.7251 25.092 55.5147 25.3346C55.3043 25.5772 54.999 25.7168 54.6779 25.7172L54.6768 25.7149Z" fill="#98D5B9"/>
<path d="M25.8541 2.07861V11.8306C25.8538 12.3471 25.4965 12.7948 24.9929 12.9096C22.3273 13.5216 19.8681 14.8202 17.8596 16.6766C17.5049 17.0011 17.1645 17.3415 16.8385 17.6977C15.0074 19.719 13.7348 22.1827 13.1464 24.8458C13.0346 25.3533 12.5848 25.7148 12.0651 25.7149H2.32105C1.99967 25.7145 1.69426 25.5748 1.4838 25.3319C1.27335 25.089 1.17853 24.7668 1.22388 24.4487C1.48227 22.5674 1.9363 20.7181 2.57861 18.9311C6.02063 9.33479 14.4859 2.42776 24.5777 0.981437C24.8965 0.935037 25.2197 1.02933 25.4636 1.23987C25.7074 1.45041 25.8478 1.75645 25.8484 2.07861H25.8541Z" fill="#FD9468"/>
<path d="M55.7741 32.2799C55.5157 34.1616 55.0616 36.0112 54.4193 37.7987C50.9769 47.394 42.5124 54.3004 32.4214 55.7472C32.1026 55.7936 31.7794 55.6993 31.5355 55.4887C31.2917 55.2782 31.1512 54.9722 31.1506 54.65V44.8923C31.1511 44.3772 31.5066 43.9305 32.0084 43.8144C34.732 43.1728 37.2373 41.8219 39.2699 39.8989C39.5249 39.6606 39.7703 39.4136 40.0063 39.158C41.9134 37.1191 43.2412 34.6079 43.8527 31.8839C43.9649 31.3775 44.414 31.017 44.9328 31.0171H54.6769C54.9976 31.0176 55.3024 31.1569 55.5127 31.399C55.723 31.6411 55.8183 31.9623 55.7741 32.2799Z" fill="#FE646F"/>
<path d="M25.8542 44.8991V54.6511C25.8536 54.9732 25.7132 55.2793 25.4693 55.4898C25.2255 55.7004 24.9022 55.7947 24.5834 55.7483C12.4336 54.0121 2.90361 44.4376 1.22396 32.2799C1.17897 31.9619 1.27396 31.64 1.48437 31.3974C1.69478 31.1548 1.99999 31.0152 2.32113 31.0148H12.0618C12.5817 31.0144 13.0317 31.3761 13.1431 31.8839C13.7338 34.5478 15.0091 37.0116 16.8431 39.032C17.1668 39.389 17.5072 39.7294 17.8642 40.0531C19.8718 41.9065 22.3288 43.2031 24.9919 43.8144C25.498 43.9292 25.8564 44.3801 25.8542 44.8991Z" fill="#FEE45A"/>
<path d="M54.4192 37.7997C51.6496 45.4835 45.6198 51.5466 37.9514 54.3583C37.8396 53.8823 37.7832 53.395 37.7834 52.906V43.9641C37.7825 42.4748 38.31 41.0334 39.2721 39.8965C39.4968 39.6298 39.7431 39.382 40.0084 39.1556C41.149 38.1815 42.5999 37.6467 44.0999 37.6477H53.0418C53.5051 37.6475 53.967 37.6985 54.4192 37.7997Z" fill="#FD4755"/>
<path d="M53.0406 55.8992H44.0998C42.4468 55.8992 41.1067 54.5591 41.1067 52.9061V43.9653C41.1067 42.3122 42.4468 40.9722 44.0998 40.9722H53.0406C54.6936 40.9722 56.0337 42.3122 56.0337 43.9653V52.9061C56.0337 54.5591 54.6936 55.8992 53.0406 55.8992Z" fill="#918291"/>
<circle cx="48.5703" cy="47.579" r="3.61375" fill="#FFCEBF"/>
<path d="M44.0999 55.8991H53.0407C53.3181 55.8995 53.5941 55.8613 53.861 55.7856C53.4879 53.1499 51.2317 51.1907 48.5697 51.1907C45.9077 51.1907 43.6516 53.1499 43.2784 55.7856C43.5457 55.8614 43.8221 55.8996 44.0999 55.8991Z" fill="#8AC9FE"/>
<path d="M19.2167 43.9641V52.906C19.2169 53.395 19.1605 53.8823 19.0487 54.3583C11.3803 51.5466 5.35051 45.4835 2.58093 37.7997C3.03344 37.6984 3.49577 37.6474 3.95949 37.6477H12.9014C16.388 37.6521 19.2134 40.4775 19.2178 43.9641H19.2167Z" fill="#FEDF30"/>
<path d="M12.8991 55.8991H3.95833C3.16411 55.8991 2.40245 55.5835 1.84107 55.0217C1.27969 54.4598 0.964609 53.698 0.965211 52.9037V43.963C0.965211 42.3099 2.30527 40.9698 3.95833 40.9698H12.8991C14.5521 40.9698 15.8922 42.3099 15.8922 43.963V52.9037C15.8928 53.698 15.5777 54.4598 15.0164 55.0217C14.455 55.5835 13.6933 55.8991 12.8991 55.8991Z" fill="#918291"/>
<circle cx="8.42869" cy="47.579" r="3.61375" fill="#FFCEBF"/>
<path d="M3.9583 55.8991H12.8991C13.1765 55.8995 13.4525 55.8613 13.7194 55.7856C13.3463 53.1499 11.0901 51.1907 8.42812 51.1907C5.76609 51.1907 3.50998 53.1499 3.13684 55.7856C3.4037 55.8613 3.67979 55.8995 3.95717 55.8991H3.9583Z" fill="#8AC9FE"/>
<path d="M54.4192 18.9288C53.9667 19.0302 53.5044 19.0812 53.0407 19.0809H44.0988C42.5988 19.0818 41.1479 18.5471 40.0073 17.573C39.742 17.3465 39.4957 17.0987 39.271 16.832C38.3089 15.6952 37.7814 14.2538 37.7823 12.7645V3.82255C37.7821 3.33359 37.8385 2.84625 37.9503 2.37024C45.6191 5.18173 51.6494 11.2448 54.4192 18.9288Z" fill="#57BE92"/>
<path d="M53.0407 15.7576H44.0999C42.4469 15.7576 41.1068 14.4175 41.1068 12.7645V3.82368C41.1068 2.17063 42.4469 0.830566 44.0999 0.830566H53.0407C54.6937 0.830566 56.0338 2.17063 56.0338 3.82368V12.7645C56.0338 14.4175 54.6937 15.7576 53.0407 15.7576Z" fill="#918291"/>
<circle cx="48.5703" cy="7.43748" r="3.61375" fill="#FFCEBF"/>
<path d="M44.0999 15.7576H53.0407C53.3181 15.758 53.5941 15.7199 53.861 15.6442C53.4879 13.0084 51.2317 11.0492 48.5697 11.0492C45.9077 11.0492 43.6516 13.0084 43.2784 15.6442C43.5457 15.7199 43.8221 15.7581 44.0999 15.7576Z" fill="#8AC9FE"/>
<path d="M19.2166 3.82255V12.7645C19.211 16.2506 16.3863 19.0752 12.9002 19.0809H3.95827C3.49455 19.0812 3.03222 19.0302 2.57971 18.9288C5.34929 11.245 11.3791 5.18201 19.0475 2.37024C19.1593 2.84625 19.2157 3.33359 19.2154 3.82255H19.2166Z" fill="#FE7D43"/>
<path d="M12.8991 15.7576H3.95833C2.30527 15.7576 0.96521 14.4175 0.96521 12.7645V3.82368C0.96521 2.17063 2.30527 0.830568 3.95833 0.830568H12.8991C13.6935 0.829665 14.4557 1.14461 15.0177 1.70603C15.5798 2.26744 15.8956 3.02927 15.8956 3.82368V12.7645C15.8956 13.5589 15.5798 14.3207 15.0177 14.8821C14.4557 15.4435 13.6935 15.7585 12.8991 15.7576Z" fill="#918291"/>
<circle cx="8.42869" cy="7.43748" r="3.61375" fill="#FFCEBF"/>
<path d="M3.9583 15.7576H12.8991C13.1765 15.758 13.4525 15.7199 13.7194 15.6442C13.3463 13.0084 11.0901 11.0492 8.42812 11.0492C5.76609 11.0492 3.50998 13.0084 3.13684 15.6442C3.4037 15.7198 3.67979 15.758 3.95717 15.7576H3.9583Z" fill="#8AC9FE"/>
<path fill-rule="evenodd" clip-rule="evenodd" d="M2.72497 16.3827C1.56003 18.9085 0.776184 21.5931 0.399011 24.3488C0.32977 24.9028 0.500203 25.4599 0.867487 25.8803C1.23477 26.3006 1.76399 26.5443 2.32218 26.55H12.064C12.9746 26.5535 13.7637 25.9196 13.9565 25.0296C15.2126 19.4182 19.5739 15.0233 25.1756 13.7243C26.0585 13.5258 26.6847 12.7401 26.6812 11.8352V2.07862C26.6751 1.5197 26.4304 0.990054 26.0088 0.623074C25.5872 0.256093 25.0288 0.0867563 24.4744 0.157712C21.7125 0.549163 19.0243 1.34952 16.4981 2.53246C15.9514 1.01465 14.5123 0.00203709 12.8991 0H3.9583C1.84759 0.00250084 0.137146 1.71294 0.134644 3.82365V12.7644C0.136805 14.3999 1.17744 15.8535 2.72497 16.3827ZM20.8573 23.3992C20.7467 25.463 22.3198 27.2305 24.3825 27.3601C26.4452 27.2305 28.0183 25.463 27.9078 23.3992C28.0183 21.3353 26.4452 19.5679 24.3825 19.4382C22.3198 19.5679 20.7467 21.3353 20.8573 23.3992ZM25.2278 36.2385C25.4311 36.324 25.66 36.3251 25.8641 36.2417C26.0682 36.1583 26.2307 35.9971 26.3159 35.7937L32.4122 21.2706C32.5271 20.9968 32.4872 20.6825 32.3075 20.4461C32.1279 20.2096 31.8357 20.087 31.5411 20.1244C31.2465 20.1618 30.9942 20.3535 30.8793 20.6273L24.783 35.1504C24.6057 35.5737 24.8047 36.0606 25.2278 36.2385ZM24.3825 25.699C25.5249 25.5653 26.3519 24.5445 26.2456 23.3992C26.3493 22.2556 25.523 21.2375 24.3825 21.1038C23.242 21.2375 22.4157 22.2556 22.5195 23.3992C22.4131 24.5445 23.2401 25.5653 24.3825 25.699ZM16.7227 4.26729V12.7644H16.7239C16.7121 14.8713 15.0071 16.5763 12.9002 16.5881H4.46661C3.24233 19.1055 2.42509 21.8012 2.04534 24.5746C2.02933 24.6544 2.05183 24.7371 2.10606 24.7978C2.1603 24.8586 2.23994 24.8902 2.32105 24.8832H12.0629C12.1924 24.8835 12.3045 24.7932 12.3318 24.6665C13.7282 18.4283 18.577 13.5429 24.8046 12.0995C24.9303 12.0713 25.0195 11.9595 25.019 11.8306V2.07862C25.0197 1.99715 24.9844 1.91953 24.9226 1.86644C24.8642 1.81504 24.7863 1.79182 24.7093 1.8029C21.9333 2.19599 19.2375 3.02783 16.7227 4.26729ZM8.42868 11.8828C10.3526 11.8905 12.0625 13.1104 12.696 14.927H4.34293C4.29166 14.903 4.23805 14.8844 4.18295 14.8714C4.83233 13.0841 6.52709 11.8912 8.42868 11.8828ZM7.36639 4.86584C6.3261 5.29649 5.64774 6.31149 5.64774 7.4374C5.64899 8.97313 6.89296 10.2181 8.42868 10.2206C9.55459 10.2215 10.5702 9.54401 11.0017 8.50407C11.4332 7.46412 11.1956 6.26664 10.3998 5.47018C9.60397 4.67372 8.40668 4.43518 7.36639 4.86584ZM1.79686 3.82365C1.79811 2.63044 2.76509 1.66346 3.9583 1.66221H12.8991C13.4729 1.66161 14.0235 1.88899 14.4297 2.29434C14.8359 2.69969 15.0644 3.2498 15.0651 3.82365V12.7644C15.0656 13.4066 14.7798 14.0155 14.2856 14.4255C13.7619 12.8936 12.6618 11.6261 11.2187 10.8923C12.6864 9.70949 13.2486 7.72962 12.6214 5.95201C11.9943 4.17439 10.3142 2.98556 8.42925 2.98556C6.54425 2.98556 4.8642 4.17439 4.23707 5.95201C3.60993 7.72962 4.17209 9.70949 5.6398 10.8923C4.19839 11.6262 3.09954 12.8927 2.57634 14.4232C2.08208 14.0133 1.79632 13.4043 1.79686 12.7622V3.82365ZM13.7977 30.882C14.7811 36.8553 19.2721 41.6448 25.1699 43.0099H25.1733C26.0562 43.2084 26.6824 43.9941 26.679 44.899V54.6522C26.6794 55.2131 26.4368 55.7467 26.0138 56.1151C25.5908 56.4835 25.0289 56.6506 24.4733 56.5731C21.7115 56.1818 19.0233 55.3818 16.4969 54.1994C15.9079 55.6837 14.4951 56.6777 12.8991 56.7308H3.9583C2.94391 56.7311 1.97101 56.3282 1.25383 55.6108C0.536662 54.8934 0.134043 53.9204 0.134644 52.906V43.9652C0.137146 41.8545 1.84759 40.1441 3.9583 40.1416H12.9002C15.0109 40.1441 16.7214 41.8545 16.7239 43.9652V52.4635C19.2381 53.7022 21.9331 54.5336 24.7081 54.9267C24.7883 54.9442 24.8719 54.9222 24.9332 54.8677C24.9945 54.8132 25.0259 54.7326 25.0179 54.651V44.899C25.0184 44.7702 24.9292 44.6583 24.8035 44.6301C18.4962 43.1736 13.6102 38.1848 12.2852 31.8487H2.01016C2.26792 33.9041 2.76523 35.9223 3.49197 37.8621C3.59635 38.141 3.54402 38.4544 3.35469 38.6842C3.16535 38.9141 2.86778 39.0254 2.57407 38.9764C2.28036 38.9273 2.03512 38.7253 1.93074 38.4464C1.04494 36.081 0.480542 33.6074 0.252646 31.0919C0.230934 30.8592 0.30828 30.6281 0.465704 30.4553C0.623128 30.2826 0.846056 30.1841 1.07978 30.1842H12.9774C13.385 30.1839 13.7325 30.4796 13.7977 30.882ZM4.1614 55.0674C4.78883 53.2465 6.50266 52.0243 8.42869 52.0243C10.3547 52.0243 12.0685 53.2465 12.696 55.0674H4.1614ZM8.42868 44.7957C6.89156 44.7957 5.64547 46.0418 5.64547 47.579H5.64774C5.64899 49.1147 6.89296 50.3597 8.42868 50.3622C9.96581 50.3622 11.2119 49.1161 11.2119 47.579C11.2119 46.0418 9.96581 44.7957 8.42868 44.7957ZM15.0628 52.906C15.0633 53.5481 14.7776 54.1571 14.2833 54.5671C13.7601 53.0365 12.6613 51.77 11.2198 51.0361C12.6875 49.8533 13.2497 47.8735 12.6226 46.0958C11.9954 44.3182 10.3154 43.1294 8.43039 43.1294C6.54539 43.1294 4.86533 44.3182 4.2382 46.0958C3.61107 47.8735 4.17323 49.8533 5.64093 51.0361C4.19952 51.77 3.10068 53.0365 2.57747 54.5671C2.08322 54.1571 1.79745 53.5481 1.79799 52.906V43.9652C1.79987 42.7723 2.76648 41.8056 3.95943 41.8038H12.9002C14.0947 41.8031 15.0638 42.7707 15.065 43.9652V52.906H15.0628ZM56.601 32.3808C56.2242 35.1366 55.4403 37.8213 54.2751 40.3469L54.274 40.3481C55.8213 40.8775 56.8618 42.331 56.8643 43.9663V52.9071C56.8525 55.014 55.1475 56.719 53.0406 56.7308H44.0999C42.4876 56.7222 41.0514 55.7102 40.5009 54.1949C37.9741 55.3774 35.2855 56.1773 32.5234 56.5685C31.9678 56.646 31.4059 56.479 30.9829 56.1106C30.5599 55.7422 30.3172 55.2086 30.3177 54.6476V44.8899C30.3141 43.9874 30.9367 43.2031 31.8165 43.0019C37.4107 41.6878 41.7672 37.3009 43.0424 31.6978C43.2365 30.8095 44.0246 30.1775 44.9338 30.1808H54.6779C55.2381 30.1799 55.7713 30.4215 56.14 30.8433C56.5087 31.265 56.6768 31.8257 56.601 32.3808ZM40.2762 43.9652V52.4635C37.7616 53.7022 35.0662 54.5337 32.2908 54.9267C32.2138 54.938 32.1358 54.9147 32.0775 54.8632C32.0158 54.81 31.9805 54.7325 31.981 54.651V44.8933C31.9806 44.7645 32.0698 44.6526 32.1955 44.6244C38.4105 43.1629 43.2496 38.2877 44.6649 32.062C44.6927 31.9358 44.8046 31.846 44.9338 31.8464H54.6779C54.7589 31.8462 54.836 31.8815 54.8889 31.9428C54.9403 32.0008 54.9639 32.0782 54.9536 32.155C54.5746 34.9285 53.7577 37.6242 52.5335 40.1416H44.0999C41.9891 40.1441 40.2787 41.8545 40.2762 43.9652ZM48.5708 52.0236C46.6447 52.0236 44.9309 53.2462 44.3041 55.0674H52.8375C52.2107 53.2462 50.4969 52.0236 48.5708 52.0236ZM45.7882 47.579C45.7882 46.0418 47.0342 44.7957 48.5714 44.7957C50.1085 44.7957 51.3546 46.0418 51.3546 47.579C51.3546 49.1161 50.1085 50.3622 48.5714 50.3622C47.0346 50.3609 45.7889 49.1158 45.787 47.579H45.7882ZM54.426 54.5671C54.9202 54.1571 55.206 53.5481 55.2055 52.906L55.2043 52.9003V43.9595C55.2002 42.783 54.2567 41.8254 53.0803 41.8038C53.0482 41.8056 53.016 41.8056 52.9839 41.8038H44.1021C42.9092 41.8056 41.9426 42.7723 41.9407 43.9652V52.906C41.9401 53.5481 42.2259 54.1571 42.7202 54.5671C43.2434 53.0365 44.3422 51.77 45.7836 51.0361C44.3159 49.8533 43.7538 47.8735 44.3809 46.0958C45.008 44.3182 46.6881 43.1294 48.5731 43.1294C50.4581 43.1294 52.1381 44.3182 52.7653 46.0958C53.3924 47.8735 52.8302 49.8533 51.3625 51.0361C52.8039 51.77 53.9028 53.0365 54.426 54.5671ZM53.0406 0H44.0999C42.4868 0.00152924 41.0476 1.01374 40.5009 2.53133C37.9745 1.34898 35.2863 0.549018 32.5245 0.157712C31.9701 0.0863548 31.4117 0.255583 30.9902 0.622682C30.5686 0.989781 30.3243 1.51968 30.3188 2.07862V11.8363C30.313 12.7401 30.9355 13.5268 31.8165 13.7288C37.4101 15.0426 41.7664 19.4284 43.0424 25.0308C43.2356 25.9199 44.0239 26.5531 44.9338 26.55H54.6779C55.2346 26.5427 55.762 26.2993 56.1287 25.8802C56.4953 25.4612 56.6666 24.9061 56.5999 24.3534C56.3331 22.4099 55.8647 20.4995 55.2021 18.6531C55.1007 18.3736 54.858 18.1694 54.5653 18.1174C54.2725 18.0654 53.9743 18.1735 53.7829 18.4011C53.5916 18.6286 53.5361 18.9409 53.6374 19.2204C54.2607 20.9577 54.7014 22.7551 54.9525 24.5837C54.9695 24.6637 54.9473 24.747 54.8929 24.808C54.8384 24.8689 54.7581 24.9003 54.6767 24.8923H44.9338C44.8043 24.8926 44.6922 24.8022 44.6649 24.6756C43.2518 18.4483 38.4134 13.5707 32.1977 12.1075C32.0723 12.0789 31.9833 11.9673 31.9833 11.8386V2.08088C31.9763 1.99954 32.008 1.91964 32.069 1.86535C32.13 1.81106 32.2131 1.78875 32.293 1.80517C35.0676 2.19772 37.7622 3.0284 40.2762 4.26615V12.7644C40.2892 14.8708 41.9935 16.5751 44.0999 16.5881H53.0406C55.1386 16.5552 56.8314 14.8624 56.8643 12.7644V3.82365C56.8618 1.71294 55.1513 0.00250084 53.0406 0ZM48.5708 11.8831C46.6447 11.8831 44.9309 13.1057 44.3041 14.927H52.8375C52.2107 13.1057 50.4969 11.8831 48.5708 11.8831ZM45.7882 7.43854C45.7877 6.31263 46.4656 5.29735 47.5058 4.86627C48.5459 4.43519 49.7433 4.67324 50.5394 5.46938C51.3355 6.26552 51.5736 7.4629 51.1425 8.50302C50.7114 9.54313 49.6962 10.2211 48.5702 10.2206C47.0339 10.2187 45.7889 8.97375 45.787 7.4374L45.7882 7.43854ZM54.426 14.4266C54.9202 14.0167 55.206 13.4077 55.2055 12.7656L55.2021 12.7644V3.82365C55.2008 2.63044 54.2338 1.66346 53.0406 1.66221H44.0999C42.9078 1.66533 41.9426 2.63158 41.9407 3.82365V12.7656C41.9401 13.4077 42.2259 14.0167 42.7202 14.4266C43.2434 12.8961 44.3422 11.6296 45.7836 10.8957C44.3159 9.7129 43.7538 7.73303 44.3809 5.95541C45.008 4.1778 46.6881 2.98897 48.5731 2.98897C50.4581 2.98897 52.1381 4.1778 52.7653 5.95541C53.3924 7.73303 52.8302 9.7129 51.3625 10.8957C52.8039 11.6297 53.9027 12.8962 54.426 14.4266ZM36.1439 33.3316C36.2545 31.2678 34.6814 29.5003 32.6187 29.3707C30.556 29.5003 28.9829 31.2678 29.0934 33.3316C28.9829 35.3954 30.556 37.1629 32.6187 37.2925C34.6805 37.1617 36.2522 35.3946 36.1417 33.3316H36.1439ZM32.6187 31.0317C31.4763 31.1654 30.6493 32.1863 30.7556 33.3316H30.7534C30.6496 34.4752 31.4759 35.4932 32.6164 35.6269C33.7578 35.4944 34.5854 34.476 34.4817 33.3316C34.5881 32.1863 33.7611 31.1654 32.6187 31.0317Z" fill="black"/>
</svg>
