<svg width="79" height="78" viewBox="0 0 79 78" fill="none" xmlns="http://www.w3.org/2000/svg">
<path d="M17.8407 26H3.15473C2.51699 26 2 25.4387 2 24.7463V21.2265C2 16.1309 5.8049 12 10.4985 12C12.7529 11.9991 14.9153 12.9708 16.5098 14.7012C18.1042 16.4316 19 18.7789 19 21.2265V24.7463C18.9996 25.0796 18.8772 25.3989 18.6597 25.6341C18.4423 25.8692 18.1476 26.0009 17.8407 26Z" fill="#C3DA40"/>
<path d="M27.0017 54.8146C25.5063 53.9537 24.3546 52.6115 23.7388 51.012C20.8361 49.7698 18.969 46.9274 19.0008 43.7989C18.9384 39.5618 22.3537 36.0736 26.6369 36H36.3624C40.6191 36.1333 44 39.5853 44 43.7982C44 48.011 40.6191 51.463 36.3624 51.5963H28.8258C28.7618 52.2607 28.7878 52.9306 28.9032 53.5882L29.2522 55.6192C29.2748 55.7471 29.2182 55.8761 29.1083 55.9471C28.9983 56.0181 28.8562 56.0176 28.7469 55.9457L27.0017 54.8146Z" fill="#FF62A7"/>
<path d="M43.9992 44.6937C44.0603 40.5137 40.7173 37.0726 36.5248 37H27.016C25.975 36.9998 24.9462 37.2238 24 37.6566C24.4667 44.0723 29.8394 49.0305 36.2914 48.9999H42.7192C43.5587 47.72 44.0037 46.223 43.9992 44.6937Z" fill="#FC5479"/>
<path d="M47.2491 49.5434C47.4914 48.5369 47.5636 47.4972 47.4627 46.4671H37.9366C34.4256 46.5297 31.1514 44.7071 29.3622 41.6941C27.573 38.6812 27.5445 34.9421 29.2876 31.9024C31.0307 28.8627 34.2767 26.9907 37.7883 27.0001H50.1013C55.4805 26.9729 59.8867 31.254 59.999 36.6168C60.0574 40.6122 57.6522 44.2344 53.9405 45.7406C52.9828 47.9769 51.2648 49.8047 49.0889 50.9026L47.2618 51.9551C47.1472 52.0217 47.0037 52.0137 46.8972 51.9348C46.7907 51.8559 46.7416 51.7213 46.7724 51.5926L47.2491 49.5434Z" fill="#31D2F7"/>
<path d="M36.0421 39.2276C36.0039 36.6836 37.0197 34.2309 38.8623 32.4179C40.7048 30.6049 43.2205 29.5829 45.8468 29.5802H57C55.1506 27.9206 52.7223 26.999 50.2014 27H37.8326C34.3052 26.9909 31.0444 28.8178 29.2934 31.7843C27.5424 34.7509 27.5711 38.3999 29.3683 41.3404C31.1656 44.2808 34.4547 46.0595 37.9816 45.9985H39.1907C37.2252 44.2567 36.0864 41.8079 36.0421 39.2276Z" fill="#13ACE8"/>
<path d="M75.842 26H61.1549C60.5174 25.9991 60.0008 25.4383 60 24.7463V21.2265C60 18.7795 60.8955 16.4327 62.4896 14.7024C64.0837 12.9721 66.2457 12 68.5 12C73.1944 12 77 16.1309 77 21.2265V24.7463C76.9996 25.0793 76.8774 25.3984 76.6602 25.6335C76.443 25.8686 76.1487 26.0004 75.842 26Z" fill="#FFCF59"/>
<path d="M17.8435 73H3.15494C2.84837 73 2.55437 72.8677 2.33774 72.6323C2.1211 72.3968 1.9996 72.0776 2 71.7448V68.2254C2 63.1304 5.80558 59 10.5 59C15.1944 59 19 63.1304 19 68.2254V71.7448C19 72.438 18.4822 73 17.8435 73Z" fill="#FF62A7"/>
<path d="M75.842 73H61.1549C60.5168 72.9991 60 72.4374 60 71.7448V68.2254C60 65.7787 60.8955 63.4322 62.4896 61.7021C64.0837 59.972 66.2457 59 68.5 59C73.1944 59 77 63.1304 77 68.2254V71.7448C77 72.078 76.878 72.3975 76.6607 72.633C76.4435 72.8684 76.149 73.0004 75.842 73Z" fill="#31D2F7"/>
<path d="M8.66115 24.7463V21.2265C8.66115 17.4999 10.7673 14.139 14 12.7069C12.9447 12.2392 11.8126 11.9989 10.6694 12C5.88143 12 2 16.1309 2 21.2265V24.7463C2.00086 25.439 2.52869 26 3.17951 26H9.84066C9.52798 26.0004 9.22796 25.8686 9.00671 25.6334C8.78547 25.3982 8.66115 25.0791 8.66115 24.7463Z" fill="#ADBC15"/>
<path d="M65.6611 24.7463V21.2265C65.6611 17.4999 67.7673 14.139 71 12.7069C69.9447 12.2392 68.8126 11.9989 67.6694 12C62.8814 12 59 16.1309 59 21.2265V24.7463C59.0009 25.439 59.5287 26 60.1795 26H66.8407C66.528 26.0004 66.228 25.8686 66.0067 25.6334C65.7855 25.3982 65.6611 25.0791 65.6611 24.7463Z" fill="#FFB55C"/>
<path d="M8.66115 71.7448V68.2254C8.66115 64.4993 10.7673 61.1388 14 59.7069C12.9447 59.2392 11.8126 58.999 10.6694 59C5.88143 59 2 63.1304 2 68.2254V71.7448C2 72.438 2.52809 73 3.17951 73H9.84066C9.52784 73 9.22782 72.8678 9.00662 72.6324C8.78542 72.397 8.66115 72.0777 8.66115 71.7448Z" fill="#FC5479"/>
<path d="M65.6611 71.7448V68.2254C65.6611 64.4993 67.7673 61.1388 71 59.7069C69.9447 59.2392 68.8126 58.999 67.6694 59C62.8814 59 59 63.1304 59 68.2254V71.7448C59 72.438 59.5281 73 60.1795 73H66.8407C66.5278 73 66.2278 72.8678 66.0066 72.6324C65.7854 72.397 65.6611 72.0777 65.6611 71.7448Z" fill="#13ACE8"/>
<path d="M10.6449 16.4777C7.52733 16.4777 5 13.9083 5 10.7389C5 7.56937 7.52733 5 10.6449 5C13.7626 5 16.2899 7.56937 16.2899 10.7389C16.2865 13.9069 13.7611 16.4742 10.6449 16.4777Z" fill="#FAD393"/>
<path d="M67.0632 16.4777C63.9455 16.4777 61.4182 13.9083 61.4182 10.7389C61.4182 7.56937 63.9455 5 67.0632 5C70.1808 5 72.7081 7.56937 72.7081 10.7389C72.7047 13.9069 70.1794 16.4742 67.0632 16.4777Z" fill="#FAD393"/>
<path d="M10.6449 63.7789C7.52733 63.7789 5 61.2095 5 58.04C5 54.8705 7.52733 52.3011 10.6449 52.3011C13.7626 52.3011 16.2899 54.8705 16.2899 58.04C16.2865 61.208 13.7611 63.7754 10.6449 63.7789Z" fill="#FAD393"/>
<path d="M67.0632 63.7789C63.9455 63.7789 61.4182 61.2095 61.4182 58.04C61.4182 54.8705 63.9455 52.3011 67.0632 52.3011C70.1808 52.3011 72.7081 54.8705 72.7081 58.04C72.7047 61.208 70.1794 63.7754 67.0632 63.7789Z" fill="#FAD393"/>
<path d="M10.7392 11.0414C10.7407 8.93852 11.8985 7.00653 13.7531 6.01227C11.3498 4.72332 8.36974 5.31188 6.63809 7.41747C4.90644 9.52306 4.90644 12.5581 6.63809 14.6637C8.36974 16.7693 11.3498 17.3578 13.7531 16.0689C11.8987 15.0752 10.7409 13.1437 10.7392 11.0414Z" fill="#EDB769"/>
<path d="M67.8284 11.0414C67.8298 8.93852 68.9876 7.00653 70.8422 6.01227C68.4389 4.72332 65.4589 5.31188 63.7272 7.41747C61.9956 9.52306 61.9956 12.5581 63.7272 14.6637C65.4589 16.7693 68.4389 17.3578 70.8422 16.0689C68.9878 15.0752 67.83 13.1437 67.8284 11.0414Z" fill="#EDB769"/>
<path d="M10.7392 58.0799C10.7407 55.9771 11.8985 54.0451 13.7531 53.0508C11.3498 51.7619 8.36974 52.3505 6.63809 54.456C4.90644 56.5616 4.90644 59.5967 6.63809 61.7023C8.36974 63.8079 11.3498 64.3964 13.7531 63.1075C11.8987 62.1137 10.7409 60.1823 10.7392 58.0799Z" fill="#EDB769"/>
<path d="M67.8284 58.0799C67.8298 55.9771 68.9876 54.0451 70.8422 53.0508C68.4389 51.7619 65.4589 52.3505 63.7272 54.456C61.9956 56.5616 61.9956 59.5967 63.7272 61.7023C65.4589 63.8079 68.4389 64.3964 70.8422 63.1075C68.9881 62.1135 67.8304 60.1822 67.8284 58.0799Z" fill="#EDB769"/>
<path d="M20.3758 8C20.6185 8.00014 20.8568 7.93456 21.0665 7.80997C22.393 7.02455 23.7632 6.31852 25.17 5.69546C25.8679 5.38681 26.1885 4.55922 25.8861 3.84699C25.5836 3.13476 24.7727 2.80759 24.0747 3.11624C22.5692 3.78251 21.103 4.53757 19.6834 5.37759C19.1462 5.6976 18.8857 6.34522 19.0476 6.95812C19.2096 7.57102 19.7538 7.99722 20.3758 7.99827V8Z" fill="black"/>
<path d="M45.0265 2.84452C46.472 3.11866 47.9016 3.48461 49.3081 3.94052C49.7592 4.08673 50.2475 3.95902 50.589 3.60551C50.9305 3.252 51.0733 2.72638 50.9637 2.22667C50.8541 1.72695 50.5087 1.32904 50.0576 1.18284C48.5528 0.695266 47.0231 0.303931 45.4765 0.0108235C44.7804 -0.0824369 44.1397 0.436749 44.0196 1.19128C43.8996 1.94581 44.3424 2.6706 45.0265 2.83922V2.84452Z" fill="black"/>
<path d="M37.2896 2H37.3668C38.0948 1.9677 38.8339 1.95096 39.5635 1.95096C40.2569 1.95096 40.9581 1.96531 41.6467 1.99522C42.1039 2.01466 42.54 1.8475 42.7907 1.5567C43.0415 1.26591 43.0688 0.895653 42.8624 0.585412C42.656 0.275171 42.2473 0.072076 41.7901 0.0526316C41.0574 0.0191388 40.3073 0 39.5667 0C38.7787 0 37.9908 0.0179426 37.2187 0.0526316C36.5219 0.0784476 35.9804 0.522735 36.0005 1.05208C36.0207 1.58142 36.5951 2.00121 37.2928 1.99641L37.2896 2Z" fill="black"/>
<path d="M75.88 28.0378C75.2639 28.206 74.8845 28.9037 75.0317 29.5981C75.3282 31.0019 75.5519 32.4239 75.7019 33.8569C75.7706 34.5081 76.2605 34.9989 76.8429 35C76.8902 35 76.9374 34.9969 76.9843 34.9904C77.6136 34.9073 78.0645 34.2664 77.9924 33.5576C77.8321 32.0244 77.5927 30.503 77.2756 29.0011C77.2059 28.6637 77.019 28.3718 76.7567 28.1908C76.4944 28.0098 76.1787 27.9547 75.88 28.0378Z" fill="black"/>
<path d="M74.0805 51.2326C73.9173 51.6749 74.0059 52.1693 74.3132 52.5297C74.6204 52.8902 75.0995 53.0617 75.5701 52.9799C76.0406 52.898 76.4311 52.5752 76.5943 52.1329C77.1397 50.6561 77.5969 49.1493 77.9639 47.62C78.1337 46.9122 77.6887 46.2028 76.97 46.0356C76.2513 45.8683 75.5311 46.3066 75.3613 47.0144C75.0181 48.4438 74.5904 49.8523 74.0805 51.2326Z" fill="black"/>
<path d="M53.8323 5.70221C55.2399 6.32312 56.611 7.02744 57.9388 7.81162C58.5968 8.20027 59.4374 7.96824 59.8163 7.29337C60.1953 6.61849 59.969 5.75634 59.311 5.36769C57.8903 4.52983 56.4232 3.77747 54.9173 3.11442C54.4659 2.91565 53.9455 2.97891 53.552 3.2804C53.1586 3.58188 52.9518 4.07577 53.0096 4.57602C53.0674 5.07628 53.381 5.5069 53.8323 5.70568V5.70221Z" fill="black"/>
<path d="M2.02217 46.0366C1.30702 46.2077 0.866506 46.9164 1.03644 47.6225C1.40423 49.1514 1.86227 50.6578 2.40824 52.134C2.66139 52.8176 3.42856 53.1693 4.12177 52.9197C4.81497 52.6701 5.17171 51.9136 4.91856 51.2301C4.40818 49.8519 3.97976 48.4456 3.63547 47.0182C3.55473 46.6764 3.33897 46.3805 3.03608 46.1962C2.73318 46.0119 2.36822 45.9544 2.02217 46.0366Z" fill="black"/>
<path d="M28.3109 3.99648C28.4396 3.99634 28.5676 3.97558 28.6908 3.93488C30.094 3.47634 31.5206 3.10729 32.9633 2.8296C33.6538 2.66706 34.1028 1.93924 33.9797 1.18182C33.8567 0.424392 33.2056 -0.0916039 32.5058 0.0136036C30.9621 0.310719 29.4357 0.70563 27.9343 1.19632C27.3107 1.40209 26.9194 2.07372 27.0141 2.77558C27.1088 3.47743 27.661 3.99816 28.3125 4L28.3109 3.99648Z" fill="black"/>
<path d="M77.6345 37C76.8813 37 76.2708 37.5681 76.2708 38.2689V38.3485C76.2705 39.764 76.1832 41.1783 76.0091 42.5845C75.953 43.0351 76.1596 43.4792 76.5509 43.7497C76.9423 44.0201 77.459 44.0757 77.9063 43.8956C78.3537 43.7155 78.6638 43.3269 78.7199 42.8764C78.9061 41.3738 78.9996 39.8626 79 38.3501V38.2705C79 37.5688 78.3887 37 77.6345 37V37Z" fill="black"/>
<path d="M45.4497 75.0232C44.0482 75.2636 42.6337 75.4245 41.2132 75.5052C40.5198 75.5385 39.9809 76.1082 40.0005 76.7872C40.0202 77.4662 40.5911 78.0051 41.2853 78H41.3607C42.8795 77.9142 44.392 77.7425 45.8906 77.4857C46.3555 77.4259 46.7494 77.1214 46.9163 76.6927C47.0833 76.264 46.9965 75.7802 46.6902 75.4329C46.3839 75.0855 45.9076 74.9305 45.4497 75.0293V75.0232Z" fill="black"/>
<path d="M36.7657 75.5079C35.351 75.4286 33.9422 75.269 32.5463 75.0298C32.0897 74.93 31.6143 75.0849 31.3087 75.4332C31.0031 75.7815 30.9168 76.2667 31.084 76.6964C31.2511 77.126 31.6448 77.4306 32.1087 77.4892C33.6013 77.7446 35.1077 77.915 36.6204 77.9995H36.6938C37.3955 78.0186 37.9801 77.4746 37.9995 76.7844C38.0189 76.0943 37.4658 75.5193 36.7641 75.5002L36.7657 75.5079Z" fill="black"/>
<path d="M28.048 73.922C26.6239 73.421 25.2258 72.8223 23.861 72.1288C23.185 71.7852 22.4007 72.1528 22.1092 72.95C21.8178 73.7472 22.1296 74.672 22.8057 75.0156C24.2662 75.7575 25.7621 76.3982 27.286 76.9344C27.7423 77.0949 28.2367 76.9561 28.5827 76.5704C28.9288 76.1846 29.074 75.6104 28.9637 75.0641C28.8534 74.5179 28.5043 74.0825 28.048 73.922Z" fill="black"/>
<path d="M2.03075 34.9916C2.33613 35.0308 2.64285 34.932 2.88339 34.717C3.12392 34.502 3.27855 34.1884 3.31324 33.8452C3.46044 32.4032 3.68217 30.9721 3.97729 29.5591C4.09993 28.8698 3.71405 28.1955 3.10505 28.0348C2.49605 27.8741 1.88334 28.2849 1.7201 28.9635C1.40374 30.4752 1.16584 32.0063 1.0076 33.549C0.972376 33.8929 1.0605 34.2384 1.2525 34.5091C1.4445 34.7798 1.72455 34.9534 2.03075 34.9916Z" fill="black"/>
<path d="M54.1369 72.1366C52.7725 72.8292 51.3749 73.4278 49.9513 73.9291C49.4947 74.0899 49.1458 74.5249 49.0359 75.0701C48.9261 75.6154 49.072 76.1881 49.4188 76.5726C49.7655 76.957 50.2604 77.0948 50.7169 76.934C52.2406 76.3946 53.7362 75.7511 55.196 75.0066C55.6333 74.7842 55.9364 74.3044 55.9911 73.748C56.0459 73.1916 55.8441 72.6431 55.4616 72.3092C55.0791 71.9752 54.5741 71.9065 54.1369 72.1289V72.1366Z" fill="black"/>
<path d="M1.7953 43.9921C2.54139 43.9104 3.07643 43.2744 2.99105 42.5706C2.81602 41.1477 2.72767 39.7165 2.72644 38.2841C2.72644 37.5749 2.11686 37 1.3649 37C1.00321 36.9992 0.656036 37.1341 0.399971 37.375C0.143907 37.6159 -1.09441e-06 37.943 0 38.2841C0.00200635 39.8147 0.0970631 41.344 0.284702 42.8644C0.364563 43.5114 0.945491 43.9995 1.6362 44C1.68935 44.0002 1.74247 43.9976 1.7953 43.9921Z" fill="black"/>
<path fill-rule="evenodd" clip-rule="evenodd" d="M18.3137 26H3.69249C2.20789 26 1.00343 24.7739 1 23.2592V20.1471C1.00067 17.2723 2.29696 14.5575 4.51532 12.785C3.52017 9.39821 5.22526 5.79678 8.44409 4.48685C11.6629 3.17692 15.3293 4.59237 16.8919 7.74824C18.4545 10.9041 17.3958 14.7551 14.4525 16.6214C11.5091 18.4877 7.65611 17.7511 5.57458 14.9243C4.11969 16.2555 3.28787 18.1548 3.28651 20.1487V23.2592C3.28651 23.4874 3.46733 23.6726 3.69093 23.6735H18.3122C18.5364 23.6735 18.7181 23.488 18.7181 23.2592V20.1519C18.7189 19.381 18.5949 18.6153 18.3511 17.8856C18.2089 17.4891 18.2882 17.0451 18.5582 16.7252C18.8283 16.4053 19.2469 16.2596 19.6523 16.3443C20.0578 16.429 20.3865 16.7309 20.5116 17.1334C20.8359 18.1042 21.0009 19.123 21 20.1487V23.2592C20.9966 24.7715 19.7959 25.9965 18.3137 26ZM15.3397 10.8235C15.3397 8.33691 13.364 6.32115 10.9269 6.32115V6.31956C8.49022 6.32218 6.51579 8.33738 6.51407 10.8235C6.51407 13.31 8.48976 15.3258 10.9269 15.3258C13.364 15.3258 15.3397 13.31 15.3397 10.8235Z" fill="black"/>
<path fill-rule="evenodd" clip-rule="evenodd" d="M57 23.2573V20.1465C57.0029 17.2765 58.2984 14.5669 60.5138 12.7971C59.5103 9.41342 61.2079 5.8086 64.4247 4.492C67.6416 3.17539 71.3117 4.5833 72.8802 7.73568C74.4488 10.888 73.396 14.7402 70.4547 16.6106C67.5133 18.4809 63.6583 17.7497 61.573 14.9259C60.1181 16.2565 59.2863 18.1551 59.285 20.1481V23.2573C59.285 23.4859 59.4667 23.6713 59.6909 23.6713H74.3122C74.4198 23.6713 74.5231 23.6277 74.5992 23.55C74.6754 23.4724 74.7181 23.3671 74.7181 23.2573V20.1512C74.7189 19.3807 74.5948 18.6153 74.3511 17.886C74.2089 17.4896 74.2882 17.0458 74.5582 16.7261C74.8283 16.4063 75.2469 16.2606 75.6523 16.3453C76.0578 16.43 76.3865 16.7318 76.5116 17.1341C76.8359 18.1045 77.0009 19.1228 77 20.1481V23.2573C76.9983 24.7713 75.7952 25.9983 74.3106 26H59.6894C58.2048 25.9983 57.0017 24.7713 57 23.2573ZM71.0007 9.10307C70.3177 7.42139 68.7086 6.32491 66.9238 6.32491V6.32649C64.4883 6.32911 62.5144 8.3415 62.511 10.8253C62.511 12.6455 63.5861 14.2865 65.2351 14.9831C66.884 15.6797 68.7821 15.2946 70.0441 14.0075C71.3062 12.7204 71.6837 10.7847 71.0007 9.10307Z" fill="black"/>
<path fill-rule="evenodd" clip-rule="evenodd" d="M74.4053 64.993C74.5389 64.7157 74.7751 64.504 75.0619 64.4044C75.349 64.3047 75.6632 64.3256 75.9352 64.4625C76.2072 64.5994 76.4145 64.841 76.5116 65.1341C76.8359 66.1045 77.0009 67.1228 77 68.1481V71.2573C76.9983 72.7713 75.7952 73.9983 74.3106 74H59.6894C58.2048 73.9983 57.0017 72.7713 57 71.2573V68.1481C57.0023 65.2778 58.2972 62.5677 60.5122 60.7971C59.5088 57.4134 61.2063 53.8086 64.4232 52.492C67.64 51.1754 71.3101 52.5833 72.8787 55.7357C74.4472 58.888 73.3944 62.7402 70.4531 64.6106C67.5118 66.4809 63.6567 65.7497 61.5715 62.9259C60.1166 64.2565 59.2848 66.1551 59.2834 68.1481V71.2573C59.2834 71.3671 59.3262 71.4724 59.4023 71.55C59.4784 71.6277 59.5817 71.6713 59.6894 71.6713H74.3106C74.4183 71.6713 74.5215 71.6277 74.5977 71.55C74.6738 71.4724 74.7166 71.3671 74.7166 71.2573V68.1481C74.7173 67.3775 74.5933 66.6121 74.3495 65.8828C74.2516 65.5904 74.2717 65.2703 74.4053 64.993ZM71.3382 58.8269C71.3382 56.3414 69.3625 54.3265 66.9253 54.3265C64.4893 54.3291 62.5151 56.3425 62.5125 58.8269C62.5125 61.3124 64.4882 63.3273 66.9253 63.3273C69.3625 63.3273 71.3382 61.3124 71.3382 58.8269Z" fill="black"/>
<path fill-rule="evenodd" clip-rule="evenodd" d="M18.4026 64.9855C18.5362 64.7081 18.7724 64.4963 19.0591 64.3966C19.3472 64.2961 19.6626 64.3172 19.9354 64.4552C20.2082 64.5931 20.4156 64.8366 20.5117 65.1313C20.8359 66.102 21.0009 67.1207 21 68.1463V71.2564C20.9983 72.7709 19.7954 73.9983 18.311 74H3.69207C2.97782 74 2.29284 73.7104 1.78794 73.1949C1.28303 72.6795 0.999589 71.9804 1 71.2516V68.1415C1.00231 65.2704 2.29696 62.5594 4.51166 60.7882C3.5103 57.4075 5.206 53.8064 8.4185 52.4913C11.631 51.1763 15.2959 52.583 16.8622 55.7325C18.4286 58.8819 17.3775 62.7305 14.4404 64.5994C11.5034 66.4684 7.65367 65.7385 5.57076 62.9177C4.1161 64.2488 3.2844 66.1479 3.28305 68.1415V71.2516C3.28305 71.3615 3.32581 71.4668 3.40194 71.5445C3.47806 71.6222 3.5813 71.6658 3.68896 71.6658H18.3079C18.4156 71.6658 18.5188 71.6222 18.5949 71.5445C18.6711 71.4668 18.7138 71.3615 18.7138 71.2516V68.1415C18.7146 67.3707 18.5906 66.6051 18.3468 65.8755C18.2489 65.5831 18.269 65.2629 18.4026 64.9855ZM15.3375 58.8174C15.3375 56.3311 13.3621 54.3156 10.9253 54.3156C8.48966 54.3183 6.51579 56.3322 6.51322 58.8174C6.51322 61.3037 8.4886 63.3192 10.9253 63.3192C13.3621 63.3192 15.3375 61.3037 15.3375 58.8174Z" fill="black"/>
<path fill-rule="evenodd" clip-rule="evenodd" d="M37.83 26.0032H50.2152L50.2025 26C55.2696 26.0012 59.6545 29.5627 60.7456 34.5633C61.8367 39.5639 59.3406 44.6587 54.7438 46.8134C52.9482 51.2617 47.0713 53.4017 46.8128 53.4947C46.3717 53.6506 45.8811 53.525 45.5668 53.1755C45.2525 52.8261 45.1753 52.3206 45.3709 51.8917C45.9897 50.6245 46.3418 49.2414 46.4051 47.8297H44.5524C43.214 51.1333 40.0441 53.3022 36.5119 53.3312H30.0084C30.0879 54.3738 30.3567 55.3927 30.8015 56.3368C30.9954 56.7684 30.9142 57.2753 30.5955 57.623C30.2767 57.9707 29.7827 58.0911 29.3422 57.9286C29.1344 57.8533 24.4725 56.098 22.9783 52.4399C19.9033 50.8896 17.9715 47.7037 18.0007 44.231C17.9381 39.277 21.8547 35.2063 26.7566 35.1307H27.1786C28.0483 29.8685 32.5508 26.0101 37.83 26.0032ZM52.7325 45.5631C52.8386 45.2366 53.0827 44.9747 53.3987 44.8481H53.3971C56.5865 43.5534 58.6802 40.4332 58.6903 36.9597C58.6278 32.1979 54.7896 28.3711 50.0772 28.3724H37.9522C33.3179 28.3484 29.5088 32.0607 29.3644 36.7417C29.3387 37.8937 29.5448 39.039 29.9703 40.108C30.1448 40.5421 30.0455 41.0395 29.7181 41.3712L29.7007 41.3888C29.4256 41.6662 29.031 41.7852 28.6505 41.7055C28.27 41.6257 27.9547 41.3579 27.8115 40.9929C27.3668 39.8784 27.109 38.6969 27.0485 37.4967H26.7582C23.1417 37.5713 20.2665 40.5887 20.3293 44.2438C20.302 46.9571 21.8892 49.4219 24.3551 50.4955C24.6775 50.6376 24.9221 50.9153 25.0245 51.2553C25.5727 52.6145 26.5496 53.7528 27.8036 54.4934C27.6632 53.6777 27.6366 52.8463 27.7242 52.0232C27.792 51.43 28.2898 50.9829 28.8806 50.9844H36.5198C38.7516 50.9684 40.8128 49.7743 41.9542 47.8361H37.83C36.4453 47.8349 35.0739 47.5627 33.7915 47.0346C33.4316 46.8886 33.1683 46.5699 33.0904 46.186C33.0125 45.8021 33.1305 45.4043 33.4045 45.127L33.4203 45.111C33.7503 44.7795 34.2444 44.6798 34.675 44.8577C35.6776 45.2666 36.7489 45.4761 37.83 45.4749H47.5218C48.117 45.4763 48.6158 45.93 48.6797 46.5281C48.8064 47.7284 48.7286 48.9418 48.4497 50.1156C50.3648 49.1573 51.8822 47.5444 52.7325 45.5631Z" fill="black"/>
</svg>
