<svg width="58" height="59" fill="none" xmlns="http://www.w3.org/2000/svg"><path d="M50.019 2.136h-36.87a8.285 8.285 0 010 14.322h36.87a7.16 7.16 0 000-14.322z" fill="#FEE55A"/><path d="M24.103 9.297a8.282 8.282 0 00-4.119-7.16H13.15a8.285 8.285 0 010 14.321h6.835a8.282 8.282 0 004.119-7.16z" fill="#FFD301"/><path d="M8.191 22.032h36.87a8.286 8.286 0 000 14.322H8.19a7.161 7.161 0 010-14.322z" fill="#FF9838"/><path d="M7.866 29.193a7.161 7.161 0 017.161-7.161H8.191a7.161 7.161 0 000 14.322h6.835a7.161 7.161 0 01-7.16-7.161z" fill="#FF8706"/><path d="M50.019 41.929h-36.87a8.286 8.286 0 010 14.322h36.87a7.16 7.16 0 000-14.322z" fill="#FF656F"/><path d="M24.103 49.09a8.282 8.282 0 00-4.118-7.161h-6.834a8.286 8.286 0 010 14.322h6.834a8.282 8.282 0 004.118-7.161z" fill="#FF4756"/><circle cx="9.319" cy="9.297" r="8.288" fill="#DFEBFA"/><circle cx="48.893" cy="29.194" r="8.288" fill="#DFEBFA"/><circle cx="9.319" cy="49.091" r="8.288" fill="#DFEBFA"/><path d="M5.4 9.297a8.289 8.289 0 016.103-8 8.288 8.288 0 100 15.99A8.289 8.289 0 015.4 9.296zm39.574 19.897a8.29 8.29 0 016.103-7.994 8.288 8.288 0 100 15.99 8.289 8.289 0 01-6.103-7.996zM5.4 49.091c0-3.736 2.5-7.01 6.103-7.994a8.288 8.288 0 100 15.99A8.289 8.289 0 015.4 49.09z" fill="#B1DBFC"/><path fill-rule="evenodd" clip-rule="evenodd" d="M13.68 17.3a9.075 9.075 0 01-4.389 1.126 9.14 9.14 0 114.39-17.144h15.187a.847.847 0 010 1.695H15.887a9.118 9.118 0 010 12.627H49.99a6.314 6.314 0 000-12.627H32.822a.847.847 0 010-1.695h17.17a8.008 8.008 0 010 16.017H13.68zm3.051-8.01a7.44 7.44 0 00-7.44-7.438 7.453 7.453 0 00-7.44 7.444 7.44 7.44 0 0014.88-.006zm-7.44 48.93a9.077 9.077 0 004.39-1.127h36.31a8.009 8.009 0 000-16.017h-36.31A9.14 9.14 0 109.29 58.22zm40.7-15.448a6.314 6.314 0 010 12.627H15.887a9.118 9.118 0 000-12.627H49.99zm-33.26 6.313a7.44 7.44 0 00-7.44-7.44 7.452 7.452 0 00-7.44 7.44 7.44 7.44 0 1014.88 0z" fill="#000"/><path d="M8.537 7.377v5.169a.847.847 0 001.695 0V6.037a.847.847 0 00-1.216-.762l-1.09.527a.847.847 0 00.611 1.575zm37.726 24.51a.847.847 0 00.615 1.43h3.975a.847.847 0 000-1.695h-2.007l1.726-1.824.014-.015a3.008 3.008 0 00.81-2.263 2.709 2.709 0 00-1.023-1.908 2.561 2.561 0 00-2.153-.496 3.104 3.104 0 00-2.09 1.562.847.847 0 001.493.8c.196-.359.537-.614.936-.702a.892.892 0 01.753.159c.227.174.37.436.393.722.015.365-.12.721-.374.984l-3.069 3.246zM9.918 51.52H8.22a.847.847 0 000 1.695h1.696a4.443 4.443 0 000-8.259H8.22a.847.847 0 000 1.695h1.696a.794.794 0 110 1.587H8.22a.847.847 0 000 1.695h1.696a.794.794 0 110 1.587h.002z" fill="#000"/><path fill-rule="evenodd" clip-rule="evenodd" d="M44.476 37.197H8.166v.005a8.008 8.008 0 010-16.017h36.31a9.13 9.13 0 0113.26 5.83.847.847 0 01-1.646.402 7.44 7.44 0 100 3.552.848.848 0 011.646.402 9.13 9.13 0 01-13.26 5.826zM42.27 22.875H8.166a6.314 6.314 0 000 12.627H42.27a9.118 9.118 0 010-12.627z" fill="#000"/><path d="M22.317 46.652H32.65a.847.847 0 000-1.694H22.317a.847.847 0 000 1.694zm0 3.324h22.376a.847.847 0 000-1.695H22.317a.847.847 0 000 1.695zm0 3.326h22.376a.847.847 0 000-1.695H22.317a.847.847 0 000 1.695zM32.652 5.075H22.318a.847.847 0 000 1.695h10.334a.847.847 0 000-1.695zM44.693 8.4H22.317a.847.847 0 000 1.695h22.376a.847.847 0 100-1.694zm0 3.327H22.317a.847.847 0 000 1.694h22.376a.847.847 0 000-1.694zM11.66 26.713h10.335a.847.847 0 000-1.695H11.661a.847.847 0 100 1.695zm0 3.323h22.38a.847.847 0 000-1.695H11.66a.847.847 0 100 1.695zm0 3.325h22.38a.847.847 0 000-1.695H11.66a.847.847 0 100 1.695z" fill="#000"/></svg>