<svg width="52" height="67" fill="none" xmlns="http://www.w3.org/2000/svg"><path d="M39.954 55.928L33.78 53.41l-3.94 9.663a.579.579 0 00.603.794l2.494-.295a.579.579 0 01.519.212l1.574 1.952a.58.58 0 00.987-.145l3.937-9.663zm.506 0l6.174-2.518 3.94 9.663a.58.58 0 01-.603.794l-2.494-.295a.579.579 0 00-.519.212l-1.574 1.952a.579.579 0 01-.987-.145l-3.937-9.663z" fill="#EE6161"/><path d="M39.953 55.928l-3.94 9.663a.58.58 0 01-.988.145l-1.165-1.443 3.794-9.303 2.299.938zm10.019 7.939l-2.105-.248a.157.157 0 00-.008-.023l-3.74-9.163 2.513-1.02 3.94 9.663a.58.58 0 01-.6.79z" fill="#E94444"/><path d="M42.647 55.413H2.98a1.868 1.868 0 01-1.867-1.867V2.847c0-1.03.836-1.867 1.867-1.867h39.667c1.032 0 1.868.837 1.868 1.868v50.697a1.868 1.868 0 01-1.868 1.868z" fill="#60B7FF"/><path d="M44.516 2.848v50.697a1.868 1.868 0 01-1.868 1.868h-2.727a1.868 1.868 0 001.868-1.867V2.847A1.867 1.867 0 0039.921.98h2.727a1.867 1.867 0 011.868 1.868z" fill="#26A6FE"/><path d="M33.18 5.656H12.452c-.575 0-1.058.43-1.126 1a5.236 5.236 0 01-3.906 4.842c-.5.129-.85.58-.85 1.097v31.204c0 .517.35.968.85 1.097a5.236 5.236 0 013.906 4.841c.068.57.551 1 1.126 1H33.18c.574 0 1.058-.43 1.126-1a5.236 5.236 0 013.906-4.841c.5-.13.85-.58.85-1.097V12.595c0-.517-.35-.968-.85-1.097a5.236 5.236 0 01-3.906-4.842c-.068-.57-.552-1-1.126-1z" fill="#F9F7F8"/><path d="M39.061 12.595v31.204c.002.517-.349.969-.85 1.096-.68.16-1.318.46-1.877.878V15.257c-.044-.5-.376-.93-.85-1.097-3.777-1.867-4.149-6.042-4.306-7.504a1.133 1.133 0 00-1.125-1h3.13c.574.001 1.057.43 1.125 1a5.235 5.235 0 003.907 4.842c.498.13.846.581.846 1.097z" fill="#EFEDEF"/><path d="M50.587 49.498c0 1.3-1.804 2.229-2.272 3.358-.485 1.171.113 3.1-.767 3.983-.881.883-2.812.282-3.983.767-1.133.468-2.06 2.273-3.358 2.273-1.299 0-2.228-1.805-3.358-2.273-1.17-.485-3.1.114-3.983-.767-.883-.88-.282-2.812-.767-3.983-.468-1.133-2.272-2.059-2.272-3.358 0-1.298 1.804-2.228 2.272-3.358.485-1.17-.113-3.1.767-3.982.88-.883 2.812-.282 3.983-.767 1.133-.469 2.06-2.273 3.358-2.273 1.299 0 2.228 1.804 3.358 2.273 1.17.485 3.1-.114 3.983.767.882.88.282 2.812.767 3.982.467 1.13 2.272 2.06 2.272 3.358z" fill="#FE9738"/><path d="M50.587 49.497c0 1.3-1.805 2.23-2.273 3.358-.485 1.17.113 3.1-.768 3.983-.88.883-2.811.282-3.982.767-1.133.468-2.06 2.274-3.357 2.274-.844 0-1.532-.762-2.22-1.424 1.045-.326 3.045-2.607 4.01-3.011 1.134-.47 2.494.252 3.35-.604.858-.857.176-2.082.649-3.218.453-1.096 1.608-1.31 1.608-2.57 0-1.26-1.154-1.385-1.607-2.48-.426-1.02-.567-4.027-1.11-4.963.995.033 2.064-.045 2.658.549.883.883.282 2.811.767 3.982.47 1.13 2.275 2.055 2.275 3.357z" fill="#FE860A"/><circle cx="40.207" cy="49.498" r="4.689" fill="#FFE3CB"/><path d="M44.897 49.497a4.69 4.69 0 01-8.89 2.086 4.69 4.69 0 006.581-6.12 4.685 4.685 0 012.309 4.034z" fill="#FECA9C"/><path d="M14.94 14.708c0 .542.44.98.98.98h13.79a.98.98 0 000-1.96H15.92a.98.98 0 00-.98.98zm-3.761 5.396c0 .542.439.98.98.98h21.307a.98.98 0 100-1.96H12.159a.98.98 0 00-.98.98zm22.291 4.415H12.164a.98.98 0 100 1.96H33.47a.98.98 0 000-1.96zm0 5.395H12.164a.98.98 0 100 1.961H33.47a.98.98 0 000-1.96zm0 5.397H12.164a.98.98 0 100 1.96H33.47a.98.98 0 000-1.96zm-5.454 5.394H12.159a.98.98 0 100 1.96h15.857a.98.98 0 100-1.96z" fill="#000"/><path fill-rule="evenodd" clip-rule="evenodd" d="M48.894 56.356l2.589 6.347-.004-.005a1.56 1.56 0 01-1.627 2.139l-2.267-.269-1.435 1.78a1.544 1.544 0 01-1.44.564 1.546 1.546 0 01-1.218-.954l-.302-.742a.98.98 0 111.813-.74l.045.114 1.148-1.423a1.55 1.55 0 011.397-.566l1.813.214-1.944-4.768a5.705 5.705 0 01-2.129.312 4.487 4.487 0 00-1.396.153 4.28 4.28 0 00-1.027.837l.351.863a.98.98 0 11-1.813.74l-.144-.353a2.456 2.456 0 01-2.198 0l-2.187 5.363a1.546 1.546 0 01-1.45.971c-.47 0-.914-.213-1.208-.58l-1.434-1.78-2.267.268a1.56 1.56 0 01-1.63-2.138l2.573-6.31H2.983a2.851 2.851 0 01-2.848-2.848V2.848A2.851 2.851 0 012.983 0h39.666a2.85 2.85 0 012.848 2.848v37.794a3.76 3.76 0 012.743.824 3.96 3.96 0 01.826 2.904c-.022.47.03.942.153 1.396.226.386.51.733.842 1.032a4.058 4.058 0 011.505 2.701 4.058 4.058 0 01-1.505 2.702 4.305 4.305 0 00-.842 1.032 4.48 4.48 0 00-.153 1.396c.013.58-.045 1.16-.172 1.727zM2.088 53.542c0 .49.398.887.888.887l28.363.003a3.776 3.776 0 00-.15-1.202 4.305 4.305 0 00-.842-1.03l-.045-.048-.074-.078c-.11-.114-.223-.233-.334-.357H12.45a2.107 2.107 0 01-2.1-1.872 4.233 4.233 0 00-3.173-3.998 2.103 2.103 0 01-1.595-2.048V12.595a2.103 2.103 0 011.595-2.048 4.234 4.234 0 003.173-3.999 2.106 2.106 0 012.1-1.872h3.287a.98.98 0 010 1.96H12.45a.15.15 0 00-.15.128 6.148 6.148 0 01-4.647 5.686.147.147 0 00-.106.145v31.202a.147.147 0 00.106.145 6.148 6.148 0 014.647 5.685.15.15 0 00.15.127h16.416a2.375 2.375 0 01-.016-.258 4.058 4.058 0 011.505-2.702c.332-.298.616-.646.842-1.031.124-.455.176-.926.153-1.396a3.96 3.96 0 01.826-2.904 3.96 3.96 0 012.904-.827c.47.022.942-.03 1.396-.153.385-.226.733-.51 1.031-.842l.037-.036c.17-.164.348-.337.54-.505V12.595a.149.149 0 00-.108-.145 6.148 6.148 0 01-4.646-5.686.15.15 0 00-.15-.127H20.246a.98.98 0 110-1.96h12.919a2.107 2.107 0 012.1 1.871 4.233 4.233 0 003.173 3.999 2.103 2.103 0 011.594 2.048v25.55c.053-.007.11-.007.166-.007a4.058 4.058 0 012.702 1.505h.001c.212.207.425.415.627.579V2.848a.887.887 0 00-.887-.887H2.977a.887.887 0 00-.888.887v50.694zM35.356 64.59l-1.147-1.423a1.55 1.55 0 00-1.397-.569l-1.813.215 1.943-4.768a5.705 5.705 0 002.13.311c.47-.022.942.03 1.396.153.384.224.73.507 1.027.838l-2.139 5.243zm11.744-10a5.728 5.728 0 01.303-2.112l.005.003a5.51 5.51 0 011.241-1.653c.444-.455.948-.97.948-1.332 0-.362-.504-.878-.948-1.332a5.507 5.507 0 01-1.246-1.65 5.725 5.725 0 01-.303-2.112v-.004c-.011-.619-.024-1.32-.253-1.548-.228-.228-.93-.241-1.548-.253h-.003a5.727 5.727 0 01-2.113-.302 5.507 5.507 0 01-1.65-1.247c-.455-.444-.97-.947-1.332-.947-.361 0-.878.503-1.331.947a5.508 5.508 0 01-1.65 1.247 5.728 5.728 0 01-2.113.302h-.003c-.62.012-1.32.025-1.549.253-.228.229-.241.93-.252 1.549v.003A5.731 5.731 0 0133 46.513a5.506 5.506 0 01-1.247 1.65c-.444.455-.947.97-.947 1.332 0 .361.503.878.947 1.332.516.466.94 1.026 1.247 1.65a5.74 5.74 0 01.303 2.112v.003c.011.62.024 1.32.252 1.549.229.228.93.241 1.549.253h.003a5.73 5.73 0 012.112.302 5.51 5.51 0 011.65 1.247c.455.444.97.947 1.332.947.362 0 .879-.503 1.332-.947a5.511 5.511 0 011.65-1.247 5.73 5.73 0 012.113-.302h.003c.619-.012 1.32-.025 1.548-.253.229-.229.242-.93.253-1.549v-.003z" fill="#000"/><path fill-rule="evenodd" clip-rule="evenodd" d="M34.54 49.495a5.667 5.667 0 015.667-5.667 5.676 5.676 0 015.667 5.667 5.667 5.667 0 11-11.334 0zm2.241 1.421a3.708 3.708 0 106.852-2.838 3.708 3.708 0 00-6.852 2.838z" fill="#000"/></svg>