<svg width="57" height="58" fill="none" xmlns="http://www.w3.org/2000/svg"><path d="M4.732.838A3.732 3.732 0 001 4.57v48.067a3.732 3.732 0 003.732 3.732h35.083a3.732 3.732 0 003.732-3.732V12.346c0-.75-.298-1.47-.828-2l-8.68-8.68a2.828 2.828 0 00-2-.828H4.733z" fill="#F4F8F8"/><path d="M36.94 11.175c-.087 0-.175 0-.26-.01v41.472a3.732 3.732 0 01-3.733 3.732h6.866a3.732 3.732 0 003.732-3.732V12.346c0-.404-.087-.804-.255-1.171h-6.35z" fill="#E7ECF1"/><path d="M45.666 40.518a1.15 1.15 0 01-1.006-1.134l-.022-5.256-8.03.034.022 5.256a1.15 1.15 0 01-.997 1.143s-1.483 5.068 5.038 5.04c6.52-.027 4.995-5.083 4.995-5.083z" fill="#FFECE3"/><path d="M37.794 41.6a1.15 1.15 0 001.007 1.135c2.133.237 4.242.659 6.303 1.26.69-1.02.897-2.291.567-3.478a1.15 1.15 0 01-1.007-1.135l-.021-5.255-6.859.03.01 7.444z" fill="#FFDDCE"/><path d="M42.72 10.347l-8.68-8.68c-.24-.24-.52-.433-.828-.573v6.354a3.732 3.732 0 003.731 3.731h6.354a2.827 2.827 0 00-.577-.832z" fill="#FC8086"/><path d="M16.425 6.651h-8.77a.776.776 0 00-.775.776V10.4c0 .428.347.776.776.776h8.769a.776.776 0 00.776-.776V7.428a.776.776 0 00-.776-.777z" fill="#BED8FB"/><path d="M48.201 26.78h-.486v-.567l-.005-1.361a6.642 6.642 0 00-2.27-5.038 7.296 7.296 0 00-9.75.04 6.642 6.642 0 00-2.229 5.056l.006 1.362v.567h-.486a1.29 1.29 0 00-1.284 1.295l.006 1.428a1.29 1.29 0 001.294 1.285h.488a6.629 6.629 0 002.27 4.887 7.296 7.296 0 009.75-.041 6.629 6.629 0 002.226-4.905h.488a1.29 1.29 0 001.285-1.295l-.006-1.428a1.29 1.29 0 00-1.295-1.285h-.002z" fill="#FFECE3"/><path d="M49.497 28.065a1.29 1.29 0 00-1.295-1.285h-.485v-.567l-.006-1.361a6.642 6.642 0 00-2.27-5.037 7.792 7.792 0 00-2.257-1.362l.01 12.336a6.628 6.628 0 01-2.226 4.905 7.701 7.701 0 01-2.626 1.513 7.225 7.225 0 007.168-1.513 6.628 6.628 0 002.226-4.905h.488a1.29 1.29 0 001.284-1.295l-.011-1.43z" fill="#FFDDCE"/><path d="M53.34 56.369a2.818 2.818 0 002.713-2.842l-.028-6.378a5.59 5.59 0 00-3.338-5.093 31.187 31.187 0 00-7.023-1.538l-5.004 3.16-5.03-3.118c-2.39.26-4.742.796-7.009 1.597a5.59 5.59 0 00-3.29 5.121l.027 6.378a2.723 2.723 0 002.737 2.713H53.34z" fill="#8C9BA6"/><path d="M56.032 47.148a5.59 5.59 0 00-3.338-5.093 31.203 31.203 0 00-7.023-1.537l-4.162 2.625a20.85 20.85 0 014.312 1.134 5.591 5.591 0 013.338 5.094l.011 7.001h4.167a2.818 2.818 0 002.713-2.842l-.018-6.382z" fill="#7C8B96"/><path d="M43.327 17.527l-5.6.024a2.345 2.345 0 00-2.2 1.565.867.867 0 01-.81.585 2.36 2.36 0 00-2.35 2.37l.02 4.921s2.07-.033 2.774.655a.227.227 0 00.395-.166l-.014-3.234a2.034 2.034 0 012.025-2.043h.025c.342-.001.682.051 1.008.155a5.806 5.806 0 001.777.291h.393a5.805 5.805 0 001.775-.306 3.29 3.29 0 011.006-.162h.025a2.033 2.033 0 012.043 2.025l.011 2.785a.506.506 0 00.454.5c.496.059 1-.032 1.444-.26a2.995 2.995 0 011.274-.305l-.017-3.989a5.43 5.43 0 00-5.458-5.41z" fill="#AA8080"/><path d="M43.327 17.527h-.147v4.675c.122-.015.245-.024.368-.025h.025a2.033 2.033 0 012.042 2.025l.012 2.786a.506.506 0 00.453.5c.497.058 1-.032 1.445-.26a2.99 2.99 0 011.274-.306l-.017-3.988a5.43 5.43 0 00-5.455-5.407z" fill="#9D6B6B"/><path d="M34.084 42.77l2.895 2.463a1.185 1.185 0 001.464.057l2.22-1.613-5.029-3.117c-.277.037-.601.083-.956.136a1.186 1.186 0 00-.594 2.074zm13.149-.054l-2.873 2.487a1.185 1.185 0 01-1.463.068l-2.234-1.588 5.003-3.16c.278.036.602.078.958.13a1.186 1.186 0 01.61 2.063z" fill="#7C8B96"/><path d="M40.66 43.677l-2.22 1.613 1.06 2.48 2.347-.01 1.047-2.489-2.234-1.594z" fill="#FB636F"/><path d="M43.192 56.369l-1.344-8.608-2.347.01-1.258 8.598h4.949z" fill="#FC8086"/><path d="M27.359 19.832H6.719a.838.838 0 100 1.676h20.64a.838.838 0 000-1.676zm0 6.183H6.719a.838.838 0 100 1.675h20.64a.838.838 0 000-1.675zm.839 7.02a.838.838 0 00-.839-.838H6.719a.838.838 0 100 1.676h20.64a.839.839 0 00.838-.838zM6.718 38.38a.838.838 0 100 1.675h9.626a.838.838 0 100-1.675H6.718z" fill="#000"/><path fill-rule="evenodd" clip-rule="evenodd" d="M16.264 12.012h-8.77A1.616 1.616 0 015.881 10.4V7.426a1.616 1.616 0 011.613-1.613h8.77c.89.001 1.612.723 1.613 1.613V10.4a1.616 1.616 0 01-1.613 1.613zM16.2 7.49H7.557v2.845H16.2V7.49z" fill="#000"/><path fill-rule="evenodd" clip-rule="evenodd" d="M4.57 55.53h18.04a.838.838 0 010 1.676H4.57A4.575 4.575 0 010 52.637V4.57A4.575 4.575 0 014.57 0h27.308a3.64 3.64 0 012.592 1.073l8.68 8.685a3.64 3.64 0 011.072 2.587v1.257a.838.838 0 01-1.676 0v-1.258c0-.112-.01-.223-.03-.333H36.78a4.575 4.575 0 01-4.57-4.569V1.705a2.006 2.006 0 00-.332-.03H4.57A2.897 2.897 0 001.676 4.57v48.068a2.897 2.897 0 002.893 2.893zm36.792-45.194l-7.474-7.474v4.581a2.897 2.897 0 002.893 2.893h4.581z" fill="#000"/><path fill-rule="evenodd" clip-rule="evenodd" d="M52.865 41.288a6.434 6.434 0 013.838 5.857l.035 6.383a3.755 3.755 0 01-1.022 2.56 3.475 3.475 0 01-2.53 1.124H27.907a3.566 3.566 0 01-3.56-3.548l-.027-6.378a6.434 6.434 0 013.79-5.888 31.563 31.563 0 017.242-1.663.312.312 0 00.27-.31l-.011-2.596c-.191-.143-.38-.295-.567-.454a7.407 7.407 0 01-2.496-4.702 2.129 2.129 0 01-1.844-2.1l-.006-1.429a2.117 2.117 0 01.689-1.575l-.02-4.493a3.196 3.196 0 013.185-3.21c.01 0 .025-.012.025-.027a3.186 3.186 0 012.986-2.124l5.6-.024h.027a6.276 6.276 0 016.268 6.24l.015 3.561c.445.4.7.97.7 1.57l.006 1.428a2.13 2.13 0 01-1.826 2.115 7.408 7.408 0 01-3.027 5.177l.011 2.597a.312.312 0 00.273.308c2.473.246 4.908.783 7.255 1.6zm-6.59.178c-.209-.03-.403-.056-.577-.079l-3.693 2.332 1.205.86.012.01c.13.093.308.084.429-.021l2.873-2.487a.347.347 0 00-.176-.605l-.072-.01zm-5.777 1.223l-3.517-2.18c.214-.325.328-.706.327-1.096l-.006-1.635a8.017 8.017 0 006.354-.027l.006 1.635c.003.39.122.77.34 1.093l-3.504 2.21zm.639 4.236l.567-1.361-1.193-.859-1.19.866.578 1.355h1.238zM34.556 20.54a1.71 1.71 0 001.599-1.146c.211-.599.776-1 1.411-1.004l5.6-.024h.02a4.597 4.597 0 014.592 4.573l.013 3.249a3.579 3.579 0 00-.816.296c-.209.107-.438.17-.672.182l-.01-2.466a2.87 2.87 0 00-2.87-2.86h-.039a4.169 4.169 0 00-1.263.205 5.744 5.744 0 01-3.432.015 4.252 4.252 0 00-1.264-.193h-.023a2.875 2.875 0 00-2.86 2.884l.01 2.22a6.64 6.64 0 00-1.493-.283l-.017-4.117a1.52 1.52 0 011.515-1.529l-.001-.002zm-1.233 9.472c.454 0 .825.362.837.817h.002a5.787 5.787 0 001.96 4.256c.239.204.49.394.754.567a6.414 6.414 0 007.157-.033c.26-.173.51-.363.746-.567a5.787 5.787 0 001.938-4.287.838.838 0 01.834-.824h.487a.454.454 0 00.454-.454l-.005-1.428a.44.44 0 00-.107-.287 2.045 2.045 0 00-.646.194 3.353 3.353 0 01-1.923.347 1.345 1.345 0 01-1.191-1.33l-.011-2.785a1.195 1.195 0 00-1.196-1.19 2.56 2.56 0 00-.774.121 7.407 7.407 0 01-4.46.02 2.444 2.444 0 00-.774-.114c-.66.003-1.193.54-1.191 1.2l.013 3.235a1.07 1.07 0 01-1.815.768 3.95 3.95 0 00-1.923-.413.44.44 0 00-.114.304l.006 1.429c0 .25.203.454.454.454h.487zm4.032 25.52H31.05l-.014-3.315a.838.838 0 00-.837-.834.838.838 0 00-.835.842l.014 3.308h-1.46a1.89 1.89 0 01-1.886-1.88l-.028-6.377a4.758 4.758 0 012.802-4.354 19.3 19.3 0 013.857-1.06 1.998 1.998 0 00.713 1.548l2.893 2.464a1.99 1.99 0 001.546.468l.659 1.542-1.12 7.647zm.002-10.935c.122.104.3.11.43.016l1.217-.88-3.72-2.3c-.196.027-.413.058-.65.094a.347.347 0 00-.17.607l2.893 2.463zM39.05 55.53l1.014-6.92h.908l1.081 6.928-3.003-.008zm14.126 0a1.815 1.815 0 001.315-.595h.002c.36-.38.56-.884.563-1.407l-.027-6.378a4.757 4.757 0 00-2.837-4.33 19.298 19.298 0 00-3.87-1.026 1.998 1.998 0 01-.7 1.554l-2.873 2.487a1.988 1.988 0 01-1.543.481l-.651 1.549 1.196 7.664h6.3l-.015-3.395a.839.839 0 01.836-.841c.46 0 .834.373.837.834l.015 3.403h1.452z" fill="#000"/></svg>