<svg width="58" height="65" fill="none" xmlns="http://www.w3.org/2000/svg"><path d="M39.92 32.324c-.027 5.981-4.892 10.81-10.873 10.793-5.981-.017-10.818-4.875-10.81-10.856.01-5.981 4.86-10.825 10.841-10.826a10.864 10.864 0 0110.842 10.89z" fill="#FF6029"/><path d="M34.475 32.324a5.397 5.397 0 11-5.397-5.42 5.408 5.408 0 015.397 5.42z" fill="#B7441C"/><path fill-rule="evenodd" clip-rule="evenodd" d="M29.06 14.572a6.776 6.776 0 006.794-6.747 6.79 6.79 0 00-6.776-6.805 6.776 6.776 0 00-.019 13.552zm-6.29 39.625a6.805 6.805 0 016.307-4.18 6.79 6.79 0 016.776 6.805 6.805 6.805 0 11-13.083-2.625zM11.342 14.181a6.798 6.798 0 102.48 9.295 6.759 6.759 0 00-2.48-9.295zm32.964 26.981a6.798 6.798 0 019.285-2.482 6.76 6.76 0 012.48 9.295 6.798 6.798 0 01-11.765-6.813zM4.566 38.68a6.798 6.798 0 109.256 2.49 6.826 6.826 0 00-9.255-2.49zm52.392-19.482a6.798 6.798 0 01-3.367 6.77 6.825 6.825 0 01-9.255-2.49 6.798 6.798 0 1112.623-4.28z" fill="#DAF781"/><path fill-rule="evenodd" clip-rule="evenodd" d="M25.55 5.786A4.067 4.067 0 0131.105 4.3v.001a4.049 4.049 0 011.485 5.561 4.068 4.068 0 01-7.04-4.076zM5.923 23.578a4.058 4.058 0 005.542-1.467 4.05 4.05 0 00-1.484-5.562 4.058 4.058 0 00-4.058 7.03zM4.425 42.532a4.068 4.068 0 015.556-1.485 4.05 4.05 0 011.484 5.562 4.068 4.068 0 01-7.04-4.077zm43.75-18.93a4.068 4.068 0 10-1.484-5.563 4.049 4.049 0 001.485 5.562h-.001zm-1.507 18.93a4.068 4.068 0 015.556-1.485h.006a4.049 4.049 0 011.478 5.562 4.067 4.067 0 01-7.04-4.077zM31.105 53.297a4.067 4.067 0 101.485 5.562 4.05 4.05 0 00-1.485-5.562z" fill="#92B703"/><path fill-rule="evenodd" clip-rule="evenodd" d="M56.958 48.484a7.781 7.781 0 01-10.654 2.866 7.853 7.853 0 01-3.303-9.773l-4.2-2.436a11.859 11.859 0 01-8.702 5.051v4.874a7.797 7.797 0 11-2.042 0v-4.874a11.86 11.86 0 01-8.702-5.048l-4.2 2.435a7.853 7.853 0 01-3.303 9.773 7.782 7.782 0 01-10.654-2.865 7.852 7.852 0 012.853-10.688 7.782 7.782 0 0110.085 2.01l4.198-2.43a11.943 11.943 0 010-10.098l-4.198-2.43a7.782 7.782 0 01-10.085 2.01 7.852 7.852 0 01-2.853-10.687 7.782 7.782 0 0110.654-2.87 7.853 7.853 0 013.302 9.773l4.201 2.435a11.859 11.859 0 018.702-5.048v-4.88a7.796 7.796 0 112.042 0v4.874a11.86 11.86 0 018.702 5.049L43 23.07a7.853 7.853 0 013.303-9.767 7.78 7.78 0 0110.654 2.865 7.852 7.852 0 01-2.853 10.688 7.782 7.782 0 01-10.086-2.01l-4.197 2.43a11.943 11.943 0 010 10.098l4.197 2.43a7.782 7.782 0 0110.086-2.01 7.85 7.85 0 012.853 10.69zM35.52 32.324a6.441 6.441 0 11-6.442-6.465 1.02 1.02 0 110 2.042 4.424 4.424 0 104.396 4.424 1.02 1.02 0 012.042 0l.004-.001zm13.189-6.663a5.74 5.74 0 01-3.49-2.693 5.806 5.806 0 012.108-7.903 5.731 5.731 0 017.86 2.117 5.806 5.806 0 01-2.108 7.904 5.74 5.74 0 01-4.37.575zM10.825 15.065a5.74 5.74 0 00-7.86 2.117 5.806 5.806 0 002.11 7.904 5.74 5.74 0 007.86-2.118 5.806 5.806 0 00-2.107-7.903h-.003zm-1.38 23.92a5.731 5.731 0 013.488 2.694h.003a5.806 5.806 0 01-2.108 7.907 5.74 5.74 0 01-7.86-2.118 5.806 5.806 0 012.108-7.903 5.731 5.731 0 014.369-.58zm19.633-25.374a5.784 5.784 0 10-5.755-5.785 5.776 5.776 0 005.755 5.785zm-5.364 40.978a5.785 5.785 0 015.364-3.55 5.776 5.776 0 015.756 5.784 5.784 5.784 0 11-11.12-2.234zM38.9 32.325c-.025-5.418-4.433-9.793-9.851-9.777-5.419.017-9.8 4.419-9.792 9.837.008 5.419 4.403 9.807 9.821 9.807 5.435-.02 9.828-4.434 9.821-9.868l.001.001zm9.813 6.659a5.74 5.74 0 014.373.58 5.805 5.805 0 012.1 7.9 5.74 5.74 0 01-7.86 2.117 5.806 5.806 0 01-2.107-7.904 5.74 5.74 0 013.494-2.693z" fill="#000"/></svg>