<svg width="58" height="58" fill="none" xmlns="http://www.w3.org/2000/svg"><path d="M48.5 8.73H6.922a2.269 2.269 0 00-2.269 2.268V48.46a2.269 2.269 0 002.269 2.269H48.5a2.269 2.269 0 002.269-2.269V10.998A2.269 2.269 0 0048.5 8.729z" fill="#BFBFBF"/><path d="M44.692 46.813H3.115a2.269 2.269 0 01-2.268-2.269V12.64h46.117v31.9a2.269 2.269 0 01-2.272 2.274z" fill="#F9F7F8"/><path d="M46.964 12.64v31.9a2.269 2.269 0 01-2.269 2.269H42.53a2.268 2.268 0 002.268-2.27v-31.9h2.166z" fill="#EFEDEF"/><path d="M46.964 12.644H.847V7.082a2.269 2.269 0 012.268-2.269h41.577a2.269 2.269 0 012.269 2.269l.003 5.562z" fill="#EE6161"/><circle cx="9.094" cy="20.021" r="2.772" fill="#E2E2E2"/><circle cx="18.968" cy="20.021" r="2.772" fill="#E2E2E2"/><circle cx="28.842" cy="20.021" r="2.772" fill="#E2E2E2"/><circle cx="38.716" cy="20.021" r="2.772" fill="#E2E2E2"/><circle cx="9.094" cy="29.73" r="2.772" fill="#E2E2E2"/><circle cx="18.968" cy="29.73" r="2.772" fill="#E2E2E2"/><circle cx="28.842" cy="29.73" r="2.772" fill="#E2E2E2"/><circle cx="38.716" cy="29.73" r="2.772" fill="#E2E2E2"/><circle cx="9.094" cy="39.437" r="2.772" fill="#E2E2E2"/><circle cx="18.968" cy="39.437" r="2.772" fill="#E2E2E2"/><circle cx="28.842" cy="39.437" r="2.772" fill="#E2E2E2"/><path d="M46.964 7.082v5.562h-2.166V7.082a2.269 2.269 0 00-2.268-2.269h2.165a2.269 2.269 0 012.269 2.269z" fill="#E94444"/><circle cx="45.945" cy="45.153" r="11.052" fill="#FAC600"/><path d="M46.998 39.613l1.086 2.198c.17.346.5.585.881.64l2.43.348a1.172 1.172 0 01.649 1.998l-1.758 1.712c-.277.27-.403.66-.336 1.041l.415 2.418a1.172 1.172 0 01-1.7 1.234l-2.17-1.142a1.172 1.172 0 00-1.09 0l-2.172 1.142a1.172 1.172 0 01-1.7-1.234l.416-2.418a1.172 1.172 0 00-.337-1.041l-1.757-1.712a1.172 1.172 0 01.65-1.998l2.428-.347a1.17 1.17 0 00.882-.641l1.086-2.198a1.172 1.172 0 012.101 0h-.005z" fill="#FE9738"/><path d="M50.284 46.518c-.277.27-.404.66-.338 1.041l.416 2.418a1.172 1.172 0 01-1.7 1.236l-.894-.47c.204-.296.283-.66.219-1.015l-.49-2.857c-.077-.45.072-.907.398-1.225l2.077-2.023c.261-.251.412-.595.419-.957l1 .146a1.172 1.172 0 01.65 1.997l-1.757 1.71z" fill="#FE860A"/><path d="M56.996 45.153a11.053 11.053 0 01-16.373 9.686 11.053 11.053 0 008.656-20.225 11.054 11.054 0 017.717 10.539z" fill="#E8B800"/><path d="M10.458 8.623a2.016 2.016 0 01-2.016-2.017V3.02a2.017 2.017 0 114.034 0v3.586a2.017 2.017 0 01-2.018 2.017zm13.446 0a2.016 2.016 0 01-2.016-2.017V3.02a2.017 2.017 0 014.034 0v3.586a2.018 2.018 0 01-2.018 2.017zm13.448 0a2.018 2.018 0 01-2.017-2.017V3.02a2.017 2.017 0 114.034 0v3.586a2.018 2.018 0 01-2.017 2.017z" fill="#5A5A5A"/><path d="M12.476 3.021v3.587A2.017 2.017 0 019.45 8.354a2.016 2.016 0 001.01-1.746V3.02c0-.72-.385-1.387-1.01-1.747a2.015 2.015 0 013.026 1.747zm13.446 0v3.587a2.018 2.018 0 01-3.025 1.746 2.015 2.015 0 001.008-1.746V3.02a2.01 2.01 0 00-1.008-1.747 2.016 2.016 0 013.025 1.747zm13.446 0v3.586a2.016 2.016 0 01-3.024 1.747 2.017 2.017 0 001.008-1.747V3.021a2.01 2.01 0 00-1.008-1.747 2.015 2.015 0 013.024 1.747z" fill="#444"/><path d="M11.861 20.02a2.777 2.777 0 01-5.116 1.48 2.776 2.776 0 002.82-4.21 2.776 2.776 0 012.296 2.731zm9.879 0a2.777 2.777 0 01-5.117 1.479 2.777 2.777 0 002.82-4.21 2.776 2.776 0 012.297 2.731zm9.874 0a2.777 2.777 0 01-5.117 1.479 2.777 2.777 0 002.82-4.21 2.776 2.776 0 012.297 2.731zm9.873 0a2.777 2.777 0 01-5.116 1.477 2.777 2.777 0 002.82-4.209 2.776 2.776 0 012.296 2.732zm-29.626 9.71a2.777 2.777 0 01-5.116 1.478 2.776 2.776 0 002.82-4.21 2.776 2.776 0 012.296 2.732zm9.879 0a2.777 2.777 0 01-5.117 1.478 2.777 2.777 0 002.82-4.21 2.776 2.776 0 012.297 2.732zm9.874 0a2.777 2.777 0 01-5.117 1.478 2.777 2.777 0 002.82-4.21 2.776 2.776 0 012.297 2.732zm9.873 0a2.777 2.777 0 01-5.116 1.477 2.777 2.777 0 002.82-4.209 2.776 2.776 0 012.296 2.732zm-29.626 9.706a2.776 2.776 0 01-5.116 1.476c.156.028.316.042.475.042a2.777 2.777 0 002.345-4.248 2.776 2.776 0 012.296 2.73zm9.879 0a2.776 2.776 0 01-5.117 1.476c.157.028.316.042.475.042a2.776 2.776 0 002.345-4.248 2.776 2.776 0 012.297 2.73zm9.874 0a2.776 2.776 0 01-5.117 1.476c.157.028.316.042.475.042a2.776 2.776 0 002.345-4.248 2.776 2.776 0 012.297 2.73z" fill="#CECECE"/><path fill-rule="evenodd" clip-rule="evenodd" d="M51.513 41.97a2.006 2.006 0 011.629 1.373c.24.73.04 1.535-.514 2.07l-1.757 1.711a.324.324 0 00-.094.287l.414 2.418a2.017 2.017 0 01-2.928 2.128l-2.171-1.142a.324.324 0 00-.302 0l-2.172 1.142a2.019 2.019 0 01-2.928-2.128l.416-2.418a.325.325 0 00-.094-.287l-1.757-1.713a2.019 2.019 0 011.118-3.442l2.43-.347a.324.324 0 00.244-.177l1.086-2.198a2.018 2.018 0 013.62 0l1.086 2.198a.325.325 0 00.244.177l2.43.347zm-1.821 3.94l1.757-1.711h.005a.325.325 0 00-.18-.554l-2.43-.348a2.018 2.018 0 01-1.519-1.103l-1.086-2.198a.325.325 0 00-.579 0l-1.086 2.198a2.017 2.017 0 01-1.52 1.103l-2.43.348a.325.325 0 00-.179.554l1.757 1.712c.475.464.692 1.132.579 1.786l-.416 2.418a.325.325 0 00.471.347l2.172-1.142c.588-.31 1.29-.31 1.878 0l2.172 1.142a.325.325 0 00.47-.347l-.414-2.418a2.017 2.017 0 01.578-1.786z" fill="#000"/><path fill-rule="evenodd" clip-rule="evenodd" d="M51.616 34.698V18.726a.847.847 0 10-1.694 0v15.209a11.79 11.79 0 00-2.112-.54V9.566h.694c.785 0 1.42.636 1.422 1.421v3.758a.847.847 0 101.693 0v-3.746a3.124 3.124 0 00-3.115-3.116h-.694v-.799a3.124 3.124 0 00-3.116-3.11h-4.48V3.02a2.864 2.864 0 00-5.727 0v.952H26.77V3.02a2.864 2.864 0 10-5.728 0v.952h-7.719V3.02a2.864 2.864 0 10-5.727 0v.952h-4.48A3.124 3.124 0 000 7.083v37.461a3.123 3.123 0 003.115 3.116h.695v.8a3.123 3.123 0 003.115 3.115h29.012a11.894 11.894 0 1015.679-16.877zM36.18 3.02a1.17 1.17 0 112.34 0v3.586c0 .646-.523 1.17-1.17 1.171a1.172 1.172 0 01-1.169-1.17L36.18 3.02zM23.905 1.85a1.17 1.17 0 00-1.17 1.17v3.586a1.17 1.17 0 102.34 0V3.02a1.17 1.17 0 00-1.17-1.17zM9.288 3.02a1.17 1.17 0 112.34 0v3.586a1.17 1.17 0 01-2.34 0V3.02zM3.115 5.66a1.424 1.424 0 00-1.421 1.423v4.713h44.422V7.082a1.424 1.424 0 00-1.422-1.422h-4.48v.946a2.864 2.864 0 01-5.727 0V5.66H26.77v.946a2.864 2.864 0 11-5.728 0V5.66h-7.719v.946a2.864 2.864 0 11-5.727 0V5.66h-4.48zm3.807 44.227A1.424 1.424 0 015.5 48.465v-.8h8.151a.847.847 0 100-1.693H3.115a1.424 1.424 0 01-1.421-1.422V13.49h44.423v19.767h-.171c-6.568.01-11.89 5.332-11.898 11.9 0 .273.01.544.027.81h-16.5a.847.847 0 100 1.693h16.739c.165.763.405 1.507.717 2.222H6.921v.005zm28.818-4.729c0 5.636 4.57 10.204 10.205 10.204v-.004c5.632-.007 10.196-4.57 10.205-10.201-.001-5.636-4.57-10.204-10.206-10.204-5.636 0-10.204 4.57-10.204 10.205z" fill="#000"/><path fill-rule="evenodd" clip-rule="evenodd" d="M5.475 20.021a3.619 3.619 0 117.238 0 3.619 3.619 0 01-7.238 0zm1.694 0a1.925 1.925 0 103.85 0 1.925 1.925 0 00-3.85 0zm15.142 1.384a3.619 3.619 0 11-6.686-2.77 3.619 3.619 0 016.686 2.77zm-1.418-1.385a1.925 1.925 0 00-1.925-1.925v.001a1.925 1.925 0 101.925 1.924zm11.569 0a3.619 3.619 0 11-7.238 0 3.619 3.619 0 017.238 0zm-1.694 0a1.925 1.925 0 00-1.925-1.925v.001a1.925 1.925 0 101.925 1.924zm11.57 0a3.619 3.619 0 11-7.238 0 3.619 3.619 0 017.238 0zm-1.694 0a1.925 1.925 0 00-1.925-1.925v.001a1.925 1.925 0 101.925 1.924zM5.475 29.729a3.619 3.619 0 117.238 0 3.619 3.619 0 01-7.238 0zm1.694 0a1.925 1.925 0 103.85 0 1.925 1.925 0 00-3.85 0zm15.142 1.383a3.619 3.619 0 11-6.686-2.77 3.619 3.619 0 016.686 2.77zm-1.418-1.385a1.925 1.925 0 00-1.925-1.925v.002a1.925 1.925 0 101.925 1.924zm11.569 0a3.619 3.619 0 11-7.238 0 3.619 3.619 0 017.238 0zm-1.694 0a1.925 1.925 0 00-1.925-1.925v.002a1.925 1.925 0 101.925 1.924zm11.57 0a3.619 3.619 0 11-7.238 0 3.619 3.619 0 017.238 0zm-1.694 0a1.925 1.925 0 00-1.925-1.925v.002a1.925 1.925 0 101.925 1.924zM5.75 38.052a3.619 3.619 0 116.687 2.77 3.619 3.619 0 01-6.686-2.77zm1.42 1.385a1.925 1.925 0 103.85 0 1.925 1.925 0 00-3.85 0zm13.183-3.343a3.619 3.619 0 11-2.77 6.686 3.619 3.619 0 012.77-6.686zm-1.385 1.418a1.925 1.925 0 00-1.925 1.925h.001a1.925 1.925 0 101.924-1.925zm13.218 3.308a3.619 3.619 0 11-6.686-2.769 3.619 3.619 0 016.686 2.77zm-1.418-1.384a1.925 1.925 0 00-1.925-1.925 1.925 1.925 0 101.925 1.924z" fill="#000"/></svg>