<svg width="59" height="57" fill="none" xmlns="http://www.w3.org/2000/svg"><path d="M43.476 1.045H23.81c.706 0 1.337.44 1.582 1.1l1.005 3.11a2.292 2.292 0 002.149 1.494h14.77c.933 0 1.69.756 1.69 1.689V2.58a1.54 1.54 0 00-1.531-1.536z" fill="#FEC458"/><path d="M32.358 5.255l-1.004-3.11a1.689 1.689 0 00-1.583-1.1h-5.96c.706 0 1.337.44 1.582 1.1l1.005 3.11a2.292 2.292 0 002.149 1.494h5.96a2.292 2.292 0 01-2.15-1.494z" fill="#F9AB49"/><path d="M43.315 6.343H28.951a2.291 2.291 0 01-2.149-1.494l-1.004-2.703a1.689 1.689 0 00-1.582-1.101h-8.533c-.932 0-1.688.756-1.688 1.688v21.433c0 .932.756 1.688 1.688 1.688h27.632c.933 0 1.689-.756 1.689-1.688V8.028a1.689 1.689 0 00-1.689-1.685z" fill="#FFE181"/><path d="M19.398 24.166V2.733c0-.932.756-1.688 1.689-1.688h-5.404c-.932 0-1.688.756-1.688 1.688v21.433c0 .932.756 1.688 1.688 1.688h5.404a1.689 1.689 0 01-1.689-1.688zm-5.089 16.41H2.464a.944.944 0 00-.936.936v2.558c.127-.051.263-.078.4-.078H5.41c.444 0 .842.276.996.693l.398 1.071c.154.417.552.693.996.693h6.382c.587 0 1.062.475 1.062 1.062v-6.003a.944.944 0 00-.935-.932z" fill="#FEC458"/><path d="M5.524 41.512a.944.944 0 01.935-.936H2.464a.944.944 0 00-.936.936v2.558c.127-.051.263-.078.4-.078H5.41c.04 0 .08.004.118.009l-.004-2.49z" fill="#F9AB49"/><path d="M14.182 46.187H7.8c-.444 0-.842-.276-.996-.693L6.4 44.426a1.062 1.062 0 00-.995-.692H1.928c-.586 0-1.062.475-1.062 1.062v9.378c0 .587.476 1.062 1.062 1.062h12.254c.587 0 1.062-.475 1.062-1.062v-6.922a1.062 1.062 0 00-1.062-1.065z" fill="#FFE181"/><path d="M4.86 54.172v-9.379c0-.486.331-.91.803-1.029a1.065 1.065 0 00-.253-.033H1.928c-.586 0-1.062.476-1.062 1.062v9.38c0 .586.476 1.061 1.062 1.061h3.996a1.062 1.062 0 01-1.064-1.062zm30.896-13.596H23.91a.944.944 0 00-.936.936v2.558c.128-.051.263-.078.4-.078h3.483c.444 0 .841.276.995.693l.398 1.071c.155.417.552.693.996.693h6.383c.586 0 1.062.475 1.062 1.062v-6.003a.944.944 0 00-.934-.932z" fill="#FEC458"/><path d="M26.969 41.512a.944.944 0 01.936-.936h-3.996a.944.944 0 00-.936.936v2.558c.128-.051.263-.078.4-.078h3.483c.039 0 .078.004.118.009l-.005-2.49z" fill="#F9AB49"/><path d="M35.628 46.187h-6.382c-.444 0-.841-.276-.996-.693l-.397-1.071a1.062 1.062 0 00-.996-.693h-3.482c-.587 0-1.062.476-1.062 1.062v9.379c0 .586.475 1.062 1.062 1.062h12.253c.586 0 1.062-.476 1.062-1.062v-6.922a1.062 1.062 0 00-1.062-1.062z" fill="#FFE181"/><path d="M26.305 54.172v-9.379c0-.486.33-.91.802-1.029a1.065 1.065 0 00-.253-.033h-3.482a1.062 1.062 0 00-1.062 1.062v9.38a1.062 1.062 0 001.062 1.061h3.994a1.062 1.062 0 01-1.061-1.062zM57.2 40.576H45.355a.944.944 0 00-.935.936v2.558c.127-.051.263-.078.4-.078h3.48c.444 0 .841.276.996.693l.398 1.071c.154.417.551.693.995.693h6.385c.587 0 1.062.475 1.062 1.062v-6.003a.944.944 0 00-.937-.932z" fill="#FEC458"/><path d="M48.414 41.512a.944.944 0 01.936-.936h-3.996a.944.944 0 00-.935.936v2.558c.127-.051.263-.078.4-.078H48.3c.04 0 .079.004.118.009l-.005-2.49z" fill="#F9AB49"/><path d="M57.073 46.187h-6.38c-.443 0-.84-.276-.995-.693l-.398-1.071a1.062 1.062 0 00-.996-.693h-3.482c-.586 0-1.062.476-1.062 1.062v9.379c0 .586.476 1.062 1.062 1.062h12.255c.586 0 1.062-.476 1.062-1.062v-6.922a1.062 1.062 0 00-1.066-1.062z" fill="#FFE181"/><path d="M47.752 54.172v-9.379c0-.486.331-.91.803-1.029a1.065 1.065 0 00-.253-.033H44.82c-.587 0-1.062.476-1.062 1.062v9.38c0 .586.475 1.061 1.062 1.061h3.995a1.062 1.062 0 01-1.063-1.062z" fill="#FEC458"/><path fill-rule="evenodd" clip-rule="evenodd" d="M57.2 39.711h-4.926v-5.017a2.347 2.347 0 00-2.343-2.344H30.364v-5.633h12.953a2.556 2.556 0 002.553-2.549v-5.645a.864.864 0 10-1.729 0v5.645a.826.826 0 01-.826.826H15.682a.826.826 0 01-.826-.826V2.732c0-.456.37-.826.826-.826h8.533c.344 0 .652.215.773.537l1.004 2.704a3.17 3.17 0 002.958 2.056h14.367c.456 0 .826.37.826.826v6.463a.864.864 0 001.728 0V2.574a2.402 2.402 0 00-2.4-2.4H15.682a2.556 2.556 0 00-2.552 2.552v21.442a2.556 2.556 0 002.552 2.549h12.954v5.633H9.733a2.347 2.347 0 00-2.345 2.344v5.017H2.463c-.995.002-1.8.809-1.8 1.803v1.83A1.92 1.92 0 000 44.792v9.379a1.93 1.93 0 001.927 1.927H14.18a1.93 1.93 0 001.927-1.927V41.514a1.8 1.8 0 00-1.8-1.8H9.115v-5.02c0-.34.276-.615.615-.615h18.904v5.632H23.91a1.802 1.802 0 00-1.8 1.803v1.83a1.92 1.92 0 00-.664 1.452v9.378a1.93 1.93 0 001.927 1.927h4.111a.864.864 0 000-1.728h-4.11a.198.198 0 01-.199-.199v-9.382c0-.11.089-.198.198-.198h3.482a.2.2 0 01.187.13l.398 1.071a1.935 1.935 0 001.806 1.257h6.383c.11 0 .198.089.198.198v6.922c0 .11-.089.198-.198.198h-4.111a.864.864 0 000 1.729h4.11a1.93 1.93 0 001.928-1.927V41.514a1.802 1.802 0 00-1.801-1.803h-5.39v-5.63H49.93c.34 0 .615.274.616.614v5.017h-5.192a1.802 1.802 0 00-1.801 1.802v1.83a1.921 1.921 0 00-.663 1.452v9.378a1.93 1.93 0 001.927 1.927h12.255A1.93 1.93 0 0059 54.172V41.514a1.803 1.803 0 00-1.8-1.8v-.003zM43.47 1.91c.37 0 .67.3.671.671v3.035a2.596 2.596 0 00-.826-.137H28.95a1.434 1.434 0 01-1.338-.93l-.98-2.64H43.47zM14.181 54.37c.11 0 .199-.089.199-.198V47.25a.198.198 0 00-.198-.198H7.8a1.935 1.935 0 01-1.807-1.253l-.397-1.072a.2.2 0 00-.187-.13H1.921a.195.195 0 00-.074.015.198.198 0 00-.118.181v9.379c0 .11.088.198.198.198H14.18zm.127-12.93c.039.002.07.034.072.073v3.82a1.91 1.91 0 00-.198-.01H7.8a.2.2 0 01-.187-.13l-.397-1.071a1.935 1.935 0 00-1.807-1.256H2.392v-1.35a.074.074 0 01.072-.073h11.845l-.002-.002zm21.517.073a.074.074 0 00-.072-.072l.001.002H23.908a.074.074 0 00-.072.072v1.351h3.018a1.939 1.939 0 011.807 1.256l.398 1.071c.03.077.103.129.186.13h6.382c.03 0 .113.005.162.008l.024.002h.012v-3.82zM57.27 54.17c0 .11-.089.198-.198.198H44.82a.198.198 0 01-.199-.198v-9.379c0-.11.09-.198.199-.198h3.48a.2.2 0 01.186.13l.398 1.071a1.935 1.935 0 001.807 1.256h6.381c.11 0 .198.088.198.198v6.922zm-.198-8.849c.066 0 .132.004.198.01v-3.818a.074.074 0 00-.072-.072H45.355a.074.074 0 00-.072.072v1.351H48.3a1.935 1.935 0 011.806 1.256l.398 1.071a.2.2 0 00.186.13h6.383z" fill="#000"/></svg>