<svg width="79" height="79" fill="none" xmlns="http://www.w3.org/2000/svg"><path d="M47.4 51.869v-5.786H34.233v5.786a15.68 15.68 0 01-2.633 8.697h18.433A15.678 15.678 0 0147.4 51.87z" fill="#645960"/><path d="M47.4 50.033H34.234v1.836c0 .266-.01.532-.023.797h13.212c-.014-.265-.023-.53-.023-.797v-1.836z" fill="#4B4348"/><path d="M6.583 1.317H75.05a2.633 2.633 0 012.633 2.633v40.817H3.95V3.95a2.633 2.633 0 012.633-2.633z" fill="#E6E6E6"/><path d="M10.533 5.267v7.9h63.2v-7.9h-63.2zm46.083 28.967h17.117v9.217H56.616v-9.217zm-23.7 0h18.433v10.533H32.916V34.234zm-22.383-15.8H27.65v10.533H10.533V18.434zm46.083 0h17.117v10.533H56.616V18.434zm-23.7 0h18.433v10.533H32.916V18.434zm-22.383 15.8H27.65v7.9H10.533v-7.9z" fill="#CCC"/><path d="M55.3 35.55h17.117v9.217H55.3V35.55z" fill="#F55441"/><path d="M31.6 35.55h18.433v10.533H31.6V35.55z" fill="#FFAF00"/><path d="M3.95 43.45h73.733v5.267a2.633 2.633 0 01-2.633 2.633H6.583a2.633 2.633 0 01-2.633-2.633V43.45z" fill="#315A70"/><path d="M9.217 6.583v7.9h63.2v-7.9h-63.2z" fill="#FFAF00"/><path d="M9.217 19.75h17.117v10.533H9.217V19.75z" fill="#6AD3D3"/><path d="M55.3 19.75h17.117v10.533H55.3V19.75z" fill="#19AF19"/><path d="M31.6 19.75h18.433v10.533H31.6V19.75z" fill="#F55441"/><path d="M9.217 35.55h17.117v7.9H9.217v-7.9z" fill="#19AF19"/><rect x="1.317" y="40.817" width="26.333" height="36.867" rx="13.166" fill="#645960"/><path d="M1.317 46.083H27.65v26.333H1.317V46.083z" fill="#E6E6E6"/><path d="M1.317 69.783v2.633H27.65V60.893a43.256 43.256 0 01-26.333 8.89z" fill="#CCC"/><path d="M57.933 56.617H71.1v21.067H57.933V56.617z" fill="#E6E6E6"/><path d="M57.933 70.163v7.52H71.1V57.901a43.675 43.675 0 01-13.167 12.262z" fill="#CCC"/><path d="M57.933 72.417H71.1v5.267H57.933v-5.267z" fill="#645960"/><path d="M1.317 46.083H27.65V47.4H1.317v-1.317z" fill="#CCC"/><path d="M6.583 51.35h15.8v5.267h-15.8V51.35z" fill="#FFAF00"/><path fill-rule="evenodd" clip-rule="evenodd" d="M6.583 0H75.05A3.955 3.955 0 0179 3.95v44.767a3.955 3.955 0 01-3.95 3.95H48.743a14.31 14.31 0 002.386 7.17 1.317 1.317 0 01-1.096 2.046H31.6a1.317 1.317 0 01-1.096-2.047 14.31 14.31 0 002.388-7.17h-3.925V75.05a3.955 3.955 0 01-3.95 3.95H3.95A3.955 3.955 0 010 75.05v-31.6a3.956 3.956 0 012.633-3.723V3.95A3.955 3.955 0 016.583 0zM75.05 2.633H6.584c-.727 0-1.316.59-1.317 1.317V39.5H7.9v-3.95a1.317 1.317 0 011.317-1.317h17.116a1.317 1.317 0 011.317 1.317v4.959c.493.442.868 1 1.09 1.624h1.543V35.55a1.317 1.317 0 011.317-1.317h18.433a1.317 1.317 0 011.317 1.317v6.583h2.633V35.55a1.317 1.317 0 011.317-1.317h17.117a1.317 1.317 0 011.317 1.317v6.583h2.633V3.95c0-.727-.59-1.316-1.317-1.317zm-3.95 39.5H56.617v-5.266H71.1v5.266zm-38.183 0h15.8v-5.266h-15.8v5.266zm-7.9-2.633H10.533v-2.633h14.484V39.5zm0 2.633H3.95c-.727 0-1.316.59-1.317 1.317v1.317h23.7V43.45c0-.727-.59-1.316-1.316-1.317zm1.316 5.267v23.7h-23.7V47.4h23.7zM3.95 76.367h21.066a1.319 1.319 0 001.317-1.317v-1.317h-23.7v1.317c0 .727.59 1.316 1.317 1.317zM47.768 59.25H33.864a16.926 16.926 0 001.666-6.583H46.1a16.927 16.927 0 001.668 6.583zm-18.801-9.217H75.05c.727 0 1.316-.59 1.317-1.316v-3.95h-47.4v5.266z" fill="#000"/><circle cx="40.817" cy="47.4" r="1.317" fill="#000"/><path fill-rule="evenodd" clip-rule="evenodd" d="M72.417 15.8h-63.2c-.727 0-1.317-.59-1.317-1.316v-7.9c0-.727.59-1.317 1.317-1.317h63.2c.727 0 1.316.59 1.317 1.316v7.9c0 .727-.59 1.317-1.317 1.317zM71.1 7.9H10.534l-.001 5.267H71.1V7.9zM26.333 31.6H9.217c-.727 0-1.317-.59-1.317-1.317V19.75c0-.727.59-1.317 1.317-1.317h17.116c.727 0 1.317.59 1.317 1.317v10.533c0 .727-.59 1.317-1.317 1.317zm-1.316-10.533H10.534l-.001 7.9h14.484v-7.9zM55.3 18.433h17.116c.728 0 1.317.59 1.317 1.317v10.533c0 .727-.589 1.317-1.316 1.317H55.3c-.727 0-1.317-.59-1.317-1.317V19.75c0-.727.59-1.317 1.317-1.317zm1.316 10.533H71.1v-7.9H56.616v7.9zM31.6 18.433h18.433c.727 0 1.317.59 1.317 1.317v10.533c0 .727-.59 1.317-1.317 1.317H31.6c-.727 0-1.317-.59-1.317-1.317V19.75c0-.727.59-1.317 1.317-1.317zm1.316 10.533h15.8v-7.9h-15.8v7.9zM71.1 79c.727 0 1.317-.59 1.317-1.317V56.617c0-.727-.59-1.317-1.317-1.317H57.934a1.317 1.317 0 00-1.317 1.317v21.067c0 .727.59 1.316 1.317 1.316H71.1zm-6.583-2.633H59.25v-2.633h10.533v2.633h-5.266zm5.267-5.267V57.934H59.25V71.1h10.534z" fill="#000"/><circle cx="64.517" cy="75.05" r="1.317" fill="#000"/><path d="M60.567 60.567h7.9V63.2h-7.9v-2.633zm0 5.266h7.9v2.633h-7.9v-2.633z" fill="#000"/><circle cx="14.484" cy="75.05" r="1.317" fill="#000"/><path fill-rule="evenodd" clip-rule="evenodd" d="M22.384 57.933h-15.8a1.317 1.317 0 01-1.317-1.316V51.35c0-.727.59-1.317 1.317-1.317h15.8c.727 0 1.316.59 1.317 1.316v5.267c0 .727-.59 1.317-1.317 1.317zm-1.317-5.267H7.9V55.3h13.167v-2.633z" fill="#000"/><path d="M18.433 60.567H23.7V63.2h-5.267v-2.633zm0 5.266H23.7v2.633h-5.267v-2.633zm-6.583-5.266h5.267V63.2H11.85v-2.633zm0 5.266h5.267v2.633H11.85v-2.633zm-6.583-5.266h5.267V63.2H5.267v-2.633zm0 5.266h5.267v2.633H5.267v-2.633z" fill="#000"/></svg>