<svg width="162" height="24" fill="none" xmlns="http://www.w3.org/2000/svg"><path d="M16.019 17.017c0 1.116-.279 2.15-.837 3.1-.558.93-1.385 1.684-2.48 2.263-1.095.558-2.428.837-3.999.837-1.55 0-2.935-.258-4.154-.775-1.22-.537-2.201-1.302-2.945-2.294-.723-.992-1.137-2.15-1.24-3.472h4.65c.103.889.455 1.633 1.054 2.232.62.579 1.436.868 2.449.868.91 0 1.602-.238 2.077-.713.496-.496.744-1.126.744-1.89 0-.683-.196-1.24-.589-1.675a4.203 4.203 0 00-1.488-1.085c-.6-.269-1.426-.579-2.48-.93-1.364-.455-2.48-.899-3.348-1.333-.868-.455-1.612-1.106-2.232-1.953C.601 9.35.302 8.244.302 6.88c0-1.88.672-3.358 2.015-4.433C3.681 1.352 5.479.804 7.711.804c2.315 0 4.154.558 5.518 1.674 1.385 1.116 2.17 2.604 2.356 4.464h-4.712c-.124-.785-.455-1.426-.992-1.922-.537-.517-1.271-.775-2.201-.775-.806 0-1.457.217-1.953.651-.496.413-.744 1.023-.744 1.83 0 .64.186 1.177.558 1.611A4.74 4.74 0 006.998 9.36c.6.269 1.405.568 2.418.9 1.405.495 2.542.96 3.41 1.394.889.434 1.643 1.085 2.263 1.953.62.868.93 2.005.93 3.41zm12.956 2.233V23H26.68c-1.922 0-3.4-.465-4.433-1.395-1.013-.93-1.52-2.48-1.52-4.65v-7.44h-2.386V5.826h2.387V1.58h4.37v4.247h3.845v3.69H25.1v7.501c0 .827.165 1.405.496 1.736.33.33.889.496 1.674.496h1.705zM39.407 5.61c1.447 0 2.687.34 3.72 1.022a5.571 5.571 0 012.201 2.76V5.825h4.34V23h-4.34v-3.596a5.738 5.738 0 01-2.201 2.79c-1.033.682-2.273 1.023-3.72 1.023s-2.749-.351-3.906-1.054c-1.157-.703-2.067-1.715-2.728-3.038-.64-1.343-.961-2.914-.961-4.712 0-1.798.32-3.358.961-4.68.661-1.344 1.57-2.367 2.728-3.07 1.157-.703 2.46-1.054 3.906-1.054zm1.364 3.812c-1.364 0-2.46.444-3.286 1.333-.827.889-1.24 2.108-1.24 3.658 0 1.55.413 2.77 1.24 3.658.827.868 1.922 1.302 3.286 1.302 1.323 0 2.408-.444 3.255-1.333.868-.91 1.302-2.118 1.302-3.627 0-1.53-.434-2.738-1.302-3.627-.847-.91-1.932-1.364-3.255-1.364zm17.789-.31a7.06 7.06 0 012.542-2.573c1.054-.64 2.232-.96 3.534-.96v4.68h-1.27c-3.204 0-4.806 1.488-4.806 4.464V23h-4.37V5.826h4.37v3.286zM77.876 5.61c1.447 0 2.749.35 3.906 1.053 1.158.703 2.057 1.726 2.697 3.07.662 1.322.992 2.882.992 4.68 0 1.798-.33 3.369-.992 4.712-.64 1.323-1.54 2.335-2.697 3.038-1.157.703-2.459 1.054-3.906 1.054-1.446 0-2.686-.34-3.72-1.023a5.797 5.797 0 01-2.17-2.79V23h-4.37V.06h4.37v9.331a5.626 5.626 0 012.17-2.759c1.034-.682 2.274-1.023 3.72-1.023zm-1.364 3.812c-1.322 0-2.418.455-3.286 1.364-.847.889-1.27 2.098-1.27 3.627 0 1.509.423 2.718 1.27 3.627.868.889 1.964 1.333 3.286 1.333 1.364 0 2.46-.434 3.286-1.302.827-.889 1.24-2.108 1.24-3.658 0-1.55-.413-2.77-1.24-3.658-.826-.889-1.922-1.333-3.286-1.333zM97.06 5.61c1.674 0 3.173.35 4.495 1.053a7.656 7.656 0 013.162 3.07c.765 1.322 1.147 2.882 1.147 4.68 0 1.798-.382 3.358-1.147 4.681a7.918 7.918 0 01-3.162 3.07c-1.322.702-2.82 1.053-4.495 1.053-1.674 0-3.182-.351-4.526-1.054a7.98 7.98 0 01-3.13-3.069c-.765-1.323-1.147-2.883-1.147-4.68 0-1.799.382-3.36 1.146-4.682.765-1.343 1.809-2.366 3.131-3.069 1.344-.703 2.852-1.054 4.526-1.054zm0 3.781c-1.219 0-2.252.434-3.1 1.302-.847.847-1.27 2.087-1.27 3.72s.423 2.883 1.27 3.751c.848.847 1.881 1.271 3.1 1.271 1.22 0 2.253-.424 3.1-1.27.848-.869 1.271-2.12 1.271-3.752 0-1.633-.423-2.873-1.271-3.72-.847-.868-1.88-1.302-3.1-1.302zm19.18-3.781c1.447 0 2.687.34 3.72 1.022a5.568 5.568 0 012.201 2.76V5.825h4.34V23h-4.34v-3.596a5.734 5.734 0 01-2.201 2.79c-1.033.682-2.273 1.023-3.72 1.023-1.446 0-2.748-.351-3.906-1.054-1.157-.703-2.066-1.715-2.728-3.038-.64-1.343-.961-2.914-.961-4.712 0-1.798.321-3.358.961-4.68.662-1.344 1.571-2.367 2.728-3.07 1.158-.703 2.46-1.054 3.906-1.054zm1.364 3.812c-1.364 0-2.459.444-3.286 1.333-.826.889-1.24 2.108-1.24 3.658 0 1.55.414 2.77 1.24 3.658.827.868 1.922 1.302 3.286 1.302 1.323 0 2.408-.444 3.255-1.333.868-.91 1.302-2.118 1.302-3.627 0-1.53-.434-2.738-1.302-3.627-.847-.91-1.932-1.364-3.255-1.364zm17.79-.31a7.055 7.055 0 012.542-2.573c1.054-.64 2.232-.96 3.534-.96v4.68h-1.271c-3.204 0-4.805 1.488-4.805 4.464V23h-4.371V5.826h4.371v3.286zm15.782-3.502c1.446 0 2.676.34 3.689 1.022a5.75 5.75 0 012.232 2.76V.06h4.34V23h-4.34v-3.596a5.925 5.925 0 01-2.232 2.79c-1.013.682-2.243 1.023-3.689 1.023-1.447 0-2.749-.351-3.906-1.054-1.158-.703-2.067-1.715-2.728-3.038-.641-1.343-.961-2.914-.961-4.712 0-1.798.32-3.358.961-4.68.661-1.344 1.57-2.367 2.728-3.07 1.157-.703 2.459-1.054 3.906-1.054zm1.364 3.812c-1.364 0-2.46.444-3.286 1.333-.827.889-1.24 2.108-1.24 3.658 0 1.55.413 2.77 1.24 3.658.826.868 1.922 1.302 3.286 1.302 1.322 0 2.407-.444 3.255-1.333.868-.91 1.302-2.118 1.302-3.627 0-1.53-.434-2.738-1.302-3.627-.848-.91-1.933-1.364-3.255-1.364z" fill="#fff"/></svg>