<svg width="79" height="81" fill="none" xmlns="http://www.w3.org/2000/svg"><path d="M47.297 39.965a11.172 11.172 0 01-1.602 5.78H40.42a1.484 1.484 0 01-1.482-1.487v-3.986a2.799 2.799 0 00-5.598 0v10.561a11.208 11.208 0 1113.958-10.865v-.003z" fill="#13BF6D"/><path d="M50.517 55.584H32.98a1.6 1.6 0 00-1.6 1.6v5.056h20.74v-5.056a1.605 1.605 0 00-1.604-1.6z" fill="#fff"/><path d="M53.02 62.239H30.48a.988.988 0 00-.988.988V80h24.519V63.227a.988.988 0 00-.993-.988z" fill="#72C1E8"/><path d="M47.37 45.745h-6.95a1.484 1.484 0 01-1.483-1.487V40.27a2.8 2.8 0 00-5.598 0v15.316h16.827v-7.044a2.792 2.792 0 00-2.794-2.796z" fill="#FFB69F"/><path fill-rule="evenodd" clip-rule="evenodd" d="M49.718 70.073c0 .44.356.796.796.796a.796.796 0 00.8-.796v-4.256a.796.796 0 00-.8-.796H32.99a.796.796 0 100 1.593h16.728v3.459zm0 4.142a.796.796 0 101.592 0v-.956a.796.796 0 10-1.592 0v.956z" fill="#C5E5FF"/><path d="M11.006 13.7c0 2.82-5.105 10.396-5.105 10.396S.796 16.52.796 13.7a5.105 5.105 0 0110.21 0z" fill="#FC5D3D"/><circle cx="7.577" cy="61.553" r="5.969" fill="#F0C020"/><path d="M77.197 50.007l-4.685 4.686-4.686-4.686a2.613 2.613 0 013.696-3.696l.99.99.99-.99a2.613 2.613 0 013.695 3.696z" fill="#FC5D3D"/><path d="M39.346 2.057l1.32 1.851 2.212.711a1.124 1.124 0 01.54 1.754l-1.374 1.784.042 2.33a1.124 1.124 0 01-1.507 1.077l-2.151-.78-2.151.78a1.124 1.124 0 01-1.507-1.077l.042-2.33-1.372-1.784a1.124 1.124 0 01.546-1.756l2.212-.711 1.32-1.851a1.124 1.124 0 011.828.002z" fill="#F0C020"/><circle cx="70.964" cy="14.281" r="3.719" fill="#FFB69F"/><path d="M72.332 18h-2.736a5.87 5.87 0 00-5.871 5.87v2.948h14.479V23.87A5.87 5.87 0 0072.332 18z" fill="#72C1E8"/><path d="M43.216 43.001a.797.797 0 00.995-.527 8.496 8.496 0 10-15.024 2.45.796.796 0 101.294-.929 6.905 6.905 0 1112.207-1.991.796.796 0 00.527.995l.001.002zM54.01 72.832a.796.796 0 00-.79.797V80a.796.796 0 101.593 0v-6.372a.797.797 0 00-.803-.797z" fill="#000"/><circle cx="54.01" cy="70.443" r=".796" fill="#000"/><path d="M43.53 31.547a.79.79 0 00-.146-1.115.815.815 0 00-1.119.146.796.796 0 101.264.97h.002zM6.698 13.701v-.492a.796.796 0 10-1.593 0v.492a.796.796 0 001.593 0zm2.708 45.437L7.66 60.48 6.17 58.9a.796.796 0 10-1.158 1.094l1.987 2.102a.796.796 0 001.065.084l2.314-1.784a.797.797 0 10-.972-1.264v.005z" fill="#000"/><path fill-rule="evenodd" clip-rule="evenodd" d="M64.2 50.328h-4.144l-11.97-10.724a11.966 11.966 0 00-.604-3.435l8.69-12.753h4.405a.796.796 0 000-1.593H55.75c-.263 0-.51.13-.658.348l-8.35 12.255a12.044 12.044 0 00-.977-1.566.823.823 0 00-1.116-.172.802.802 0 00-.169 1.115 10.328 10.328 0 012.02 6.162c0 1.74-.435 3.453-1.264 4.984h-4.819a.693.693 0 01-.685-.688v-3.993a3.595 3.595 0 00-7.189 0v9.49a10.414 10.414 0 117.302-19.506.811.811 0 001.027-.452.79.79 0 00-.456-1.033 11.95 11.95 0 00-2.002-.576l.52-12.863a.797.797 0 00-1.592-.064l-.515 12.726a11.93 11.93 0 00-6.557 1.475L19.481 15.332a.796.796 0 00-.632-.317h-4.603a.796.796 0 100 1.593h4.208L28.931 30.33a11.966 11.966 0 00-4.74 8.076l-7.493-5.895a.795.795 0 00-.493-.17h-3.397a.796.796 0 100 1.592h3.123l8.167 6.423a11.886 11.886 0 001.43 5.306L18.44 55.84h-3.202a.796.796 0 100 1.593h3.618c.26 0 .504-.127.653-.341l6.948-9.972a12.065 12.065 0 006.083 4.315v3.396a2.4 2.4 0 00-1.954 2.352v4.258h-.105c-.984.003-1.781.8-1.783 1.784V80a.796.796 0 101.592 0V63.227c0-.106.086-.19.191-.191h22.541c.106 0 .191.085.192.19v4.03a.797.797 0 001.593 0v-4.03c0-.984-.799-1.782-1.784-1.783h-.103v-4.26a2.4 2.4 0 00-1.956-2.354v-6.29a3.596 3.596 0 00-3.592-3.59h-.364c.48-1.05.807-2.164.969-3.307l11.245 10.076a.795.795 0 00.531.203h4.45a.796.796 0 100-1.593H64.2zm-12.874 6.855v4.258H32.18v-4.258a.804.804 0 01.804-.803h17.538c.444.002.803.36.805.803zm-1.956-2.397V48.54a2.001 2.001 0 00-2-2h-6.952a2.284 2.284 0 01-2.28-2.283V40.27a2.002 2.002 0 00-4.002-.03v14.547h15.233zm23.142-8.611l.426-.427h.007a3.41 3.41 0 014.819 4.82l-4.686 4.685a.797.797 0 01-1.127 0l-4.685-4.686a3.41 3.41 0 014.819-4.819l.427.427zm0 7.39l4.122-4.121a1.817 1.817 0 10-2.57-2.57l-.99.99a.796.796 0 01-1.126 0l-.99-.99a1.817 1.817 0 10-2.569 2.57l4.123 4.122zM.811 61.552a6.766 6.766 0 016.766-6.766 6.773 6.773 0 016.765 6.766 6.765 6.765 0 11-13.53 0zm1.593 0a5.173 5.173 0 1010.346 0 5.173 5.173 0 00-10.346 0z" fill="#000"/><path d="M2.762 18.915a.796.796 0 10-.725-1.418.796.796 0 00.725 1.418z" fill="#000"/><path d="M1.37 16.04a.79.79 0 00.503-1.005 4.662 4.662 0 01-.28-1.332 4.31 4.31 0 118.618 0c.038 1.917-3.257 7.3-4.311 8.934a77.471 77.471 0 01-1.264-2.049.82.82 0 00-1.093-.277.79.79 0 00-.277 1.092 68.147 68.147 0 001.975 3.138.797.797 0 001.322 0c1.45-2.127 5.207-8.141 5.241-10.835a5.902 5.902 0 00-11.804 0c.024.627.147 1.246.363 1.835a.806.806 0 001.007.503v-.004z" fill="#000"/><path fill-rule="evenodd" clip-rule="evenodd" d="M33.974 10.479l.037-2.054-1.206-1.563a1.921 1.921 0 01.934-3.002l1.958-.632 1.167-1.636a1.922 1.922 0 013.127 0l1.166 1.636 1.959.632a1.921 1.921 0 01.933 3.002l-1.204 1.563.037 2.053a1.92 1.92 0 01-2.575 1.84l-1.88-.681-1.879.681a1.921 1.921 0 01-2.574-1.84zm2.466-5.812l-2.212.711.002.002a.326.326 0 00-.158.511l1.373 1.781c.11.144.168.32.165.501l-.042 2.33a.327.327 0 00.439.317l2.15-.78a.795.795 0 01.544 0l2.15.78a.327.327 0 00.44-.316l-.042-2.33a.798.798 0 01.166-.502l1.374-1.783a.326.326 0 00-.157-.511l-2.212-.711a.796.796 0 01-.405-.296l-1.318-1.85a.326.326 0 00-.533 0l-1.32 1.85a.798.798 0 01-.404.296zm37.712 6.417a4.515 4.515 0 01.01 6.38 6.676 6.676 0 014.834 6.407v2.946a.796.796 0 11-1.593 0v-2.946a5.081 5.081 0 00-5.075-5.075h-2.736a5.081 5.081 0 00-5.075 5.075v2.946a.796.796 0 01-1.593 0v-2.946a6.676 6.676 0 014.838-6.406 4.515 4.515 0 016.39-6.38zm-.266 3.197a2.923 2.923 0 10-5.846 0 2.923 2.923 0 005.846 0z" fill="#000"/><path d="M9.411 32.34h-7.22a.796.796 0 100 1.593h7.22a.796.796 0 000-1.593zm0 4.333h-7.22a.796.796 0 000 1.593h7.22a.796.796 0 100-1.593zm0 4.334h-7.22a.796.796 0 100 1.592h7.22a.796.796 0 100-1.592z" fill="#000"/></svg>