<svg width="59" height="55" fill="none" xmlns="http://www.w3.org/2000/svg"><path d="M31.904 39.094c.47 0 .85-.383.85-.856a.853.853 0 00-.85-.856h-5.74a.854.854 0 00-.85.856c0 .473.381.856.85.856h5.74z" fill="#000"/><path fill-rule="evenodd" clip-rule="evenodd" d="M54.53.12H43.585c-.47 0-.85.383-.85.856 0 .472.38.855.85.855H54.53a1.847 1.847 0 011.84 1.85v30.353H1.7V3.682c0-1.023.823-1.853 1.839-1.854h36.077c.47 0 .85-.383.85-.856a.853.853 0 00-.85-.855H3.54C1.585.119 0 1.714 0 3.682v35.231c.002 1.967 1.586 3.56 3.54 3.562h8.149c.47 0 .85-.383.85-.856a.853.853 0 00-.85-.855H3.54a1.847 1.847 0 01-1.839-1.85v-3.171h54.667v3.17a1.847 1.847 0 01-1.839 1.85H15.616c-.47 0-.85.384-.85.856 0 .473.38.856.85.856h5.354l-.853 4.957a80.39 80.39 0 00-3.156.366c-2.712.381-4.733 2.712-4.74 5.467 0 .257.115.5.312.662a.847.847 0 00.705.178 82.536 82.536 0 0115.797-1.429 82.543 82.543 0 0115.796 1.426c.25.05.509-.015.706-.178a.858.858 0 00.31-.662c-.006-2.755-2.026-5.086-4.739-5.467a80.056 80.056 0 00-3.155-.366l-.853-4.957h17.43c1.953-.003 3.537-1.596 3.54-3.562V3.682C58.066 1.716 56.482.122 54.53.12zM43.994 52.2a86.115 86.115 0 00-14.96-1.232 86.114 86.114 0 00-14.96 1.232 3.8 3.8 0 013.116-2.71 87.943 87.943 0 0111.845-.768 88.02 88.02 0 0111.844.768 3.8 3.8 0 013.117 2.71h-.002zm-14.958-5.193c2.446 0 4.841.088 7.166.265l-.83-4.806H22.697l-.826 4.806a94.52 94.52 0 017.166-.265z" fill="#000"/><path d="M26.501 10.01h-2.934l-2.464-4.871a.85.85 0 00-1.516 0l-4.014 7.937-3.388-6.697a.85.85 0 00-1.516 0l-1.836 3.63H5.907c-.47 0-.85.384-.85.856 0 .473.38.856.85.856h3.45a.85.85 0 00.759-.468l1.314-2.6 3.382 6.695a.85.85 0 001.516 0l4.015-7.939 1.941 3.84a.85.85 0 00.758.468h3.451c.47 0 .85-.383.85-.856a.853.853 0 00-.85-.856l.008.005zm-.002 8.83H6.239a.854.854 0 00-.851.857c0 .472.38.855.85.855h20.26c.47 0 .851-.383.851-.855a.853.853 0 00-.85-.856zM6.234 25.687h18.555a.85.85 0 00.736-.427.86.86 0 000-.856.85.85 0 00-.736-.428H6.234a.85.85 0 00-.737.428.86.86 0 000 .856.85.85 0 00.737.427zm0 5.127h20.26c.47 0 .85-.383.85-.856a.853.853 0 00-.85-.856H6.234c-.47 0-.85.383-.85.856s.38.856.85.856zm45.794-11.97h-3.313c-.47 0-.85.383-.85.856s.38.856.85.856h3.314a.85.85 0 00.737-.428.86.86 0 000-.856.85.85 0 00-.737-.428h-.001zm-7.295 0h-12.97c-.47 0-.85.383-.85.856s.38.856.85.856h12.97a.85.85 0 00.737-.428.86.86 0 000-.856.85.85 0 00-.737-.428zm-12.97 10.264c-.47 0-.85.383-.85.856 0 .472.38.855.85.855h18.56c.47 0 .851-.383.851-.855a.853.853 0 00-.85-.856h-18.56zm-.85-4.273c0 .473.38.856.85.856h20.26c.47 0 .851-.383.851-.856a.853.853 0 00-.85-.856h-20.26a.854.854 0 00-.851.856z" fill="#000"/><path fill-rule="evenodd" clip-rule="evenodd" d="M47.715 6.93h4.313c.47 0 .85.384.85.856v7.178c0 .473-.38.856-.85.856h-4.313a.853.853 0 01-.85-.856V7.786a.86.86 0 01.25-.605.846.846 0 01.6-.25zm.851 7.179h2.612V8.642h-2.612v5.467zM39.78 10.52h4.313c.47 0 .85.383.85.856v3.584c0 .473-.38.856-.85.856H39.78a.853.853 0 01-.85-.856v-3.584c0-.473.38-.856.85-.856zm.85 3.584h2.612v-1.877h-2.611v1.877zm-4.414 1.716h-4.313a.848.848 0 01-.6-.25.858.858 0 01-.25-.605V5.527c0-.472.38-.855.85-.855h4.313c.47 0 .85.383.85.855v9.438c0 .472-.38.855-.85.855zm-.85-9.437h-2.612v7.728h2.611V6.383z" fill="#000"/></svg>