<svg width="52" height="46" fill="none" xmlns="http://www.w3.org/2000/svg"><path opacity=".1" d="M20.017 0c1.595 7.18 2.393 14.062 2.393 20.644 0 8.377-1.886 14.735-5.657 19.073C13.127 43.906 7.688 46 .435 46v-9.2c3.771 0 6.455-.972 8.05-2.917 1.596-2.094 2.394-5.236 2.394-9.425v-5.16H0V0h20.017zm29.372 0C51.13 7.779 52 14.66 52 20.644c0 8.377-1.886 14.735-5.657 19.073C42.572 43.906 37.06 46 29.807 46v-9.2c3.772 0 6.455-.972 8.05-2.917 1.596-2.094 2.394-5.236 2.394-9.425v-5.16H29.372V0H49.39z" fill="#000"/></svg>