<svg width="59" height="56" viewBox="0 0 59 56" fill="none" xmlns="http://www.w3.org/2000/svg">
<path d="M45.1846 47.7376V12.8096H1.90453L0.86377 13.4456V47.7317C0.86377 49.3746 2.19562 50.7065 3.83855 50.7065H42.2098C43.8504 50.7065 45.1813 49.3782 45.1846 47.7376Z" fill="#F7F4F7"/>
<path d="M50.7966 12.8154H44.5202V47.7434C44.5202 49.3864 43.1883 50.7182 41.5454 50.7182H48.8614C50.5043 50.7182 51.8362 49.3864 51.8362 47.7434V13.4514L50.7966 12.8154Z" fill="#EDEAED"/>
<path d="M45.1657 5.13483H3.83855C2.19562 5.13483 0.86377 6.46668 0.86377 8.10961V13.4515H45.1657V5.13483Z" fill="#E07F84"/>
<path d="M51.8385 13.4515V8.10961C51.8379 6.46695 50.5064 5.13548 48.8638 5.13483H44.5214V13.4515H51.8385Z" fill="#DB636E"/>
<path d="M9.66298 9.22472C8.18363 9.22472 6.98438 8.02547 6.98438 6.54612V3.72356C6.98438 2.24389 8.18389 1.04437 9.66356 1.04437C11.1432 1.04437 12.3428 2.24389 12.3428 3.72356V6.54258C12.3437 7.25381 12.0617 7.93621 11.559 8.43935C11.0564 8.94248 10.3742 9.22504 9.66298 9.22472Z" fill="#756E78"/>
<path d="M43.0629 9.22472C41.5835 9.22472 40.3843 8.02547 40.3843 6.54612V3.72356C40.3843 2.24389 41.5838 1.04437 43.0635 1.04437C44.5431 1.04437 45.7427 2.24389 45.7427 3.72356V6.54258C45.7436 7.25381 45.4616 7.93621 44.9589 8.43935C44.4563 8.94248 43.7741 9.22504 43.0629 9.22472Z" fill="#756E78"/>
<path d="M44.984 19.8117H7.71723C7.07336 19.8117 6.55139 20.3337 6.55139 20.9775V42.627C6.55139 43.2709 7.07336 43.7928 7.71723 43.7928H44.984C45.6279 43.7928 46.1498 43.2709 46.1498 42.627V20.9775C46.1498 20.3337 45.6279 19.8117 44.984 19.8117Z" fill="#C9E0FD"/>
<circle cx="43.0547" cy="40.0227" r="15.0816" fill="#EAC173"/>
<circle cx="43.0535" cy="40.0216" r="11.6242" fill="#F7F4F7"/>
<path d="M43.0547 28.3974C41.8117 28.397 40.5766 28.5962 39.3967 28.9874C44.1524 30.5655 47.3623 35.0127 47.3623 40.0234C47.3623 45.034 44.1524 49.4812 39.3967 51.0593C43.7642 52.5127 48.5779 51.2523 51.6727 47.8451C54.7676 44.4379 55.5607 39.5256 53.6954 35.3176C51.8301 31.1095 47.6577 28.3983 43.0547 28.4033V28.3974Z" fill="#EDEAED"/>
<circle cx="43.0535" cy="40.0216" r="1.87856" fill="#E07F84"/>
<path fill-rule="evenodd" clip-rule="evenodd" d="M28.0993 49.8415H3.84208C2.67869 49.8402 1.7359 48.8974 1.7346 47.734V14.32H12.4915C12.9705 14.32 13.3588 13.9317 13.3588 13.4527C13.3588 12.9737 12.9705 12.5854 12.4915 12.5854H1.7346V8.11081C1.7359 6.94742 2.67869 6.00463 3.84208 6.00333H6.11948V6.54613C6.11948 8.50481 7.7073 10.0926 9.66597 10.0926C11.6246 10.0926 13.2125 8.50481 13.2125 6.54613V6.00333H39.5158V6.54613C39.5158 8.50481 41.1037 10.0926 43.0623 10.0926C45.021 10.0926 46.6088 8.50481 46.6088 6.54613V6.00333H48.8614C50.0248 6.00463 50.9676 6.94742 50.9689 8.11081V12.5842H16.5401C16.0611 12.5842 15.6728 12.9725 15.6728 13.4515C15.6728 13.9305 16.0611 14.3188 16.5401 14.3188H50.9689V23.6679C50.9689 24.1469 51.3572 24.5352 51.8362 24.5352C52.3152 24.5352 52.7035 24.1469 52.7035 23.6679V8.11081C52.7009 5.98997 50.9823 4.27133 48.8614 4.26873H46.61V3.72593C46.61 1.76726 45.0222 0.179443 43.0635 0.179443C41.1048 0.179443 39.517 1.76726 39.517 3.72593V4.26873H13.216V3.72593C13.216 1.76726 11.6282 0.179443 9.66951 0.179443C7.71084 0.179443 6.12302 1.76726 6.12302 3.72593V4.26873H3.84208C1.72124 4.27133 0.00260067 5.98997 0 8.11081V47.734C0 49.8567 1.71939 51.5782 3.84208 51.5808H28.0993C28.5783 51.5808 28.9666 51.1925 28.9666 50.7135C28.9666 50.2345 28.5783 49.8462 28.0993 49.8462V49.8415ZM41.2516 3.72593C41.2516 2.72558 42.0626 1.91463 43.0629 1.91463C44.0633 1.91463 44.8742 2.72558 44.8742 3.72593V6.54731C44.8742 7.54767 44.0633 8.35861 43.0629 8.35861C42.0626 8.35861 41.2516 7.54767 41.2516 6.54731V3.72593ZM9.66892 1.91463C8.66857 1.91463 7.85762 2.72558 7.85762 3.72593V6.54731C7.85762 7.54767 8.66857 8.35861 9.66892 8.35861C10.6693 8.35861 11.4802 7.54767 11.4802 6.54731V3.72593C11.4802 2.72558 10.6693 1.91463 9.66892 1.91463Z" fill="black"/>
<path fill-rule="evenodd" clip-rule="evenodd" d="M52.3425 27.0569C50.738 25.9031 48.9318 25.0599 47.0171 24.5706V20.9811C47.0158 19.8587 46.1063 18.9492 44.984 18.9479H7.72076C6.59843 18.9492 5.68892 19.8587 5.68762 20.9811V42.6294C5.68892 43.7517 6.59843 44.6612 7.72076 44.6625H27.7878C29.812 51.3215 35.9201 55.8992 42.8796 55.9729C49.8391 56.0466 56.0428 51.5993 58.2074 44.9846C60.3721 38.3699 57.9979 31.1154 52.3413 27.0604L52.3425 27.0569ZM39.0981 20.679H44.984C45.1489 20.679 45.2825 20.8127 45.2825 20.9775V24.2296C44.5444 24.1259 43.8 24.0735 43.0547 24.0727C41.7206 24.0719 40.3917 24.2388 39.0993 24.5695L39.0981 20.679ZM37.3659 20.679H31.1792V24.9388H37.3659V20.679ZM31.1792 26.6734H34.3357C33.1703 27.4374 32.1092 28.3497 31.1792 29.3874V26.6734ZM29.4446 20.679H23.2602V24.9388H29.4446V20.679ZM23.2602 26.6734H29.4446V30.9332H23.2602V26.6734ZM7.72076 42.9291H13.6066V38.6693H7.42222V42.6305C7.42222 42.7954 7.55588 42.9291 7.72076 42.9291ZM13.6066 36.9347H7.42222V32.6749H13.6066V36.9347ZM7.42222 30.9403H13.6066V26.6805H7.42222V30.9403ZM13.6066 24.9459H7.42222V20.9811C7.42222 20.8162 7.55588 20.6825 7.72076 20.6825H13.6066V24.9423V24.9459ZM15.3412 42.9291H21.5256V38.6693H15.3412V42.9291ZM21.5256 36.9347H15.3412V32.6749H21.5256V36.9347ZM15.3412 30.9403H21.5256V26.6805H15.3412V30.9403ZM21.5256 24.9459H15.3412V20.6861H21.5256V24.9459ZM23.2602 38.6705V42.9303L27.3701 42.9314C27.1949 41.9734 27.1068 41.0014 27.107 40.0275C27.107 39.5696 27.127 39.1177 27.1648 38.6705H23.2602ZM27.4079 36.9359H23.2602V32.6761H28.9053C28.2058 34.0149 27.7016 35.447 27.4079 36.9288V36.9359ZM29.9214 45.4589C32.1216 50.77 37.3046 54.2328 43.0535 54.2323C46.8301 54.2564 50.4589 52.7668 53.1294 50.0963C55.7999 47.4258 57.2895 43.7969 57.2654 40.0204C57.2659 34.2715 53.8032 29.0885 48.492 26.8882C43.1808 24.688 37.0672 25.9039 33.0021 29.969C28.9371 34.0341 27.7211 40.1477 29.9214 45.4589Z" fill="black"/>
<path fill-rule="evenodd" clip-rule="evenodd" d="M30.5614 40.021C30.5614 33.1225 36.1538 27.5301 43.0523 27.5301C49.9508 27.5301 55.5432 33.1225 55.5432 40.021C55.5432 46.9195 49.9508 52.5119 43.0523 52.5119C36.1538 52.5119 30.5614 46.9195 30.5614 40.021ZM50.8604 46.6024L51.2427 46.9848C52.7066 45.2697 53.592 43.1365 53.7726 40.8889C53.2936 40.8889 52.9053 40.5006 52.9053 40.0216C52.9053 39.5426 53.2936 39.1543 53.7726 39.1543C53.592 36.9066 52.7067 34.7734 51.2427 33.0584L50.8604 33.4407C50.5215 33.7796 49.972 33.7796 49.6332 33.4407C49.2943 33.1018 49.2943 32.5524 49.6332 32.2135L50.0155 31.8312C48.3007 30.3667 46.1674 29.4809 43.9196 29.3001C43.9196 29.7791 43.5313 30.1674 43.0523 30.1674C42.5733 30.1674 42.185 29.7791 42.185 29.3001C39.9372 29.4809 37.8039 30.3667 36.0891 31.8312L36.4714 32.2135C36.8103 32.5524 36.8103 33.1018 36.4714 33.4407C36.1325 33.7796 35.5831 33.7796 35.2442 33.4407L34.8619 33.0584C33.3979 34.7734 32.5125 36.9066 32.332 39.1543C32.811 39.1543 33.1993 39.5426 33.1993 40.0216C33.1993 40.5006 32.811 40.8889 32.332 40.8889C32.5125 43.1365 33.3978 45.2698 34.8619 46.9848L35.2442 46.6024C35.5831 46.2635 36.1325 46.2635 36.4714 46.6024C36.8103 46.9413 36.8103 47.4907 36.4714 47.8296L36.0891 48.212C37.8041 49.676 39.9374 50.5613 42.185 50.7419C42.185 50.2629 42.5733 49.8746 43.0523 49.8746C43.5313 49.8746 43.9196 50.2629 43.9196 50.7419C46.1672 50.5614 48.3006 49.676 50.0155 48.212L49.6332 47.8296C49.2943 47.4907 49.2943 46.9413 49.6332 46.6024C49.972 46.2635 50.5215 46.2635 50.8604 46.6024Z" fill="black"/>
<path fill-rule="evenodd" clip-rule="evenodd" d="M43.9208 33.3581V37.4149H43.922C45.2671 37.8634 46.0496 39.2623 45.7277 40.6432C45.4058 42.0241 44.0854 42.9329 42.6806 42.7403L41.7366 44.6554C41.5996 44.9334 41.3247 45.1172 41.0154 45.1376C40.7061 45.158 40.4094 45.0118 40.2372 44.7541C40.0649 44.4964 40.0432 44.1664 40.1802 43.8884L41.1242 41.9721C40.4443 41.3016 40.162 40.3259 40.3787 39.396C40.5954 38.4661 41.28 37.7158 42.1862 37.4149V33.3581C42.1862 32.8791 42.5745 32.4908 43.0535 32.4908C43.5325 32.4908 43.9208 32.8791 43.9208 33.3581ZM42.0422 40.0204C42.0422 40.5789 42.495 41.0316 43.0535 41.0316C43.6117 41.031 44.0641 40.5786 44.0647 40.0204C44.0647 39.4619 43.612 39.0091 43.0535 39.0091C42.495 39.0091 42.0422 39.4619 42.0422 40.0204Z" fill="black"/>
</svg>
