<svg width="57" height="58" viewBox="0 0 57 58" fill="none" xmlns="http://www.w3.org/2000/svg">
<path d="M4.73175 0.838379C2.67076 0.838379 1 2.50914 1 4.57013V52.637C1 54.698 2.67076 56.3687 4.73175 56.3687H39.8152C41.8762 56.3687 43.5469 54.698 43.5469 52.637V12.3456C43.5469 11.5958 43.2489 10.8767 42.7187 10.3465L34.0389 1.66665C33.5087 1.13638 32.7895 0.838445 32.0397 0.838379L4.73175 0.838379Z" fill="#F4F8F8"/>
<path d="M36.9401 11.1748C36.8527 11.1748 36.7654 11.1748 36.6791 11.1646V52.637C36.6791 54.698 35.0084 56.3688 32.9474 56.3688H39.8129C41.8739 56.3688 43.5447 54.698 43.5447 52.637V12.3457C43.5447 11.9417 43.458 11.5424 43.2905 11.1748H36.9401Z" fill="#E7ECF1"/>
<path d="M45.6664 40.5183C45.0936 40.4465 44.6629 39.961 44.66 39.3837L44.6384 34.1282L36.6088 34.1622L36.6303 39.4178C36.6325 39.9954 36.2056 40.485 35.633 40.5614C35.633 40.5614 34.15 45.6286 40.6707 45.6014C47.1913 45.5742 45.6664 40.5183 45.6664 40.5183Z" fill="#FFECE3"/>
<path d="M37.7944 41.6007C37.7973 42.1779 38.228 42.6635 38.8008 42.7353C40.9343 42.9718 43.0432 43.3936 45.1036 43.9958C45.7939 42.9756 46.0013 41.7038 45.6709 40.5171C45.0981 40.4453 44.6674 39.9598 44.6645 39.3825L44.6429 34.127L37.7842 34.1565L37.7944 41.6007Z" fill="#FFDDCE"/>
<path d="M42.7197 10.3465L34.0399 1.66673C33.8004 1.42765 33.5199 1.23357 33.2117 1.09375V7.4476C33.2117 9.50858 34.8824 11.1793 36.9434 11.1793H43.2973C43.1565 10.8692 42.9609 10.5871 42.7197 10.3465Z" fill="#FC8086"/>
<path d="M16.425 6.65112H7.65559C7.22698 6.65112 6.87952 6.99858 6.87952 7.4272V10.3999C6.87952 10.8285 7.22698 11.176 7.65559 11.176H16.425C16.8537 11.176 17.2011 10.8285 17.2011 10.3999V7.42833C17.2014 7.22231 17.1198 7.02462 16.9742 6.87883C16.8286 6.73304 16.6311 6.65112 16.425 6.65112V6.65112Z" fill="#BED8FB"/>
<path d="M48.201 26.7803H47.7154V26.213L47.7097 24.8515C47.7208 22.9224 46.8926 21.0838 45.4405 19.8138C42.6571 17.3343 38.4522 17.3519 35.6896 19.8546C34.2479 21.1363 33.4346 22.9815 33.4612 24.9105L33.4669 26.272V26.8393H32.9813C32.6393 26.8405 32.3117 26.9776 32.0708 27.2204C31.8299 27.4632 31.6954 27.7919 31.6969 28.1339L31.7026 29.5624C31.7057 30.2744 32.2851 30.8493 32.9972 30.8468H33.4851C33.5155 32.7235 34.3401 34.4994 35.7543 35.7336C38.5377 38.213 42.7426 38.1954 45.5052 35.6927C46.908 34.4465 47.717 32.6641 47.7313 30.7878H48.2192C48.9312 30.7846 49.5061 30.2052 49.5036 29.4932L49.4979 28.0647C49.4948 27.3527 48.9153 26.7778 48.2033 26.7803H48.201Z" fill="#FFECE3"/>
<path d="M49.4968 28.0647C49.4937 27.3527 48.9143 26.7778 48.2022 26.7803H47.7166V26.213L47.7109 24.8515C47.7217 22.9228 46.8935 21.0847 45.4417 19.8149C44.7719 19.2361 44.0083 18.7757 43.1838 18.4534L43.194 30.7889C43.1797 32.6653 42.3708 34.4477 40.9679 35.6938C40.2016 36.3673 39.3092 36.8817 38.3424 37.2074C40.8292 38.0412 43.5725 37.4619 45.5098 35.6938C46.9126 34.4477 47.7216 32.6653 47.7359 30.7889H48.2238C48.5658 30.7877 48.8934 30.6506 49.1343 30.4078C49.3752 30.165 49.5097 29.8364 49.5082 29.4943L49.4968 28.0647Z" fill="#FFDDCE"/>
<path d="M53.3397 56.3689C54.8642 56.3118 56.0666 55.0522 56.0526 53.5267L56.0254 47.149C56.0162 44.941 54.7082 42.9453 52.6873 42.0557C50.4133 41.2742 48.0566 40.7583 45.6641 40.5183L40.6604 43.6771L35.6307 40.5603C33.2404 40.8206 30.8883 41.3563 28.621 42.1567C26.6093 43.0647 25.3202 45.0713 25.3306 47.2783L25.3579 53.656C25.3606 54.3788 25.6505 55.0709 26.1638 55.5798C26.6772 56.0886 27.3718 56.3725 28.0946 56.3689H53.3397Z" fill="#8C9BA6"/>
<path d="M56.0322 47.1479C56.0231 44.9399 54.7151 42.9441 52.6942 42.0546C50.4201 41.2736 48.0634 40.7581 45.6709 40.5183L41.5092 43.1427C42.9827 43.3661 44.4281 43.7465 45.8207 44.2773C47.8414 45.1671 49.1493 47.1627 49.1587 49.3706L49.1701 56.3723H53.3375C54.862 56.3152 56.0644 55.0556 56.0504 53.5301L56.0322 47.1479Z" fill="#7C8B96"/>
<path d="M43.3267 17.5274L37.7263 17.5512C36.7363 17.5556 35.8559 18.182 35.5274 19.1159C35.4082 19.4631 35.0833 19.6977 34.7161 19.7013C34.0902 19.704 33.491 19.9553 33.0504 20.3998C32.6097 20.8443 32.3636 21.4456 32.3664 22.0716L32.3868 26.9924C32.3868 26.9924 34.4575 26.9595 35.1609 27.6471C35.2255 27.7185 35.3282 27.7414 35.417 27.7041C35.5059 27.6668 35.5615 27.5776 35.5558 27.4814L35.5421 24.2466C35.5397 23.7072 35.7518 23.1889 36.1316 22.8058C36.5115 22.4228 37.028 22.2064 37.5674 22.2043H37.5924C37.9342 22.203 38.2742 22.255 38.5999 22.3586C39.1734 22.5476 39.7729 22.646 40.3767 22.6502H40.7705C41.3743 22.641 41.973 22.5377 42.545 22.3439C42.87 22.2378 43.2095 22.1831 43.5514 22.1816H43.5764C44.1158 22.1792 44.6341 22.3913 45.0171 22.7711C45.4002 23.151 45.6166 23.6675 45.6187 24.2069L45.63 26.9924C45.6315 27.2505 45.8271 27.4661 46.0839 27.4927C46.5804 27.5509 47.0831 27.4604 47.5282 27.2329C47.9251 27.0379 48.3602 26.9333 48.8024 26.9266L48.7854 22.9384C48.7803 21.4966 48.202 20.1161 47.178 19.101C46.1541 18.086 44.7685 17.5199 43.3267 17.5274Z" fill="#AA8080"/>
<path d="M43.3268 17.5274H43.1804V22.202C43.3024 22.1867 43.4251 22.1784 43.548 22.1771H43.573C44.1124 22.1746 44.6307 22.3867 45.0138 22.7666C45.3968 23.1464 45.6132 23.6629 45.6153 24.2023L45.6267 26.9878C45.6282 27.246 45.8237 27.4616 46.0805 27.4882C46.5771 27.5463 47.0797 27.4559 47.5249 27.2284C47.9217 27.0333 48.3569 26.9287 48.799 26.922L48.782 22.9338C48.7757 21.4934 48.1974 20.1146 47.1743 19.1006C46.1512 18.0867 44.7672 17.5208 43.3268 17.5274Z" fill="#9D6B6B"/>
<path d="M34.0842 42.7703L36.9786 45.2335C37.3951 45.5886 38.0006 45.612 38.4434 45.2903L40.6638 43.6768L35.6341 40.5601C35.3572 40.5975 35.0327 40.6429 34.6776 40.6962C34.2185 40.7654 33.842 41.0961 33.7142 41.5425C33.5865 41.9889 33.7311 42.4688 34.0842 42.7703Z" fill="#7C8B96"/>
<path d="M47.2333 42.716L44.3604 45.2031C43.9468 45.561 43.3419 45.5891 42.8968 45.2712L40.6627 43.6827L45.6664 40.5239C45.9444 40.5591 46.2677 40.6011 46.624 40.6521C47.081 40.7196 47.4572 41.0463 47.588 41.4894C47.7188 41.9325 47.5804 42.4112 47.2333 42.716Z" fill="#7C8B96"/>
<path d="M40.6604 43.677L38.4399 45.2904L39.4997 47.7707L41.8472 47.7605L42.8944 45.2711L40.6604 43.677Z" fill="#FB636F"/>
<path d="M43.1917 56.3688L41.8484 47.7605L39.5008 47.7707L38.2426 56.3688H43.1917Z" fill="#FC8086"/>
<path d="M27.359 19.8319H6.71807C6.41136 19.8206 6.12299 19.9778 5.96629 20.2417C5.80958 20.5056 5.80958 20.834 5.96629 21.0979C6.12299 21.3618 6.41136 21.519 6.71807 21.5077H27.359C27.8098 21.4911 28.1666 21.1209 28.1666 20.6698C28.1666 20.2187 27.8098 19.8485 27.359 19.8319Z" fill="black"/>
<path d="M27.359 26.0145H6.71807C6.41136 26.0032 6.12299 26.1604 5.96629 26.4243C5.80958 26.6882 5.80958 27.0166 5.96629 27.2805C6.12299 27.5444 6.41136 27.7016 6.71807 27.6903H27.359C27.8098 27.6737 28.1666 27.3035 28.1666 26.8524C28.1666 26.4013 27.8098 26.0311 27.359 26.0145Z" fill="black"/>
<path d="M28.1975 33.0353C28.1975 32.5723 27.8221 32.1969 27.359 32.1969H6.71807C6.41136 32.1856 6.12299 32.3428 5.96629 32.6067C5.80958 32.8706 5.80958 33.199 5.96629 33.4629C6.12299 33.7268 6.41136 33.884 6.71807 33.8727H27.359C27.8216 33.8727 28.1969 33.498 28.1975 33.0353Z" fill="black"/>
<path d="M6.71807 38.3795C6.41136 38.3682 6.12299 38.5254 5.96629 38.7893C5.80958 39.0532 5.80958 39.3816 5.96629 39.6455C6.12299 39.9094 6.41136 40.0666 6.71807 40.0553H16.3442C16.6509 40.0666 16.9392 39.9094 17.0959 39.6455C17.2526 39.3816 17.2526 39.0532 17.0959 38.7893C16.9392 38.5254 16.6509 38.3682 16.3442 38.3795H6.71807Z" fill="black"/>
<path fill-rule="evenodd" clip-rule="evenodd" d="M16.2636 12.0123H7.49416C6.60361 12.011 5.88199 11.2894 5.88074 10.3989V7.42617C5.88199 6.53562 6.60361 5.81399 7.49416 5.81274H16.2636C17.1542 5.81399 17.8758 6.53562 17.877 7.42617V10.3989C17.8758 11.2894 17.1542 12.011 16.2636 12.0123ZM16.2012 7.48857H7.55656V10.3342H16.2012V7.48857Z" fill="black"/>
<path fill-rule="evenodd" clip-rule="evenodd" d="M4.5691 55.5304H22.6095C23.0603 55.547 23.4171 55.9172 23.4171 56.3683C23.4171 56.8194 23.0603 57.1896 22.6095 57.2062H4.5691C2.04695 57.2031 0.00312573 55.1592 0 52.6371V4.56911C0.00312573 2.04696 2.04695 0.00313942 4.5691 1.36888e-05H31.8782C32.8507 -0.0026511 33.7838 0.383847 34.4696 1.07336L43.1494 9.75771C43.8374 10.4426 44.2234 11.3739 44.2216 12.3446V13.6018C44.205 14.0526 43.8348 14.4094 43.3837 14.4094C42.9326 14.4094 42.5624 14.0526 42.5458 13.6018V12.3435C42.5452 12.2321 42.5353 12.1209 42.5163 12.0111H36.7797C34.2575 12.0079 32.2137 9.9641 32.2106 7.44196V1.70534C32.1008 1.68629 31.9896 1.67642 31.8782 1.67584H4.5691C2.97197 1.67772 1.6777 2.97198 1.67583 4.56911V52.6371C1.6777 54.2342 2.97197 55.5285 4.5691 55.5304ZM41.3624 10.3364L33.8876 2.86151V7.44309C33.8894 9.04022 35.1837 10.3345 36.7808 10.3364H41.3624Z" fill="black"/>
<path fill-rule="evenodd" clip-rule="evenodd" d="M52.8651 41.2876C55.1879 42.3118 56.6915 44.6059 56.7035 47.1445L56.7376 53.5278C56.7342 54.48 56.3692 55.3954 55.7164 56.0887C55.065 56.7973 54.1488 57.2041 53.1862 57.2119H27.907C25.9472 57.2082 24.3577 55.6237 24.3477 53.664L24.3205 47.2863C24.3114 44.7477 25.7958 42.4411 28.1101 41.3977C30.4503 40.5604 32.8812 40.0024 35.3523 39.7354C35.5072 39.7144 35.6227 39.582 35.6224 39.4257L35.611 36.8286C35.4197 36.6856 35.2306 36.5343 35.0437 36.3747C33.6577 35.1709 32.7682 33.4953 32.5476 31.6729C31.4951 31.5308 30.7084 30.6347 30.7038 29.5727L30.6981 28.1442C30.6947 27.5455 30.9449 26.9733 31.3869 26.5694L31.3676 22.0763C31.3637 21.228 31.6971 20.413 32.2945 19.8107C32.8919 19.2084 33.7042 18.8683 34.5524 18.8653C34.5615 18.8653 34.5774 18.854 34.5774 18.8392C35.0252 17.5727 36.2192 16.7231 37.5626 16.7152L43.163 16.6914H43.1903C46.6394 16.6957 49.4386 19.4827 49.4579 22.9318L49.4726 26.4922C49.9177 26.8926 50.1725 27.4627 50.1738 28.0614L50.1795 29.4899C50.1824 30.5515 49.4035 31.4533 48.3528 31.6048C48.1467 33.4297 47.27 35.1131 45.8929 36.3282C45.7076 36.4878 45.5185 36.6391 45.3256 36.782L45.337 39.3792C45.338 39.5358 45.455 39.6673 45.6104 39.6867C48.0832 39.9328 50.5184 40.4702 52.8651 41.2876ZM46.2758 41.4659C46.0663 41.4368 45.872 41.4099 45.6978 41.3874L42.0046 43.7191L43.2096 44.5791L43.222 44.5882C43.3524 44.6816 43.53 44.6732 43.6509 44.5678L46.5238 42.0807C46.6256 41.9918 46.6665 41.852 46.6288 41.7222C46.5911 41.5924 46.4815 41.4964 46.3479 41.4759L46.2758 41.4659ZM40.4978 42.6889L36.9805 40.5081C37.1954 40.1835 37.3095 39.8025 37.3084 39.4132L37.3016 37.7782C39.3329 38.6446 41.6317 38.6348 43.6555 37.751L43.6623 39.386C43.6654 39.7758 43.7838 40.156 44.0026 40.4786L40.4978 42.6889ZM41.1366 46.9255L41.7039 45.564L40.5114 44.7051L39.3201 45.5708L39.8987 46.9255H41.1366ZM34.5558 20.5389C35.2771 20.5323 35.9167 20.0739 36.1545 19.3929C36.3661 18.794 36.9308 18.3923 37.566 18.3888L43.1664 18.365H43.1857C45.7129 18.368 47.7638 20.4103 47.7775 22.9375L47.7911 26.187C47.5082 26.2522 47.2342 26.3517 46.9753 26.4831C46.7664 26.5904 46.5371 26.6522 46.3025 26.6647L46.2923 24.1992C46.2867 22.6184 45.0036 21.3399 43.4229 21.3399H43.3843C42.9553 21.3418 42.5292 21.4107 42.1215 21.5442C41.0056 21.8988 39.8081 21.9039 38.6892 21.5589C38.2801 21.4313 37.8539 21.3662 37.4253 21.366H37.4015C35.8162 21.3748 34.5372 22.665 34.5422 24.2502L34.5513 26.4695C34.0664 26.3186 33.5658 26.2238 33.0593 26.187L33.0423 22.0695C33.0402 21.6659 33.1986 21.278 33.4828 20.9913C33.7669 20.7046 34.1533 20.5427 34.557 20.5412L34.5558 20.5389ZM33.3225 30.0107C33.7769 30.0111 34.1482 30.3734 34.1599 30.8276H34.1621C34.1861 32.459 34.8976 34.0046 36.1216 35.0835C36.3608 35.2885 36.6128 35.478 36.8761 35.6508C39.0467 37.0957 41.876 37.0827 44.0333 35.6179C44.2935 35.4447 44.5424 35.2552 44.7787 35.0506C46.0026 33.9607 46.7068 32.4029 46.7167 30.764C46.7247 30.3085 47.095 29.9427 47.5506 29.9403H48.0385C48.1588 29.9403 48.2743 29.8925 48.3594 29.8074C48.4445 29.7223 48.4923 29.6068 48.4923 29.4865L48.4866 28.058C48.4867 27.9526 48.4488 27.8507 48.38 27.7709C48.1555 27.7994 47.9374 27.865 47.7344 27.9649C47.142 28.269 46.4725 28.3899 45.8112 28.3121C45.1349 28.2341 44.6234 27.6632 44.6199 26.9824L44.6085 24.1969C44.606 23.5384 44.0712 23.006 43.4126 23.0067C43.15 23.0072 42.889 23.0482 42.6388 23.1281C41.1898 23.5924 39.6328 23.5991 38.1798 23.1474C37.9293 23.0682 37.6676 23.0298 37.4049 23.0339C36.7447 23.037 36.2116 23.5741 36.2135 24.2343L36.2271 27.4691C36.2274 27.8991 35.9701 28.2875 35.5741 28.4551C35.1781 28.6227 34.7202 28.5369 34.4117 28.2373C33.8157 27.9397 33.1542 27.7976 32.4886 27.8243C32.4134 27.9075 32.3728 28.0162 32.3751 28.1283L32.3808 29.5568C32.3808 29.8075 32.584 30.0107 32.8346 30.0107H33.3225ZM37.3549 55.5304H31.051L31.0374 52.2162C31.0349 51.7553 30.6609 51.3829 30.2001 51.3823C29.9777 51.3832 29.7648 51.4724 29.6082 51.6303C29.4515 51.7881 29.3641 52.0018 29.365 52.2242L29.3786 55.5316H27.9195C26.881 55.5303 26.0382 54.6911 26.0326 53.6526L26.0054 47.275C25.9988 45.3983 27.096 43.6931 28.8067 42.9214C30.0525 42.4355 31.3453 42.0803 32.6644 41.8617C32.6591 42.4581 32.9204 43.0257 33.377 43.4093L36.2702 45.8726C36.6958 46.2405 37.2574 46.4108 37.8156 46.3412L38.4748 47.8831L37.3549 55.5304ZM37.3572 44.5961C37.4792 44.7001 37.6567 44.7067 37.7861 44.612L39.0035 43.7316L35.2843 41.4317C35.088 41.4589 34.8713 41.4896 34.6341 41.5259C34.5004 41.5473 34.3914 41.6446 34.3549 41.7749C34.3183 41.9053 34.3609 42.045 34.4639 42.1329L37.3572 44.5961ZM39.0489 55.5304L40.0633 48.6093H40.971L42.0522 55.5384L39.0489 55.5304ZM53.1749 55.5304C53.6767 55.5222 54.1528 55.3066 54.4899 54.9348H54.4922C54.8516 54.5542 55.0527 54.0512 55.0549 53.5278L55.0277 47.1502C55.0187 45.2738 53.9078 43.578 52.1912 42.8205C50.9402 42.3449 49.6432 42.0008 48.321 41.7936C48.3315 42.3903 48.0747 42.9605 47.6209 43.3481L44.7481 45.8351C44.3251 46.2068 43.7643 46.3816 43.205 46.3162L42.5537 47.865L43.7496 55.5293H50.0501L50.0354 52.1345C50.0345 51.9121 50.122 51.6985 50.2786 51.5406C50.4352 51.3827 50.6481 51.2935 50.8705 51.2926C51.3313 51.2933 51.7053 51.6657 51.7078 52.1266L51.7226 55.5304H53.1749Z" fill="black"/>
</svg>
