<svg width="58" height="58" viewBox="0 0 58 58" fill="none" xmlns="http://www.w3.org/2000/svg">
<path d="M36.7581 10.5472C35.5805 10.5447 34.6272 9.58929 34.6272 8.41165V1.30967L34.3391 0.984591C34.1183 0.896178 33.8829 0.8495 33.645 0.846924H3.52725C2.04688 0.846924 0.846802 2.047 0.846802 3.52737V54.2095C0.846802 55.6899 2.04688 56.89 3.52725 56.89H12.4594L13.7898 55.5179H37.8456V10.5472H36.7581Z" fill="#F7F4F7"/>
<path d="M37.2764 10.8145V54.1031C37.2481 55.5898 36.0804 56.8044 34.5959 56.8911H41.7292C43.2136 56.8044 44.3813 55.5898 44.4096 54.1031V11.925C44.4097 11.5419 44.3277 11.1632 44.169 10.8145L37.2764 10.8145Z" fill="#EDEAED"/>
<path d="M34.3357 0.984619C34.6278 1.11662 34.8939 1.3 35.1212 1.52603L43.6253 10.0301C43.8513 10.2575 44.0347 10.5235 44.1667 10.8156H36.4713C35.2918 10.8156 34.3357 9.85951 34.3357 8.68007V0.984619Z" fill="#C1BCC4"/>
<path d="M50.4253 53.4656V27.3205C50.4253 25.4287 48.8917 23.895 46.9999 23.895H12.4594C10.5676 23.895 9.03394 25.4287 9.03394 27.3205V53.4656C9.03394 54.3741 9.39483 55.2454 10.0372 55.8878C10.6796 56.5302 11.5509 56.8911 12.4594 56.8911H46.9999C47.9084 56.8911 48.7796 56.5302 49.422 55.8878C50.0644 55.2454 50.4253 54.3741 50.4253 53.4656Z" fill="#C1A0A0"/>
<path d="M53.5662 23.8997H46.433C47.3425 23.8981 48.2152 24.2583 48.8589 24.9009C49.5025 25.5435 49.8642 26.4156 49.8642 27.3251V53.4702C49.8642 54.3787 49.5033 55.25 48.8609 55.8924C48.2185 56.5348 47.3473 56.8957 46.4388 56.8957H53.5662C54.4747 56.8957 55.346 56.5348 55.9884 55.8924C56.6308 55.25 56.9917 54.3787 56.9917 53.4702V27.3251C56.9917 25.4333 55.458 23.8997 53.5662 23.8997Z" fill="#B58C8C"/>
<path d="M50.4253 27.3251C50.4253 25.4333 48.8917 23.8997 46.9999 23.8997H12.4594C10.5676 23.8997 9.03394 25.4333 9.03394 27.3251C9.0341 29.5019 9.93032 31.5826 11.5119 33.0782L13.5122 34.9708C15.4594 36.8125 18.038 37.8387 20.7182 37.8387H45.3097C47.1002 37.8388 48.861 37.3803 50.4242 36.5071V27.3251H50.4253Z" fill="#B58C8C"/>
<path d="M53.5662 23.8997H46.433C47.3425 23.8981 48.2152 24.2583 48.8589 24.9009C49.5025 25.5435 49.8642 26.4156 49.8642 27.3251V36.7998C52.031 35.7587 52.9426 34.4711 54.5206 33.0782C56.1022 31.5826 56.9984 29.5019 56.9986 27.3251C56.9986 26.4154 56.6368 25.5431 55.9929 24.9005C55.349 24.2579 54.4759 23.8978 53.5662 23.8997Z" fill="#A87F7F"/>
<path d="M21.3407 33.1812H23.0632C23.6155 33.1812 24.1452 33.4005 24.5357 33.7911C24.9262 34.1816 25.1456 34.7112 25.1456 35.2635V41.6748C25.1456 42.8249 24.2133 43.7572 23.0632 43.7572H21.3407C20.1906 43.7572 19.2583 42.8249 19.2583 41.6748V35.2635C19.2583 34.1135 20.1906 33.1812 21.3407 33.1812Z" fill="#E8AE4D"/>
<path d="M23.0632 33.1812H21.3407C20.1906 33.1812 19.2583 34.1135 19.2583 35.2635V39.5705H25.1363V35.2635C25.1363 34.1171 24.2097 33.1862 23.0632 33.1812Z" fill="#EFC984"/>
<path d="M42.967 33.1812H44.6896C45.2418 33.1812 45.7715 33.4005 46.162 33.7911C46.5525 34.1816 46.7719 34.7112 46.7719 35.2635V41.6748C46.7719 42.8249 45.8396 43.7572 44.6896 43.7572H42.967C41.8169 43.7572 40.8846 42.8249 40.8846 41.6748V35.2635C40.8846 34.1135 41.8169 33.1812 42.967 33.1812Z" fill="#E8AE4D"/>
<path d="M44.6896 33.1812H42.967C41.8169 33.1812 40.8846 34.1135 40.8846 35.2635V39.5705H46.7627V35.2635C46.7627 34.1171 45.836 33.1862 44.6896 33.1812Z" fill="#EFC984"/>
<path fill-rule="evenodd" clip-rule="evenodd" d="M53.5685 23.053H12.4594C10.1018 23.0574 8.19159 24.9676 8.18713 27.3253V53.4704C8.19159 55.828 10.1018 57.7382 12.4594 57.7427H53.5685C55.9262 57.7382 57.8364 55.828 57.8408 53.4704V27.3253C57.8364 24.9676 55.9262 23.0574 53.5685 23.053ZM56.1483 53.4611C56.1471 54.8847 54.9933 56.0385 53.5697 56.0398H12.4594C11.0358 56.0385 9.88206 54.8847 9.88078 53.4611V32.4988C10.1932 32.9266 10.544 33.3251 10.9289 33.6892C11.1356 33.8845 11.3388 34.0794 11.5404 34.2726C13.4539 36.1071 15.2186 37.7989 18.415 38.452V41.6646C18.4162 43.2799 19.7254 44.589 21.3407 44.5903H23.0632C24.6785 44.589 25.9877 43.2799 25.9889 41.6646V38.681H40.0413V41.6646C40.0426 43.2799 41.3518 44.589 42.9671 44.5903H44.6896C46.3049 44.589 47.6141 43.2799 47.6153 41.6646V38.4439C50.7896 37.7853 52.3932 36.2611 54.6045 34.1594C54.7666 34.0053 54.9319 33.8482 55.1014 33.688C55.4863 33.324 55.8372 32.9255 56.1495 32.4976L56.1483 53.4611ZM20.1109 37.7428V41.6611L20.1098 41.6704C20.1117 42.349 20.662 42.8983 21.3407 42.899H23.0632C23.7428 42.8983 24.2935 42.3476 24.2941 41.6681V35.2567C24.2935 34.5772 23.7428 34.0265 23.0632 34.0258H21.3407C20.6643 34.0271 20.1154 34.5734 20.1109 35.2498V37.722V37.7428ZM41.7362 37.8261V35.2509C41.74 34.5737 42.2898 34.0264 42.9671 34.0258H44.6896C45.3692 34.0265 45.9199 34.5772 45.9205 35.2567V37.7278V37.7521V41.6738C45.9199 42.3534 45.3692 42.9041 44.6896 42.9047H42.9671C42.2875 42.9041 41.7368 42.3534 41.7362 41.6738V37.8388V37.8261ZM52.8983 33.427C53.2325 33.1074 53.5755 32.7792 53.9434 32.4479L53.9422 32.4571C55.3494 31.1176 56.1463 29.26 56.1472 27.3172C56.1459 25.8936 54.9922 24.7398 53.5685 24.7385H12.4594C11.0358 24.7398 9.88206 25.8936 9.88078 27.3172C9.88431 29.244 10.6706 31.0866 12.0592 32.4224C12.3121 32.6157 12.6058 32.9091 12.953 33.2559C14.0747 34.3763 15.754 36.0536 18.415 36.7109V35.2509C18.4162 33.6356 19.7254 32.3265 21.3407 32.3252H23.0632C24.6785 32.3265 25.9877 33.6356 25.9889 35.2509V36.9862H40.0413V35.2509C40.0426 33.6356 41.3518 32.3265 42.9671 32.3252H44.6896C46.3049 32.3265 47.6141 33.6356 47.6153 35.2509V36.704C50.1159 36.0887 51.4197 34.8415 52.8983 33.427Z" fill="black"/>
<path fill-rule="evenodd" clip-rule="evenodd" d="M3.52843 56.0443H6.38357C6.85158 56.0443 7.23097 56.4237 7.23097 56.8917C7.23097 57.3597 6.85158 57.7391 6.38357 57.7391H3.52843C1.58053 57.7372 0.00191315 56.1586 0 54.2107V3.5285C0.00255059 1.58104 1.58098 0.00313268 3.52843 0.0012207H33.6381C34.4284 0.0173177 35.1789 0.35089 35.7205 0.926711L44.2245 9.42965C44.8861 10.0916 45.2577 10.9892 45.2576 11.925V19.8969C45.2576 20.365 44.8782 20.7443 44.4102 20.7443C43.9422 20.7443 43.5628 20.365 43.5628 19.8969V11.925C43.5629 11.8371 43.5568 11.7494 43.5443 11.6624H36.4736C34.8272 11.6605 33.4931 10.3263 33.4912 8.68001V1.69487H3.52843C2.51628 1.69614 1.69608 2.51634 1.6948 3.5285V54.2107C1.69608 55.2228 2.51628 56.043 3.52843 56.0443ZM42.3643 9.96759L35.1837 2.78579V8.68001C35.1849 9.39059 35.7607 9.96632 36.4713 9.96759H42.3643Z" fill="black"/>
<path d="M18.6405 7.17039H6.12902C5.66101 7.17039 5.28162 6.791 5.28162 6.32299C5.28162 5.85498 5.66101 5.47559 6.12902 5.47559H18.6405C19.1085 5.47559 19.4879 5.85498 19.4879 6.32299C19.4879 6.791 19.1085 7.17039 18.6405 7.17039Z" fill="black"/>
<path d="M18.6405 12.2409H6.12902C5.66101 12.2409 5.28162 11.8616 5.28162 11.3935C5.28162 10.9255 5.66101 10.5461 6.12902 10.5461H18.6405C19.1085 10.5461 19.4879 10.9255 19.4879 11.3935C19.4879 11.8616 19.1085 12.2409 18.6405 12.2409Z" fill="black"/>
</svg>
