<svg width="58" height="58" viewBox="0 0 58 58" fill="none" xmlns="http://www.w3.org/2000/svg">
<path d="M48.5004 8.72913H6.92156C5.66864 8.72913 4.65295 9.74482 4.65295 10.9977V48.4604C4.65295 49.7133 5.66864 50.729 6.92156 50.729H48.5004C49.7533 50.729 50.769 49.7133 50.769 48.4604V10.9977C50.769 9.74482 49.7533 8.72913 48.5004 8.72913V8.72913Z" fill="#BFBFBF"/>
<path d="M44.6919 46.8131H3.11541C1.86249 46.8131 0.846802 45.7974 0.846802 44.5445V12.6394H46.964V44.5399C46.9652 45.143 46.7263 45.7217 46.2999 46.1483C45.8736 46.5748 45.295 46.8141 44.6919 46.8131Z" fill="#F9F7F8"/>
<path d="M46.964 12.6394V44.5399C46.964 45.1416 46.725 45.7186 46.2996 46.144C45.8741 46.5695 45.2971 46.8085 44.6954 46.8085H42.5298C43.1315 46.8085 43.7085 46.5695 44.1339 46.144C44.5594 45.7186 44.7984 45.1416 44.7984 44.5399V12.6394H46.964Z" fill="#EFEDEF"/>
<path d="M46.964 12.644H0.846802V7.08184C0.846802 5.82892 1.86249 4.81323 3.11541 4.81323H44.6919C45.9448 4.81323 46.9605 5.82892 46.9605 7.08184L46.964 12.644Z" fill="#EE6161"/>
<circle cx="9.09411" cy="20.0214" r="2.77184" fill="#E2E2E2"/>
<circle cx="18.9679" cy="20.0214" r="2.77184" fill="#E2E2E2"/>
<circle cx="28.8418" cy="20.0214" r="2.77184" fill="#E2E2E2"/>
<circle cx="38.7156" cy="20.0214" r="2.77184" fill="#E2E2E2"/>
<circle cx="9.09411" cy="29.7297" r="2.77184" fill="#E2E2E2"/>
<circle cx="18.9679" cy="29.7297" r="2.77184" fill="#E2E2E2"/>
<circle cx="28.8418" cy="29.7297" r="2.77184" fill="#E2E2E2"/>
<circle cx="38.7156" cy="29.7297" r="2.77184" fill="#E2E2E2"/>
<circle cx="9.09411" cy="39.437" r="2.77184" fill="#E2E2E2"/>
<circle cx="18.9679" cy="39.437" r="2.77184" fill="#E2E2E2"/>
<circle cx="28.8418" cy="39.437" r="2.77184" fill="#E2E2E2"/>
<path d="M46.964 7.08184V12.644H44.7984V7.08184C44.7984 5.82892 43.7827 4.81323 42.5298 4.81323H44.6954C45.9483 4.81323 46.964 5.82892 46.964 7.08184Z" fill="#E94444"/>
<circle cx="45.9448" cy="45.153" r="11.0515" fill="#FAC600"/>
<path d="M46.9975 39.6128L48.0838 41.8108C48.2542 42.1565 48.5839 42.3962 48.9654 42.4517L51.3948 42.7988C51.8357 42.8634 52.2018 43.1724 52.3395 43.5963C52.4772 44.0201 52.3626 44.4853 52.0438 44.7967L50.2865 46.5088C50.0092 46.779 49.8832 47.1687 49.9498 47.55L50.3652 49.9679C50.4398 50.4071 50.259 50.8507 49.8985 51.1125C49.5381 51.3743 49.0603 51.4091 48.6657 51.2022L46.4943 50.0604C46.1531 49.8812 45.7457 49.8812 45.4045 50.0604L43.2331 51.2022C42.8385 51.4091 42.3607 51.3743 42.0003 51.1125C41.6398 50.8507 41.459 50.4071 41.5337 49.9679L41.949 47.55C42.0156 47.1687 41.8896 46.779 41.6123 46.5088L39.8551 44.7967C39.5363 44.4853 39.4216 44.0201 39.5593 43.5963C39.697 43.1724 40.0631 42.8634 40.5041 42.7988L42.9335 42.4517C43.3149 42.3962 43.6446 42.1565 43.815 41.8108L44.9013 39.6128C45.0989 39.2133 45.506 38.9604 45.9517 38.9604C46.3974 38.9604 46.8045 39.2133 47.0022 39.6128H46.9975Z" fill="#FE9738"/>
<path d="M50.2842 46.5181C50.0065 46.788 49.88 47.1777 49.9464 47.5593L50.3617 49.9771C50.4372 50.4169 50.2565 50.8614 49.8955 51.1236C49.5346 51.3859 49.056 51.4204 48.6611 51.2127L47.768 50.743C47.972 50.4469 48.0506 50.0822 47.9867 49.7284L47.4962 46.871C47.4202 46.4218 47.5693 45.964 47.8953 45.6458L49.9719 43.6225C50.233 43.3719 50.3836 43.0276 50.3906 42.6658L51.3913 42.8115C51.8322 42.8761 52.1984 43.1852 52.3361 43.609C52.4737 44.0328 52.3591 44.4981 52.0403 44.8094L50.2842 46.5181Z" fill="#FE860A"/>
<path d="M56.9964 45.153C56.9959 49.0593 54.9334 52.6752 51.5714 54.6642C48.2094 56.6532 44.0472 56.7198 40.6233 54.8394C46.0444 56.5556 51.8831 53.8785 54.1203 48.6508C56.3576 43.4231 54.2632 37.3509 49.2789 34.614C53.874 36.0688 56.9967 40.3332 56.9964 45.153Z" fill="#E8B800"/>
<path d="M10.4581 8.62273C9.34443 8.62273 8.44165 7.71995 8.44165 6.60632V3.02004C8.44165 1.90609 9.34469 1.00305 10.4586 1.00305C11.5726 1.00305 12.4756 1.90609 12.4756 3.02004V6.60632C12.475 7.72014 11.5719 8.62273 10.4581 8.62273Z" fill="#5A5A5A"/>
<path d="M23.9042 8.62273C22.7906 8.62273 21.8878 7.71995 21.8878 6.60632V3.02004C21.8878 1.90609 22.7909 1.00305 23.9048 1.00305C25.0188 1.00305 25.9218 1.90609 25.9218 3.02004V6.60632C25.9212 7.72014 25.018 8.62273 23.9042 8.62273Z" fill="#5A5A5A"/>
<path d="M37.3516 8.62273C36.2382 8.62209 35.3358 7.71969 35.3352 6.60632V3.02004C35.3352 1.90609 36.2382 1.00305 37.3522 1.00305C38.4661 1.00305 39.3692 1.90609 39.3692 3.02004V6.60632C39.3685 7.72014 38.4654 8.62273 37.3516 8.62273Z" fill="#5A5A5A"/>
<path d="M12.4756 3.02125V6.60752C12.4753 7.3279 12.0908 7.99342 11.467 8.35365C10.8431 8.71388 10.0745 8.71416 9.45044 8.35438C10.0747 7.99423 10.4593 7.32825 10.4592 6.60752V3.02125C10.4598 2.30039 10.0751 1.63419 9.45044 1.27438C10.0744 0.913063 10.8438 0.912578 11.4681 1.27311C12.0925 1.63364 12.4767 2.30026 12.4756 3.02125Z" fill="#444444"/>
<path d="M25.9218 3.02125V6.60753C25.9214 7.3279 25.537 7.99342 24.9131 8.35365C24.2893 8.71388 23.5207 8.71416 22.8966 8.35439C23.5211 7.99441 23.9057 7.32832 23.9054 6.60753V3.02125C23.9067 2.48582 23.6943 1.972 23.3154 1.59368C23.1907 1.46904 23.0498 1.36166 22.8966 1.27439C23.5206 0.913841 24.2896 0.913739 24.9137 1.27412C25.5378 1.6345 25.9221 2.30057 25.9218 3.02125Z" fill="#444444"/>
<path d="M39.368 3.02119V6.60746C39.3681 7.32778 38.984 7.99345 38.3602 8.35376C37.7365 8.71406 36.9679 8.71428 36.344 8.35432C36.9677 7.9937 37.3517 7.32789 37.3516 6.60746V3.02119C37.3532 2.30038 36.9687 1.6339 36.344 1.27432C36.9678 0.913597 37.7368 0.913431 38.3608 1.27389C38.9848 1.63435 39.3688 2.30056 39.368 3.02119Z" fill="#444444"/>
<path d="M11.8613 20.0202C11.8545 21.251 11.0381 22.3305 9.8556 22.6722C8.67308 23.0139 7.40675 22.5362 6.74451 21.4986C7.82302 21.6826 8.90902 21.216 9.51799 20.3071C10.127 19.3981 10.1453 18.2163 9.56494 17.2888C10.8916 17.5217 11.8597 18.6732 11.8613 20.0202Z" fill="#CECECE"/>
<path d="M21.7397 20.0202C21.7329 21.251 20.9165 22.3305 19.734 22.6722C18.5515 23.0139 17.2852 22.5362 16.6229 21.4986C17.7014 21.6826 18.7874 21.216 19.3964 20.3071C20.0054 19.3981 20.0238 18.2163 19.4434 17.2888C20.77 17.5217 21.7381 18.6732 21.7397 20.0202Z" fill="#CECECE"/>
<path d="M31.6136 20.0202C31.6068 21.251 30.7904 22.3305 29.6079 22.6722C28.4254 23.0139 27.1591 22.5362 26.4968 21.4986C27.5753 21.6826 28.6613 21.216 29.2703 20.3071C29.8793 19.3981 29.8977 18.2163 29.3173 17.2888C30.6439 17.5217 31.612 18.6732 31.6136 20.0202Z" fill="#CECECE"/>
<path d="M41.4874 20.0202C41.4801 21.2508 40.6635 22.3298 39.4811 22.6712C38.2988 23.0126 37.0327 22.5349 36.3706 21.4975C36.5275 21.5257 36.6867 21.5396 36.8461 21.5391C37.8544 21.5362 38.782 20.9868 39.2691 20.1039C39.7562 19.221 39.7263 18.1434 39.191 17.2888C40.5177 17.5217 41.4858 18.6732 41.4874 20.0202Z" fill="#CECECE"/>
<path d="M11.8613 29.7298C11.8545 30.9606 11.0381 32.0401 9.8556 32.3818C8.67308 32.7235 7.40675 32.2458 6.74451 31.2082C7.82302 31.3922 8.90902 30.9256 9.51799 30.0167C10.127 29.1077 10.1453 27.9259 9.56494 26.9984C10.8916 27.2313 11.8597 28.3828 11.8613 29.7298Z" fill="#CECECE"/>
<path d="M21.7397 29.7298C21.7329 30.9606 20.9165 32.0401 19.734 32.3818C18.5515 32.7235 17.2852 32.2458 16.6229 31.2082C17.7014 31.3922 18.7874 30.9256 19.3964 30.0167C20.0054 29.1077 20.0238 27.9259 19.4434 26.9984C20.77 27.2313 21.7381 28.3828 21.7397 29.7298Z" fill="#CECECE"/>
<path d="M31.6136 29.7298C31.6068 30.9606 30.7904 32.0401 29.6079 32.3818C28.4254 32.7235 27.1591 32.2458 26.4968 31.2082C27.5753 31.3922 28.6613 30.9256 29.2703 30.0167C29.8793 29.1077 29.8977 27.9259 29.3173 26.9984C30.6439 27.2313 31.612 28.3828 31.6136 29.7298Z" fill="#CECECE"/>
<path d="M41.4874 29.7298C41.4801 30.9604 40.6635 32.0394 39.4811 32.3808C38.2988 32.7222 37.0327 32.2445 36.3706 31.2071C36.5275 31.2353 36.6867 31.2492 36.8461 31.2487C37.8544 31.2458 38.782 30.6964 39.2691 29.8135C39.7562 28.9306 39.7263 27.853 39.191 26.9984C40.5177 27.2313 41.4858 28.3828 41.4874 29.7298Z" fill="#CECECE"/>
<path d="M11.8613 39.4358C11.8535 40.6662 11.0368 41.7447 9.8545 42.0858C8.67224 42.4269 7.40652 41.9491 6.74451 40.9119C6.90141 40.9401 7.06055 40.9541 7.21998 40.9536C8.2276 40.9501 9.15427 40.4011 9.64122 39.5189C10.1282 38.6368 10.099 37.56 9.56494 36.7056C10.8912 36.9384 11.8592 38.0893 11.8613 39.4358Z" fill="#CECECE"/>
<path d="M21.7397 39.4358C21.7319 40.6662 20.9152 41.7447 19.7329 42.0858C18.5507 42.4269 17.2849 41.9491 16.6229 40.9119C16.7798 40.9401 16.939 40.9541 17.0984 40.9536C18.106 40.9501 19.0327 40.4011 19.5196 39.5189C20.0066 38.6368 19.9774 37.56 19.4434 36.7056C20.7696 36.9384 21.7376 38.0893 21.7397 39.4358Z" fill="#CECECE"/>
<path d="M31.6136 39.4358C31.6058 40.6662 30.7891 41.7447 29.6068 42.0858C28.4246 42.4269 27.1588 41.9491 26.4968 40.9119C26.6537 40.9401 26.8129 40.9541 26.9723 40.9536C27.9799 40.9501 28.9066 40.4011 29.3935 39.5189C29.8805 38.6368 29.8513 37.56 29.3173 36.7056C30.6435 36.9384 31.6115 38.0893 31.6136 39.4358Z" fill="#CECECE"/>
<path fill-rule="evenodd" clip-rule="evenodd" d="M51.5128 41.9694C52.2741 42.0771 52.9067 42.6105 53.1417 43.3426C53.3817 44.0738 53.1821 44.878 52.628 45.4122L50.8708 47.1243C50.7942 47.1987 50.7591 47.306 50.7771 47.4112L51.1912 49.8291C51.3215 50.5863 51.0104 51.3518 50.3888 51.8034C49.7672 52.255 48.9431 52.3144 48.2632 51.9566L46.0918 50.8147C45.9973 50.765 45.8843 50.765 45.7898 50.8147L43.6184 51.9566C42.9384 52.3134 42.1149 52.2536 41.4936 51.8022C40.8724 51.3508 40.5611 50.586 40.6904 49.8291L41.1057 47.4112C41.1234 47.306 41.0884 47.1988 41.012 47.1243L39.2547 45.411C38.7055 44.8746 38.5081 44.073 38.7454 43.3428C38.9827 42.6127 39.6137 42.0804 40.3734 41.9694L42.8028 41.6223C42.9083 41.6071 42.9996 41.5409 43.0469 41.4453L44.1332 39.2473C44.4728 38.5578 45.1746 38.1212 45.9431 38.1212C46.7116 38.1212 47.4134 38.5578 47.753 39.2473L48.8393 41.4453C48.8867 41.5408 48.978 41.6069 49.0834 41.6223L51.5128 41.9694ZM49.6919 45.9108L51.4492 44.1986H51.4538C51.5422 44.1122 51.574 43.9831 51.5357 43.8655C51.4974 43.748 51.3957 43.6623 51.2734 43.6445L48.8439 43.2974C48.1869 43.2019 47.6189 42.7892 47.325 42.1938L46.2387 39.9958C46.183 39.8873 46.0714 39.8191 45.9495 39.8191C45.8276 39.8191 45.7159 39.8873 45.6603 39.9958L44.574 42.1938C44.2799 42.7895 43.7114 43.2023 43.0538 43.2974L40.6244 43.6445C40.5023 43.6627 40.401 43.7485 40.3629 43.866C40.3249 43.9835 40.3568 44.1124 40.4451 44.1986L42.2024 45.9108C42.6774 46.3747 42.8937 47.0427 42.7808 47.697L42.3655 50.1148C42.3428 50.2373 42.392 50.3619 42.4923 50.4358C42.5925 50.5097 42.7261 50.5198 42.8364 50.4619L45.0078 49.3201C45.5958 49.0107 46.2985 49.0107 46.8865 49.3201L49.058 50.4619C49.1682 50.5198 49.3018 50.5097 49.4021 50.4358C49.5023 50.3619 49.5515 50.2373 49.5288 50.1148L49.1135 47.697C49.0006 47.0427 49.2169 46.3747 49.6919 45.9108Z" fill="black"/>
<path fill-rule="evenodd" clip-rule="evenodd" d="M51.6157 34.6984V18.7256C51.6157 18.2579 51.2366 17.8788 50.7689 17.8788C50.3012 17.8788 49.9221 18.2579 49.9221 18.7256V33.9349C49.2361 33.6903 48.5289 33.5099 47.8097 33.3958V9.56444H48.5038C49.2885 9.56571 49.9243 10.2015 49.9256 10.9862V14.7437C49.9256 15.2114 50.3047 15.5905 50.7724 15.5905C51.2401 15.5905 51.6192 15.2114 51.6192 14.7437V10.9978C51.6148 9.27903 50.2225 7.88681 48.5038 7.88236H47.8097V7.08297C47.8027 5.36601 46.4112 3.9766 44.6942 3.97216H40.2149V3.02006C40.2149 1.43842 38.9327 0.15625 37.351 0.15625C35.7694 0.15625 34.4872 1.43842 34.4872 3.02006V3.97216H26.7686V3.02006C26.7686 1.99692 26.2228 1.0515 25.3367 0.539928C24.4507 0.0283572 23.359 0.0283572 22.4729 0.539928C21.5869 1.0515 21.041 1.99692 21.041 3.02006V3.97216H13.3224V3.02006C13.3224 1.43842 12.0403 0.15625 10.4586 0.15625C8.87698 0.15625 7.5948 1.43842 7.5948 3.02006V3.97216H3.11543C1.39847 3.9766 0.00698931 5.36601 0 7.08297V44.5445C0.00445029 46.2633 1.39667 47.6555 3.11543 47.6599H3.80955V48.4593C3.814 50.1781 5.20622 51.5703 6.92498 51.5747H35.9368C38.6201 55.7604 43.6238 57.8353 48.4817 56.7768C53.3396 55.7183 57.0265 51.7498 57.7253 46.8273C58.424 41.9048 55.9872 37.067 51.6157 34.6984ZM36.1809 3.02006C36.1809 2.3738 36.7048 1.8499 37.351 1.8499C37.9973 1.8499 38.5212 2.3738 38.5212 3.02006V6.60634C38.5206 7.25221 37.9975 7.77581 37.3516 7.77708C36.7058 7.77581 36.1827 7.25221 36.182 6.60634L36.1809 3.02006ZM23.9048 1.8499C23.2586 1.8499 22.7347 2.3738 22.7347 3.02006V6.60634C22.7347 7.2526 23.2586 7.7765 23.9048 7.7765C24.5511 7.7765 25.075 7.2526 25.075 6.60634V3.02006C25.075 2.3738 24.5511 1.8499 23.9048 1.8499ZM9.28845 3.02006C9.28845 2.3738 9.81235 1.8499 10.4586 1.8499C11.1049 1.8499 11.6288 2.3738 11.6288 3.02006V6.60634C11.6288 7.2526 11.1049 7.7765 10.4586 7.7765C9.81235 7.7765 9.28845 7.2526 9.28845 6.60634V3.02006ZM3.11543 5.66002C2.33028 5.6613 1.69428 6.29781 1.69365 7.08297V11.796H46.116V7.08181C46.1147 6.29711 45.4789 5.6613 44.6942 5.66002H40.2149V6.60634C40.2149 8.18798 38.9327 9.47015 37.351 9.47015C35.7694 9.47015 34.4872 8.18798 34.4872 6.60634V5.66002H26.7686V6.60634C26.7686 7.62948 26.2228 8.5749 25.3367 9.08647C24.4507 9.59805 23.359 9.59805 22.4729 9.08647C21.5869 8.5749 21.041 7.62948 21.041 6.60634V5.66002H13.3224V6.60634C13.3224 8.18798 12.0403 9.47015 10.4586 9.47015C8.87698 9.47015 7.5948 8.18798 7.5948 6.60634V5.66002H3.11543ZM6.92151 49.8869C6.13681 49.8856 5.501 49.2498 5.49973 48.4651V47.6657H13.651C14.1187 47.6657 14.4978 47.2866 14.4978 46.8189C14.4978 46.3512 14.1187 45.9721 13.651 45.9721H3.11543C2.33073 45.9708 1.69492 45.335 1.69365 44.5503V13.4908H46.1172V33.257H45.946C39.3782 33.2665 34.0565 38.5887 34.0476 45.1565C34.0476 45.4295 34.058 45.7014 34.0754 45.9663H17.5751C17.1074 45.9663 16.7282 46.3454 16.7282 46.8131C16.7282 47.2808 17.1074 47.6599 17.5751 47.6599H34.3137C34.4787 48.4226 34.7189 49.167 35.031 49.8823H6.92151V49.8869ZM35.7401 45.158C35.7403 50.7938 40.3091 55.3623 45.9448 55.3623V55.3577C51.5767 55.3513 56.1412 50.7884 56.1495 45.1565C56.1488 39.5207 51.5798 34.9525 45.944 34.9529C40.3083 34.9534 35.7399 39.5223 35.7401 45.158Z" fill="black"/>
<path fill-rule="evenodd" clip-rule="evenodd" d="M5.47546 20.0214C5.47546 18.0228 7.0956 16.4027 9.09413 16.4027C11.0919 16.4046 12.7109 18.0236 12.7128 20.0214C12.7128 22.0199 11.0927 23.64 9.09413 23.64C7.0956 23.64 5.47546 22.0199 5.47546 20.0214ZM7.16911 20.0214C7.16911 21.0845 8.03097 21.9464 9.09413 21.9464C10.1568 21.9451 11.0179 21.084 11.0192 20.0214C11.0192 18.9582 10.1573 18.0964 9.09413 18.0964C8.03097 18.0964 7.16911 18.9582 7.16911 20.0214Z" fill="black"/>
<path fill-rule="evenodd" clip-rule="evenodd" d="M22.3111 21.4049C21.751 22.7571 20.4315 23.6388 18.9679 23.6388C16.9702 23.6369 15.3512 22.0179 15.3492 20.0201C15.3492 18.5565 16.2309 17.237 17.5831 16.6769C18.9353 16.1168 20.4918 16.4264 21.5267 17.4614C22.5616 18.4963 22.8712 20.0527 22.3111 21.4049ZM20.8929 20.0201C20.8929 18.957 20.0311 18.0951 18.9679 18.0951V18.0963C17.9057 18.0976 17.0448 18.958 17.0429 20.0201C17.0429 21.0833 17.9048 21.9452 18.9679 21.9452C20.0311 21.9452 20.8929 21.0833 20.8929 20.0201Z" fill="black"/>
<path fill-rule="evenodd" clip-rule="evenodd" d="M32.4616 20.0202C32.4616 22.0187 30.8414 23.6388 28.8429 23.6388C26.8452 23.6369 25.2262 22.0179 25.2242 20.0202C25.2242 18.0216 26.8444 16.4015 28.8429 16.4015C30.8414 16.4015 32.4616 18.0216 32.4616 20.0202ZM30.7679 20.0202C30.7679 18.957 29.9061 18.0951 28.8429 18.0951V18.0963C27.7807 18.0976 26.9198 18.958 26.9179 20.0202C26.9179 21.0833 27.7798 21.9452 28.8429 21.9452C29.9061 21.9452 30.7679 21.0833 30.7679 20.0202Z" fill="black"/>
<path fill-rule="evenodd" clip-rule="evenodd" d="M42.3377 20.0202C42.3377 22.0187 40.7175 23.6388 38.719 23.6388C36.7213 23.6369 35.1023 22.0179 35.1003 20.0202C35.1003 18.0216 36.7205 16.4015 38.719 16.4015C40.7175 16.4015 42.3377 18.0216 42.3377 20.0202ZM40.644 20.0202C40.644 18.957 39.7822 18.0951 38.719 18.0951V18.0963C37.6568 18.0976 36.7959 18.958 36.794 20.0202C36.794 21.0833 37.6558 21.9452 38.719 21.9452C39.7822 21.9452 40.644 21.0833 40.644 20.0202Z" fill="black"/>
<path fill-rule="evenodd" clip-rule="evenodd" d="M5.47546 29.7285C5.47546 27.73 7.0956 26.1099 9.09413 26.1099C11.0919 26.1118 12.7109 27.7308 12.7128 29.7285C12.7128 31.7271 11.0927 33.3472 9.09413 33.3472C7.0956 33.3472 5.47546 31.7271 5.47546 29.7285ZM7.16911 29.7285C7.16911 30.7917 8.03097 31.6535 9.09413 31.6535C10.1568 31.6523 11.0179 30.7912 11.0192 29.7285C11.0192 28.6654 10.1573 27.8035 9.09413 27.8035C8.03097 27.8035 7.16911 28.6654 7.16911 29.7285Z" fill="black"/>
<path fill-rule="evenodd" clip-rule="evenodd" d="M22.3111 31.1122C21.751 32.4644 20.4315 33.3461 18.9679 33.3461C16.9702 33.3442 15.3512 31.7252 15.3492 29.7274C15.3492 28.2638 16.2309 26.9443 17.5831 26.3842C18.9353 25.8241 20.4918 26.1337 21.5267 27.1686C22.5616 28.2036 22.8712 29.76 22.3111 31.1122ZM20.8929 29.7274C20.8929 28.6643 20.0311 27.8024 18.9679 27.8024V27.8036C17.9057 27.8048 17.0448 28.6652 17.0429 29.7274C17.0429 30.7906 17.9048 31.6524 18.9679 31.6524C20.0311 31.6524 20.8929 30.7906 20.8929 29.7274Z" fill="black"/>
<path fill-rule="evenodd" clip-rule="evenodd" d="M32.4616 29.7274C32.4616 31.726 30.8414 33.3461 28.8429 33.3461C26.8452 33.3442 25.2262 31.7252 25.2242 29.7274C25.2242 27.7289 26.8444 26.1088 28.8429 26.1088C30.8414 26.1088 32.4616 27.7289 32.4616 29.7274ZM30.7679 29.7274C30.7679 28.6643 29.9061 27.8024 28.8429 27.8024V27.8036C27.7807 27.8048 26.9198 28.6653 26.9179 29.7274C26.9179 30.7906 27.7798 31.6525 28.8429 31.6525C29.9061 31.6525 30.7679 30.7906 30.7679 29.7274Z" fill="black"/>
<path fill-rule="evenodd" clip-rule="evenodd" d="M42.3377 29.7274C42.3377 31.726 40.7175 33.3461 38.719 33.3461C36.7213 33.3442 35.1023 31.7252 35.1003 29.7274C35.1003 27.7289 36.7205 26.1088 38.719 26.1088C40.7175 26.1088 42.3377 27.7289 42.3377 29.7274ZM40.644 29.7274C40.644 28.6643 39.7822 27.8024 38.719 27.8024V27.8036C37.6568 27.8048 36.7959 28.6653 36.794 29.7274C36.794 30.7906 37.6558 31.6525 38.719 31.6525C39.7822 31.6525 40.644 30.7906 40.644 29.7274Z" fill="black"/>
<path fill-rule="evenodd" clip-rule="evenodd" d="M5.7509 38.0521C6.311 36.6999 7.6305 35.8182 9.09411 35.8182C11.0919 35.8202 12.7109 37.4392 12.7128 39.4369C12.7128 40.9005 11.8311 42.22 10.4789 42.7801C9.12671 43.3402 7.57026 43.0306 6.53533 41.9957C5.5004 40.9608 5.1908 39.4043 5.7509 38.0521ZM7.16909 39.4369C7.16909 40.5001 8.03096 41.3619 9.09411 41.3619C10.1567 41.3606 11.0179 40.4995 11.0191 39.4369C11.0191 38.3737 10.1573 37.5119 9.09411 37.5119C8.03096 37.5119 7.16909 38.3737 7.16909 39.4369Z" fill="black"/>
<path fill-rule="evenodd" clip-rule="evenodd" d="M20.3527 36.0937C21.7049 36.6538 22.5866 37.9733 22.5866 39.4369C22.5846 41.4346 20.9656 43.0536 18.9679 43.0556C17.5043 43.0556 16.1848 42.1739 15.6247 40.8217C15.0646 39.4695 15.3742 37.913 16.4091 36.8781C17.444 35.8432 19.0005 35.5336 20.3527 36.0937ZM18.9679 37.5119C17.9047 37.5119 17.0429 38.3737 17.0429 39.4369H17.044C17.0453 40.4991 17.9057 41.36 18.9679 41.3619C20.0311 41.3619 20.8929 40.5 20.8929 39.4369C20.8929 38.3737 20.0311 37.5119 18.9679 37.5119Z" fill="black"/>
<path fill-rule="evenodd" clip-rule="evenodd" d="M32.1861 40.8206C31.626 42.1728 30.3065 43.0545 28.8429 43.0545C26.8452 43.0525 25.2262 41.4335 25.2242 39.4358C25.2242 37.9722 26.1059 36.6527 27.4581 36.0926C28.8103 35.5325 30.3668 35.8421 31.4017 36.877C32.4366 37.9119 32.7462 39.4684 32.1861 40.8206ZM30.7679 39.4358C30.7679 38.3726 29.9061 37.5108 28.8429 37.5108V37.5119C27.7807 37.5132 26.9198 38.3736 26.9179 39.4358C26.9179 40.4989 27.7798 41.3608 28.8429 41.3608C29.9061 41.3608 30.7679 40.4989 30.7679 39.4358Z" fill="black"/>
</svg>
