<svg width="162" height="24" viewBox="0 0 162 24" fill="none" xmlns="http://www.w3.org/2000/svg">
<path d="M16.019 17.0171C16.019 18.1331 15.74 19.1664 15.182 20.1171C14.624 21.0471 13.7973 21.8014 12.702 22.3801C11.6067 22.9381 10.2737 23.2171 8.703 23.2171C7.153 23.2171 5.76834 22.9587 4.549 22.4421C3.32967 21.9047 2.348 21.1401 1.604 20.1481C0.880669 19.1561 0.467335 17.9987 0.364002 16.6761H5.014C5.11734 17.5647 5.46867 18.3087 6.068 18.9081C6.688 19.4867 7.50434 19.7761 8.517 19.7761C9.42634 19.7761 10.1187 19.5384 10.594 19.0631C11.09 18.5671 11.338 17.9367 11.338 17.1721C11.338 16.4901 11.1417 15.9321 10.749 15.4981C10.3563 15.0434 9.86034 14.6817 9.261 14.4131C8.66167 14.1444 7.835 13.8344 6.781 13.4831C5.417 13.0284 4.301 12.5841 3.433 12.1501C2.565 11.6954 1.821 11.0444 1.201 10.1971C0.601669 9.34972 0.302002 8.24406 0.302002 6.88006C0.302002 4.99939 0.973669 3.52173 2.317 2.44706C3.681 1.35172 5.479 0.804058 7.711 0.804058C10.0257 0.804058 11.865 1.36206 13.229 2.47806C14.6137 3.59406 15.399 5.08206 15.585 6.94206H10.873C10.749 6.15672 10.4183 5.51606 9.881 5.02006C9.34367 4.50339 8.61 4.24506 7.68 4.24506C6.874 4.24506 6.223 4.46206 5.727 4.89606C5.231 5.30939 4.983 5.91906 4.983 6.72506C4.983 7.36572 5.169 7.90306 5.541 8.33706C5.93367 8.75039 6.41934 9.09139 6.998 9.36006C7.59734 9.62872 8.40334 9.92839 9.416 10.2591C10.8213 10.7551 11.958 11.2201 12.826 11.6541C13.7147 12.0881 14.469 12.7391 15.089 13.6071C15.709 14.4751 16.019 15.6117 16.019 17.0171Z" fill="#3670FF"/>
<path d="M28.9748 19.2491V23.0001H26.6808C24.7588 23.0001 23.2811 22.5351 22.2478 21.6051C21.2351 20.6751 20.7288 19.1251 20.7288 16.9551V9.51506H18.3418V5.82606H20.7288V1.57906H25.0998V5.82606H28.9438V9.51506H25.0998V17.0171C25.0998 17.8437 25.2651 18.4224 25.5958 18.7531C25.9265 19.0837 26.4845 19.2491 27.2698 19.2491H28.9748Z" fill="#3670FF"/>
<path d="M39.407 5.60906C40.8537 5.60906 42.0937 5.95006 43.127 6.63206C44.1604 7.31406 44.894 8.23372 45.328 9.39106V5.82606H49.668V23.0001H45.328V19.4041C44.894 20.5614 44.1604 21.4914 43.127 22.1941C42.0937 22.8761 40.8537 23.2171 39.407 23.2171C37.9604 23.2171 36.6584 22.8657 35.501 22.1631C34.3437 21.4604 33.4344 20.4477 32.773 19.1251C32.1324 17.7817 31.812 16.2111 31.812 14.4131C31.812 12.6151 32.1324 11.0547 32.773 9.73206C33.4344 8.38872 34.3437 7.36573 35.501 6.66306C36.6584 5.96039 37.9604 5.60906 39.407 5.60906ZM40.771 9.42206C39.407 9.42206 38.3117 9.86639 37.485 10.7551C36.6584 11.6437 36.245 12.8631 36.245 14.4131C36.245 15.9631 36.6584 17.1824 37.485 18.0711C38.3117 18.9391 39.407 19.3731 40.771 19.3731C42.0937 19.3731 43.1787 18.9287 44.026 18.0401C44.894 17.1307 45.328 15.9217 45.328 14.4131C45.328 12.8837 44.894 11.6747 44.026 10.7861C43.1787 9.87673 42.0937 9.42206 40.771 9.42206Z" fill="#3670FF"/>
<path d="M58.5602 9.11206C59.2008 8.01672 60.0482 7.15906 61.1022 6.53906C62.1562 5.89839 63.3342 5.57806 64.6362 5.57806V10.2591H63.3652C60.1618 10.2591 58.5602 11.7471 58.5602 14.7231V23.0001H54.1892V5.82606H58.5602V9.11206Z" fill="#3670FF"/>
<path d="M77.8763 5.60906C79.323 5.60906 80.625 5.96039 81.7823 6.66306C82.9397 7.36573 83.8386 8.38872 84.4793 9.73206C85.1407 11.0547 85.4713 12.6151 85.4713 14.4131C85.4713 16.2111 85.1407 17.7817 84.4793 19.1251C83.8386 20.4477 82.9397 21.4604 81.7823 22.1631C80.625 22.8657 79.323 23.2171 77.8763 23.2171C76.4297 23.2171 75.1897 22.8761 74.1563 22.1941C73.1437 21.4914 72.4203 20.5614 71.9863 19.4041V23.0001H67.6153V0.0600586H71.9863V9.39106C72.4203 8.23372 73.1437 7.31406 74.1563 6.63206C75.1897 5.95006 76.4297 5.60906 77.8763 5.60906ZM76.5123 9.42206C75.1896 9.42206 74.0943 9.87673 73.2263 10.7861C72.379 11.6747 71.9553 12.8837 71.9553 14.4131C71.9553 15.9217 72.379 17.1307 73.2263 18.0401C74.0943 18.9287 75.1896 19.3731 76.5123 19.3731C77.8763 19.3731 78.9717 18.9391 79.7983 18.0711C80.625 17.1824 81.0383 15.9631 81.0383 14.4131C81.0383 12.8631 80.625 11.6437 79.7983 10.7551C78.9717 9.86639 77.8763 9.42206 76.5123 9.42206Z" fill="#3670FF"/>
<path d="M97.0605 5.60906C98.7345 5.60906 100.233 5.96039 101.555 6.66306C102.899 7.36573 103.953 8.38872 104.717 9.73206C105.482 11.0547 105.864 12.6151 105.864 14.4131C105.864 16.2111 105.482 17.7714 104.717 19.0941C103.953 20.4167 102.899 21.4397 101.555 22.1631C100.233 22.8657 98.7345 23.2171 97.0605 23.2171C95.3865 23.2171 93.8778 22.8657 92.5345 22.1631C91.2118 21.4397 90.1681 20.4167 89.4035 19.0941C88.6388 17.7714 88.2565 16.2111 88.2565 14.4131C88.2565 12.6151 88.6388 11.0547 89.4035 9.73206C90.1681 8.38872 91.2118 7.36573 92.5345 6.66306C93.8778 5.96039 95.3865 5.60906 97.0605 5.60906ZM97.0605 9.39106C95.8411 9.39106 94.8078 9.82506 93.9605 10.6931C93.1131 11.5404 92.6895 12.7804 92.6895 14.4131C92.6895 16.0457 93.1131 17.2961 93.9605 18.1641C94.8078 19.0114 95.8411 19.4351 97.0605 19.4351C98.2798 19.4351 99.3131 19.0114 100.16 18.1641C101.008 17.2961 101.431 16.0457 101.431 14.4131C101.431 12.7804 101.008 11.5404 100.16 10.6931C99.3131 9.82506 98.2798 9.39106 97.0605 9.39106Z" fill="#3670FF"/>
<path d="M116.24 5.60906C117.687 5.60906 118.927 5.95006 119.96 6.63206C120.994 7.31406 121.727 8.23372 122.161 9.39106V5.82606H126.501V23.0001H122.161V19.4041C121.727 20.5614 120.994 21.4914 119.96 22.1941C118.927 22.8761 117.687 23.2171 116.24 23.2171C114.794 23.2171 113.492 22.8657 112.334 22.1631C111.177 21.4604 110.268 20.4477 109.606 19.1251C108.966 17.7817 108.645 16.2111 108.645 14.4131C108.645 12.6151 108.966 11.0547 109.606 9.73206C110.268 8.38872 111.177 7.36573 112.334 6.66306C113.492 5.96039 114.794 5.60906 116.24 5.60906ZM117.604 9.42206C116.24 9.42206 115.145 9.86639 114.318 10.7551C113.492 11.6437 113.078 12.8631 113.078 14.4131C113.078 15.9631 113.492 17.1824 114.318 18.0711C115.145 18.9391 116.24 19.3731 117.604 19.3731C118.927 19.3731 120.012 18.9287 120.859 18.0401C121.727 17.1307 122.161 15.9217 122.161 14.4131C122.161 12.8837 121.727 11.6747 120.859 10.7861C120.012 9.87673 118.927 9.42206 117.604 9.42206Z" fill="#3670FF"/>
<path d="M135.394 9.11206C136.034 8.01672 136.882 7.15906 137.936 6.53906C138.99 5.89839 140.168 5.57806 141.47 5.57806V10.2591H140.199C136.995 10.2591 135.394 11.7471 135.394 14.7231V23.0001H131.023V5.82606H135.394V9.11206Z" fill="#3670FF"/>
<path d="M151.176 5.60906C152.622 5.60906 153.852 5.95006 154.865 6.63206C155.898 7.31406 156.642 8.23372 157.097 9.39106V0.0600586H161.437V23.0001H157.097V19.4041C156.642 20.5614 155.898 21.4914 154.865 22.1941C153.852 22.8761 152.622 23.2171 151.176 23.2171C149.729 23.2171 148.427 22.8657 147.27 22.1631C146.112 21.4604 145.203 20.4477 144.542 19.1251C143.901 17.7817 143.581 16.2111 143.581 14.4131C143.581 12.6151 143.901 11.0547 144.542 9.73206C145.203 8.38872 146.112 7.36573 147.27 6.66306C148.427 5.96039 149.729 5.60906 151.176 5.60906ZM152.54 9.42206C151.176 9.42206 150.08 9.86639 149.254 10.7551C148.427 11.6437 148.014 12.8631 148.014 14.4131C148.014 15.9631 148.427 17.1824 149.254 18.0711C150.08 18.9391 151.176 19.3731 152.54 19.3731C153.862 19.3731 154.947 18.9287 155.795 18.0401C156.663 17.1307 157.097 15.9217 157.097 14.4131C157.097 12.8837 156.663 11.6747 155.795 10.7861C154.947 9.87673 153.862 9.42206 152.54 9.42206Z" fill="#3670FF"/>
</svg>
