<svg width="79" height="81" viewBox="0 0 79 81" fill="none" xmlns="http://www.w3.org/2000/svg">
<path d="M47.2965 39.9653C47.2995 42.0018 46.7457 44.0004 45.6951 45.745H40.4195C40.0256 45.7447 39.648 45.5879 39.3698 45.309C39.0917 45.0301 38.9358 44.6521 38.9367 44.2582V40.2718C38.9367 38.726 37.6835 37.4729 36.1377 37.4729C34.5919 37.4729 33.3387 38.726 33.3387 40.2718V50.8333C27.6859 49.4026 24.0745 43.8763 25.0337 38.1246C25.9929 32.3729 31.2022 28.3176 37.0134 28.7987C42.8247 29.2798 47.2962 34.1366 47.2965 39.9677V39.9653Z" fill="#13BF6D"/>
<path d="M50.5174 55.5836H32.9794C32.0955 55.5836 31.3789 56.3002 31.3789 57.1842V62.2402H52.1211V57.1842C52.119 56.2999 51.4017 55.5841 50.5174 55.5836Z" fill="white"/>
<path d="M53.0194 62.2385H30.4815C29.9356 62.2385 29.4932 62.681 29.4932 63.2268V80.0009H54.0116V63.2268C54.0116 62.964 53.9069 62.7121 53.7207 62.5266C53.5345 62.3411 53.2822 62.2375 53.0194 62.2385Z" fill="#72C1E8"/>
<path d="M47.3709 45.7449H40.4189C40.025 45.7447 39.6474 45.5879 39.3692 45.309C39.0911 45.0301 38.9352 44.652 38.9361 44.2581V40.2694C38.9361 39.2695 38.4026 38.3454 37.5366 37.8454C36.6706 37.3455 35.6036 37.3455 34.7376 37.8454C33.8716 38.3454 33.3381 39.2695 33.3381 40.2694V55.5852H50.1651V48.5415C50.1662 47.7999 49.8722 47.0883 49.348 46.5637C48.8238 46.0391 48.1125 45.7445 47.3709 45.7449Z" fill="#FFB69F"/>
<path fill-rule="evenodd" clip-rule="evenodd" d="M49.7179 70.0729C49.7179 70.5127 50.0744 70.8693 50.5142 70.8693C50.7261 70.8703 50.9296 70.7869 51.0798 70.6374C51.23 70.488 51.3145 70.2848 51.3145 70.0729V65.8172C51.3145 65.6053 51.23 65.4022 51.0798 65.2527C50.9296 65.1033 50.7261 65.0198 50.5142 65.0209H32.9904C32.5506 65.0209 32.1941 65.3774 32.1941 65.8172C32.1941 66.257 32.5506 66.6135 32.9904 66.6135H49.7179V70.0729ZM49.7179 74.2149C49.7179 74.6547 50.0744 75.0112 50.5142 75.0112C50.954 75.0112 51.3105 74.6547 51.3105 74.2149V73.259C51.3105 72.8192 50.954 72.4627 50.5142 72.4627C50.0744 72.4627 49.7179 72.8192 49.7179 73.259V74.2149Z" fill="#C5E5FF"/>
<path d="M11.0063 13.7009C11.0063 16.5204 5.90137 24.0957 5.90137 24.0957C5.90137 24.0957 0.796387 16.5204 0.796387 13.7009C0.796387 10.8815 3.08196 8.59595 5.90137 8.59595C8.72077 8.59595 11.0063 10.8815 11.0063 13.7009Z" fill="#FC5D3D"/>
<circle cx="7.57691" cy="61.5529" r="5.96924" fill="#F0C020"/>
<path d="M77.1972 50.007L72.5118 54.6925L67.8263 50.007C66.8225 48.9836 66.8304 47.3427 67.844 46.3291C68.8576 45.3155 70.4985 45.3076 71.5219 46.3114L72.5118 47.3012L73.5016 46.3114C74.525 45.3076 76.1659 45.3155 77.1795 46.3291C78.1931 47.3427 78.201 48.9836 77.1972 50.007Z" fill="#FC5D3D"/>
<path d="M39.346 2.05709L40.6661 3.90806L42.8781 4.61906C43.2247 4.73278 43.4945 5.00759 43.6019 5.35618C43.7093 5.70477 43.6409 6.0838 43.4185 6.37286L42.0439 8.15668L42.0857 10.4872C42.0922 10.857 41.9163 11.2064 41.6154 11.4214C41.3145 11.6365 40.927 11.6898 40.5792 11.5639L38.428 10.7842L36.2769 11.5639C35.9291 11.6898 35.5416 11.6365 35.2407 11.4214C34.9397 11.2064 34.7639 10.857 34.7703 10.4872L34.8122 8.15668L33.44 6.37286C33.2166 6.08297 33.1483 5.7025 33.257 5.35304C33.3656 5.00358 33.6375 4.72887 33.9859 4.61669L36.1979 3.90569L37.518 2.05472C37.7294 1.76017 38.07 1.58571 38.4326 1.58618C38.7952 1.58665 39.1353 1.76199 39.346 2.05709Z" fill="#F0C020"/>
<circle cx="70.9641" cy="14.2808" r="3.71853" fill="#FFB69F"/>
<path d="M72.3324 17.9993H69.5959C68.0386 17.9988 66.545 18.6173 65.4438 19.7185C64.3426 20.8196 63.7242 22.3133 63.7246 23.8705V26.818H78.2037V23.8705C78.2039 22.3133 77.5854 20.8198 76.4843 19.7187C75.3832 18.6176 73.8897 17.9991 72.3324 17.9993V17.9993Z" fill="#72C1E8"/>
<path d="M43.2161 43.0012C43.6365 43.1302 44.0819 42.8944 44.2115 42.4743C45.3859 38.6624 43.7506 34.5468 40.2802 32.5804C36.8098 30.6141 32.4389 31.3266 29.7726 34.2931C27.1062 37.2597 26.8625 41.6816 29.1865 44.9233C29.3509 45.1583 29.6289 45.2868 29.9144 45.2597C30.1999 45.2326 30.4488 45.0541 30.5659 44.7923C30.6831 44.5306 30.6505 44.2261 30.4806 43.9951C28.5904 41.3611 28.7873 37.7669 30.9539 35.3552C33.1204 32.9436 36.673 32.364 39.4937 33.962C42.3144 35.5601 43.6434 38.9054 42.6884 42.0035C42.6263 42.2054 42.6469 42.4236 42.7457 42.6103C42.8445 42.797 43.0135 42.9368 43.2154 42.9989L43.2161 43.0012Z" fill="black"/>
<path d="M54.01 72.8324C53.5725 72.8355 53.2195 73.1912 53.22 73.6287V80.0009C53.22 80.4407 53.5765 80.7972 54.0163 80.7972C54.4561 80.7972 54.8126 80.4407 54.8126 80.0009V73.6287C54.8124 73.4165 54.7276 73.2131 54.5769 73.0636C54.4262 72.9142 54.2222 72.8309 54.01 72.8324Z" fill="black"/>
<circle cx="54.0099" cy="70.4427" r="0.79632" fill="black"/>
<path d="M43.5307 31.5471C43.6606 31.3802 43.7182 31.1682 43.6906 30.9586C43.6629 30.7489 43.5524 30.5591 43.3838 30.4316C43.0317 30.173 42.5384 30.2378 42.2651 30.5785C42.0862 30.8039 42.0429 31.1082 42.1516 31.3746C42.2604 31.641 42.5044 31.828 42.7899 31.8637C43.0754 31.8995 43.358 31.7784 43.5291 31.5471H43.5307Z" fill="black"/>
<path d="M6.69762 13.701V13.2088C6.69762 12.769 6.3411 12.4125 5.9013 12.4125C5.46151 12.4125 5.10498 12.769 5.10498 13.2088V13.701C5.10498 14.1408 5.46151 14.4973 5.9013 14.4973C6.3411 14.4973 6.69762 14.1408 6.69762 13.701Z" fill="black"/>
<path d="M9.4058 59.1378L7.66148 60.4808L6.16917 58.9008C5.97372 58.6939 5.68274 58.607 5.40585 58.6729C5.12896 58.7387 4.90822 58.9472 4.82678 59.2199C4.74534 59.4926 4.81558 59.7881 5.01103 59.995L6.99788 62.0972C7.27871 62.3943 7.73897 62.4305 8.0628 62.1809L10.3775 60.3971C10.6033 60.2234 10.7193 59.9424 10.6817 59.66C10.6442 59.3776 10.4588 59.1367 10.1955 59.028C9.93212 58.9193 9.6308 58.9594 9.40501 59.1331L9.4058 59.1378Z" fill="black"/>
<path fill-rule="evenodd" clip-rule="evenodd" d="M64.2009 50.3277H60.0558L48.0865 39.6042C48.0539 38.4359 47.8503 37.2786 47.4822 36.1693L56.1722 23.4156H60.5772C61.017 23.4156 61.3735 23.059 61.3735 22.6192C61.3735 22.1794 61.017 21.8229 60.5772 21.8229H55.7503C55.487 21.8229 55.2406 21.953 55.0922 22.1705L46.7419 34.4258C46.4567 33.8796 46.13 33.3562 45.7647 32.86C45.497 32.5166 45.0081 32.4411 44.6492 32.6878C44.2966 32.9504 44.2212 33.448 44.4802 33.8033C45.7976 35.5871 46.5059 37.7477 46.5002 39.9653C46.4993 41.7056 46.0648 43.4182 45.2362 44.9486H40.4172C40.0398 44.9443 39.7353 44.6387 39.7323 44.2613V40.2678C39.6913 38.312 38.094 36.7479 36.1378 36.7479C34.1815 36.7479 32.5843 38.312 32.5433 40.2678V49.7573C29.0346 48.4706 26.4845 45.4025 25.8609 41.7177C25.2374 38.0329 26.6362 34.2966 29.5262 31.9271C32.4161 29.5577 36.3542 28.9185 39.8452 30.2522C40.2536 30.4006 40.7063 30.2011 40.8722 29.7996C40.951 29.6024 40.947 29.3818 40.8613 29.1875C40.7755 28.9932 40.6152 28.8417 40.4164 28.767C39.7669 28.5172 39.0968 28.3244 38.4138 28.1911L38.9336 15.3283C38.9513 14.8888 38.6092 14.5181 38.1697 14.5004C37.7301 14.4827 37.3594 14.8248 37.3417 15.2643L36.8274 27.9897C34.5455 27.843 32.2695 28.3552 30.2704 29.4654L19.4814 15.3315C19.3316 15.1333 19.0978 15.0165 18.8494 15.0155H14.2461C13.8063 15.0155 13.4498 15.372 13.4498 15.8118C13.4498 16.2516 13.8063 16.6081 14.2461 16.6081H18.4544L28.9306 30.3296C26.3191 32.266 24.6079 35.1816 24.1906 38.4058L16.6982 32.5108C16.5578 32.4002 16.3841 32.34 16.2053 32.3402H12.8083C12.3685 32.3402 12.012 32.6967 12.012 33.1365C12.012 33.5763 12.3685 33.9328 12.8083 33.9328H15.9312L24.0982 40.3563C24.1541 42.2123 24.6441 44.0294 25.5289 45.662L18.4402 55.8403H15.2383C14.7985 55.8403 14.442 56.1968 14.442 56.6366C14.442 57.0764 14.7985 57.433 15.2383 57.433H18.8557C19.1162 57.4329 19.3602 57.3055 19.5091 57.0917L26.4571 47.1203C27.9783 49.1646 30.1077 50.6749 32.5401 51.4345V54.8315C31.4089 55.0452 30.5888 56.0321 30.5857 57.1833V61.4414H30.4814C29.4971 61.4436 28.6997 62.241 28.6976 63.2252V80.0001C28.6976 80.4399 29.0541 80.7964 29.4939 80.7964C29.9337 80.7964 30.2902 80.4399 30.2902 80.0001V63.2268C30.2906 63.1214 30.376 63.0361 30.4814 63.0356H53.0224C53.1278 63.0361 53.2132 63.1214 53.2136 63.2268V67.2558C53.2136 67.6958 53.5703 68.0525 54.0103 68.0525C54.4504 68.0525 54.8071 67.6958 54.8071 67.2558V63.2268C54.8062 62.242 54.008 61.4439 53.0232 61.443H52.9205V57.1833C52.918 56.0306 52.0966 55.0423 50.9637 54.8291V48.5399C50.9611 46.5576 49.3547 44.9512 47.3724 44.9486H47.0082C47.4887 43.899 47.8149 42.7854 47.9767 41.6424L59.2216 51.7181C59.3677 51.849 59.5571 51.9213 59.7532 51.9211H64.2025C64.6423 51.9211 64.9988 51.5646 64.9988 51.1248C64.9988 50.685 64.6423 50.3285 64.2025 50.3285L64.2009 50.3277ZM51.3263 57.1833V61.4414H32.1791V57.1833C32.18 56.7397 32.5396 56.3803 32.9833 56.3799H50.5213C50.9646 56.3816 51.3237 56.7401 51.3263 57.1833ZM49.3695 54.7865V48.5399C49.3686 47.436 48.4739 46.5413 47.37 46.5404H40.418C39.1588 46.5378 38.1393 45.5165 38.1388 44.2573V40.2686C38.1266 39.1775 37.2429 38.2972 36.1517 38.2892C35.0606 38.2812 34.164 39.1486 34.1359 40.2394V54.7865H49.3695Z" fill="black"/>
<path fill-rule="evenodd" clip-rule="evenodd" d="M72.5116 46.1747L72.9382 45.7481H72.9446C74.2879 44.4957 76.3819 44.5324 77.6806 45.8311C78.9793 47.1297 79.0159 49.2237 77.7636 50.5671L73.0781 55.2526C72.7669 55.5634 72.2627 55.5634 71.9515 55.2526L67.266 50.5671C66.0136 49.2237 66.0503 47.1297 67.349 45.8311C68.6477 44.5324 70.7417 44.4957 72.085 45.7481L72.5116 46.1747ZM72.5116 53.5659L76.6339 49.4437H76.6346C77.3443 48.7341 77.3443 47.5835 76.6346 46.8738C75.925 46.1642 74.7744 46.1642 74.0648 46.8738L73.0749 47.8637C72.9255 48.0132 72.7229 48.0971 72.5116 48.0971C72.3003 48.0971 72.0977 48.0132 71.9484 47.8637L70.9585 46.8738C70.5011 46.4066 69.828 46.2211 69.1958 46.3881C68.5637 46.5552 68.07 47.049 67.9032 47.6812C67.7363 48.3134 67.922 48.9865 68.3894 49.4437L72.5116 53.5659Z" fill="black"/>
<path fill-rule="evenodd" clip-rule="evenodd" d="M0.811279 61.5521C0.811279 57.8155 3.84032 54.7865 7.57684 54.7865C11.3116 54.7909 14.338 57.8173 14.3424 61.5521C14.3424 65.2886 11.3134 68.3176 7.57684 68.3176C3.84032 68.3176 0.811279 65.2886 0.811279 61.5521ZM2.40392 61.5521C2.40392 64.409 4.71991 66.725 7.57684 66.725C10.4325 66.7219 12.7467 64.4077 12.7498 61.5521C12.7498 58.6951 10.4338 56.3791 7.57684 56.3791C4.71991 56.3791 2.40392 58.6951 2.40392 61.5521Z" fill="black"/>
<path d="M2.76185 18.9149C3.04882 18.7682 3.21905 18.463 3.19309 18.1417C3.16712 17.8205 2.95008 17.5466 2.64327 17.4479C2.33647 17.3491 2.00041 17.4451 1.79198 17.6909C1.58354 17.9367 1.54384 18.284 1.6914 18.5705C1.89264 18.9603 2.37105 19.1142 2.76185 18.9149Z" fill="black"/>
<path d="M1.36986 16.0401C1.57079 15.9747 1.73713 15.8315 1.8317 15.6425C1.92626 15.4535 1.94117 15.2345 1.87309 15.0345C1.71493 14.6066 1.62044 14.1578 1.59264 13.7025C1.57161 12.1491 2.38828 10.7047 3.73015 9.92184C5.07202 9.13902 6.73137 9.13902 8.07324 9.92184C9.41511 10.7047 10.2318 12.1491 10.2107 13.7025C10.2487 15.6198 6.95437 21.0021 5.89972 22.6366C5.46285 21.9549 5.03941 21.2636 4.63572 20.5882C4.40285 20.2204 3.92321 20.0987 3.54315 20.3109C3.36003 20.4176 3.2275 20.5935 3.17535 20.799C3.1232 21.0045 3.15582 21.2223 3.26586 21.4034C4.32999 23.1944 5.23454 24.535 5.24086 24.5413C5.38898 24.7613 5.63685 24.8933 5.90209 24.8933C6.16733 24.8933 6.4152 24.7613 6.56332 24.5413C8.01297 22.4138 11.7702 16.3996 11.8042 13.7057C11.8042 11.5971 10.6792 9.64863 8.85314 8.59432C7.02702 7.54001 4.77716 7.54001 2.95105 8.59432C1.12493 9.64863 -3.14208e-08 11.5971 0 13.7057C0.0241479 14.3327 0.14678 14.952 0.3634 15.5408C0.50682 15.9538 0.953408 16.1771 1.36986 16.0441V16.0401Z" fill="black"/>
<path fill-rule="evenodd" clip-rule="evenodd" d="M33.9739 10.4785L34.011 8.42454L32.8055 6.86192C32.4235 6.36646 32.3067 5.71604 32.4923 5.11862C32.678 4.52119 33.1429 4.05158 33.7385 3.85992L35.6969 3.22792L36.8637 1.59183C37.2246 1.08724 37.8068 0.787842 38.4271 0.787842C39.0475 0.787842 39.6297 1.08724 39.9905 1.59183L41.1574 3.22792L43.1158 3.85992C43.7113 4.05158 44.1762 4.52119 44.3619 5.11862C44.5476 5.71604 44.4308 6.36646 44.0488 6.86192L42.8448 8.42454L42.8819 10.4785C42.8929 11.1105 42.5923 11.7074 42.078 12.0749C41.5638 12.4424 40.9017 12.5335 40.3073 12.3185L38.4279 11.6367L36.5485 12.3185C35.9542 12.5335 35.2921 12.4424 34.7778 12.0749C34.2636 11.7074 33.963 11.1105 33.9739 10.4785ZM36.4395 4.6673L34.2275 5.3783L34.2299 5.37988C34.1283 5.41238 34.0491 5.49242 34.0176 5.59426C33.9861 5.6961 34.0064 5.80689 34.0719 5.89101L35.4449 7.67246C35.5551 7.81588 35.6133 7.99248 35.61 8.17332L35.5681 10.5038C35.5653 10.6119 35.6161 10.7145 35.7038 10.7777C35.7916 10.8409 35.9049 10.8567 36.0066 10.8198L38.1577 10.0401C38.333 9.97641 38.5252 9.97641 38.7005 10.0401L40.8516 10.8198C40.9534 10.857 41.067 10.8414 41.1549 10.7781C41.2429 10.7149 41.2938 10.6121 41.2909 10.5038L41.249 8.17332C41.2459 7.99239 41.3044 7.81577 41.4149 7.67246L42.7895 5.88864C42.855 5.80452 42.8752 5.69373 42.8438 5.59189C42.8123 5.49005 42.733 5.41001 42.6315 5.37751L40.4195 4.66651C40.2564 4.61415 40.1145 4.51052 40.015 4.37105L38.6973 2.52087C38.6362 2.4342 38.5367 2.38265 38.4307 2.38265C38.3246 2.38265 38.2252 2.4342 38.1641 2.52087L36.844 4.37184C36.7444 4.51119 36.6025 4.61479 36.4395 4.6673Z" fill="black"/>
<path fill-rule="evenodd" clip-rule="evenodd" d="M74.1519 11.0842C75.9145 12.8442 75.9187 15.6993 74.1613 17.4645C77.0198 18.2847 78.9911 20.8967 78.9961 23.8706V26.8173C78.9961 27.2571 78.6396 27.6136 78.1998 27.6136C77.76 27.6136 77.4034 27.2571 77.4034 26.8173V23.8706C77.4 21.0692 75.1299 18.7991 72.3285 18.7956H69.5919C66.7905 18.7991 64.5204 21.0692 64.517 23.8706V26.8173C64.517 27.2571 64.1604 27.6136 63.7206 27.6136C63.2808 27.6136 62.9243 27.2571 62.9243 26.8173V23.8714C62.9291 20.8963 64.9021 18.2834 67.7623 17.4645C66.0048 15.6993 66.009 12.8442 67.7716 11.0842C69.5343 9.32415 72.3893 9.32415 74.1519 11.0842ZM73.8864 14.2815C73.8864 12.6672 72.5777 11.3585 70.9634 11.3585C69.349 11.3585 68.0404 12.6672 68.0404 14.2815C68.0404 15.8959 69.349 17.2045 70.9634 17.2045C72.5777 17.2045 73.8864 15.8959 73.8864 14.2815Z" fill="black"/>
<path d="M9.41115 32.3402H2.19134C1.75154 32.3402 1.39502 32.6967 1.39502 33.1365C1.39502 33.5763 1.75154 33.9329 2.19134 33.9329H9.41115C9.85095 33.9329 10.2075 33.5763 10.2075 33.1365C10.2075 32.6967 9.85095 32.3402 9.41115 32.3402Z" fill="black"/>
<path d="M9.41115 36.6733H2.19134C1.75154 36.6733 1.39502 37.0299 1.39502 37.4697C1.39502 37.9095 1.75154 38.266 2.19134 38.266H9.41115C9.85095 38.266 10.2075 37.9095 10.2075 37.4697C10.2075 37.0299 9.85095 36.6733 9.41115 36.6733Z" fill="black"/>
<path d="M9.41115 41.0065H2.19134C1.75154 41.0065 1.39502 41.363 1.39502 41.8028C1.39502 42.2426 1.75154 42.5991 2.19134 42.5991H9.41115C9.85095 42.5991 10.2075 42.2426 10.2075 41.8028C10.2075 41.363 9.85095 41.0065 9.41115 41.0065V41.0065Z" fill="black"/>
</svg>
